<svg xmlns="http://www.w3.org/2000/svg" viewBox="0 0 445.88 373.44"><defs><style>.cls-1{fill:#fff;}.cls-1,.cls-2,.cls-3,.cls-4{stroke:#000;stroke-miterlimit:10;}.cls-2{fill:#ccc;}.cls-3{fill:none;}</style></defs><title>Asset 1dragon1</title><g id="Layer_2" data-name="Layer 2"><g id="Layer_1-2" data-name="Layer 1"><path class="cls-1" d="M334.53,17C334.53,7.89,326.74.5,317.11.5H128.94C119.31.5,111.52,7.89,111.52,17"/><path class="cls-1" d="M96.35,16.94H349.14c13.7,0,24.78,6,24.78,13h.78l70.67,266.93c0,18.76-99.63,33.9-222.79,33.9-122.73,0-222-15.19-222-34l70.75-267-.21,0C71.14,22.76,82.23,17,95.93,17"/><path class="cls-2" d="M.5,296.81c0,42.09,85.36,76.13,190.85,76.13H254.5c105.49,0,190.85-34,190.85-76.13,0,18.76-99.66,34-222.82,34-122.73,0-222-15.18-222-33.94"/><path class="cls-3" d="M38,155c0,10.93,82.7,19.78,184.91,19.78"/><path class="cls-3" d="M407.93,155c0,10.93-82.7,19.78-184.91,19.78"/><rect class="cls-3" x="157.38" y="57.97" width="127.58" height="105.38" rx="12" ry="12"/><circle class="cls-4" cx="221.17" cy="110.66" r="20"/></g></g></svg>