<svg xmlns="http://www.w3.org/2000/svg" viewBox="0 0 274.96399 113.254"><title>Asset 5asds</title><g id="Layer_2" data-name="Layer 2"><g id="Layer_1-2" data-name="Layer 1"><path d="M265.963,95.254A33.397,33.397,0,0,1,240.658,83.64a8.9995,8.9995,0,0,0-13.632,0,33.37457,33.37457,0,0,1-50.609-.001,8.9995,8.9995,0,0,0-13.632,0,33.37441,33.37441,0,0,1-50.608,0,8.99952,8.99952,0,0,0-13.632,0,33.37457,33.37457,0,0,1-50.609.001,8.99952,8.99952,0,0,0-13.632,0A33.39009,33.39009,0,0,1,9,95.254a9,9,0,0,0,0,18,51.32545,51.32545,0,0,0,29.029-9c1.055-.723,2.09-1.48,3.092-2.283,1.002.803,2.037,1.56,3.092,2.283a51.3141,51.3141,0,0,0,58.057,0c1.055-.723,2.09-1.48,3.092-2.283,1.002.803,2.037,1.56,3.092,2.283a51.31248,51.31248,0,0,0,58.056,0c1.055-.723,2.089-1.48,3.092-2.283,1.002.803,2.037,1.56,3.092,2.283a51.31411,51.31411,0,0,0,58.057,0c1.055-.723,2.089-1.48,3.092-2.283,1.002.803,2.037,1.56,3.092,2.283a51.32308,51.32308,0,0,0,29.029,9,9,9,0,1,0-.001-18Z" style="fill:#666"/><path d="M86.70463,44.50121C80.34063,51.88221,82.958,47.35,73.24,47.35A33.4032,33.4032,0,0,1,47.20436,34.85884,9.149,9.149,0,0,0,34.304,35.737,33.38875,33.38875,0,0,1,4.95466,47.10624C-4.4709,55.08278,1.06417,65.351,9,65.351a51.32545,51.32545,0,0,0,29.029-9c1.055-.723,2.089-1.48,3.092-2.283,1.002.803,2.037,1.56,3.092,2.283a51.32228,51.32228,0,0,0,29.028,9c10.468,0,21.413-.671,29.884-6.476" style="fill:#666"/><polygon points="130.003 72.502 68 16.5 265 16.5 265 72.5 130.003 72.502" style="fill:#666"/><polyline points="265 17.5 265 0 237.5 0 237.5 17.5" style="fill:#666"/></g></g></svg>