<svg xmlns="http://www.w3.org/2000/svg" viewBox="0 0 613.04078 274.04125"><title>Asset 1land</title><g id="Layer_2" data-name="Layer 2"><g id="Layer_1-2" data-name="Layer 1"><line x1="0.02039" y1="260.54127" x2="613.02039" y2="261.54127" style="fill:none;stroke:#666;stroke-miterlimit:10;stroke-width:25px"/><line x1="0.02039" y1="260.54127" x2="613.02039" y2="261.54127" style="fill:#666"/><path d="M222.03922,74.19337a36.78,36.78,0,0,0-32.93783-36.57683,36.6669,36.6669,0,0,0-53.36258-18.73522A36.7405,36.7405,0,0,0,67.35389,30.92339a37.38188,37.38188,0,0,0-4.54875-.30877A36.78,36.78,0,0,0,26.0253,67.39446c0,.99512.07305,1.96985.15035,2.94458a36.72225,36.72225,0,0,0-3.4483,59.69c-.03653.66213-.10151,1.3196-.10151,1.99024a36.74813,36.74813,0,0,0,53.651,32.66175c7.00574,5.03207,17.03762,11.32727,21.8947,10.07222,0,0,1.80718,27.99113,1.41729,35.0988-.74326,13.52434-4.8006,28.57979-7.65556,40.76414h44.2205s-6.51859-27.16249-6.80316-36.23153c-.28414-9.06946,2.835-25.76984,2.835-25.76984l15.34-15.86751a36.85586,36.85586,0,0,0,57.3061-26.64307,36.72911,36.72911,0,0,0,14.76663-58.82064A36.65424,36.65424,0,0,0,222.03922,74.19337ZM84.77291,158.60888a36.94407,36.94407,0,0,0,7.31027-9.75538l7.22108,15.1285C99.30043,163.98243,95.37305,165.71655,84.77291,158.60888Zm27.00026,9.34127c-3.73668.67827-10.10067-10.82779-14.61714-20.18139a35.82651,35.82651,0,0,0,21.22493,3.71247C117.21935,158.96649,115.17262,167.32879,111.77317,167.95015Zm15.876,7.36336c-8.643,2.40009-3.46868-15.50268-.9913-25.8671a36.09644,36.09644,0,0,0,5.17436-2.38013,36.5773,36.5773,0,0,0,9.13826,19.75837C136.75855,170.566,131.9091,174.13152,127.64917,175.31351Z" style="fill:#666"/></g></g></svg>