<svg xmlns="http://www.w3.org/2000/svg" viewBox="0 0 274.96399 128.545"><title>Asset 1water</title><g id="Layer_2" data-name="Layer 2"><g id="Layer_1-2" data-name="Layer 1"><path d="M265.963,110.545a33.397,33.397,0,0,1-25.305-11.614,8.9995,8.9995,0,0,0-13.632,0,33.37457,33.37457,0,0,1-50.609-.001,8.9995,8.9995,0,0,0-13.632,0,33.37441,33.37441,0,0,1-50.608,0,8.99952,8.99952,0,0,0-13.632,0,33.37457,33.37457,0,0,1-50.609.001,8.99952,8.99952,0,0,0-13.632,0A33.39009,33.39009,0,0,1,9,110.545a9,9,0,0,0,0,18,51.32545,51.32545,0,0,0,29.029-9c1.055-.723,2.09-1.48,3.092-2.283,1.002.803,2.037,1.56,3.092,2.283a51.3141,51.3141,0,0,0,58.057,0c1.055-.723,2.09-1.48,3.092-2.283,1.002.803,2.037,1.56,3.092,2.283a51.31248,51.31248,0,0,0,58.056,0c1.055-.723,2.089-1.48,3.092-2.283,1.002.803,2.037,1.56,3.092,2.283a51.31411,51.31411,0,0,0,58.057,0c1.055-.723,2.089-1.48,3.092-2.283,1.002.803,2.037,1.56,3.092,2.283a51.32308,51.32308,0,0,0,29.029,9,9,9,0,1,0-.001-18Z" style="fill:#666"/><path d="M265.963,62.642a33.397,33.397,0,0,1-25.305-11.614,8.9995,8.9995,0,0,0-13.632,0,33.37457,33.37457,0,0,1-50.609-.001,8.9995,8.9995,0,0,0-13.632,0,33.37441,33.37441,0,0,1-50.608,0,8.99952,8.99952,0,0,0-13.632,0,33.37457,33.37457,0,0,1-50.609.001,8.99952,8.99952,0,0,0-13.632,0A33.39357,33.39357,0,0,1,9,62.642a9,9,0,0,0,0,18,51.32545,51.32545,0,0,0,29.029-9c1.055-.723,2.089-1.48,3.092-2.283,1.002.803,2.037,1.56,3.092,2.283a51.3141,51.3141,0,0,0,58.057,0c1.055-.723,2.089-1.48,3.092-2.283,1.002.803,2.037,1.56,3.092,2.283a51.31248,51.31248,0,0,0,58.056,0c1.055-.723,2.089-1.48,3.092-2.283,1.002.803,2.037,1.56,3.092,2.283a51.31411,51.31411,0,0,0,58.057,0c1.055-.723,2.089-1.48,3.092-2.283,1.002.803,2.037,1.56,3.092,2.283a51.32544,51.32544,0,0,0,29.029,9,9,9,0,1,0-.001-18Z" style="fill:#666"/><path d="M9,32.738a51.32539,51.32539,0,0,0,29.029-9c1.055-.723,2.089-1.48,3.092-2.283,1.002.803,2.037,1.56,3.092,2.283a51.32222,51.32222,0,0,0,29.028,9,51.32777,51.32777,0,0,0,29.029-9c1.055-.723,2.089-1.48,3.092-2.283,1.002.803,2.037,1.56,3.092,2.283a51.32222,51.32222,0,0,0,29.028,9,51.32226,51.32226,0,0,0,29.028-9c1.055-.723,2.089-1.48,3.092-2.283,1.002.803,2.037,1.56,3.092,2.283a51.32538,51.32538,0,0,0,29.029,9,51.31987,51.31987,0,0,0,29.028-9c1.055-.723,2.089-1.48,3.092-2.283,1.002.803,2.037,1.56,3.092,2.283a51.32538,51.32538,0,0,0,29.029,9,9,9,0,0,0,0-18A33.397,33.397,0,0,1,240.659,3.124a8.9995,8.9995,0,0,0-13.632,0,33.39276,33.39276,0,0,1-25.304,11.613A33.39553,33.39553,0,0,1,176.418,3.123a8.9995,8.9995,0,0,0-13.632,0,33.39276,33.39276,0,0,1-25.304,11.613A33.39431,33.39431,0,0,1,112.178,3.123a8.99952,8.99952,0,0,0-13.632,0A33.39394,33.39394,0,0,1,73.241,14.737,33.39179,33.39179,0,0,1,47.937,3.125a8.99952,8.99952,0,0,0-13.632,0A33.39611,33.39611,0,0,1,9,14.738a9,9,0,0,0,0,18Z" style="fill:#666"/></g></g></svg>