<svg xmlns="http://www.w3.org/2000/svg" style="isolation:isolate" viewBox="20.413 140.2 27.525 71.01" width="27.525" height="71.01"><linearGradient id="a" x1="-27.298%" y1="1109.865%" x2="83.818%" y2="1109.865%"><stop offset="0%" stop-color="#e6e6e6"/><stop offset="100%" stop-color="#f9f9f9"/></linearGradient><path d="M21.402 201.764c-.065-.996-.088-9.846-.05-19.666.074-19.404.062-19.159 1.124-24.122 1.212-5.663 3.525-10.114 7.436-14.308 1.547-1.66 2.786-2.488 3.727-2.492l.398-.002v62.402H21.52l-.118-1.812z" fill="url(#a)"/><linearGradient id="b" x1="-28.545%" y1="9896.726%" x2="83.659%" y2="9896.726%"><stop offset="0%" stop-color="#e6e6e6"/><stop offset="100%" stop-color="#f9f9f9"/></linearGradient><path d="M24.893 210.073c-.095-.122-.752-1.295-1.461-2.608a136.213 136.213 0 0 0-1.632-2.961l-.343-.574h12.58v6.364h-4.486c-3.38 0-4.529-.055-4.658-.221z" fill="url(#b)"/><linearGradient id="c" x1="-34.105%" y1="1110.466%" x2="103.498%" y2="1110.466%"><stop offset="0%" stop-color="#e6e6e6"/><stop offset="100%" stop-color="#f9f9f9"/></linearGradient><path d="M46.999 201.764c.065-.996.087-9.846.05-19.666-.074-19.404-.062-19.159-1.125-24.122-1.211-5.663-3.524-10.114-7.435-14.308-1.547-1.66-2.786-2.488-3.728-2.492l-.397-.002v62.402h12.517l.118-1.812z" fill="url(#c)"/><linearGradient id="d" x1="-35.42%" y1="9902.618%" x2="103.532%" y2="9902.618%"><stop offset="0%" stop-color="#e6e6e6"/><stop offset="100%" stop-color="#f9f9f9"/></linearGradient><path d="M43.508 210.073c.095-.122.752-1.295 1.46-2.608a140.908 140.908 0 0 1 1.632-2.961l.344-.574h-12.58v6.364h4.486c3.379 0 4.528-.055 4.658-.221z" fill="url(#d)"/><path vector-effect="non-scaling-stroke" stroke-width=".4" stroke="#000" d="M24.852 210.41h18.647M21.213 203.734h25.925"/><path d="M24.852 210.41l-.389-.714-.389-.714-.389-.714-.389-.714-.39-.713-.389-.714-.389-.714-.389-.714-.389-.714-.137-2.864v-32.244l.015-2.991.049-.53.051-.529.052-.53.053-.53.057-.53.059-.53.063-.53.068-.53.072-.53.078-.531.083-.53.089-.53.096-.529.102-.528.109-.527.116-.525.122-.523.13-.521.138-.518.145-.515.154-.512.161-.509.171-.505.178-.5.188-.496.197-.491.206-.487.215-.48.225-.476.235-.47.244-.466.253-.46.262-.457.272-.452.28-.448.29-.444.298-.44.307-.437.316-.434.324-.43.333-.428.341-.425.349-.423.358-.42.366-.419.374-.416.383-.409.395-.394.409-.369.425-.336.443-.295.464-.244.487-.184.512-.118.54-.065.565-.001.541.065.512.117.487.184.464.244.444.294.425.336.409.369.395.393.384.409.374.416.365.419.358.42.349.423.341.425.333.428.324.43.315.434.307.437.298.44.289.444.281.448.272.452.262.456.254.461.244.465.235.471.226.475.216.481.207.486.198.491.189.496.18.5.171.504.163.509.155.512.146.515.138.518.131.521.123.523.116.525.108.527.101.528.094.529.088.531.081.53.075.531.068.53.064.531.058.531.054.53.051.53.048.531.046.53.045.531.043.53.013 2.991v32.244l-.136 2.864-.39.714-.389.714-.389.714-.389.714-.389.713-.39.714-.389.714-.389.714-.389.714" fill="none" vector-effect="non-scaling-stroke" stroke-width=".4" stroke="#000"/><path vector-effect="non-scaling-stroke" stroke-width=".4" stroke="#000" d="M34.175 210.41V141"/></svg>