<svg xmlns="http://www.w3.org/2000/svg" xmlns:xlink="http://www.w3.org/1999/xlink" version="1.1" x="0px" y="0px" viewBox="0 0 100 125" enable-background="new 0 0 100 100" xml:space="preserve" fill="#f4424b">
    <path d="M95,53.396c0,0-0.169,6.019-0.622,10.169c-0.454,4.151-1.888,11.699-1.888,11.699s-0.68,1.811-5.962,2.339  C81.245,78.132,60.867,79.037,50,79.037c-10.868,0-31.245-0.905-36.527-1.434c-5.284-0.528-5.962-2.339-5.962-2.339  s-1.435-7.548-1.888-11.699C5.169,59.416,5,53.396,5,53.396s0.425-5.859,0.566-6.539c0.142-0.679,3.877-4.331,4.812-5.009  c0.935-0.679,4.152-1.83,4.152-1.83l0.319-1.208l-1.395-0.924l-0.813,0.038c0,0-1.321,0.886-3.227,0.886  c-1.907,0-2.753-0.131-3.415-0.472C5.339,38,5.263,36.944,5.263,36.246c0-0.698-0.057-0.793,0.209-1.51  c0.264-0.716,1.433-0.773,3.188-0.773s2.624,0.17,3.152,0.623c0.529,0.453,0.81,0.83,0.81,0.83h0.812l0.076-0.245l2.981,0.169  c0,0,0.905-1.301,1.867-1.754c0.962-0.454,2.321-0.454,2.321-0.454s2.831-4.075,3.849-5.83c1.019-1.755,2.378-3,3.284-3.793  c0.905-0.793,5.887-2.547,22.188-2.547s21.282,1.754,22.188,2.547c0.905,0.793,2.265,2.038,3.282,3.793  c1.02,1.754,3.849,5.83,3.849,5.83s1.358,0,2.321,0.454c0.962,0.453,1.867,1.754,1.867,1.754l2.981-0.169l0.077,0.245h0.81  c0,0,0.282-0.377,0.811-0.83c0.529-0.453,1.397-0.623,3.152-0.623c1.754,0,2.925,0.057,3.188,0.773  c0.264,0.717,0.207,0.811,0.207,1.51c0,0.698-0.075,1.754-0.734,2.093c-0.661,0.34-1.51,0.472-3.416,0.472  c-1.905,0-3.227-0.886-3.227-0.886l-0.811-0.038l-1.396,0.924l0.318,1.208c0,0,3.216,1.151,4.151,1.83  c0.934,0.68,4.669,4.331,4.812,5.009C94.574,47.537,95,53.396,95,53.396z M71.169,53.906c0,2.264,1.133,2.944,3.283,2.49  c2.15-0.453,4.642-1.02,7.811-1.63c3.171-0.611,4.075-2.559,4.868-4.257c0.792-1.698,1.36-3.848,1.36-4.867s-4.189-0.792-7.699,0  c-3.509,0.792-8.266,2.377-8.266,2.377C71.735,49.038,71.169,51.642,71.169,53.906z M27.019,48.019c0,0-4.755-1.585-8.264-2.377  c-3.509-0.792-7.698-1.019-7.698,0c0,1.02,0.566,3.169,1.358,4.868c0.792,1.698,1.698,3.646,4.868,4.256  c3.17,0.609,5.661,1.178,7.811,1.629c2.151,0.454,3.283-0.225,3.283-2.489S27.812,49.038,27.019,48.019z M74.453,65.604  c-2.718-1.812-9.51-0.906-24.453-0.906s-21.736-0.905-24.452,0.906c-2.717,1.812-4.831,2.868-3.472,5.585  c1.358,2.717,3.019,3.319,10.415,3.923c7.396,0.605,8.907,0.605,17.511,0.605c8.604,0,10.113,0,17.51-0.605  c7.396-0.604,9.057-1.206,10.414-3.923C79.283,68.471,77.169,67.416,74.453,65.604z M75.585,30.246  c-1.754-1.755-1.698-2.604-6.34-3.623C64.604,25.605,61.32,25.265,50,25.265c-11.321,0-14.604,0.34-19.245,1.358  c-4.642,1.02-4.585,1.868-6.341,3.623c-1.755,1.754-5.32,10.528-5.32,10.528s1.471,0.792,4.641,0.566  c3.17-0.227,20.604,1.311,26.265,1.246c5.66,0.065,23.094-1.473,26.266-1.246c3.168,0.226,4.641-0.566,4.641-0.566  S77.339,32,75.585,30.246z"/>
</svg>