<?xml version="1.0" standalone="no"?><!-- Generator: Gravit.io --><svg xmlns="http://www.w3.org/2000/svg" xmlns:xlink="http://www.w3.org/1999/xlink" style="isolation:isolate" viewBox="481.134 84.097 20.247 303.639" width="20.247" height="303.639"><g id="f9-1.2-booster-expendable"><g id="g7064"><rect x="481.914" y="85.113" width="18.667" height="293.5" transform="matrix(1,0,0,1,0,0)" fill="rgb(255,255,255)"/><g id="g7068"><g opacity="0.03365383"><linearGradient id="_lgradient_13" x1="33.864551749855565%" y1="23.171271313227003%" x2="82.33816284174864%" y2="23.171271313227003%"><stop offset="0%" stop-opacity="1" style="stop-color:rgb(0,0,0)"/><stop offset="100%" stop-opacity="0" style="stop-color:rgb(0,0,0)"/></linearGradient><rect x="482.128" y="85.285" width="9.237" height="293.178" transform="matrix(1,0,0,1,0,0)" fill="url(#_lgradient_13)"/></g><g opacity="0.03365383"><linearGradient id="_lgradient_14" x1="33.863753985885126%" y1="23.1712405578985%" x2="82.33736829905922%" y2="23.1712405578985%"><stop offset="0%" stop-opacity="1" style="stop-color:rgb(0,0,0)"/><stop offset="100%" stop-opacity="0" style="stop-color:rgb(0,0,0)"/></linearGradient><rect x="491.248" y="85.15" width="9.101" height="293.178" transform="matrix(1,0,0,1,0,0)" fill="url(#_lgradient_14)"/></g></g></g><path d=" M 482.779 380.551 C 482.748 380.496 482.7 380.357 482.7 380.322 L 482.7 380.296 L 484.395 380.296 L 486.09 380.296 L 486.103 380.354 C 486.128 380.472 486.127 380.498 486.1 380.545 L 486.075 380.589 L 484.439 380.589 L 482.804 380.589 L 482.779 380.545 L 482.779 380.545 L 482.779 380.551 Z " fill="rgb(247,247,247)"/><path d=" M 486.568 380.531 C 486.54 380.474 486.49 380.332 486.49 380.307 C 486.49 380.297 487.216 380.297 488.236 380.297 L 489.983 380.297 L 489.976 380.327 C 489.96 380.397 489.933 380.474 489.905 380.529 L 489.875 380.588 L 488.238 380.588 L 486.601 380.588 L 486.568 380.524 L 486.568 380.531 Z " fill="rgb(247,247,247)"/><path d=" M 490.279 380.663 C 490.279 380.663 490.291 380.624 490.305 380.588 C 490.328 380.529 490.355 380.43 490.374 380.332 L 490.381 380.296 L 491.257 380.296 C 492.083 380.296 492.134 380.296 492.139 380.315 C 492.142 380.326 492.148 380.357 492.153 380.384 C 492.157 380.411 492.177 380.486 492.198 380.549 C 492.218 380.612 492.235 380.665 492.235 380.668 C 492.235 380.668 491.795 380.668 491.257 380.668 C 490.719 380.668 490.279 380.668 490.279 380.658 L 490.279 380.663 Z " fill="rgb(247,247,247)"/><path d=" M 492.612 380.531 C 492.583 380.474 492.533 380.332 492.533 380.307 C 492.533 380.297 493.259 380.297 494.279 380.297 C 495.58 380.297 496.024 380.297 496.024 380.31 C 496.024 380.338 495.978 380.472 495.949 380.529 L 495.919 380.59 L 494.281 380.59 L 492.644 380.59 L 492.612 380.526 L 492.612 380.531 Z " fill="rgb(247,247,247)"/><path d=" M 496.422 380.559 C 496.388 380.504 496.386 380.484 496.405 380.393 C 496.415 380.347 496.422 380.306 496.422 380.303 C 496.422 380.303 497.188 380.293 498.124 380.293 L 499.826 380.293 L 499.819 380.323 C 499.804 380.384 499.768 380.485 499.741 380.537 L 499.714 380.59 L 498.079 380.59 L 496.444 380.59 L 496.422 380.554 L 496.422 380.559 Z " fill="rgb(247,247,247)"/><path d=" M 482.511 379.868 C 482.388 379.732 482.256 379.383 482.151 378.918 L 482.123 378.796 L 491.25 378.796 C 498.523 378.796 500.377 378.807 500.377 378.851 C 500.376 378.978 500.243 379.392 500.118 379.659 L 499.984 379.945 L 491.282 379.945 C 483.051 379.945 482.577 379.945 482.511 379.868 L 482.511 379.868 Z " fill="rgb(247,247,247)"/><g id="g7099"><g id="g7101"><path d=" M 486.224 383.37 C 486.032 382.893 485.778 382.339 485.525 381.843 L 485.427 381.65 L 485.468 381.574 C 485.539 381.442 485.702 381.155 485.801 380.99 L 485.836 380.932 L 486.034 380.932 C 486.142 380.932 486.361 380.932 486.519 380.932 L 486.806 380.932 L 486.844 380.995 C 486.929 381.136 487.146 381.518 487.198 381.617 L 487.216 381.651 L 487.165 381.75 C 486.889 382.28 486.612 382.881 486.39 383.436 L 486.353 383.528 L 486.321 383.528 L 486.288 383.528 L 486.224 383.37 L 486.224 383.37 L 486.224 383.37 Z " fill="rgb(51,51,51)"/><path d=" M 496.031 383.219 C 495.838 382.742 495.585 382.189 495.332 381.692 L 495.233 381.499 L 495.274 381.423 C 495.345 381.291 495.508 381.004 495.607 380.839 L 495.642 380.781 L 495.84 380.781 C 495.949 380.781 496.167 380.781 496.325 380.781 L 496.613 380.781 L 496.651 380.844 C 496.735 380.985 496.953 381.367 497.005 381.466 L 497.022 381.5 L 496.971 381.599 C 496.695 382.129 496.419 382.731 496.197 383.285 L 496.159 383.378 L 496.127 383.378 L 496.095 383.378 L 496.031 383.219 L 496.031 383.219 L 496.031 383.219 Z " fill="rgb(51,51,51)"/></g><path d=" M 490.152 382.678 C 490.232 382.521 490.381 382.244 490.483 382.06 L 490.669 381.727 L 490.45 381.34 L 490.231 380.952 L 489.855 380.952 C 489.534 380.952 489.479 380.941 489.479 380.911 C 489.479 380.878 489.448 380.872 489.316 380.878 C 489.163 380.889 489.151 380.891 489.1 380.979 L 489.047 381.072 L 489.328 381.613 C 489.483 381.911 489.692 382.335 489.792 382.557 C 489.892 382.778 489.981 382.959 489.991 382.96 C 490 382.96 490.073 382.833 490.152 382.677 L 490.152 382.678 Z " fill="rgb(51,51,51)"/><path d=" M 492.421 382.658 C 492.341 382.502 492.192 382.224 492.09 382.041 L 491.904 381.708 L 492.123 381.32 L 492.342 380.933 L 492.718 380.933 C 493.039 380.933 493.094 380.922 493.094 380.892 C 493.094 380.859 493.125 380.852 493.257 380.859 C 493.41 380.87 493.422 380.872 493.473 380.96 L 493.526 381.053 L 493.245 381.594 C 493.09 381.891 492.881 382.316 492.781 382.537 C 492.681 382.758 492.592 382.94 492.583 382.94 C 492.574 382.941 492.5 382.813 492.421 382.657 L 492.421 382.658 Z " fill="rgb(51,51,51)"/><path d=" M 488.91 386.921 C 488.91 386.908 488.993 386.539 489.005 386.499 C 489.178 384.25 489.358 384.717 490.068 383.352 C 490.068 383.283 490.552 382.304 490.821 381.831 L 490.958 381.589 L 490.958 381.276 L 490.958 380.962 L 491.294 380.962 L 491.629 380.962 L 491.629 381.28 L 491.629 381.597 L 491.773 381.851 C 491.924 382.117 492.339 382.934 492.436 383.154 L 492.492 383.282 C 493.374 385.683 492.71 383.575 493.618 386.675 C 493.641 386.78 493.66 386.88 493.66 386.898 C 493.66 386.931 493.656 386.931 491.285 386.931 C 489.979 386.931 488.91 386.931 488.91 386.92 L 488.91 386.921 Z " fill="rgb(51,51,51)"/></g><line x1="481.934" y1="378.596" x2="500.581" y2="378.596" vector-effect="non-scaling-stroke" stroke-width="0.4" stroke="rgb(0,0,0)" stroke-linejoin="miter" stroke-linecap="butt" stroke-miterlimit="4"/><line x1="481.934" y1="131.389" x2="500.581" y2="131.389" vector-effect="non-scaling-stroke" stroke-width="0.4" stroke="rgb(0,0,0)" stroke-linejoin="miter" stroke-linecap="butt" stroke-miterlimit="4"/><line x1="494.789" y1="380.789" x2="493.771" y2="380.789" vector-effect="non-scaling-stroke" stroke-width="0.4" stroke="rgb(0,0,0)" stroke-linejoin="miter" stroke-linecap="butt" stroke-miterlimit="4"/><line x1="483.881" y1="386.105" x2="488.793" y2="386.105" vector-effect="non-scaling-stroke" stroke-width="0.4" stroke="rgb(0,0,0)" stroke-linejoin="miter" stroke-linecap="butt" stroke-miterlimit="4"/><line x1="485.828" y1="380.789" x2="486.846" y2="380.789" vector-effect="non-scaling-stroke" stroke-width="0.4" stroke="rgb(0,0,0)" stroke-linejoin="miter" stroke-linecap="butt" stroke-miterlimit="4"/><path d=" M 487.286 381.616 C 487.147 381.336 487 381.06 486.846 380.789" fill="none" vector-effect="non-scaling-stroke" stroke-width="0.4" stroke="rgb(0,0,0)" stroke-linejoin="miter" stroke-linecap="butt" stroke-miterlimit="4"/><path d=" M 485.828 380.789 C 485.674 381.06 485.527 381.336 485.388 381.616" fill="none" vector-effect="non-scaling-stroke" stroke-width="0.4" stroke="rgb(0,0,0)" stroke-linejoin="miter" stroke-linecap="butt" stroke-miterlimit="4"/><line x1="489.21" y1="380.789" x2="489.974" y2="380.789" vector-effect="non-scaling-stroke" stroke-width="0.4" stroke="rgb(0,0,0)" stroke-linejoin="miter" stroke-linecap="butt" stroke-miterlimit="4"/><path d=" M 490.718 381.717 C 490.577 381.43 490.428 381.146 490.272 380.866" fill="none" vector-effect="non-scaling-stroke" stroke-width="0.4" stroke="rgb(0,0,0)" stroke-linejoin="miter" stroke-linecap="butt" stroke-miterlimit="4"/><path d=" M 489.21 380.789 C 489.13 380.929 489.053 381.07 488.977 381.212" fill="none" vector-effect="non-scaling-stroke" stroke-width="0.4" stroke="rgb(0,0,0)" stroke-linejoin="miter" stroke-linecap="butt" stroke-miterlimit="4"/><line x1="498.634" y1="386.105" x2="493.722" y2="386.105" vector-effect="non-scaling-stroke" stroke-width="0.4" stroke="rgb(0,0,0)" stroke-linejoin="miter" stroke-linecap="butt" stroke-miterlimit="4"/><line x1="496.687" y1="380.789" x2="495.669" y2="380.789" vector-effect="non-scaling-stroke" stroke-width="0.4" stroke="rgb(0,0,0)" stroke-linejoin="miter" stroke-linecap="butt" stroke-miterlimit="4"/><path d=" M 495.669 380.789 C 495.515 381.06 495.368 381.336 495.229 381.616" fill="none" vector-effect="non-scaling-stroke" stroke-width="0.4" stroke="rgb(0,0,0)" stroke-linejoin="miter" stroke-linecap="butt" stroke-miterlimit="4"/><path d=" M 497.128 381.616 C 496.988 381.336 496.841 381.06 496.687 380.789" fill="none" vector-effect="non-scaling-stroke" stroke-width="0.4" stroke="rgb(0,0,0)" stroke-linejoin="miter" stroke-linecap="butt" stroke-miterlimit="4"/><line x1="493.305" y1="380.789" x2="492.541" y2="380.789" vector-effect="non-scaling-stroke" stroke-width="0.4" stroke="rgb(0,0,0)" stroke-linejoin="miter" stroke-linecap="butt" stroke-miterlimit="4"/><path d=" M 489.974 380.789 C 490.125 380.594 490.202 380.351 490.19 380.105" fill="none" vector-effect="non-scaling-stroke" stroke-width="0.4" stroke="rgb(0,0,0)" stroke-linejoin="miter" stroke-linecap="butt" stroke-miterlimit="4"/><line x1="486.497" y1="380.789" x2="489.974" y2="380.789" vector-effect="non-scaling-stroke" stroke-width="0.4" stroke="rgb(0,0,0)" stroke-linejoin="miter" stroke-linecap="butt" stroke-miterlimit="4"/><path d=" M 492.325 380.105 C 492.314 380.351 492.39 380.594 492.541 380.789" fill="none" vector-effect="non-scaling-stroke" stroke-width="0.4" stroke="rgb(0,0,0)" stroke-linejoin="miter" stroke-linecap="butt" stroke-miterlimit="4"/><path d=" M 496.018 380.789 C 496.169 380.594 496.246 380.351 496.234 380.105" fill="none" vector-effect="non-scaling-stroke" stroke-width="0.4" stroke="rgb(0,0,0)" stroke-linejoin="miter" stroke-linecap="butt" stroke-miterlimit="4"/><line x1="490.272" y1="380.866" x2="492.243" y2="380.866" vector-effect="non-scaling-stroke" stroke-width="0.4" stroke="rgb(0,0,0)" stroke-linejoin="miter" stroke-linecap="butt" stroke-miterlimit="4"/><path d=" M 489.465 380.789 C 489.481 380.816 489.5 380.842 489.519 380.867" fill="none" vector-effect="non-scaling-stroke" stroke-width="0.4" stroke="rgb(0,0,0)" stroke-linejoin="miter" stroke-linecap="butt" stroke-miterlimit="4"/><path d=" M 492.996 380.866 C 493.015 380.841 493.034 380.815 493.051 380.788" fill="none" vector-effect="non-scaling-stroke" stroke-width="0.4" stroke="rgb(0,0,0)" stroke-linejoin="miter" stroke-linecap="butt" stroke-miterlimit="4"/><line x1="489.519" y1="380.866" x2="492.996" y2="380.866" vector-effect="non-scaling-stroke" stroke-width="0.4" stroke="rgb(0,0,0)" stroke-linejoin="miter" stroke-linecap="butt" stroke-miterlimit="4"/><path d=" M 492.293 380.866 C 492.137 381.146 491.988 381.43 491.847 381.717" fill="none" vector-effect="non-scaling-stroke" stroke-width="0.4" stroke="rgb(0,0,0)" stroke-linejoin="miter" stroke-linecap="butt" stroke-miterlimit="4"/><path d=" M 492.293 380.866 C 492.137 381.146 491.988 381.43 491.847 381.717" fill="none" vector-effect="non-scaling-stroke" stroke-width="0.4" stroke="rgb(0,0,0)" stroke-linejoin="miter" stroke-linecap="butt" stroke-miterlimit="4"/><path d=" M 493.563 381.166 C 493.495 381.039 493.426 380.914 493.355 380.789" fill="none" vector-effect="non-scaling-stroke" stroke-width="0.4" stroke="rgb(0,0,0)" stroke-linejoin="miter" stroke-linecap="butt" stroke-miterlimit="4"/><path d=" M 500.581 84.897 C 500.58 182.796 500.582 280.696 500.581 378.596 C 500.556 379.133 500.387 379.655 500.092 380.105 L 491.258 380.105 L 482.423 380.105 C 482.128 379.655 481.959 379.133 481.934 378.596 C 481.934 280.696 481.934 182.796 481.934 84.897" fill="none" vector-effect="non-scaling-stroke" stroke-width="0.4" stroke="rgb(0,0,0)" stroke-linejoin="miter" stroke-linecap="butt" stroke-miterlimit="4"/><path d=" M 489.004 386.105 C 488.938 386.381 488.879 386.658 488.827 386.936 L 493.738 386.936 C 493.686 386.658 493.627 386.381 493.561 386.105" fill="none" vector-effect="non-scaling-stroke" stroke-width="0.4" stroke="rgb(0,0,0)" stroke-linejoin="miter" stroke-linecap="butt" stroke-miterlimit="4"/><path d=" M 489.925 383.328 C 490.176 382.743 490.459 382.173 490.774 381.619 L 490.774 380.866" fill="none" vector-effect="non-scaling-stroke" stroke-width="0.4" stroke="rgb(0,0,0)" stroke-linejoin="miter" stroke-linecap="butt" stroke-miterlimit="4"/><path d=" M 491.791 380.866 L 491.791 381.619 C 492.095 382.153 492.369 382.703 492.614 383.266" fill="none" vector-effect="non-scaling-stroke" stroke-width="0.4" stroke="rgb(0,0,0)" stroke-linejoin="miter" stroke-linecap="butt" stroke-miterlimit="4"/><path d=" M 486.337 383.931 C 485.98 382.84 485.514 381.787 484.947 380.789 L 483.929 380.789 C 482.991 382.441 482.333 384.238 481.983 386.105 L 486.894 386.105" fill="rgb(51,51,51)" vector-effect="non-scaling-stroke" stroke-width="0.4" stroke="rgb(0,0,0)" stroke-linejoin="miter" stroke-linecap="butt" stroke-miterlimit="4"/><path d=" M 496.178 380.493 C 496.215 380.599 496.269 380.7 496.338 380.789 L 499.815 380.789 C 499.966 380.594 500.043 380.351 500.031 380.105" fill="none" vector-effect="non-scaling-stroke" stroke-width="0.4" stroke="rgb(0,0,0)" stroke-linejoin="miter" stroke-linecap="butt" stroke-miterlimit="4"/><path d=" M 495.621 386.105 L 500.533 386.105 C 500.182 384.238 499.524 382.441 498.586 380.789 L 497.568 380.789 C 497.001 381.787 496.535 382.84 496.178 383.931" fill="rgb(51,51,51)" vector-effect="non-scaling-stroke" stroke-width="0.4" stroke="rgb(0,0,0)" stroke-linejoin="miter" stroke-linecap="butt" stroke-miterlimit="4"/><path d=" M 487.727 380.789 C 486.788 382.441 486.13 384.238 485.78 386.105 L 490.691 386.105 C 490.341 384.238 489.683 382.441 488.745 380.789 L 487.727 380.789 Z " fill="rgb(51,51,51)" vector-effect="non-scaling-stroke" stroke-width="0.4" stroke="rgb(0,0,0)" stroke-linejoin="miter" stroke-linecap="butt" stroke-miterlimit="4"/><path d=" M 494.789 380.789 C 495.727 382.441 496.385 384.238 496.735 386.105 L 491.824 386.105 C 492.174 384.238 492.832 382.441 493.771 380.789" fill="rgb(51,51,51)" vector-effect="non-scaling-stroke" stroke-width="0.4" stroke="rgb(0,0,0)" stroke-linejoin="miter" stroke-linecap="butt" stroke-miterlimit="4"/><line x1="492.541" y1="380.789" x2="496.018" y2="380.789" vector-effect="non-scaling-stroke" stroke-width="0.4" stroke="rgb(0,0,0)" stroke-linejoin="miter" stroke-linecap="butt" stroke-miterlimit="4"/><path d=" M 482.484 380.105 C 482.472 380.351 482.549 380.594 482.7 380.789 L 486.177 380.789 C 486.246 380.7 486.3 380.599 486.337 380.493" fill="none" vector-effect="non-scaling-stroke" stroke-width="0.4" stroke="rgb(0,0,0)" stroke-linejoin="miter" stroke-linecap="butt" stroke-miterlimit="4"/><path d=" M 486.281 380.105 C 486.269 380.351 486.346 380.594 486.497 380.789" fill="none" vector-effect="non-scaling-stroke" stroke-width="0.4" stroke="rgb(0,0,0)" stroke-linejoin="miter" stroke-linecap="butt" stroke-miterlimit="4"/><line x1="481.934" y1="167.082" x2="500.581" y2="167.082" vector-effect="non-scaling-stroke" stroke-width="0.4" stroke="rgb(0,0,0)" stroke-linejoin="miter" stroke-linecap="butt" stroke-miterlimit="4"/><g id="g7354"><path d=" M 492.667 313.675 L 488.798 313.675 L 488.655 313.782 L 488.655 317.223 L 489.726 317.223 L 489.726 315.933 L 489.828 315.841 L 492.667 315.841 C 493.384 315.841 493.72 315.648 493.72 315.153 L 493.72 314.363 C 493.719 313.868 493.384 313.675 492.667 313.675 M 492.667 314.947 C 492.667 315.18 492.512 315.228 492.176 315.228 L 489.84 315.228 L 489.726 315.118 L 489.726 314.38 L 489.828 314.287 L 492.176 314.287 C 492.512 314.287 492.667 314.335 492.667 314.569 L 492.667 314.947 L 492.667 314.947 Z " fill="rgb(0,82,136)"/><path d=" M 490.426 321.501 L 491.348 322.851 L 491.297 322.982 L 489.259 322.982 L 488.739 323.622 L 491.772 323.622 L 491.982 323.75 L 492.453 324.4 L 493.679 324.4 L 490.993 320.806" fill="rgb(0,82,136)"/><g id="g7360"><path d=" M 489.854 339.431 L 489.854 338.476 L 489.964 338.381 L 492.014 338.381 L 492.014 337.773 L 488.765 337.773 L 488.765 340.13 L 493.558 340.13 L 493.558 339.525 L 489.969 339.525" fill="rgb(0,82,136)"/><rect x="488.765" y="336.581" width="4.844" height="0.669" transform="matrix(1,0,0,1,0,0)" fill="rgb(0,82,136)"/></g><path d=" M 489.838 329.181 L 493.74 329.181 C 493.68 328.685 493.372 328.547 492.591 328.547 L 489.797 328.547 C 488.915 328.547 488.634 328.719 488.634 329.386 L 488.634 331.258 C 488.634 331.925 488.915 332.097 489.797 332.097 L 492.591 332.097 C 493.384 332.097 493.687 331.948 493.708 331.434 L 489.838 331.434 L 489.723 331.326 L 489.723 329.254" fill="rgb(0,82,136)"/><path d=" M 492.625 306.881 L 489.786 306.881 L 489.702 306.789 L 489.702 306.182 L 489.786 306.117 L 493.613 306.117 L 493.665 305.989 C 493.534 305.654 493.197 305.498 492.57 305.498 L 489.912 305.498 C 489.031 305.498 488.749 305.67 488.749 306.337 L 488.749 306.729 C 488.749 307.397 489.031 307.568 489.912 307.568 L 492.744 307.568 L 492.833 307.647 L 492.833 308.281 L 492.761 308.38 L 489.521 308.38 L 489.521 308.377 L 488.672 308.377 C 488.672 308.377 488.575 308.426 488.579 308.449 C 488.651 308.915 488.969 309.048 489.73 309.048 L 492.625 309.048 C 493.506 309.048 493.796 308.876 493.796 308.208 L 493.796 307.719 C 493.796 307.053 493.506 306.881 492.625 306.881" fill="rgb(0,82,136)"/><path d=" M 489.892 344.809 L 488.299 344.809 L 488.212 344.974 L 489.982 346.264 C 490.317 346.07 490.682 345.873 491.078 345.679" fill="rgb(0,82,136)"/><path d=" M 491.32 347.239 L 492.875 348.373 L 494.488 348.373 L 494.555 348.223 L 492.232 346.523 C 491.924 346.749 491.619 346.989 491.32 347.239" fill="rgb(0,82,136)"/><path d=" M 489.655 348.371 L 488.213 348.371 L 488.091 348.18 C 489.072 347.233 493.547 343.676 499.373 343.224 C 499.373 343.224 494.277 343.79 489.655 348.371" fill="rgb(167,169,172)"/></g><g id="g7376"><g id="g7378"><rect x="486.639" y="155.476" width="9.199" height="5.17" transform="matrix(1,0,0,1,0,0)" fill="rgb(178,34,52)"/><path d=" M 486.639 156.073 L 495.838 156.073 M 495.838 156.869 L 486.639 156.869 M 486.639 157.664 L 495.838 157.664 M 495.838 158.459 L 486.639 158.459 M 486.639 159.255 L 495.838 159.255 M 495.838 160.05 L 486.639 160.05" fill="rgb(0,0,0)" vector-effect="non-scaling-stroke" stroke-width="0.385" stroke="rgb(255,255,255)" stroke-linejoin="miter" stroke-linecap="butt" stroke-miterlimit="4"/><rect x="486.639" y="155.476" width="3.68" height="2.784" transform="matrix(1,0,0,1,0,0)" fill="rgb(60,59,110)"/><g id="g7386"><g id="g7388"><g id="g7390"><g id="g7392"><g id="g7394"><path d=" M 486.946 155.596 L 487.033 155.884 L 486.804 155.706 L 487.087 155.706 L 486.858 155.884 L 486.946 155.596 Z " fill="rgb(255,255,255)"/><path d=" M 486.946 155.596 L 487.033 155.884 L 486.804 155.706 L 487.087 155.706 L 486.858 155.884 L 486.946 155.596 Z " fill="rgb(255,255,255)"/><path d=" M 486.946 155.596 L 487.033 155.884 L 486.804 155.706 L 487.087 155.706 L 486.858 155.884 L 486.946 155.596 Z " fill="rgb(255,255,255)"/><path d=" M 486.946 155.596 L 487.033 155.884 L 486.804 155.706 L 487.087 155.706 L 486.858 155.884 L 486.946 155.596 Z " fill="rgb(255,255,255)"/></g><path d=" M 486.946 155.596 L 487.033 155.884 L 486.804 155.706 L 487.087 155.706 L 486.858 155.884 L 486.946 155.596 Z " fill="rgb(255,255,255)"/></g><g id="s4"><path d=" M 486.946 155.596 L 487.033 155.884 L 486.804 155.706 L 487.087 155.706 L 486.858 155.884 L 486.946 155.596 Z " fill="rgb(255,255,255)"/><path d=" M 486.946 155.596 L 487.033 155.884 L 486.804 155.706 L 487.087 155.706 L 486.858 155.884 L 486.946 155.596 Z " fill="rgb(255,255,255)"/><path d=" M 486.946 155.596 L 487.033 155.884 L 486.804 155.706 L 487.087 155.706 L 486.858 155.884 L 486.946 155.596 Z " fill="rgb(255,255,255)"/><path d=" M 486.946 155.596 L 487.033 155.884 L 486.804 155.706 L 487.087 155.706 L 486.858 155.884 L 486.946 155.596 Z " fill="rgb(255,255,255)"/></g></g><g id="s9"><g id="s5"><g id="s4"><path d=" M 486.946 155.596 L 487.033 155.884 L 486.804 155.706 L 487.087 155.706 L 486.858 155.884 L 486.946 155.596 Z " fill="rgb(255,255,255)"/><path d=" M 486.946 155.596 L 487.033 155.884 L 486.804 155.706 L 487.087 155.706 L 486.858 155.884 L 486.946 155.596 Z " fill="rgb(255,255,255)"/><path d=" M 486.946 155.596 L 487.033 155.884 L 486.804 155.706 L 487.087 155.706 L 486.858 155.884 L 486.946 155.596 Z " fill="rgb(255,255,255)"/><path d=" M 486.946 155.596 L 487.033 155.884 L 486.804 155.706 L 487.087 155.706 L 486.858 155.884 L 486.946 155.596 Z " fill="rgb(255,255,255)"/></g><path d=" M 486.946 155.596 L 487.033 155.884 L 486.804 155.706 L 487.087 155.706 L 486.858 155.884 L 486.946 155.596 Z " fill="rgb(255,255,255)"/></g><g id="s4"><path d=" M 486.946 155.596 L 487.033 155.884 L 486.804 155.706 L 487.087 155.706 L 486.858 155.884 L 486.946 155.596 Z " fill="rgb(255,255,255)"/><path d=" M 486.946 155.596 L 487.033 155.884 L 486.804 155.706 L 487.087 155.706 L 486.858 155.884 L 486.946 155.596 Z " fill="rgb(255,255,255)"/><path d=" M 486.946 155.596 L 487.033 155.884 L 486.804 155.706 L 487.087 155.706 L 486.858 155.884 L 486.946 155.596 Z " fill="rgb(255,255,255)"/><path d=" M 486.946 155.596 L 487.033 155.884 L 486.804 155.706 L 487.087 155.706 L 486.858 155.884 L 486.946 155.596 Z " fill="rgb(255,255,255)"/></g></g></g><g id="s18"><g id="s9"><g id="s5"><g id="s4"><path d=" M 486.946 155.596 L 487.033 155.884 L 486.804 155.706 L 487.087 155.706 L 486.858 155.884 L 486.946 155.596 Z " fill="rgb(255,255,255)"/><path d=" M 486.946 155.596 L 487.033 155.884 L 486.804 155.706 L 487.087 155.706 L 486.858 155.884 L 486.946 155.596 Z " fill="rgb(255,255,255)"/><path d=" M 486.946 155.596 L 487.033 155.884 L 486.804 155.706 L 487.087 155.706 L 486.858 155.884 L 486.946 155.596 Z " fill="rgb(255,255,255)"/><path d=" M 486.946 155.596 L 487.033 155.884 L 486.804 155.706 L 487.087 155.706 L 486.858 155.884 L 486.946 155.596 Z " fill="rgb(255,255,255)"/></g><path d=" M 486.946 155.596 L 487.033 155.884 L 486.804 155.706 L 487.087 155.706 L 486.858 155.884 L 486.946 155.596 Z " fill="rgb(255,255,255)"/></g><g id="s4"><path d=" M 486.946 155.596 L 487.033 155.884 L 486.804 155.706 L 487.087 155.706 L 486.858 155.884 L 486.946 155.596 Z " fill="rgb(255,255,255)"/><path d=" M 486.946 155.596 L 487.033 155.884 L 486.804 155.706 L 487.087 155.706 L 486.858 155.884 L 486.946 155.596 Z " fill="rgb(255,255,255)"/><path d=" M 486.946 155.596 L 487.033 155.884 L 486.804 155.706 L 487.087 155.706 L 486.858 155.884 L 486.946 155.596 Z " fill="rgb(255,255,255)"/><path d=" M 486.946 155.596 L 487.033 155.884 L 486.804 155.706 L 487.087 155.706 L 486.858 155.884 L 486.946 155.596 Z " fill="rgb(255,255,255)"/></g></g><g id="s9"><g id="s5"><g id="s4"><path d=" M 486.946 155.596 L 487.033 155.884 L 486.804 155.706 L 487.087 155.706 L 486.858 155.884 L 486.946 155.596 Z " fill="rgb(255,255,255)"/><path d=" M 486.946 155.596 L 487.033 155.884 L 486.804 155.706 L 487.087 155.706 L 486.858 155.884 L 486.946 155.596 Z " fill="rgb(255,255,255)"/><path d=" M 486.946 155.596 L 487.033 155.884 L 486.804 155.706 L 487.087 155.706 L 486.858 155.884 L 486.946 155.596 Z " fill="rgb(255,255,255)"/><path d=" M 486.946 155.596 L 487.033 155.884 L 486.804 155.706 L 487.087 155.706 L 486.858 155.884 L 486.946 155.596 Z " fill="rgb(255,255,255)"/></g><path d=" M 486.946 155.596 L 487.033 155.884 L 486.804 155.706 L 487.087 155.706 L 486.858 155.884 L 486.946 155.596 Z " fill="rgb(255,255,255)"/></g><g id="s4"><path d=" M 486.946 155.596 L 487.033 155.884 L 486.804 155.706 L 487.087 155.706 L 486.858 155.884 L 486.946 155.596 Z " fill="rgb(255,255,255)"/><path d=" M 486.946 155.596 L 487.033 155.884 L 486.804 155.706 L 487.087 155.706 L 486.858 155.884 L 486.946 155.596 Z " fill="rgb(255,255,255)"/><path d=" M 486.946 155.596 L 487.033 155.884 L 486.804 155.706 L 487.087 155.706 L 486.858 155.884 L 486.946 155.596 Z " fill="rgb(255,255,255)"/><path d=" M 486.946 155.596 L 487.033 155.884 L 486.804 155.706 L 487.087 155.706 L 486.858 155.884 L 486.946 155.596 Z " fill="rgb(255,255,255)"/></g></g></g><g id="s9"><g id="s5"><g id="s4"><path d=" M 486.946 155.596 L 487.033 155.884 L 486.804 155.706 L 487.087 155.706 L 486.858 155.884 L 486.946 155.596 Z " fill="rgb(255,255,255)"/><path d=" M 486.946 155.596 L 487.033 155.884 L 486.804 155.706 L 487.087 155.706 L 486.858 155.884 L 486.946 155.596 Z " fill="rgb(255,255,255)"/><path d=" M 486.946 155.596 L 487.033 155.884 L 486.804 155.706 L 487.087 155.706 L 486.858 155.884 L 486.946 155.596 Z " fill="rgb(255,255,255)"/><path d=" M 486.946 155.596 L 487.033 155.884 L 486.804 155.706 L 487.087 155.706 L 486.858 155.884 L 486.946 155.596 Z " fill="rgb(255,255,255)"/></g><path d=" M 486.946 155.596 L 487.033 155.884 L 486.804 155.706 L 487.087 155.706 L 486.858 155.884 L 486.946 155.596 Z " fill="rgb(255,255,255)"/></g><g id="s4"><path d=" M 486.946 155.596 L 487.033 155.884 L 486.804 155.706 L 487.087 155.706 L 486.858 155.884 L 486.946 155.596 Z " fill="rgb(255,255,255)"/><path d=" M 486.946 155.596 L 487.033 155.884 L 486.804 155.706 L 487.087 155.706 L 486.858 155.884 L 486.946 155.596 Z " fill="rgb(255,255,255)"/><path d=" M 486.946 155.596 L 487.033 155.884 L 486.804 155.706 L 487.087 155.706 L 486.858 155.884 L 486.946 155.596 Z " fill="rgb(255,255,255)"/><path d=" M 486.946 155.596 L 487.033 155.884 L 486.804 155.706 L 487.087 155.706 L 486.858 155.884 L 486.946 155.596 Z " fill="rgb(255,255,255)"/></g></g><g id="s5"><g id="s4"><path d=" M 486.946 155.596 L 487.033 155.884 L 486.804 155.706 L 487.087 155.706 L 486.858 155.884 L 486.946 155.596 Z " fill="rgb(255,255,255)"/><path d=" M 486.946 155.596 L 487.033 155.884 L 486.804 155.706 L 487.087 155.706 L 486.858 155.884 L 486.946 155.596 Z " fill="rgb(255,255,255)"/><path d=" M 486.946 155.596 L 487.033 155.884 L 486.804 155.706 L 487.087 155.706 L 486.858 155.884 L 486.946 155.596 Z " fill="rgb(255,255,255)"/><path d=" M 486.946 155.596 L 487.033 155.884 L 486.804 155.706 L 487.087 155.706 L 486.858 155.884 L 486.946 155.596 Z " fill="rgb(255,255,255)"/></g><path d=" M 486.946 155.596 L 487.033 155.884 L 486.804 155.706 L 487.087 155.706 L 486.858 155.884 L 486.946 155.596 Z " fill="rgb(255,255,255)"/></g></g></g><g id="g7416"><g id="g7418"><path d=" M 488.586 147.738 C 488.894 147.574 489.203 147.413 489.527 147.286 C 485.857 145.355 485.651 143.903 484.897 142.375 C 485.478 144.144 485.963 145.911 488.586 147.738 L 488.586 147.738 Z " fill-rule="evenodd" fill="rgb(168,1,38)"/><path d=" M 486.674 144.839 C 488.072 146.009 489.286 146.842 490.182 147.096 C 491.067 146.623 493.996 146.367 493.933 147.033 C 493.292 146.717 492.911 146.867 492.548 146.984 C 492.73 146.981 493.213 146.928 493.358 146.979 C 493.299 147.05 493.235 147.081 493.169 147.121 C 493.406 147.172 493.629 147.24 493.816 147.352 C 493.937 147.34 494.016 147.343 494.053 147.381 C 493.929 147.413 493.781 147.571 493.708 147.678 C 494.522 147.702 495.389 147.693 495.48 148.552 C 495.737 147.792 495.278 147.396 494.383 147.224 C 494.265 146.963 494.076 146.741 493.893 146.49 C 491.446 146.353 489.003 146.187 486.674 144.839 L 486.674 144.839 Z " fill-rule="evenodd" fill="rgb(168,1,38)"/></g><path d=" M 484.754 150.756 L 484.754 149.275 L 485.746 149.275 C 485.707 149.326 485.673 149.379 485.59 149.412 L 484.969 149.412 L 484.969 149.802 L 485.523 149.802 C 485.491 149.849 485.456 149.893 485.398 149.913 L 484.969 149.913 L 484.969 150.441 C 484.924 150.561 484.864 150.672 484.754 150.756 Z " fill-rule="evenodd" fill="rgb(0,0,0)"/><path d=" M 487.43 149.428 L 487.43 150.511 L 487.711 150.511 L 487.711 149.491 C 487.33 149.145 486.949 149.145 486.568 149.491 L 486.568 150.511 L 486.822 150.511 L 486.822 149.913 L 487.023 149.913 C 487.07 149.888 487.103 149.86 487.121 149.826 L 486.827 149.826 L 486.827 149.432 C 487.053 149.277 487.233 149.277 487.43 149.428 L 487.43 149.428 Z " fill-rule="evenodd" fill="rgb(0,0,0)"/><path d=" M 490.368 150.547 L 489.225 150.547 L 489.225 149.298 L 489.511 149.298 L 489.511 150.444 L 490.516 150.444 C 490.474 150.483 490.452 150.534 490.368 150.547 Z " fill-rule="evenodd" fill="rgb(0,0,0)"/><path d=" M 492.075 149.275 L 492.075 149.52 C 491.616 150.142 492.398 150.889 493.278 150.342 L 493.345 150.328 C 492.799 150.944 490.8 150.444 492.075 149.275 L 492.075 149.275 Z " fill-rule="evenodd" fill="rgb(0,0,0)"/><path d=" M 491.471 149.307 L 491.471 149.759 C 491.91 148.968 492.518 148.575 494.381 149.1 C 492.594 148.398 491.931 148.766 491.471 149.307 Z " fill-rule="evenodd" fill="rgb(0,0,0)"/><path d=" M 494.942 149.177 C 494.569 149.183 494.194 149.432 494.196 149.904 C 494.201 150.849 495.686 150.897 495.687 149.904 C 495.687 149.408 495.315 149.171 494.942 149.177 L 494.942 149.177 Z  M 494.938 149.275 C 495.16 149.273 495.382 149.481 495.384 149.904 C 495.388 150.752 494.507 150.733 494.501 149.904 C 494.498 149.49 494.717 149.278 494.938 149.275 Z " fill-rule="evenodd" fill="rgb(0,0,0)"/><path d=" M 497.077 149.431 L 497.077 150.556 L 496.855 150.556 L 496.855 149.375 L 497.078 149.267 L 497.077 149.318 C 497.42 149.311 497.66 149.468 497.723 149.555 L 497.723 150.567 L 497.506 150.567 L 497.506 149.573 C 497.427 149.44 497.338 149.407 497.077 149.404 L 497.077 149.431 Z " fill-rule="evenodd" fill="rgb(0,0,0)"/><path d=" M 491.256 151.426 C 488.959 151.436 489.554 153.279 490.824 153.242 C 491.416 153.225 491.528 153.164 491.925 152.74 C 491.677 153.982 490.833 153.982 489.818 154.081 C 489.691 154.165 489.665 154.182 489.577 154.317 C 491.301 154.282 492.747 153.975 492.704 152.638 C 492.675 151.702 492.048 151.423 491.256 151.426 L 491.256 151.426 Z  M 491.222 151.649 C 491.423 151.649 491.616 151.711 491.758 151.823 C 491.9 151.935 491.98 152.087 491.98 152.245 C 491.979 152.574 491.64 152.84 491.222 152.839 C 490.805 152.839 490.466 152.573 490.465 152.245 C 490.465 151.916 490.804 151.649 491.222 151.649 Z " fill-rule="evenodd" fill="rgb(0,0,0)"/></g></g></g></svg>