<svg xmlns="http://www.w3.org/2000/svg" style="isolation:isolate" viewBox="481.134 84.097 20.247 303.639" width="20.247" height="303.639"><path fill="#FFF" d="M481.914 85.113h18.667v293.5h-18.667z"/><g opacity=".034"><linearGradient id="a" x1="33.865%" y1="23.171%" x2="82.338%" y2="23.171%"><stop offset="0%"/><stop offset="100%" stop-opacity="0"/></linearGradient><path fill="url(#a)" d="M482.128 85.285h9.237v293.178h-9.237z"/></g><g opacity=".034"><linearGradient id="b" x1="33.864%" y1="23.171%" x2="82.337%" y2="23.171%"><stop offset="0%"/><stop offset="100%" stop-opacity="0"/></linearGradient><path fill="url(#b)" d="M491.248 85.15h9.101v293.178h-9.101z"/></g><path d="M482.779 380.551a.856.856 0 0 1-.079-.229v-.026h3.39l.013.058c.025.118.024.144-.003.191l-.025.044h-3.271l-.025-.044v.006zM486.568 380.531a1.163 1.163 0 0 1-.078-.224c0-.01.726-.01 1.746-.01h1.747l-.007.03a.94.94 0 0 1-.071.202l-.03.059h-3.274l-.033-.064v.007zM490.279 380.663s.012-.039.026-.075c.023-.059.05-.158.069-.256l.007-.036h.876c.826 0 .877 0 .882.019l.014.069c.004.027.024.102.045.165l.037.119h-.978c-.538 0-.978 0-.978-.01v.005zM492.612 380.531a1.111 1.111 0 0 1-.079-.224c0-.01.726-.01 1.746-.01 1.301 0 1.745 0 1.745.013a.98.98 0 0 1-.075.219l-.03.061h-3.275l-.032-.064v.005zM496.422 380.559c-.034-.055-.036-.075-.017-.166.01-.046.017-.087.017-.09 0 0 .766-.01 1.702-.01h1.702l-.007.03a1.207 1.207 0 0 1-.078.214l-.027.053h-3.27l-.022-.036v.005zM482.511 379.868c-.123-.136-.255-.485-.36-.95l-.028-.122h9.127c7.273 0 9.127.011 9.127.055-.001.127-.134.541-.259.808l-.134.286h-8.702c-8.231 0-8.705 0-8.771-.077z" fill="#F7F7F7"/><g fill="#333"><path d="M486.224 383.37a19.77 19.77 0 0 0-.699-1.527l-.098-.193.041-.076c.071-.132.234-.419.333-.584l.035-.058h.97l.038.063c.085.141.302.523.354.622l.018.034-.051.099c-.276.53-.553 1.131-.775 1.686l-.037.092h-.065l-.064-.158zM496.031 383.219a20.336 20.336 0 0 0-.699-1.527l-.099-.193.041-.076c.071-.132.234-.419.333-.584l.035-.058H496.613l.038.063c.084.141.302.523.354.622l.017.034-.051.099c-.276.53-.552 1.132-.774 1.686l-.038.093h-.064l-.064-.159zM490.152 382.678c.08-.157.229-.434.331-.618l.186-.333-.219-.387-.219-.388h-.376c-.321 0-.376-.011-.376-.041 0-.033-.031-.039-.163-.033-.153.011-.165.013-.216.101l-.053.093.281.541c.155.298.364.722.464.944.1.221.189.402.199.403.009 0 .082-.127.161-.283v.001zM492.421 382.658c-.08-.156-.229-.434-.331-.617l-.186-.333.219-.388.219-.387h.376c.321 0 .376-.011.376-.041 0-.033.031-.04.163-.033.153.011.165.013.216.101l.053.093-.281.541a23.21 23.21 0 0 0-.464.943c-.1.221-.189.403-.198.403a1.742 1.742 0 0 1-.162-.283v.001z"/><path d="M488.91 386.921c0-.013.083-.382.095-.422.173-2.249.353-1.782 1.063-3.147 0-.069.484-1.048.753-1.521l.137-.242v-.627h.671v.635l.144.254c.151.266.566 1.083.663 1.303l.056.128c.882 2.401.218.293 1.126 3.393.023.105.042.205.042.223 0 .033-.004.033-2.375.033-1.306 0-2.375 0-2.375-.011v.001z"/></g><path vector-effect="non-scaling-stroke" stroke-width=".4" stroke="#000" d="M481.934 378.596h18.647M481.934 131.389h18.647M494.789 380.789h-1.018M483.881 386.105h4.912M485.828 380.789h1.018"/><path d="M487.286 381.616c-.139-.28-.286-.556-.44-.827M485.828 380.789c-.154.271-.301.547-.44.827" fill="none" vector-effect="non-scaling-stroke" stroke-width=".4" stroke="#000"/><path vector-effect="non-scaling-stroke" stroke-width=".4" stroke="#000" d="M489.21 380.789h.764"/><path d="M490.718 381.717c-.141-.287-.29-.571-.446-.851M489.21 380.789c-.08.14-.157.281-.233.423" fill="none" vector-effect="non-scaling-stroke" stroke-width=".4" stroke="#000"/><path vector-effect="non-scaling-stroke" stroke-width=".4" stroke="#000" d="M498.634 386.105h-4.912M496.687 380.789h-1.018"/><path d="M495.669 380.789c-.154.271-.301.547-.44.827M497.128 381.616c-.14-.28-.287-.556-.441-.827" fill="none" vector-effect="non-scaling-stroke" stroke-width=".4" stroke="#000"/><path vector-effect="non-scaling-stroke" stroke-width=".4" stroke="#000" d="M493.305 380.789h-.764"/><path d="M489.974 380.789c.151-.195.228-.438.216-.684" fill="none" vector-effect="non-scaling-stroke" stroke-width=".4" stroke="#000"/><path vector-effect="non-scaling-stroke" stroke-width=".4" stroke="#000" d="M486.497 380.789h3.477"/><path d="M492.325 380.105c-.011.246.065.489.216.684M496.018 380.789c.151-.195.228-.438.216-.684" fill="none" vector-effect="non-scaling-stroke" stroke-width=".4" stroke="#000"/><path vector-effect="non-scaling-stroke" stroke-width=".4" stroke="#000" d="M490.272 380.866h1.971"/><path d="M489.465 380.789a.833.833 0 0 0 .054.078M492.996 380.866a1.09 1.09 0 0 0 .055-.078" fill="none" vector-effect="non-scaling-stroke" stroke-width=".4" stroke="#000"/><path vector-effect="non-scaling-stroke" stroke-width=".4" stroke="#000" d="M489.519 380.866h3.477"/><path d="M492.293 380.866c-.156.28-.305.564-.446.851M492.293 380.866c-.156.28-.305.564-.446.851M493.563 381.166a17.2 17.2 0 0 0-.208-.377M500.581 84.897c-.001 97.899.001 195.799 0 293.699a3.01 3.01 0 0 1-.489 1.509h-17.669a3.01 3.01 0 0 1-.489-1.509V84.897M489.004 386.105c-.066.276-.125.553-.177.831h4.911a17.057 17.057 0 0 0-.177-.831M489.925 383.328c.251-.585.534-1.155.849-1.709v-.753" fill="none" vector-effect="non-scaling-stroke" stroke-width=".4" stroke="#000"/><path d="M491.791 380.866v.753a17.2 17.2 0 0 1 .823 1.647" fill="none" vector-effect="non-scaling-stroke" stroke-width=".4" stroke="#000"/><path d="M486.337 383.931a17.175 17.175 0 0 0-1.39-3.142h-1.018a17.18 17.18 0 0 0-1.946 5.316h4.911" fill="#333" vector-effect="non-scaling-stroke" stroke-width=".4" stroke="#000"/><path d="M496.178 380.493c.037.106.091.207.16.296h3.477c.151-.195.228-.438.216-.684" fill="none" vector-effect="non-scaling-stroke" stroke-width=".4" stroke="#000"/><path d="M495.621 386.105h4.912a17.207 17.207 0 0 0-1.947-5.316h-1.018a17.175 17.175 0 0 0-1.39 3.142M487.727 380.789a17.156 17.156 0 0 0-1.947 5.316h4.911a17.18 17.18 0 0 0-1.946-5.316h-1.018z" fill="#333" vector-effect="non-scaling-stroke" stroke-width=".4" stroke="#000"/><path d="M494.789 380.789a17.18 17.18 0 0 1 1.946 5.316h-4.911a17.156 17.156 0 0 1 1.947-5.316" fill="#333" vector-effect="non-scaling-stroke" stroke-width=".4" stroke="#000"/><path vector-effect="non-scaling-stroke" stroke-width=".4" stroke="#000" d="M492.541 380.789h3.477"/><path d="M482.484 380.105c-.012.246.065.489.216.684h3.477c.069-.089.123-.19.16-.296M486.281 380.105c-.012.246.065.489.216.684" fill="none" vector-effect="non-scaling-stroke" stroke-width=".4" stroke="#000"/><path vector-effect="non-scaling-stroke" stroke-width=".4" stroke="#000" d="M481.934 167.082h18.647"/><g><path d="M492.667 313.675h-3.869l-.143.107v3.441h1.071v-1.29l.102-.092h2.839c.717 0 1.053-.193 1.053-.688v-.79c-.001-.495-.336-.688-1.053-.688m0 1.272c0 .233-.155.281-.491.281h-2.336l-.114-.11v-.738l.102-.093h2.348c.336 0 .491.048.491.282v.378zM490.426 321.501l.922 1.35-.051.131h-2.038l-.52.64h3.033l.21.128.471.65h1.226l-2.686-3.594" fill="#005288"/><g fill="#005288"><path d="M489.854 339.431v-.955l.11-.095h2.05v-.608h-3.249v2.357h4.793v-.605h-3.589M488.765 336.581h4.844v.669h-4.844z"/></g><path d="M489.838 329.181h3.902c-.06-.496-.368-.634-1.149-.634h-2.794c-.882 0-1.163.172-1.163.839v1.872c0 .667.281.839 1.163.839h2.794c.793 0 1.096-.149 1.117-.663h-3.87l-.115-.108v-2.072M492.625 306.881h-2.839l-.084-.092v-.607l.084-.065h3.827l.052-.128c-.131-.335-.468-.491-1.095-.491h-2.658c-.881 0-1.163.172-1.163.839v.392c0 .668.282.839 1.163.839h2.832l.089.079v.634l-.072.099h-3.24v-.003h-.849s-.097.049-.093.072c.072.466.39.599 1.151.599h2.895c.881 0 1.171-.172 1.171-.84v-.489c0-.666-.29-.838-1.171-.838M489.892 344.809h-1.593l-.087.165 1.77 1.29c.335-.194.7-.391 1.096-.585M491.32 347.239l1.555 1.134h1.613l.067-.15-2.323-1.7c-.308.226-.613.466-.912.716" fill="#005288"/><path d="M489.655 348.371h-1.442l-.122-.191c.981-.947 5.456-4.504 11.282-4.956 0 0-5.096.566-9.718 5.147" fill="#A7A9AC"/></g><g><path fill="#B22234" d="M486.639 155.476h9.199v5.17h-9.199z"/><path d="M486.639 156.073h9.199m0 .796h-9.199m0 .795h9.199m0 .795h-9.199m0 .796h9.199m0 .795h-9.199" vector-effect="non-scaling-stroke" stroke-width=".385" stroke="#FFF"/><path fill="#3C3B6E" d="M486.639 155.476h3.68v2.784h-3.68z"/><g fill="#FFF"><path d="M486.946 155.596l.087.288-.229-.178h.283l-.229.178.088-.288z"/><path d="M486.946 155.596l.087.288-.229-.178h.283l-.229.178.088-.288z"/><path d="M486.946 155.596l.087.288-.229-.178h.283l-.229.178.088-.288z"/><path d="M486.946 155.596l.087.288-.229-.178h.283l-.229.178.088-.288z"/><path d="M486.946 155.596l.087.288-.229-.178h.283l-.229.178.088-.288z"/><g><path d="M486.946 155.596l.087.288-.229-.178h.283l-.229.178.088-.288z"/><path d="M486.946 155.596l.087.288-.229-.178h.283l-.229.178.088-.288z"/><path d="M486.946 155.596l.087.288-.229-.178h.283l-.229.178.088-.288z"/><path d="M486.946 155.596l.087.288-.229-.178h.283l-.229.178.088-.288z"/></g><g><path d="M486.946 155.596l.087.288-.229-.178h.283l-.229.178.088-.288z"/><path d="M486.946 155.596l.087.288-.229-.178h.283l-.229.178.088-.288z"/><path d="M486.946 155.596l.087.288-.229-.178h.283l-.229.178.088-.288z"/><path d="M486.946 155.596l.087.288-.229-.178h.283l-.229.178.088-.288z"/><path d="M486.946 155.596l.087.288-.229-.178h.283l-.229.178.088-.288z"/><g><path d="M486.946 155.596l.087.288-.229-.178h.283l-.229.178.088-.288z"/><path d="M486.946 155.596l.087.288-.229-.178h.283l-.229.178.088-.288z"/><path d="M486.946 155.596l.087.288-.229-.178h.283l-.229.178.088-.288z"/><path d="M486.946 155.596l.087.288-.229-.178h.283l-.229.178.088-.288z"/></g></g><g><path d="M486.946 155.596l.087.288-.229-.178h.283l-.229.178.088-.288z"/><path d="M486.946 155.596l.087.288-.229-.178h.283l-.229.178.088-.288z"/><path d="M486.946 155.596l.087.288-.229-.178h.283l-.229.178.088-.288z"/><path d="M486.946 155.596l.087.288-.229-.178h.283l-.229.178.088-.288z"/><path d="M486.946 155.596l.087.288-.229-.178h.283l-.229.178.088-.288z"/><g><path d="M486.946 155.596l.087.288-.229-.178h.283l-.229.178.088-.288z"/><path d="M486.946 155.596l.087.288-.229-.178h.283l-.229.178.088-.288z"/><path d="M486.946 155.596l.087.288-.229-.178h.283l-.229.178.088-.288z"/><path d="M486.946 155.596l.087.288-.229-.178h.283l-.229.178.088-.288z"/></g><g><path d="M486.946 155.596l.087.288-.229-.178h.283l-.229.178.088-.288z"/><path d="M486.946 155.596l.087.288-.229-.178h.283l-.229.178.088-.288z"/><path d="M486.946 155.596l.087.288-.229-.178h.283l-.229.178.088-.288z"/><path d="M486.946 155.596l.087.288-.229-.178h.283l-.229.178.088-.288z"/><path d="M486.946 155.596l.087.288-.229-.178h.283l-.229.178.088-.288z"/><g><path d="M486.946 155.596l.087.288-.229-.178h.283l-.229.178.088-.288z"/><path d="M486.946 155.596l.087.288-.229-.178h.283l-.229.178.088-.288z"/><path d="M486.946 155.596l.087.288-.229-.178h.283l-.229.178.088-.288z"/><path d="M486.946 155.596l.087.288-.229-.178h.283l-.229.178.088-.288z"/></g></g></g><g><path d="M486.946 155.596l.087.288-.229-.178h.283l-.229.178.088-.288z"/><path d="M486.946 155.596l.087.288-.229-.178h.283l-.229.178.088-.288z"/><path d="M486.946 155.596l.087.288-.229-.178h.283l-.229.178.088-.288z"/><path d="M486.946 155.596l.087.288-.229-.178h.283l-.229.178.088-.288z"/><path d="M486.946 155.596l.087.288-.229-.178h.283l-.229.178.088-.288z"/><g><path d="M486.946 155.596l.087.288-.229-.178h.283l-.229.178.088-.288z"/><path d="M486.946 155.596l.087.288-.229-.178h.283l-.229.178.088-.288z"/><path d="M486.946 155.596l.087.288-.229-.178h.283l-.229.178.088-.288z"/><path d="M486.946 155.596l.087.288-.229-.178h.283l-.229.178.088-.288z"/></g></g><g><path d="M486.946 155.596l.087.288-.229-.178h.283l-.229.178.088-.288z"/><path d="M486.946 155.596l.087.288-.229-.178h.283l-.229.178.088-.288z"/><path d="M486.946 155.596l.087.288-.229-.178h.283l-.229.178.088-.288z"/><path d="M486.946 155.596l.087.288-.229-.178h.283l-.229.178.088-.288z"/><path d="M486.946 155.596l.087.288-.229-.178h.283l-.229.178.088-.288z"/></g></g><g fill-rule="evenodd"><g fill="#A80126"><path d="M488.586 147.738c.308-.164.617-.325.941-.452-3.67-1.931-3.876-3.383-4.63-4.911.581 1.769 1.066 3.536 3.689 5.363z"/><path d="M486.674 144.839c1.398 1.17 2.612 2.003 3.508 2.257.885-.473 3.814-.729 3.751-.063-.641-.316-1.022-.166-1.385-.049.182-.003.665-.056.81-.005-.059.071-.123.102-.189.142.237.051.46.119.647.231.121-.012.2-.009.237.029-.124.032-.272.19-.345.297.814.024 1.681.015 1.772.874.257-.76-.202-1.156-1.097-1.328-.118-.261-.307-.483-.49-.734-2.447-.137-4.89-.303-7.219-1.651z"/></g><path d="M484.754 150.756v-1.481h.992c-.039.051-.073.104-.156.137h-.621v.39h.554c-.032.047-.067.091-.125.111h-.429v.528a.67.67 0 0 1-.215.315zM487.43 149.428v1.083h.281v-1.02c-.381-.346-.762-.346-1.143 0v1.02h.254v-.598h.201a.223.223 0 0 0 .098-.087h-.294v-.394c.226-.155.406-.155.603-.004zM490.368 150.547h-1.143v-1.249h.286v1.146h1.005c-.042.039-.064.09-.148.103zM492.075 149.275v.245c-.459.622.323 1.369 1.203.822l.067-.014c-.546.616-2.545.116-1.27-1.053z"/><path d="M491.471 149.307v.452c.439-.791 1.047-1.184 2.91-.659-1.787-.702-2.45-.334-2.91.207zM494.942 149.177c-.373.006-.748.255-.746.727.005.945 1.49.993 1.491 0 0-.496-.372-.733-.745-.727zm-.004.098c.222-.002.444.206.446.629.004.848-.877.829-.883 0-.003-.414.216-.626.437-.629zM497.077 149.431v1.125h-.222v-1.181l.223-.108-.001.051c.343-.007.583.15.646.237v1.012h-.217v-.994c-.079-.133-.168-.166-.429-.169v.027zM491.256 151.426c-2.297.01-1.702 1.853-.432 1.816.592-.017.704-.078 1.101-.502-.248 1.242-1.092 1.242-2.107 1.341-.127.084-.153.101-.241.236 1.724-.035 3.17-.342 3.127-1.679-.029-.936-.656-1.215-1.448-1.212zm-.034.223c.201 0 .394.062.536.174a.542.542 0 0 1 .222.422c-.001.329-.34.595-.758.594-.417 0-.756-.266-.757-.594 0-.329.339-.596.757-.596z"/></g></g></svg>