<?xml version="1.0" standalone="no"?><!-- Generator: Gravit.io --><svg xmlns="http://www.w3.org/2000/svg" xmlns:xlink="http://www.w3.org/1999/xlink" style="isolation:isolate" viewBox="381.586 83.747 24.972 303.994" width="24.972" height="303.994"><g id="f9-1.2-booster-reusale"><g id="g10195"><rect x="384.728" y="83.875" width="18.667" height="294.734" transform="matrix(1,0,0,1,0,0)" fill="rgb(255,255,255)"/><g id="g7287"><g opacity="0.03365383"><linearGradient id="_lgradient_15" x1="33.864419991457595%" y1="23.17125312848214%" x2="82.33803203858159%" y2="23.17125312848214%"><stop offset="0%" stop-opacity="1" style="stop-color:rgb(0,0,0)"/><stop offset="100%" stop-opacity="0" style="stop-color:rgb(0,0,0)"/></linearGradient><rect x="384.917" y="84.092" width="9.258" height="294.409" transform="matrix(1,0,0,1,0,0)" fill="url(#_lgradient_15)"/></g><g opacity="0.03365383"><linearGradient id="_lgradient_16" x1="33.86436313822969%" y1="23.171251618138644%" x2="82.33797733509434%" y2="23.171251618138644%"><stop offset="0%" stop-opacity="1" style="stop-color:rgb(0,0,0)"/><stop offset="100%" stop-opacity="0" style="stop-color:rgb(0,0,0)"/></linearGradient><rect x="394.037" y="84.037" width="9.122" height="294.313" transform="matrix(1,0,0,1,0,0)" fill="url(#_lgradient_16)"/></g></g></g><rect x="384.152" y="376.079" width="0.445" height="0.484" transform="matrix(1,0,0,1,0,0)" fill="rgb(247,247,247)"/><rect x="403.364" y="376.034" width="0.586" height="0.597" transform="matrix(1,0,0,1,0,0)" fill="rgb(247,247,247)"/><path d=" M 385.551 380.503 C 385.527 380.451 385.504 380.384 385.5 380.354 L 385.491 380.3 L 387.191 380.3 L 388.891 380.3 L 388.909 380.391 C 388.924 380.468 388.923 380.49 388.902 380.532 L 388.877 380.582 L 387.235 380.582 L 385.592 380.582 L 385.55 380.488 L 385.551 380.503 Z " fill="rgb(247,247,247)"/><path d=" M 389.348 380.502 C 389.324 380.45 389.301 380.384 389.297 380.354 L 389.288 380.3 L 391.032 380.3 C 392.481 380.3 392.776 380.3 392.776 380.321 C 392.776 380.354 392.716 380.521 392.689 380.561 L 392.666 380.597 L 391.028 380.597 L 389.39 380.597 L 389.347 380.503 L 389.348 380.502 Z " fill="rgb(247,247,247)"/><path d=" M 393.08 380.647 C 393.116 380.553 393.15 380.438 393.159 380.374 L 393.17 380.3 L 394.05 380.3 C 395.006 380.3 394.947 380.29 394.948 380.383 C 394.948 380.402 394.968 380.475 394.992 380.546 L 395.036 380.675 L 394.053 380.675 C 393.123 380.675 393.07 380.674 393.08 380.648 L 393.08 380.647 Z " fill="rgb(247,247,247)"/><path d=" M 395.398 380.522 C 395.38 380.481 395.356 380.415 395.345 380.374 L 395.326 380.3 L 397.074 380.3 C 398.265 380.3 398.823 380.3 398.823 380.316 C 398.823 380.345 398.759 380.526 398.735 380.562 L 398.713 380.597 L 397.072 380.597 L 395.431 380.597 L 395.398 380.523 L 395.398 380.522 Z " fill="rgb(247,247,247)"/><path d=" M 399.207 380.542 C 399.184 380.495 399.183 380.474 399.199 380.393 L 399.217 380.299 L 400.918 380.299 C 402.077 380.299 402.619 380.299 402.619 380.315 C 402.619 380.344 402.555 380.525 402.532 380.561 L 402.509 380.596 L 400.871 380.596 L 399.232 380.596 L 399.206 380.541 L 399.207 380.542 Z " fill="rgb(247,247,247)"/><path d=" M 385.27 379.857 C 385.176 379.741 384.896 378.962 384.896 378.815 C 384.896 378.761 388.229 378.73 394.054 378.73 L 403.212 378.73 L 403.153 379.049 C 403.12 379.224 403.028 379.502 402.95 379.667 L 402.806 379.968 L 394.083 379.968 C 387.211 379.968 385.341 379.944 385.27 379.857 L 385.27 379.857 Z " fill="rgb(247,247,247)"/><g id="g7185"><g id="g7187"><path d=" M 388.941 383.374 C 388.747 382.898 388.491 382.344 388.235 381.848 L 388.136 381.655 L 388.177 381.579 C 388.249 381.447 388.414 381.16 388.513 380.995 L 388.549 380.937 L 388.748 380.937 C 388.858 380.937 389.079 380.937 389.238 380.937 L 389.528 380.937 L 389.566 381 C 389.652 381.141 389.871 381.523 389.924 381.622 L 389.942 381.655 L 389.89 381.754 C 389.611 382.285 389.332 382.886 389.108 383.44 L 389.071 383.533 L 389.038 383.533 L 389.005 383.533 L 388.941 383.375 L 388.941 383.375 L 388.941 383.374 Z " fill="rgb(51,51,51)"/><path d=" M 398.838 383.223 C 398.644 382.747 398.388 382.193 398.133 381.697 L 398.033 381.504 L 398.074 381.428 C 398.146 381.296 398.311 381.009 398.41 380.844 L 398.446 380.786 L 398.646 380.786 C 398.755 380.786 398.976 380.786 399.135 380.786 L 399.425 380.786 L 399.464 380.849 C 399.549 380.99 399.769 381.372 399.821 381.471 L 399.839 381.505 L 399.787 381.604 C 399.509 382.134 399.23 382.735 399.006 383.289 L 398.968 383.382 L 398.935 383.382 L 398.903 383.382 L 398.838 383.224 L 398.838 383.224 L 398.838 383.223 Z " fill="rgb(51,51,51)"/></g><path d=" M 392.905 382.682 C 392.986 382.526 393.136 382.248 393.239 382.065 L 393.426 381.732 L 393.206 381.345 L 392.985 380.957 L 392.605 380.957 C 392.281 380.957 392.226 380.946 392.226 380.916 C 392.226 380.883 392.194 380.877 392.062 380.883 C 391.906 380.894 391.895 380.896 391.844 380.984 L 391.789 381.077 L 392.074 381.618 C 392.23 381.916 392.44 382.34 392.541 382.561 C 392.642 382.783 392.732 382.964 392.742 382.965 C 392.751 382.965 392.825 382.838 392.905 382.681 L 392.905 382.682 Z " fill="rgb(51,51,51)"/><path d=" M 395.195 382.663 C 395.114 382.506 394.964 382.229 394.861 382.045 L 394.673 381.713 L 394.894 381.325 L 395.115 380.937 L 395.495 380.937 C 395.818 380.937 395.874 380.926 395.874 380.896 C 395.874 380.863 395.906 380.857 396.038 380.863 C 396.193 380.874 396.205 380.876 396.256 380.965 L 396.31 381.057 L 396.026 381.598 C 395.87 381.896 395.659 382.321 395.559 382.542 C 395.458 382.763 395.367 382.945 395.358 382.945 C 395.349 382.946 395.275 382.818 395.195 382.662 L 395.195 382.663 Z " fill="rgb(51,51,51)"/><path d=" M 391.652 386.925 C 391.652 386.912 391.735 386.544 391.747 386.504 C 391.922 384.255 392.103 384.722 392.82 383.357 C 392.82 383.288 393.309 382.309 393.58 381.835 L 393.718 381.594 L 393.718 381.28 L 393.718 380.967 L 394.057 380.967 L 394.396 380.967 L 394.396 381.285 L 394.396 381.602 L 394.541 381.856 C 394.693 382.122 395.112 382.939 395.21 383.159 L 395.266 383.286 C 396.156 385.688 395.487 383.58 396.403 386.68 C 396.426 386.785 396.445 386.885 396.445 386.903 C 396.445 386.936 396.441 386.936 394.048 386.936 C 392.73 386.936 391.651 386.936 391.651 386.925 L 391.652 386.925 Z " fill="rgb(51,51,51)"/></g><line x1="384.731" y1="378.601" x2="403.377" y2="378.601" vector-effect="non-scaling-stroke" stroke-width="0.4" stroke="rgb(0,0,0)" stroke-linejoin="miter" stroke-linecap="butt" stroke-miterlimit="4"/><line x1="384.731" y1="167.087" x2="403.377" y2="167.087" vector-effect="non-scaling-stroke" stroke-width="0.4" stroke="rgb(0,0,0)" stroke-linejoin="miter" stroke-linecap="butt" stroke-miterlimit="4"/><line x1="397.585" y1="380.794" x2="396.567" y2="380.794" vector-effect="non-scaling-stroke" stroke-width="0.4" stroke="rgb(0,0,0)" stroke-linejoin="miter" stroke-linecap="butt" stroke-miterlimit="4"/><line x1="386.678" y1="386.11" x2="391.589" y2="386.11" vector-effect="non-scaling-stroke" stroke-width="0.4" stroke="rgb(0,0,0)" stroke-linejoin="miter" stroke-linecap="butt" stroke-miterlimit="4"/><line x1="388.624" y1="380.794" x2="389.642" y2="380.794" vector-effect="non-scaling-stroke" stroke-width="0.4" stroke="rgb(0,0,0)" stroke-linejoin="miter" stroke-linecap="butt" stroke-miterlimit="4"/><path d=" M 390.083 381.621 C 389.943 381.341 389.797 381.065 389.642 380.794" fill="none" vector-effect="non-scaling-stroke" stroke-width="0.4" stroke="rgb(0,0,0)" stroke-linejoin="miter" stroke-linecap="butt" stroke-miterlimit="4"/><path d=" M 388.624 380.794 C 388.47 381.065 388.323 381.341 388.184 381.621" fill="none" vector-effect="non-scaling-stroke" stroke-width="0.4" stroke="rgb(0,0,0)" stroke-linejoin="miter" stroke-linecap="butt" stroke-miterlimit="4"/><line x1="392.006" y1="380.794" x2="392.771" y2="380.794" vector-effect="non-scaling-stroke" stroke-width="0.4" stroke="rgb(0,0,0)" stroke-linejoin="miter" stroke-linecap="butt" stroke-miterlimit="4"/><path d=" M 393.515 381.722 C 393.374 381.434 393.225 381.151 393.068 380.871" fill="none" vector-effect="non-scaling-stroke" stroke-width="0.4" stroke="rgb(0,0,0)" stroke-linejoin="miter" stroke-linecap="butt" stroke-miterlimit="4"/><path d=" M 392.006 380.794 C 391.927 380.934 391.849 381.075 391.774 381.217" fill="none" vector-effect="non-scaling-stroke" stroke-width="0.4" stroke="rgb(0,0,0)" stroke-linejoin="miter" stroke-linecap="butt" stroke-miterlimit="4"/><line x1="401.43" y1="386.11" x2="396.519" y2="386.11" vector-effect="non-scaling-stroke" stroke-width="0.4" stroke="rgb(0,0,0)" stroke-linejoin="miter" stroke-linecap="butt" stroke-miterlimit="4"/><line x1="399.484" y1="380.794" x2="398.466" y2="380.794" vector-effect="non-scaling-stroke" stroke-width="0.4" stroke="rgb(0,0,0)" stroke-linejoin="miter" stroke-linecap="butt" stroke-miterlimit="4"/><path d=" M 398.466 380.794 C 398.311 381.065 398.165 381.341 398.025 381.621" fill="none" vector-effect="non-scaling-stroke" stroke-width="0.4" stroke="rgb(0,0,0)" stroke-linejoin="miter" stroke-linecap="butt" stroke-miterlimit="4"/><path d=" M 399.924 381.621 C 399.785 381.341 399.638 381.065 399.484 380.794" fill="none" vector-effect="non-scaling-stroke" stroke-width="0.4" stroke="rgb(0,0,0)" stroke-linejoin="miter" stroke-linecap="butt" stroke-miterlimit="4"/><line x1="396.102" y1="380.794" x2="395.337" y2="380.794" vector-effect="non-scaling-stroke" stroke-width="0.4" stroke="rgb(0,0,0)" stroke-linejoin="miter" stroke-linecap="butt" stroke-miterlimit="4"/><path d=" M 389.077 380.109 C 389.066 380.356 389.142 380.598 389.293 380.794" fill="none" vector-effect="non-scaling-stroke" stroke-width="0.4" stroke="rgb(0,0,0)" stroke-linejoin="miter" stroke-linecap="butt" stroke-miterlimit="4"/><path d=" M 392.771 380.794 C 392.921 380.598 392.998 380.356 392.987 380.109" fill="none" vector-effect="non-scaling-stroke" stroke-width="0.4" stroke="rgb(0,0,0)" stroke-linejoin="miter" stroke-linecap="butt" stroke-miterlimit="4"/><line x1="389.293" y1="380.794" x2="392.771" y2="380.794" vector-effect="non-scaling-stroke" stroke-width="0.4" stroke="rgb(0,0,0)" stroke-linejoin="miter" stroke-linecap="butt" stroke-miterlimit="4"/><path d=" M 395.121 380.109 C 395.11 380.356 395.186 380.598 395.337 380.794" fill="none" vector-effect="non-scaling-stroke" stroke-width="0.4" stroke="rgb(0,0,0)" stroke-linejoin="miter" stroke-linecap="butt" stroke-miterlimit="4"/><path d=" M 398.814 380.794 C 398.965 380.598 399.042 380.356 399.031 380.109" fill="none" vector-effect="non-scaling-stroke" stroke-width="0.4" stroke="rgb(0,0,0)" stroke-linejoin="miter" stroke-linecap="butt" stroke-miterlimit="4"/><line x1="395.337" y1="380.794" x2="398.814" y2="380.794" vector-effect="non-scaling-stroke" stroke-width="0.4" stroke="rgb(0,0,0)" stroke-linejoin="miter" stroke-linecap="butt" stroke-miterlimit="4"/><line x1="393.068" y1="380.871" x2="395.04" y2="380.871" vector-effect="non-scaling-stroke" stroke-width="0.4" stroke="rgb(0,0,0)" stroke-linejoin="miter" stroke-linecap="butt" stroke-miterlimit="4"/><path d=" M 392.261 380.794 C 392.278 380.82 392.296 380.846 392.315 380.872" fill="none" vector-effect="non-scaling-stroke" stroke-width="0.4" stroke="rgb(0,0,0)" stroke-linejoin="miter" stroke-linecap="butt" stroke-miterlimit="4"/><path d=" M 395.792 380.871 C 395.812 380.846 395.83 380.82 395.847 380.793" fill="none" vector-effect="non-scaling-stroke" stroke-width="0.4" stroke="rgb(0,0,0)" stroke-linejoin="miter" stroke-linecap="butt" stroke-miterlimit="4"/><line x1="392.315" y1="380.871" x2="395.792" y2="380.871" vector-effect="non-scaling-stroke" stroke-width="0.4" stroke="rgb(0,0,0)" stroke-linejoin="miter" stroke-linecap="butt" stroke-miterlimit="4"/><path d=" M 395.09 380.871 C 394.933 381.151 394.784 381.434 394.643 381.722" fill="none" vector-effect="non-scaling-stroke" stroke-width="0.4" stroke="rgb(0,0,0)" stroke-linejoin="miter" stroke-linecap="butt" stroke-miterlimit="4"/><path d=" M 395.09 380.871 C 394.933 381.151 394.784 381.434 394.643 381.722" fill="none" vector-effect="non-scaling-stroke" stroke-width="0.4" stroke="rgb(0,0,0)" stroke-linejoin="miter" stroke-linecap="butt" stroke-miterlimit="4"/><path d=" M 396.359 381.17 C 396.292 381.044 396.222 380.918 396.151 380.794" fill="none" vector-effect="non-scaling-stroke" stroke-width="0.4" stroke="rgb(0,0,0)" stroke-linejoin="miter" stroke-linecap="butt" stroke-miterlimit="4"/><line x1="384.731" y1="131.394" x2="403.377" y2="131.394" vector-effect="non-scaling-stroke" stroke-width="0.4" stroke="rgb(0,0,0)" stroke-linejoin="miter" stroke-linecap="butt" stroke-miterlimit="4"/><path d=" M 403.377 84.547 L 403.377 378.601 C 403.353 379.138 403.184 379.659 402.888 380.109 L 394.054 380.109 L 385.22 380.109 C 384.924 379.659 384.755 379.138 384.731 378.601 L 384.731 84.547" fill="none" vector-effect="non-scaling-stroke" stroke-width="0.4" stroke="rgb(0,0,0)" stroke-linejoin="miter" stroke-linecap="butt" stroke-miterlimit="4"/><path d=" M 391.8 386.11 C 391.734 386.385 391.675 386.662 391.623 386.941 L 396.535 386.941 C 396.482 386.662 396.423 386.385 396.357 386.11" fill="none" vector-effect="non-scaling-stroke" stroke-width="0.4" stroke="rgb(0,0,0)" stroke-linejoin="miter" stroke-linecap="butt" stroke-miterlimit="4"/><path d=" M 392.721 383.333 C 392.972 382.748 393.255 382.178 393.57 381.624 L 393.57 380.871" fill="none" vector-effect="non-scaling-stroke" stroke-width="0.4" stroke="rgb(0,0,0)" stroke-linejoin="miter" stroke-linecap="butt" stroke-miterlimit="4"/><path d=" M 394.588 380.871 L 394.588 381.624 C 394.891 382.158 395.166 382.708 395.41 383.271" fill="none" vector-effect="non-scaling-stroke" stroke-width="0.4" stroke="rgb(0,0,0)" stroke-linejoin="miter" stroke-linecap="butt" stroke-miterlimit="4"/><path d=" M 389.133 383.936 C 388.776 382.844 388.311 381.792 387.744 380.794 L 386.726 380.794 C 385.787 382.446 385.129 384.242 384.779 386.11 L 389.69 386.11" fill="rgb(51,51,51)" vector-effect="non-scaling-stroke" stroke-width="0.4" stroke="rgb(0,0,0)" stroke-linejoin="miter" stroke-linecap="butt" stroke-miterlimit="4"/><path d=" M 385.28 380.109 C 385.269 380.356 385.345 380.598 385.496 380.794 L 388.973 380.794 C 389.042 380.704 389.096 380.604 389.133 380.498" fill="none" vector-effect="non-scaling-stroke" stroke-width="0.4" stroke="rgb(0,0,0)" stroke-linejoin="miter" stroke-linecap="butt" stroke-miterlimit="4"/><path d=" M 398.975 380.498 C 399.012 380.604 399.066 380.704 399.135 380.794 L 402.612 380.794 C 402.763 380.598 402.839 380.356 402.828 380.109" fill="none" vector-effect="non-scaling-stroke" stroke-width="0.4" stroke="rgb(0,0,0)" stroke-linejoin="miter" stroke-linecap="butt" stroke-miterlimit="4"/><path d=" M 398.417 386.11 L 403.329 386.11 C 402.979 384.242 402.321 382.446 401.382 380.794 L 400.364 380.794 C 399.797 381.792 399.332 382.844 398.975 383.936" fill="rgb(51,51,51)" vector-effect="non-scaling-stroke" stroke-width="0.4" stroke="rgb(0,0,0)" stroke-linejoin="miter" stroke-linecap="butt" stroke-miterlimit="4"/><path d=" M 397.585 380.794 C 398.524 382.446 399.181 384.242 399.532 386.11 L 394.62 386.11 C 394.97 384.242 395.628 382.446 396.567 380.794" fill="rgb(51,51,51)" vector-effect="non-scaling-stroke" stroke-width="0.4" stroke="rgb(0,0,0)" stroke-linejoin="miter" stroke-linecap="butt" stroke-miterlimit="4"/><path d=" M 390.523 380.794 C 389.584 382.446 388.927 384.242 388.576 386.11 L 393.488 386.11 C 393.137 384.242 392.48 382.446 391.541 380.794 L 390.523 380.794 Z " fill="rgb(51,51,51)" vector-effect="non-scaling-stroke" stroke-width="0.4" stroke="rgb(0,0,0)" stroke-linejoin="miter" stroke-linecap="butt" stroke-miterlimit="4"/><g id="g7297"><path d=" M 385.639 363.47 L 385.685 363.329 L 385.764 363.174 L 385.872 363.012 L 386.008 362.852 L 386.168 362.699 L 386.349 362.563 L 386.547 362.449 L 386.761 362.366 L 386.986 362.321 L 387.22 362.321 L 387.461 362.373 L 387.704 362.485 L 388.107 363.541 L 388.53 364.707 L 388.953 365.873 L 389.376 367.039 L 389.799 368.205 L 390.222 369.372 L 390.645 370.538 L 391.068 371.704 L 391.49 372.87 L 391.913 374.037 L 392.336 375.203 L 392.759 376.369 L 392.866 376.652 L 392.886 376.687 L 392.908 376.72 L 392.932 376.75 L 392.957 376.778 L 392.983 376.804 L 393.011 376.828 L 393.039 376.849 L 393.069 376.868 L 393.1 376.885 L 393.131 376.9 L 393.163 376.913 L 393.195 376.924 L 393.227 376.934 L 393.26 376.944 L 393.293 376.944 L 393.325 376.944 L 393.356 376.944 L 393.387 376.945 L 393.417 376.945 L 393.446 376.945 L 393.473 376.945 L 393.499 376.945 L 393.523 376.945 L 393.562 376.945 L 393.615 376.921 L 393.667 376.871 L 393.718 376.797 L 393.766 376.703 L 393.813 376.59 L 393.857 376.462 L 393.898 376.322 L 393.936 376.171 L 393.969 376.014 L 393.998 375.852 L 394.022 375.688 L 393.829 373.864 L 393.38 370.049 L 392.931 366.233 L 392.483 362.418 L 392.034 358.603 L 391.585 354.787 L 391.136 350.972 L 390.688 347.156 L 390.239 343.341 L 389.79 339.525 L 389.341 335.71 L 388.893 331.895 L 388.598 329.311 L 388.596 329.06 L 388.594 328.809 L 388.592 328.559 L 388.59 328.308 L 388.588 328.057 L 388.586 327.806 L 388.584 327.555 L 388.582 327.305 L 388.58 327.054 L 388.578 326.803 L 388.576 326.552 L 388.566 326.238 L 388.531 325.75 L 388.494 325.308 L 388.457 324.909 L 388.419 324.549 L 388.379 324.225 L 388.339 323.935 L 388.298 323.675 L 388.257 323.442 L 388.214 323.232 L 388.171 323.044 L 388.127 322.873 L 388.082 322.717 L 388.037 322.573 L 387.991 322.44 L 387.944 322.318 L 387.897 322.207 L 387.849 322.105 L 387.8 322.013 L 387.75 321.93 L 387.7 321.855 L 387.649 321.788 L 387.597 321.73 L 387.545 321.678 L 387.491 321.633 L 387.438 321.594 L 387.383 321.562 L 387.327 321.535 L 387.271 321.515 L 387.215 321.501 L 387.157 321.493 L 387.099 321.491 L 387.04 321.495 L 386.98 321.505 L 386.92 321.522 L 386.86 321.544 L 386.798 321.572 L 386.736 321.606 L 386.674 321.646 L 386.61 321.692 L 386.546 321.746 L 386.481 321.806 L 386.415 321.874 L 386.348 321.949 L 386.28 322.033 L 386.211 322.125 L 386.141 322.225 L 386.07 322.334 L 385.997 322.453 L 385.924 322.581 L 385.849 322.718 L 385.773 322.862 L 385.697 323.014 L 385.621 323.171 L 385.545 323.333 L 385.47 323.5 L 385.396 323.669 L 385.323 323.84 L 385.253 324.013 L 385.184 324.186 L 385.118 324.357 L 385.054 324.527 L 384.994 324.696 L 384.937 324.863 L 384.883 325.029 L 384.833 325.195 L 384.786 325.361 L 384.743 325.527 L 384.705 325.695 L 384.67 325.864 L 384.64 326.035" fill="rgb(242,242,242)" vector-effect="non-scaling-stroke" stroke-width="0.4" stroke="rgb(0,0,0)" stroke-linejoin="miter" stroke-linecap="butt" stroke-miterlimit="4"/><path d=" M 385.639 363.47 L 385.601 363.685 L 385.564 363.905 L 385.528 364.128 L 385.492 364.356 L 385.456 364.588 L 385.42 364.823 L 385.385 365.062 L 385.35 365.304 L 385.316 365.549 L 385.281 365.798 L 385.248 366.05 L 385.214 366.304 L 385.181 366.562 L 385.148 366.821 L 385.115 367.084 L 385.082 367.348 L 385.05 367.615 L 385.018 367.884 L 384.987 368.154 L 384.955 368.427 L 384.924 368.701 L 384.893 368.976 L 384.831 369.53 L 384.77 370.088 L 384.71 370.649 L 384.59 371.775 L 384.531 372.338 L 384.472 372.899 L 384.414 373.457 L 384.355 374.011 L 384.326 374.286 L 384.296 374.559 L 384.267 374.831 L 384.238 375.102 L 384.208 375.37 L 384.179 375.636 L 384.15 375.901 L 384.12 376.162 L 384.091 376.422 L 384.061 376.679 L 384.046 376.806 L 384.042 376.838 L 384.04 376.854 L 384.039 376.864 L 384.038 376.864 L 384.038 376.864 L 384.031 376.881 L 384.023 376.895 L 384.014 376.907 L 384.006 376.917 L 383.999 376.927 L 383.991 376.937 L 383.983 376.937 L 383.975 376.937 L 383.958 376.937 L 383.942 376.937 L 383.925 376.937 L 383.892 376.921 L 383.827 376.884 L 383.764 376.846 L 383.703 376.808 L 383.644 376.77 L 383.587 376.731 L 383.532 376.692 L 383.478 376.652 L 383.426 376.612 L 383.376 376.572 L 383.328 376.531 L 383.281 376.49 L 383.237 376.448 L 383.193 376.406 L 383.151 376.364 L 383.111 376.322 L 383.072 376.279 L 383.035 376.236 L 382.965 376.149 L 382.9 376.061 L 382.84 375.972 L 382.785 375.882 L 382.734 375.791 L 382.688 375.7 L 382.646 375.608 L 382.608 375.516 L 382.573 375.423 L 382.541 375.33 L 382.512 375.237 L 382.486 375.143 L 382.462 375.049 L 382.44 374.955 L 382.42 374.862 L 382.401 374.769 L 382.392 374.722 L 382.388 374.699 L 382.386 374.687 L 382.386 374.687 L 382.386 374.686 L 382.386 374.686 L 382.386 374.676 L 382.388 374.62 L 382.392 374.507 L 382.633 367.294 L 383.114 352.869 L 383.596 338.443 L 383.837 331.23 L 383.897 329.426 L 383.912 328.976 L 383.913 328.947 L 383.913 328.944 L 383.913 328.942 L 383.913 328.941 L 383.913 328.941 L 383.913 328.94 L 383.914 328.937 L 383.915 328.931 L 383.917 328.919 L 383.924 328.872 L 383.938 328.779 L 383.953 328.688 L 383.967 328.6 L 383.982 328.513 L 383.996 328.429 L 384.011 328.346 L 384.026 328.266 L 384.04 328.186 L 384.055 328.109 L 384.07 328.033 L 384.101 327.884 L 384.132 327.74 L 384.165 327.599 L 384.198 327.461 L 384.232 327.325 L 384.268 327.189 L 384.305 327.053 L 384.343 326.916 L 384.384 326.777 L 384.426 326.636 L 384.472 326.493 L 384.521 326.347 L 384.574 326.198 L 384.602 326.122 L 384.631 326.045 L 384.662 325.967 L 384.693 325.888 L 384.726 325.808 L 384.761 325.727 L 384.797 325.645 L 384.834 325.561 L 384.873 325.476 L 384.914 325.39 L 384.956 325.302 L 385 325.213 L 385.046 325.123 L 385.093 325.031" fill="rgb(242,242,242)" vector-effect="non-scaling-stroke" stroke-width="0.4" stroke="rgb(0,0,0)" stroke-linejoin="miter" stroke-linecap="round" stroke-miterlimit="4"/><path d=" M 402.505 363.47 L 402.459 363.329 L 402.38 363.174 L 402.271 363.012 L 402.135 362.852 L 401.976 362.699 L 401.795 362.563 L 401.596 362.449 L 401.383 362.366 L 401.157 362.321 L 400.923 362.321 L 400.683 362.373 L 400.44 362.485 L 400.037 363.541 L 399.614 364.707 L 399.191 365.873 L 398.768 367.039 L 398.345 368.205 L 397.922 369.372 L 397.499 370.538 L 397.076 371.704 L 396.653 372.87 L 396.23 374.037 L 395.807 375.203 L 395.384 376.369 L 395.278 376.652 L 395.257 376.687 L 395.235 376.72 L 395.212 376.75 L 395.187 376.778 L 395.16 376.804 L 395.133 376.828 L 395.104 376.849 L 395.074 376.868 L 395.044 376.885 L 395.013 376.9 L 394.981 376.913 L 394.949 376.924 L 394.916 376.934 L 394.883 376.944 L 394.851 376.944 L 394.819 376.944 L 394.787 376.944 L 394.756 376.945 L 394.726 376.945 L 394.698 376.945 L 394.67 376.945 L 394.645 376.945 L 394.621 376.945 L 394.581 376.945 L 394.528 376.921 L 394.477 376.871 L 394.426 376.797 L 394.377 376.703 L 394.33 376.59 L 394.286 376.462 L 394.245 376.322 L 394.208 376.171 L 394.174 376.014 L 394.146 375.852 L 394.122 375.688 L 394.315 373.864 L 394.763 370.049 L 395.212 366.233 L 395.661 362.418 L 396.11 358.603 L 396.558 354.787 L 397.007 350.972 L 397.456 347.156 L 397.905 343.341 L 398.353 339.525 L 398.802 335.71 L 399.251 331.895 L 399.545 329.311 L 399.547 329.06 L 399.549 328.809 L 399.551 328.559 L 399.553 328.308 L 399.555 328.057 L 399.557 327.806 L 399.559 327.555 L 399.561 327.305 L 399.563 327.054 L 399.565 326.803 L 399.567 326.552 L 399.577 326.238 L 399.613 325.75 L 399.649 325.308 L 399.687 324.909 L 399.725 324.549 L 399.764 324.225 L 399.804 323.935 L 399.845 323.675 L 399.887 323.442 L 399.929 323.232 L 399.973 323.044 L 400.017 322.873 L 400.061 322.717 L 400.107 322.573 L 400.153 322.44 L 400.199 322.318 L 400.247 322.207 L 400.295 322.105 L 400.344 322.013 L 400.393 321.93 L 400.444 321.855 L 400.495 321.788 L 400.546 321.73 L 400.599 321.678 L 400.652 321.633 L 400.706 321.594 L 400.761 321.562 L 400.816 321.535 L 400.872 321.515 L 400.929 321.501 L 400.986 321.493 L 401.045 321.491 L 401.103 321.495 L 401.163 321.505 L 401.223 321.522 L 401.284 321.544 L 401.345 321.572 L 401.407 321.606 L 401.47 321.646 L 401.533 321.692 L 401.597 321.746 L 401.662 321.806 L 401.728 321.874 L 401.795 321.949 L 401.863 322.033 L 401.932 322.125 L 402.002 322.225 L 402.073 322.334 L 402.146 322.453 L 402.22 322.581 L 402.295 322.718 L 402.37 322.862 L 402.447 323.014 L 402.523 323.171 L 402.598 323.333 L 402.673 323.5 L 402.747 323.669 L 402.82 323.84 L 402.891 324.013 L 402.959 324.186 L 403.026 324.357 L 403.089 324.527 L 403.149 324.696 L 403.207 324.863 L 403.26 325.029 L 403.311 325.195 L 403.357 325.361 L 403.4 325.527 L 403.439 325.695 L 403.473 325.864 L 403.503 326.035" fill="rgb(242,242,242)" vector-effect="non-scaling-stroke" stroke-width="0.4" stroke="rgb(0,0,0)" stroke-linejoin="miter" stroke-linecap="butt" stroke-miterlimit="4"/><path d=" M 402.505 363.47 L 402.542 363.685 L 402.579 363.905 L 402.616 364.128 L 402.652 364.356 L 402.688 364.588 L 402.723 364.823 L 402.759 365.062 L 402.793 365.304 L 402.828 365.549 L 402.862 365.798 L 402.896 366.05 L 402.93 366.304 L 402.963 366.562 L 402.996 366.821 L 403.029 367.084 L 403.061 367.348 L 403.093 367.615 L 403.125 367.884 L 403.157 368.154 L 403.189 368.427 L 403.22 368.701 L 403.251 368.976 L 403.313 369.53 L 403.374 370.088 L 403.434 370.649 L 403.553 371.775 L 403.612 372.338 L 403.671 372.899 L 403.73 373.457 L 403.789 374.011 L 403.818 374.286 L 403.847 374.559 L 403.877 374.831 L 403.906 375.102 L 403.935 375.37 L 403.965 375.636 L 403.994 375.901 L 404.023 376.162 L 404.053 376.422 L 404.083 376.679 L 404.098 376.806 L 404.102 376.838 L 404.104 376.854 L 404.105 376.864 L 404.105 376.864 L 404.106 376.864 L 404.113 376.881 L 404.121 376.895 L 404.129 376.907 L 404.137 376.917 L 404.145 376.927 L 404.153 376.937 L 404.161 376.937 L 404.169 376.937 L 404.185 376.937 L 404.202 376.937 L 404.218 376.937 L 404.251 376.921 L 404.316 376.884 L 404.379 376.846 L 404.44 376.808 L 404.499 376.77 L 404.557 376.731 L 404.612 376.692 L 404.665 376.652 L 404.717 376.612 L 404.767 376.572 L 404.815 376.531 L 404.862 376.49 L 404.907 376.448 L 404.95 376.406 L 404.992 376.364 L 405.033 376.322 L 405.071 376.279 L 405.109 376.236 L 405.179 376.149 L 405.244 376.061 L 405.304 375.972 L 405.359 375.882 L 405.409 375.791 L 405.455 375.7 L 405.497 375.608 L 405.536 375.516 L 405.57 375.423 L 405.602 375.33 L 405.631 375.237 L 405.657 375.143 L 405.681 375.049 L 405.703 374.955 L 405.724 374.862 L 405.742 374.769 L 405.751 374.722 L 405.755 374.699 L 405.757 374.687 L 405.758 374.687 L 405.758 374.686 L 405.758 374.686 L 405.758 374.676 L 405.756 374.62 L 405.752 374.507 L 405.511 367.294 L 405.029 352.869 L 404.547 338.443 L 404.307 331.23 L 404.246 329.426 L 404.231 328.976 L 404.23 328.947 L 404.23 328.944 L 404.23 328.942 L 404.23 328.941 L 404.23 328.941 L 404.23 328.94 L 404.23 328.937 L 404.229 328.931 L 404.227 328.919 L 404.22 328.872 L 404.205 328.779 L 404.191 328.688 L 404.176 328.6 L 404.162 328.513 L 404.147 328.429 L 404.133 328.346 L 404.118 328.266 L 404.103 328.186 L 404.088 328.109 L 404.073 328.033 L 404.042 327.884 L 404.011 327.74 L 403.979 327.599 L 403.946 327.461 L 403.911 327.325 L 403.876 327.189 L 403.839 327.053 L 403.8 326.916 L 403.76 326.777 L 403.717 326.636 L 403.671 326.493 L 403.622 326.347 L 403.569 326.198 L 403.541 326.122 L 403.512 326.045 L 403.482 325.967 L 403.45 325.888 L 403.417 325.808 L 403.383 325.727 L 403.347 325.645 L 403.309 325.561 L 403.271 325.476 L 403.23 325.39 L 403.188 325.302 L 403.144 325.213 L 403.098 325.123 L 403.05 325.031" fill="rgb(242,242,242)" vector-effect="non-scaling-stroke" stroke-width="0.4" stroke="rgb(0,0,0)" stroke-linejoin="miter" stroke-linecap="round" stroke-miterlimit="4"/><line x1="388.579" y1="326.346" x2="387.345" y2="325.038" vector-effect="non-scaling-stroke" stroke-width="0.4" stroke="rgb(0,0,0)" stroke-linejoin="miter" stroke-linecap="butt" stroke-miterlimit="4"/><line x1="387.345" y1="325.038" x2="385.094" y2="325.038" vector-effect="non-scaling-stroke" stroke-width="0.4" stroke="rgb(0,0,0)" stroke-linejoin="miter" stroke-linecap="butt" stroke-miterlimit="4"/><line x1="384.825" y1="355.403" x2="385" y2="331.284" vector-effect="non-scaling-stroke" stroke-width="0.4" stroke="rgb(0,0,0)" stroke-linejoin="miter" stroke-linecap="butt" stroke-miterlimit="4"/><line x1="385" y1="331.284" x2="387.16" y2="328.359" vector-effect="non-scaling-stroke" stroke-width="0.4" stroke="rgb(0,0,0)" stroke-linejoin="miter" stroke-linecap="butt" stroke-miterlimit="4"/><line x1="385" y1="331.284" x2="383.968" y2="328.61" vector-effect="non-scaling-stroke" stroke-width="0.4" stroke="rgb(0,0,0)" stroke-linejoin="miter" stroke-linecap="butt" stroke-miterlimit="4"/><line x1="387.16" y1="328.359" x2="387.345" y2="325.038" vector-effect="non-scaling-stroke" stroke-width="0.4" stroke="rgb(0,0,0)" stroke-linejoin="miter" stroke-linecap="round" stroke-miterlimit="4"/><line x1="384.135" y1="376.033" x2="384.749" y2="376.033" vector-effect="non-scaling-stroke" stroke-width="0.4" stroke="rgb(0,0,0)" stroke-linejoin="miter" stroke-linecap="butt" stroke-miterlimit="4"/><line x1="384.06" y1="376.689" x2="384.749" y2="376.689" vector-effect="non-scaling-stroke" stroke-width="0.4" stroke="rgb(0,0,0)" stroke-linejoin="miter" stroke-linecap="butt" stroke-miterlimit="4"/><line x1="393.766" y1="376.689" x2="394.378" y2="376.689" vector-effect="non-scaling-stroke" stroke-width="0.4" stroke="rgb(0,0,0)" stroke-linejoin="miter" stroke-linecap="butt" stroke-miterlimit="4"/><line x1="393.962" y1="376.033" x2="394.181" y2="376.033" vector-effect="non-scaling-stroke" stroke-width="0.4" stroke="rgb(0,0,0)" stroke-linejoin="miter" stroke-linecap="butt" stroke-miterlimit="4"/><path d=" M 382.816 375.937 L 382.935 374.435 L 383.053 372.933 L 383.172 371.431 L 383.29 369.929 L 383.409 368.428 L 383.527 366.926 L 383.645 365.424 L 383.764 363.922 L 383.882 362.42 L 384.001 360.919 L 384.119 359.417 L 384.237 357.915 L 384.356 356.413 L 384.406 355.937 L 384.439 355.818 L 384.478 355.715 L 384.523 355.629 L 384.572 355.558 L 384.626 355.501 L 384.684 355.458 L 384.745 355.427 L 384.808 355.408 L 384.872 355.398 L 384.938 355.398 L 385.003 355.408 L 385.069 355.426 L 385.133 355.451 L 385.196 355.483 L 385.258 355.521 L 385.318 355.564 L 385.376 355.611 L 385.433 355.663 L 385.488 355.718 L 385.541 355.776 L 385.593 355.836 L 385.642 355.898 L 385.69 355.961 L 385.735 356.025 L 385.779 356.089 L 385.956 356.529 L 386.538 358.098 L 387.121 359.668 L 387.704 361.237 L 388.287 362.806 L 388.87 364.376 L 389.453 365.945 L 390.036 367.514 L 390.618 369.084 L 391.201 370.653 L 391.784 372.222 L 392.367 373.792 L 392.95 375.361 L 393.533 376.93" fill="none" vector-effect="non-scaling-stroke" stroke-width="0.4" stroke="rgb(0,0,0)" stroke-linejoin="miter" stroke-linecap="butt" stroke-miterlimit="4"/><line x1="399.565" y1="326.346" x2="400.799" y2="325.038" vector-effect="non-scaling-stroke" stroke-width="0.4" stroke="rgb(0,0,0)" stroke-linejoin="miter" stroke-linecap="butt" stroke-miterlimit="4"/><line x1="400.799" y1="325.038" x2="403.049" y2="325.038" vector-effect="non-scaling-stroke" stroke-width="0.4" stroke="rgb(0,0,0)" stroke-linejoin="miter" stroke-linecap="butt" stroke-miterlimit="4"/><line x1="403.318" y1="355.403" x2="403.144" y2="331.284" vector-effect="non-scaling-stroke" stroke-width="0.4" stroke="rgb(0,0,0)" stroke-linejoin="miter" stroke-linecap="butt" stroke-miterlimit="4"/><line x1="403.144" y1="331.284" x2="400.983" y2="328.359" vector-effect="non-scaling-stroke" stroke-width="0.4" stroke="rgb(0,0,0)" stroke-linejoin="miter" stroke-linecap="butt" stroke-miterlimit="4"/><line x1="403.144" y1="331.284" x2="404.176" y2="328.61" vector-effect="non-scaling-stroke" stroke-width="0.4" stroke="rgb(0,0,0)" stroke-linejoin="miter" stroke-linecap="butt" stroke-miterlimit="4"/><line x1="400.983" y1="328.359" x2="400.799" y2="325.038" vector-effect="non-scaling-stroke" stroke-width="0.4" stroke="rgb(0,0,0)" stroke-linejoin="miter" stroke-linecap="round" stroke-miterlimit="4"/><line x1="404.009" y1="376.033" x2="403.395" y2="376.033" vector-effect="non-scaling-stroke" stroke-width="0.4" stroke="rgb(0,0,0)" stroke-linejoin="miter" stroke-linecap="butt" stroke-miterlimit="4"/><line x1="404.084" y1="376.689" x2="403.395" y2="376.689" vector-effect="non-scaling-stroke" stroke-width="0.4" stroke="rgb(0,0,0)" stroke-linejoin="miter" stroke-linecap="butt" stroke-miterlimit="4"/><path d=" M 405.327 375.937 L 405.209 374.435 L 405.09 372.933 L 404.972 371.431 L 404.853 369.929 L 404.735 368.428 L 404.617 366.926 L 404.498 365.424 L 404.38 363.922 L 404.261 362.42 L 404.143 360.919 L 404.025 359.417 L 403.906 357.915 L 403.788 356.413 L 403.738 355.937 L 403.705 355.818 L 403.666 355.715 L 403.621 355.629 L 403.571 355.558 L 403.517 355.501 L 403.46 355.458 L 403.399 355.427 L 403.336 355.408 L 403.272 355.398 L 403.206 355.398 L 403.14 355.408 L 403.075 355.426 L 403.01 355.451 L 402.947 355.483 L 402.886 355.521 L 402.826 355.564 L 402.768 355.611 L 402.711 355.663 L 402.656 355.718 L 402.602 355.776 L 402.551 355.836 L 402.501 355.898 L 402.454 355.961 L 402.408 356.025 L 402.365 356.089 L 402.188 356.529 L 401.605 358.098 L 401.022 359.668 L 400.439 361.237 L 399.857 362.806 L 399.274 364.376 L 398.691 365.945 L 398.108 367.514 L 397.525 369.084 L 396.942 370.653 L 396.359 372.222 L 395.777 373.792 L 395.194 375.361 L 394.611 376.93" fill="none" vector-effect="non-scaling-stroke" stroke-width="0.4" stroke="rgb(0,0,0)" stroke-linejoin="miter" stroke-linecap="butt" stroke-miterlimit="4"/></g><g id="Grid Fins"><g id="g5711"><path d=" M 384.443 172.291 L 384.412 165.884 L 385.474 164.322 L 385.443 162.634 L 386.287 161.041 L 386.568 160.134 L 387.255 159.884 L 387.943 159.947 L 388.349 160.072 L 388.724 161.072 L 388.943 162.166 L 388.974 163.103 L 388.974 164.103 L 388.88 164.822 L 389.693 165.728 L 389.693 172.197 L 389.068 172.322 L 384.443 172.291 Z " fill-rule="evenodd" fill="rgb(255,255,255)"/><path d=" M 389.062 165.886 L 389.062 172.316 L 384.438 172.316 L 384.438 165.912 L 385.372 164.295 L 387.582 164.295 L 389.062 165.886 Z " fill-rule="evenodd" fill="none" vector-effect="non-scaling-stroke" stroke-width="0.3" stroke="rgb(0,0,0)" stroke-linejoin="round" stroke-linecap="square" stroke-miterlimit="4"/><path d=" M 385.438 172.184 L 385.438 164.339 L 385.438 162.704 L 386.212 161.157 C 387.117 160.732 387.885 160.89 388.554 161.467 L 388.443 164.361" fill-rule="evenodd" fill="none" vector-effect="non-scaling-stroke" stroke-width="0.3" stroke="rgb(0,0,0)" stroke-linejoin="round" stroke-linecap="square" stroke-miterlimit="4"/><line x1="387.482" y1="164.339" x2="387.482" y2="172.184" vector-effect="non-scaling-stroke" stroke-width="0.3" stroke="rgb(0,0,0)" stroke-linejoin="round" stroke-linecap="square" stroke-miterlimit="4"/><path d=" M 387.56 164.317 L 388.311 164.295 L 389.681 165.776 L 389.681 172.245 L 389.052 172.306" fill-rule="evenodd" fill="none" vector-effect="non-scaling-stroke" stroke-width="0.3" stroke="rgb(0,0,0)" stroke-linejoin="round" stroke-linecap="square" stroke-miterlimit="4"/><path d=" M 387.626 164.273 L 387.648 162.682 L 388.51 161.577" fill-rule="evenodd" fill="none" vector-effect="non-scaling-stroke" stroke-width="0.3" stroke="rgb(0,0,0)" stroke-linejoin="round" stroke-linecap="square" stroke-miterlimit="4"/><path d=" M 386.19 161.157 L 386.587 160.185 C 387.081 159.893 387.685 159.896 388.355 160.075 C 389.018 161.585 389.082 163.175 388.863 164.803" fill-rule="evenodd" fill="none" vector-effect="non-scaling-stroke" stroke-width="0.3" stroke="rgb(0,0,0)" stroke-linejoin="round" stroke-linecap="square" stroke-miterlimit="4"/><path d=" M 385.482 162.571 C 386.294 162.24 386.991 162.293 387.626 162.549" fill-rule="evenodd" fill="none" vector-effect="non-scaling-stroke" stroke-width="0.3" stroke="rgb(0,0,0)" stroke-linejoin="round" stroke-linecap="round" stroke-miterlimit="4"/><line x1="387.474" y1="172.291" x2="389.037" y2="170.728"/><line x1="387.474" y1="172.291" x2="389.005" y2="170.603" vector-effect="non-scaling-stroke" stroke-width="0.3" stroke="rgb(0,0,0)" stroke-linejoin="round" stroke-linecap="round" stroke-miterlimit="4"/><line x1="386.068" y1="172.291" x2="388.974" y2="168.603" vector-effect="non-scaling-stroke" stroke-width="0.3" stroke="rgb(0,0,0)" stroke-linejoin="round" stroke-linecap="round" stroke-miterlimit="4"/><line x1="389.005" y1="166.728" x2="384.662" y2="172.259" vector-effect="non-scaling-stroke" stroke-width="0.3" stroke="rgb(0,0,0)" stroke-linejoin="round" stroke-linecap="round" stroke-miterlimit="4"/><line x1="388.568" y1="165.478" x2="384.474" y2="170.728" vector-effect="non-scaling-stroke" stroke-width="0.3" stroke="rgb(0,0,0)" stroke-linejoin="round" stroke-linecap="round" stroke-miterlimit="4"/><line x1="387.787" y1="164.541" x2="384.505" y2="168.853" vector-effect="non-scaling-stroke" stroke-width="0.3" stroke="rgb(0,0,0)" stroke-linejoin="round" stroke-linecap="round" stroke-miterlimit="4"/><line x1="386.443" y1="164.384" x2="384.451" y2="166.939" vector-effect="non-scaling-stroke" stroke-width="0.3" stroke="rgb(0,0,0)" stroke-linejoin="round" stroke-linecap="round" stroke-miterlimit="4"/><line x1="386.755" y1="172.228" x2="384.443" y2="168.947" vector-effect="non-scaling-stroke" stroke-width="0.3" stroke="rgb(0,0,0)" stroke-linejoin="round" stroke-linecap="round" stroke-miterlimit="4"/><line x1="384.505" y1="170.759" x2="385.474" y2="172.291" vector-effect="non-scaling-stroke" stroke-width="0.3" stroke="rgb(0,0,0)" stroke-linejoin="round" stroke-linecap="round" stroke-miterlimit="4"/><line x1="388.303" y1="172.241" x2="384.474" y2="167.228" vector-effect="non-scaling-stroke" stroke-width="0.3" stroke="rgb(0,0,0)" stroke-linejoin="round" stroke-linecap="round" stroke-miterlimit="4"/><line x1="388.974" y1="171.259" x2="384.599" y2="165.697" vector-effect="non-scaling-stroke" stroke-width="0.3" stroke="rgb(0,0,0)" stroke-linejoin="round" stroke-linecap="round" stroke-miterlimit="4"/><line x1="389.037" y1="169.353" x2="385.162" y2="164.791" vector-effect="non-scaling-stroke" stroke-width="0.3" stroke="rgb(0,0,0)" stroke-linejoin="round" stroke-linecap="round" stroke-miterlimit="4"/><line x1="389.068" y1="167.541" x2="386.255" y2="164.353" vector-effect="non-scaling-stroke" stroke-width="0.3" stroke="rgb(0,0,0)" stroke-linejoin="round" stroke-linecap="round" stroke-miterlimit="4"/></g><g id="g5734"><path d=" M 403.676 172.291 L 403.708 165.884 L 402.645 164.322 L 402.676 162.634 L 401.833 161.041 L 401.551 160.134 L 400.864 159.884 L 400.176 159.947 L 399.77 160.072 L 399.395 161.072 L 399.176 162.166 L 399.145 163.103 L 399.145 164.103 L 399.239 164.822 L 398.426 165.728 L 398.426 172.197 L 399.051 172.322 L 403.676 172.291 Z " fill-rule="evenodd" fill="rgb(255,255,255)"/><path d=" M 399.057 165.886 L 399.057 172.316 L 403.681 172.316 L 403.681 165.912 L 402.747 164.295 L 400.538 164.295 L 399.057 165.886 Z " fill-rule="evenodd" fill="none" vector-effect="non-scaling-stroke" stroke-width="0.3" stroke="rgb(0,0,0)" stroke-linejoin="round" stroke-linecap="square" stroke-miterlimit="4"/><path d=" M 402.681 172.184 L 402.681 164.339 L 402.681 162.704 L 401.908 161.157 C 401.003 160.732 400.235 160.89 399.565 161.467 L 399.676 164.361" fill-rule="evenodd" fill="none" vector-effect="non-scaling-stroke" stroke-width="0.3" stroke="rgb(0,0,0)" stroke-linejoin="round" stroke-linecap="square" stroke-miterlimit="4"/><line x1="400.637" y1="164.339" x2="400.637" y2="172.184" vector-effect="non-scaling-stroke" stroke-width="0.3" stroke="rgb(0,0,0)" stroke-linejoin="round" stroke-linecap="square" stroke-miterlimit="4"/><path d=" M 400.56 164.317 L 399.808 164.295 L 398.438 165.776 L 398.438 172.245 L 399.067 172.306" fill-rule="evenodd" fill="none" vector-effect="non-scaling-stroke" stroke-width="0.3" stroke="rgb(0,0,0)" stroke-linejoin="round" stroke-linecap="square" stroke-miterlimit="4"/><path d=" M 400.494 164.273 L 400.471 162.682 L 399.61 161.577" fill-rule="evenodd" fill="none" vector-effect="non-scaling-stroke" stroke-width="0.3" stroke="rgb(0,0,0)" stroke-linejoin="round" stroke-linecap="square" stroke-miterlimit="4"/><path d=" M 401.93 161.157 L 401.532 160.185 C 401.039 159.893 400.434 159.896 399.764 160.075 C 399.102 161.585 399.038 163.175 399.256 164.803" fill-rule="evenodd" fill="none" vector-effect="non-scaling-stroke" stroke-width="0.3" stroke="rgb(0,0,0)" stroke-linejoin="round" stroke-linecap="square" stroke-miterlimit="4"/><path d=" M 402.637 162.571 C 401.825 162.24 401.129 162.293 400.494 162.549" fill-rule="evenodd" fill="none" vector-effect="non-scaling-stroke" stroke-width="0.3" stroke="rgb(0,0,0)" stroke-linejoin="round" stroke-linecap="round" stroke-miterlimit="4"/><line x1="400.645" y1="172.291" x2="399.083" y2="170.728"/><line x1="400.645" y1="172.291" x2="399.114" y2="170.603" vector-effect="non-scaling-stroke" stroke-width="0.3" stroke="rgb(0,0,0)" stroke-linejoin="round" stroke-linecap="round" stroke-miterlimit="4"/><line x1="402.051" y1="172.291" x2="399.145" y2="168.603" vector-effect="non-scaling-stroke" stroke-width="0.3" stroke="rgb(0,0,0)" stroke-linejoin="round" stroke-linecap="round" stroke-miterlimit="4"/><line x1="399.114" y1="166.728" x2="403.458" y2="172.259" vector-effect="non-scaling-stroke" stroke-width="0.3" stroke="rgb(0,0,0)" stroke-linejoin="round" stroke-linecap="round" stroke-miterlimit="4"/><line x1="399.551" y1="165.478" x2="403.645" y2="170.728" vector-effect="non-scaling-stroke" stroke-width="0.3" stroke="rgb(0,0,0)" stroke-linejoin="round" stroke-linecap="round" stroke-miterlimit="4"/><line x1="400.333" y1="164.541" x2="403.614" y2="168.853" vector-effect="non-scaling-stroke" stroke-width="0.3" stroke="rgb(0,0,0)" stroke-linejoin="round" stroke-linecap="round" stroke-miterlimit="4"/><line x1="401.676" y1="164.384" x2="403.669" y2="166.939" vector-effect="non-scaling-stroke" stroke-width="0.3" stroke="rgb(0,0,0)" stroke-linejoin="round" stroke-linecap="round" stroke-miterlimit="4"/><line x1="401.364" y1="172.228" x2="403.676" y2="168.947" vector-effect="non-scaling-stroke" stroke-width="0.3" stroke="rgb(0,0,0)" stroke-linejoin="round" stroke-linecap="round" stroke-miterlimit="4"/><line x1="403.614" y1="170.759" x2="402.645" y2="172.291" vector-effect="non-scaling-stroke" stroke-width="0.3" stroke="rgb(0,0,0)" stroke-linejoin="round" stroke-linecap="round" stroke-miterlimit="4"/><line x1="399.816" y1="172.241" x2="403.645" y2="167.228" vector-effect="non-scaling-stroke" stroke-width="0.3" stroke="rgb(0,0,0)" stroke-linejoin="round" stroke-linecap="round" stroke-miterlimit="4"/><line x1="399.145" y1="171.259" x2="403.52" y2="165.697" vector-effect="non-scaling-stroke" stroke-width="0.3" stroke="rgb(0,0,0)" stroke-linejoin="round" stroke-linecap="round" stroke-miterlimit="4"/><line x1="399.083" y1="169.353" x2="402.958" y2="164.791" vector-effect="non-scaling-stroke" stroke-width="0.3" stroke="rgb(0,0,0)" stroke-linejoin="round" stroke-linecap="round" stroke-miterlimit="4"/><line x1="399.051" y1="167.541" x2="401.864" y2="164.353" vector-effect="non-scaling-stroke" stroke-width="0.3" stroke="rgb(0,0,0)" stroke-linejoin="round" stroke-linecap="round" stroke-miterlimit="4"/></g></g><g id="g9542"><path d=" M 395.447 313.675 L 391.579 313.675 L 391.436 313.782 L 391.436 317.223 L 392.507 317.223 L 392.507 315.933 L 392.609 315.841 L 395.448 315.841 C 396.164 315.841 396.5 315.648 396.5 315.153 L 396.5 314.363 C 396.5 313.868 396.164 313.675 395.447 313.675 M 395.447 314.947 C 395.447 315.18 395.293 315.228 394.957 315.228 L 392.62 315.228 L 392.506 315.118 L 392.506 314.38 L 392.609 314.287 L 394.957 314.287 C 395.293 314.287 395.447 314.335 395.447 314.569 L 395.447 314.947 L 395.447 314.947 Z " fill="rgb(0,82,136)"/><path d=" M 393.207 321.501 L 394.129 322.851 L 394.078 322.982 L 392.04 322.982 L 391.52 323.622 L 394.553 323.622 L 394.763 323.75 L 395.234 324.4 L 396.46 324.4 L 393.773 320.806" fill="rgb(0,82,136)"/><g id="g9548"><path d=" M 392.635 339.431 L 392.635 338.476 L 392.745 338.381 L 394.795 338.381 L 394.795 337.773 L 391.546 337.773 L 391.546 340.13 L 396.339 340.13 L 396.339 339.525 L 392.75 339.525" fill="rgb(0,82,136)"/><rect x="391.546" y="336.581" width="4.844" height="0.669" transform="matrix(1,0,0,1,0,0)" fill="rgb(0,82,136)"/></g><path d=" M 392.619 329.181 L 396.521 329.181 C 396.461 328.685 396.153 328.547 395.372 328.547 L 392.577 328.547 C 391.696 328.547 391.415 328.719 391.415 329.386 L 391.415 331.258 C 391.415 331.925 391.696 332.097 392.577 332.097 L 395.372 332.097 C 396.164 332.097 396.468 331.948 396.489 331.434 L 392.619 331.434 L 392.504 331.326 L 392.504 329.254" fill="rgb(0,82,136)"/><path d=" M 395.406 306.881 L 392.567 306.881 L 392.483 306.789 L 392.483 306.182 L 392.566 306.117 L 396.393 306.117 L 396.446 305.989 C 396.315 305.654 395.978 305.498 395.351 305.498 L 392.693 305.498 C 391.812 305.498 391.53 305.67 391.53 306.337 L 391.53 306.729 C 391.53 307.397 391.812 307.568 392.693 307.568 L 395.525 307.568 L 395.614 307.647 L 395.614 308.281 L 395.541 308.38 L 392.302 308.38 L 392.302 308.377 L 391.453 308.377 C 391.453 308.377 391.356 308.426 391.36 308.449 C 391.432 308.915 391.75 309.048 392.511 309.048 L 395.406 309.048 C 396.286 309.048 396.576 308.876 396.576 308.208 L 396.576 307.719 C 396.576 307.053 396.286 306.881 395.406 306.881" fill="rgb(0,82,136)"/><path d=" M 392.673 344.809 L 391.079 344.809 L 390.993 344.974 L 392.762 346.264 C 393.098 346.07 393.462 345.873 393.859 345.679" fill="rgb(0,82,136)"/><path d=" M 394.101 347.239 L 395.656 348.373 L 397.269 348.373 L 397.335 348.223 L 395.013 346.523 C 394.705 346.749 394.4 346.989 394.101 347.239" fill="rgb(0,82,136)"/><path d=" M 392.436 348.371 L 390.994 348.371 L 390.872 348.18 C 391.852 347.233 396.328 343.676 402.154 343.224 C 402.154 343.224 397.058 343.79 392.436 348.371" fill="rgb(167,169,172)"/></g><g id="Graphics"><g id="US Flag"><rect x="389.439" y="155.476" width="9.199" height="5.17" transform="matrix(1,0,0,1,0,0)" fill="rgb(178,34,52)"/><path d=" M 389.439 156.073 L 398.638 156.073 M 398.638 156.869 L 389.439 156.869 M 389.439 157.664 L 398.638 157.664 M 398.638 158.459 L 389.439 158.459 M 389.439 159.255 L 398.638 159.255 M 398.638 160.05 L 389.439 160.05" fill="rgb(0,0,0)" vector-effect="non-scaling-stroke" stroke-width="0.385" stroke="rgb(255,255,255)" stroke-linejoin="miter" stroke-linecap="butt" stroke-miterlimit="4"/><rect x="389.439" y="155.476" width="3.68" height="2.784" transform="matrix(1,0,0,1,0,0)" fill="rgb(60,59,110)"/><g id="g12400"><g id="g12402"><g id="g12404"><g id="g12406"><g id="g12408"><path d=" M 389.746 155.596 L 389.833 155.884 L 389.604 155.706 L 389.887 155.706 L 389.658 155.884 L 389.746 155.596 Z " fill="rgb(255,255,255)"/><path d=" M 389.746 155.596 L 389.833 155.884 L 389.604 155.706 L 389.887 155.706 L 389.658 155.884 L 389.746 155.596 Z " fill="rgb(255,255,255)"/><path d=" M 389.746 155.596 L 389.833 155.884 L 389.604 155.706 L 389.887 155.706 L 389.658 155.884 L 389.746 155.596 Z " fill="rgb(255,255,255)"/><path d=" M 389.746 155.596 L 389.833 155.884 L 389.604 155.706 L 389.887 155.706 L 389.658 155.884 L 389.746 155.596 Z " fill="rgb(255,255,255)"/></g><path d=" M 389.746 155.596 L 389.833 155.884 L 389.604 155.706 L 389.887 155.706 L 389.658 155.884 L 389.746 155.596 Z " fill="rgb(255,255,255)"/></g><g id="s4"><path d=" M 389.746 155.596 L 389.833 155.884 L 389.604 155.706 L 389.887 155.706 L 389.658 155.884 L 389.746 155.596 Z " fill="rgb(255,255,255)"/><path d=" M 389.746 155.596 L 389.833 155.884 L 389.604 155.706 L 389.887 155.706 L 389.658 155.884 L 389.746 155.596 Z " fill="rgb(255,255,255)"/><path d=" M 389.746 155.596 L 389.833 155.884 L 389.604 155.706 L 389.887 155.706 L 389.658 155.884 L 389.746 155.596 Z " fill="rgb(255,255,255)"/><path d=" M 389.746 155.596 L 389.833 155.884 L 389.604 155.706 L 389.887 155.706 L 389.658 155.884 L 389.746 155.596 Z " fill="rgb(255,255,255)"/></g></g><g id="s9"><g id="s5"><g id="s4"><path d=" M 389.746 155.596 L 389.833 155.884 L 389.604 155.706 L 389.887 155.706 L 389.658 155.884 L 389.746 155.596 Z " fill="rgb(255,255,255)"/><path d=" M 389.746 155.596 L 389.833 155.884 L 389.604 155.706 L 389.887 155.706 L 389.658 155.884 L 389.746 155.596 Z " fill="rgb(255,255,255)"/><path d=" M 389.746 155.596 L 389.833 155.884 L 389.604 155.706 L 389.887 155.706 L 389.658 155.884 L 389.746 155.596 Z " fill="rgb(255,255,255)"/><path d=" M 389.746 155.596 L 389.833 155.884 L 389.604 155.706 L 389.887 155.706 L 389.658 155.884 L 389.746 155.596 Z " fill="rgb(255,255,255)"/></g><path d=" M 389.746 155.596 L 389.833 155.884 L 389.604 155.706 L 389.887 155.706 L 389.658 155.884 L 389.746 155.596 Z " fill="rgb(255,255,255)"/></g><g id="s4"><path d=" M 389.746 155.596 L 389.833 155.884 L 389.604 155.706 L 389.887 155.706 L 389.658 155.884 L 389.746 155.596 Z " fill="rgb(255,255,255)"/><path d=" M 389.746 155.596 L 389.833 155.884 L 389.604 155.706 L 389.887 155.706 L 389.658 155.884 L 389.746 155.596 Z " fill="rgb(255,255,255)"/><path d=" M 389.746 155.596 L 389.833 155.884 L 389.604 155.706 L 389.887 155.706 L 389.658 155.884 L 389.746 155.596 Z " fill="rgb(255,255,255)"/><path d=" M 389.746 155.596 L 389.833 155.884 L 389.604 155.706 L 389.887 155.706 L 389.658 155.884 L 389.746 155.596 Z " fill="rgb(255,255,255)"/></g></g></g><g id="s18"><g id="s9"><g id="s5"><g id="s4"><path d=" M 389.746 155.596 L 389.833 155.884 L 389.604 155.706 L 389.887 155.706 L 389.658 155.884 L 389.746 155.596 Z " fill="rgb(255,255,255)"/><path d=" M 389.746 155.596 L 389.833 155.884 L 389.604 155.706 L 389.887 155.706 L 389.658 155.884 L 389.746 155.596 Z " fill="rgb(255,255,255)"/><path d=" M 389.746 155.596 L 389.833 155.884 L 389.604 155.706 L 389.887 155.706 L 389.658 155.884 L 389.746 155.596 Z " fill="rgb(255,255,255)"/><path d=" M 389.746 155.596 L 389.833 155.884 L 389.604 155.706 L 389.887 155.706 L 389.658 155.884 L 389.746 155.596 Z " fill="rgb(255,255,255)"/></g><path d=" M 389.746 155.596 L 389.833 155.884 L 389.604 155.706 L 389.887 155.706 L 389.658 155.884 L 389.746 155.596 Z " fill="rgb(255,255,255)"/></g><g id="s4"><path d=" M 389.746 155.596 L 389.833 155.884 L 389.604 155.706 L 389.887 155.706 L 389.658 155.884 L 389.746 155.596 Z " fill="rgb(255,255,255)"/><path d=" M 389.746 155.596 L 389.833 155.884 L 389.604 155.706 L 389.887 155.706 L 389.658 155.884 L 389.746 155.596 Z " fill="rgb(255,255,255)"/><path d=" M 389.746 155.596 L 389.833 155.884 L 389.604 155.706 L 389.887 155.706 L 389.658 155.884 L 389.746 155.596 Z " fill="rgb(255,255,255)"/><path d=" M 389.746 155.596 L 389.833 155.884 L 389.604 155.706 L 389.887 155.706 L 389.658 155.884 L 389.746 155.596 Z " fill="rgb(255,255,255)"/></g></g><g id="s9"><g id="s5"><g id="s4"><path d=" M 389.746 155.596 L 389.833 155.884 L 389.604 155.706 L 389.887 155.706 L 389.658 155.884 L 389.746 155.596 Z " fill="rgb(255,255,255)"/><path d=" M 389.746 155.596 L 389.833 155.884 L 389.604 155.706 L 389.887 155.706 L 389.658 155.884 L 389.746 155.596 Z " fill="rgb(255,255,255)"/><path d=" M 389.746 155.596 L 389.833 155.884 L 389.604 155.706 L 389.887 155.706 L 389.658 155.884 L 389.746 155.596 Z " fill="rgb(255,255,255)"/><path d=" M 389.746 155.596 L 389.833 155.884 L 389.604 155.706 L 389.887 155.706 L 389.658 155.884 L 389.746 155.596 Z " fill="rgb(255,255,255)"/></g><path d=" M 389.746 155.596 L 389.833 155.884 L 389.604 155.706 L 389.887 155.706 L 389.658 155.884 L 389.746 155.596 Z " fill="rgb(255,255,255)"/></g><g id="s4"><path d=" M 389.746 155.596 L 389.833 155.884 L 389.604 155.706 L 389.887 155.706 L 389.658 155.884 L 389.746 155.596 Z " fill="rgb(255,255,255)"/><path d=" M 389.746 155.596 L 389.833 155.884 L 389.604 155.706 L 389.887 155.706 L 389.658 155.884 L 389.746 155.596 Z " fill="rgb(255,255,255)"/><path d=" M 389.746 155.596 L 389.833 155.884 L 389.604 155.706 L 389.887 155.706 L 389.658 155.884 L 389.746 155.596 Z " fill="rgb(255,255,255)"/><path d=" M 389.746 155.596 L 389.833 155.884 L 389.604 155.706 L 389.887 155.706 L 389.658 155.884 L 389.746 155.596 Z " fill="rgb(255,255,255)"/></g></g></g><g id="s9"><g id="s5"><g id="s4"><path d=" M 389.746 155.596 L 389.833 155.884 L 389.604 155.706 L 389.887 155.706 L 389.658 155.884 L 389.746 155.596 Z " fill="rgb(255,255,255)"/><path d=" M 389.746 155.596 L 389.833 155.884 L 389.604 155.706 L 389.887 155.706 L 389.658 155.884 L 389.746 155.596 Z " fill="rgb(255,255,255)"/><path d=" M 389.746 155.596 L 389.833 155.884 L 389.604 155.706 L 389.887 155.706 L 389.658 155.884 L 389.746 155.596 Z " fill="rgb(255,255,255)"/><path d=" M 389.746 155.596 L 389.833 155.884 L 389.604 155.706 L 389.887 155.706 L 389.658 155.884 L 389.746 155.596 Z " fill="rgb(255,255,255)"/></g><path d=" M 389.746 155.596 L 389.833 155.884 L 389.604 155.706 L 389.887 155.706 L 389.658 155.884 L 389.746 155.596 Z " fill="rgb(255,255,255)"/></g><g id="s4"><path d=" M 389.746 155.596 L 389.833 155.884 L 389.604 155.706 L 389.887 155.706 L 389.658 155.884 L 389.746 155.596 Z " fill="rgb(255,255,255)"/><path d=" M 389.746 155.596 L 389.833 155.884 L 389.604 155.706 L 389.887 155.706 L 389.658 155.884 L 389.746 155.596 Z " fill="rgb(255,255,255)"/><path d=" M 389.746 155.596 L 389.833 155.884 L 389.604 155.706 L 389.887 155.706 L 389.658 155.884 L 389.746 155.596 Z " fill="rgb(255,255,255)"/><path d=" M 389.746 155.596 L 389.833 155.884 L 389.604 155.706 L 389.887 155.706 L 389.658 155.884 L 389.746 155.596 Z " fill="rgb(255,255,255)"/></g></g><g id="s5"><g id="s4"><path d=" M 389.746 155.596 L 389.833 155.884 L 389.604 155.706 L 389.887 155.706 L 389.658 155.884 L 389.746 155.596 Z " fill="rgb(255,255,255)"/><path d=" M 389.746 155.596 L 389.833 155.884 L 389.604 155.706 L 389.887 155.706 L 389.658 155.884 L 389.746 155.596 Z " fill="rgb(255,255,255)"/><path d=" M 389.746 155.596 L 389.833 155.884 L 389.604 155.706 L 389.887 155.706 L 389.658 155.884 L 389.746 155.596 Z " fill="rgb(255,255,255)"/><path d=" M 389.746 155.596 L 389.833 155.884 L 389.604 155.706 L 389.887 155.706 L 389.658 155.884 L 389.746 155.596 Z " fill="rgb(255,255,255)"/></g><path d=" M 389.746 155.596 L 389.833 155.884 L 389.604 155.706 L 389.887 155.706 L 389.658 155.884 L 389.746 155.596 Z " fill="rgb(255,255,255)"/></g></g></g><g id="Falcon Logo"><g id="g12432"><path d=" M 391.386 147.738 C 391.694 147.574 392.003 147.413 392.327 147.286 C 388.657 145.355 388.451 143.903 387.697 142.375 C 388.277 144.144 388.762 145.911 391.386 147.738 L 391.386 147.738 Z " fill-rule="evenodd" fill="rgb(168,1,38)"/><path d=" M 389.474 144.839 C 390.872 146.009 392.086 146.842 392.982 147.096 C 393.867 146.623 396.796 146.367 396.733 147.033 C 396.092 146.717 395.711 146.867 395.347 146.984 C 395.53 146.981 396.013 146.928 396.158 146.979 C 396.099 147.05 396.035 147.081 395.969 147.121 C 396.206 147.172 396.429 147.24 396.616 147.352 C 396.737 147.34 396.815 147.343 396.852 147.381 C 396.729 147.413 396.581 147.571 396.508 147.678 C 397.322 147.702 398.189 147.693 398.28 148.552 C 398.536 147.792 398.078 147.396 397.182 147.224 C 397.065 146.963 396.876 146.741 396.693 146.49 C 394.246 146.353 391.803 146.187 389.474 144.839 L 389.474 144.839 Z " fill-rule="evenodd" fill="rgb(168,1,38)"/></g><path d=" M 387.554 150.756 L 387.554 149.275 L 388.546 149.275 C 388.507 149.326 388.473 149.379 388.389 149.412 L 387.769 149.412 L 387.769 149.802 L 388.322 149.802 C 388.291 149.849 388.256 149.893 388.197 149.913 L 387.769 149.913 L 387.769 150.441 C 387.724 150.561 387.664 150.672 387.554 150.756 Z " fill-rule="evenodd" fill="rgb(0,0,0)"/><path d=" M 390.229 149.428 L 390.229 150.511 L 390.511 150.511 L 390.511 149.491 C 390.13 149.145 389.749 149.145 389.368 149.491 L 389.368 150.511 L 389.622 150.511 L 389.622 149.913 L 389.823 149.913 C 389.87 149.888 389.902 149.86 389.921 149.826 L 389.627 149.826 L 389.627 149.432 C 389.853 149.277 390.033 149.277 390.229 149.428 L 390.229 149.428 Z " fill-rule="evenodd" fill="rgb(0,0,0)"/><path d=" M 393.167 150.547 L 392.025 150.547 L 392.025 149.298 L 392.311 149.298 L 392.311 150.444 L 393.315 150.444 C 393.274 150.483 393.252 150.534 393.167 150.547 Z " fill-rule="evenodd" fill="rgb(0,0,0)"/><path d=" M 394.875 149.275 L 394.875 149.52 C 394.416 150.142 395.198 150.889 396.078 150.342 L 396.144 150.328 C 395.599 150.944 393.6 150.444 394.875 149.275 L 394.875 149.275 Z " fill-rule="evenodd" fill="rgb(0,0,0)"/><path d=" M 394.271 149.307 L 394.271 149.759 C 394.71 148.968 395.318 148.575 397.181 149.1 C 395.394 148.398 394.731 148.766 394.271 149.307 Z " fill-rule="evenodd" fill="rgb(0,0,0)"/><path d=" M 397.742 149.177 C 397.368 149.183 396.994 149.432 396.996 149.904 C 397.001 150.849 398.486 150.897 398.487 149.904 C 398.487 149.408 398.115 149.171 397.742 149.177 L 397.742 149.177 Z  M 397.738 149.275 C 397.96 149.273 398.182 149.481 398.184 149.904 C 398.188 150.752 397.307 150.733 397.301 149.904 C 397.298 149.49 397.517 149.278 397.738 149.275 Z " fill-rule="evenodd" fill="rgb(0,0,0)"/><path d=" M 399.877 149.431 L 399.877 150.556 L 399.655 150.556 L 399.655 149.375 L 399.878 149.267 L 399.876 149.318 C 400.22 149.311 400.46 149.468 400.523 149.555 L 400.523 150.567 L 400.306 150.567 L 400.306 149.573 C 400.227 149.44 400.138 149.407 399.877 149.404 L 399.877 149.431 Z " fill-rule="evenodd" fill="rgb(0,0,0)"/><path d=" M 394.056 151.426 C 391.759 151.436 392.354 153.279 393.624 153.242 C 394.216 153.225 394.328 153.164 394.725 152.74 C 394.477 153.982 393.633 153.982 392.618 154.081 C 392.491 154.165 392.465 154.182 392.377 154.317 C 394.101 154.282 395.547 153.975 395.504 152.638 C 395.475 151.702 394.848 151.423 394.056 151.426 L 394.056 151.426 Z  M 394.022 151.649 C 394.223 151.649 394.416 151.711 394.558 151.823 C 394.7 151.935 394.78 152.087 394.78 152.245 C 394.779 152.574 394.44 152.84 394.022 152.839 C 393.604 152.839 393.266 152.573 393.265 152.245 C 393.265 151.916 393.604 151.649 394.022 151.649 Z " fill-rule="evenodd" fill="rgb(0,0,0)"/></g></g></g></svg>