<svg xmlns="http://www.w3.org/2000/svg" style="isolation:isolate" viewBox="381.586 83.747 24.972 303.994" width="24.972" height="303.994"><path fill="#FFF" d="M384.728 83.875h18.667v294.734h-18.667z"/><g opacity=".034"><linearGradient id="a" x1="33.864%" y1="23.171%" x2="82.338%" y2="23.171%"><stop offset="0%"/><stop offset="100%" stop-opacity="0"/></linearGradient><path fill="url(#a)" d="M384.917 84.092h9.258v294.409h-9.258z"/></g><g opacity=".034"><linearGradient id="b" x1="33.864%" y1="23.171%" x2="82.338%" y2="23.171%"><stop offset="0%"/><stop offset="100%" stop-opacity="0"/></linearGradient><path fill="url(#b)" d="M394.037 84.037h9.122V378.35h-9.122z"/></g><path fill="#F7F7F7" d="M384.152 376.079h.445v.484h-.445zM403.364 376.034h.586v.597h-.586zM385.551 380.503a.691.691 0 0 1-.051-.149l-.009-.054h3.4l.018.091c.015.077.014.099-.007.141l-.025.05h-3.285l-.042-.094.001.015zM389.348 380.502a.686.686 0 0 1-.051-.148l-.009-.054h1.744c1.449 0 1.744 0 1.744.021 0 .033-.06.2-.087.24l-.023.036h-3.276l-.043-.094.001-.001zM393.08 380.647a1.52 1.52 0 0 0 .079-.273l.011-.074h.88c.956 0 .897-.01.898.083 0 .019.02.092.044.163l.044.129h-.983c-.93 0-.983-.001-.973-.027v-.001zM395.398 380.522a1.251 1.251 0 0 1-.053-.148l-.019-.074h1.748c1.191 0 1.749 0 1.749.016 0 .029-.064.21-.088.246l-.022.035h-3.282l-.033-.074v-.001zM399.207 380.542c-.023-.047-.024-.068-.008-.149l.018-.094h1.701c1.159 0 1.701 0 1.701.016 0 .029-.064.21-.087.246l-.023.035h-3.277l-.026-.055.001.001zM385.27 379.857c-.094-.116-.374-.895-.374-1.042 0-.054 3.333-.085 9.158-.085h9.158l-.059.319a3.083 3.083 0 0 1-.203.618l-.144.301h-8.723c-6.872 0-8.742-.024-8.813-.111z"/><g fill="#333"><path d="M388.941 383.374c-.194-.476-.45-1.03-.706-1.526l-.099-.193.041-.076c.072-.132.237-.419.336-.584l.036-.058H389.528l.038.063c.086.141.305.523.358.622l.018.033-.052.099a19.339 19.339 0 0 0-.782 1.686l-.037.093h-.066l-.064-.158v-.001zM398.838 383.223c-.194-.476-.45-1.03-.705-1.526l-.1-.193.041-.076c.072-.132.237-.419.336-.584l.036-.058H399.425l.039.063c.085.141.305.523.357.622l.018.034-.052.099a19.47 19.47 0 0 0-.781 1.685l-.038.093h-.065l-.065-.158v-.001zM392.905 382.682c.081-.156.231-.434.334-.617l.187-.333-.22-.387-.221-.388h-.38c-.324 0-.379-.011-.379-.041 0-.033-.032-.039-.164-.033-.156.011-.167.013-.218.101l-.055.093.285.541c.156.298.366.722.467.943.101.222.191.403.201.404.009 0 .083-.127.163-.284v.001zM395.195 382.663a25.209 25.209 0 0 0-.334-.618l-.188-.332.221-.388.221-.388h.38c.323 0 .379-.011.379-.041 0-.033.032-.039.164-.033.155.011.167.013.218.102l.054.092-.284.541c-.156.298-.367.723-.467.944a3.493 3.493 0 0 1-.201.403 1.789 1.789 0 0 1-.163-.283v.001z"/><path d="M391.652 386.925c0-.013.083-.381.095-.421.175-2.249.356-1.782 1.073-3.147 0-.069.489-1.048.76-1.522l.138-.241v-.627h.678v.635l.145.254c.152.266.571 1.083.669 1.303l.056.127c.89 2.402.221.294 1.137 3.394.023.105.042.205.042.223 0 .033-.004.033-2.397.033-1.318 0-2.397 0-2.397-.011h.001z"/></g><path vector-effect="non-scaling-stroke" stroke-width=".4" stroke="#000" d="M384.731 378.601h18.646M384.731 167.087h18.646M397.585 380.794h-1.018M386.678 386.11h4.911M388.624 380.794h1.018"/><path d="M390.083 381.621c-.14-.28-.286-.556-.441-.827M388.624 380.794c-.154.271-.301.547-.44.827" fill="none" vector-effect="non-scaling-stroke" stroke-width=".4" stroke="#000"/><path vector-effect="non-scaling-stroke" stroke-width=".4" stroke="#000" d="M392.006 380.794h.765"/><path d="M393.515 381.722c-.141-.288-.29-.571-.447-.851M392.006 380.794c-.079.14-.157.281-.232.423" fill="none" vector-effect="non-scaling-stroke" stroke-width=".4" stroke="#000"/><path vector-effect="non-scaling-stroke" stroke-width=".4" stroke="#000" d="M401.43 386.11h-4.911M399.484 380.794h-1.018"/><path d="M398.466 380.794c-.155.271-.301.547-.441.827M399.924 381.621c-.139-.28-.286-.556-.44-.827" fill="none" vector-effect="non-scaling-stroke" stroke-width=".4" stroke="#000"/><path vector-effect="non-scaling-stroke" stroke-width=".4" stroke="#000" d="M396.102 380.794h-.765"/><path d="M389.077 380.109c-.011.247.065.489.216.685M392.771 380.794a1.05 1.05 0 0 0 .216-.685" fill="none" vector-effect="non-scaling-stroke" stroke-width=".4" stroke="#000"/><path vector-effect="non-scaling-stroke" stroke-width=".4" stroke="#000" d="M389.293 380.794h3.478"/><path d="M395.121 380.109c-.011.247.065.489.216.685M398.814 380.794c.151-.196.228-.438.217-.685" fill="none" vector-effect="non-scaling-stroke" stroke-width=".4" stroke="#000"/><path vector-effect="non-scaling-stroke" stroke-width=".4" stroke="#000" d="M395.337 380.794h3.477M393.068 380.871h1.972"/><path d="M392.261 380.794l.054.078M395.792 380.871a.843.843 0 0 0 .055-.078" fill="none" vector-effect="non-scaling-stroke" stroke-width=".4" stroke="#000"/><path vector-effect="non-scaling-stroke" stroke-width=".4" stroke="#000" d="M392.315 380.871h3.477"/><path d="M395.09 380.871c-.157.28-.306.563-.447.851M395.09 380.871c-.157.28-.306.563-.447.851M396.359 381.17a13.775 13.775 0 0 0-.208-.376" fill="none" vector-effect="non-scaling-stroke" stroke-width=".4" stroke="#000"/><path vector-effect="non-scaling-stroke" stroke-width=".4" stroke="#000" d="M384.731 131.394h18.646"/><path d="M403.377 84.547v294.054a2.987 2.987 0 0 1-.489 1.508H385.22a2.987 2.987 0 0 1-.489-1.508V84.547M391.8 386.11c-.066.275-.125.552-.177.831h4.912a17.77 17.77 0 0 0-.178-.831M392.721 383.333c.251-.585.534-1.155.849-1.709v-.753M394.588 380.871v.753c.303.534.578 1.084.822 1.647" fill="none" vector-effect="non-scaling-stroke" stroke-width=".4" stroke="#000"/><path d="M389.133 383.936a17.141 17.141 0 0 0-1.389-3.142h-1.018a17.147 17.147 0 0 0-1.947 5.316h4.911" fill="#333" vector-effect="non-scaling-stroke" stroke-width=".4" stroke="#000"/><path d="M385.28 380.109c-.011.247.065.489.216.685h3.477c.069-.09.123-.19.16-.296M398.975 380.498c.037.106.091.206.16.296h3.477c.151-.196.227-.438.216-.685" fill="none" vector-effect="non-scaling-stroke" stroke-width=".4" stroke="#000"/><path d="M398.417 386.11h4.912a17.147 17.147 0 0 0-1.947-5.316h-1.018a17.141 17.141 0 0 0-1.389 3.142" fill="#333" vector-effect="non-scaling-stroke" stroke-width=".4" stroke="#000"/><path d="M397.585 380.794a17.172 17.172 0 0 1 1.947 5.316h-4.912a17.147 17.147 0 0 1 1.947-5.316M390.523 380.794a17.172 17.172 0 0 0-1.947 5.316h4.912a17.172 17.172 0 0 0-1.947-5.316h-1.018z" fill="#333" vector-effect="non-scaling-stroke" stroke-width=".4" stroke="#000"/><g stroke-width=".4" stroke="#000"><path d="M385.639 363.47l.046-.141.079-.155.108-.162.136-.16.16-.153.181-.136.198-.114.214-.083.225-.045h.234l.241.052.243.112.403 1.056.423 1.166.423 1.166.423 1.166.423 1.166.423 1.167.423 1.166.423 1.166.422 1.166.423 1.167.423 1.166.423 1.166.107.283.02.035.022.033.024.03.025.028.026.026.028.024.028.021.03.019.031.017.031.015.032.013.032.011.032.01.033.01h.096l.031.001h.175l.053-.024.052-.05.051-.074.048-.094.047-.113.044-.128.041-.14.038-.151.033-.157.029-.162.024-.164-.193-1.824-.449-3.815-.449-3.816-.448-3.815-.449-3.815-.449-3.816-.449-3.815-.448-3.816-.449-3.815-.449-3.816-.449-3.815-.448-3.815-.295-2.584-.002-.251-.002-.251-.002-.25-.002-.251-.002-.251-.002-.251-.002-.251-.002-.25-.002-.251-.002-.251-.002-.251-.01-.314-.035-.488-.037-.442-.037-.399-.038-.36-.04-.324-.04-.29-.041-.26-.041-.233-.043-.21-.043-.188-.044-.171-.045-.156-.045-.144-.046-.133-.047-.122-.047-.111-.048-.102-.049-.092-.05-.083-.05-.075-.051-.067-.052-.058-.052-.052-.054-.045-.053-.039-.055-.032-.056-.027-.056-.02-.056-.014-.058-.008-.058-.002-.059.004-.06.01-.06.017-.06.022-.062.028-.062.034-.062.04-.064.046-.064.054-.065.06-.066.068-.067.075-.068.084-.069.092-.07.1-.071.109-.073.119-.073.128-.075.137-.076.144-.076.152-.076.157-.076.162-.075.167-.074.169-.073.171-.07.173-.069.173-.066.171-.064.17-.06.169-.057.167-.054.166-.05.166-.047.166-.043.166-.038.168-.035.169-.03.171" fill="#F2F2F2" vector-effect="non-scaling-stroke"/><path d="M385.639 363.47l-.038.215-.037.22-.036.223-.036.228-.036.232-.036.235-.035.239-.035.242-.034.245-.035.249-.033.252-.034.254-.033.258-.033.259-.033.263-.033.264-.032.267-.032.269-.031.27-.032.273-.031.274-.031.275-.062.554-.061.558-.06.561-.12 1.126-.059.563-.059.561-.058.558-.059.554-.029.275-.03.273-.029.272-.029.271-.03.268-.029.266-.029.265-.03.261-.029.26-.03.257-.015.127-.004.032-.002.016-.001.01h-.001l-.007.017-.008.014-.009.012-.008.01-.007.01-.008.01h-.066l-.033-.016-.065-.037-.063-.038-.061-.038-.059-.038-.057-.039-.055-.039-.054-.04-.052-.04-.05-.04-.048-.041-.047-.041-.044-.042-.044-.042-.042-.042-.04-.042-.039-.043-.037-.043-.07-.087-.065-.088-.06-.089-.055-.09-.051-.091-.046-.091-.042-.092-.038-.092-.035-.093-.032-.093-.029-.093-.026-.094-.024-.094-.022-.094-.02-.093-.019-.093-.009-.047-.004-.023-.002-.012v-.011l.002-.056.004-.113.241-7.213.481-14.425.482-14.426.241-7.213.06-1.804.015-.45.001-.029v-.007l.001-.003.001-.006.002-.012.007-.047.014-.093.015-.091.014-.088.015-.087.014-.084.015-.083.015-.08.014-.08.015-.077.015-.076.031-.149.031-.144.033-.141.033-.138.034-.136.036-.136.037-.136.038-.137.041-.139.042-.141.046-.143.049-.146.053-.149.028-.076.029-.077.031-.078.031-.079.033-.08.035-.081.036-.082.037-.084.039-.085.041-.086.042-.088.044-.089.046-.09.047-.092" fill="#F2F2F2" vector-effect="non-scaling-stroke" stroke-linecap="round"/><path d="M402.505 363.47l-.046-.141-.079-.155-.109-.162-.136-.16-.159-.153-.181-.136-.199-.114-.213-.083-.226-.045h-.234l-.24.052-.243.112-.403 1.056-.423 1.166-.423 1.166-.423 1.166-.423 1.166-.423 1.167-.423 1.166-.423 1.166-.423 1.166-.423 1.167-.423 1.166-.423 1.166-.106.283-.021.035-.022.033-.023.03-.025.028-.027.026-.027.024-.029.021-.03.019-.03.017-.031.015-.032.013-.032.011-.033.01-.033.01h-.096l-.031.001h-.175l-.053-.024-.051-.05-.051-.074-.049-.094-.047-.113-.044-.128-.041-.14-.037-.151-.034-.157-.028-.162-.024-.164.193-1.824.448-3.815.449-3.816.449-3.815.449-3.815.448-3.816.449-3.815.449-3.816.449-3.815.448-3.816.449-3.815.449-3.815.294-2.584.002-.251.002-.251.002-.25.002-.251.002-.251.002-.251.002-.251.002-.25.002-.251.002-.251.002-.251.01-.314.036-.488.036-.442.038-.399.038-.36.039-.324.04-.29.041-.26.042-.233.042-.21.044-.188.044-.171.044-.156.046-.144.046-.133.046-.122.048-.111.048-.102.049-.092.049-.083.051-.075.051-.067.051-.058.053-.052.053-.045.054-.039.055-.032.055-.027.056-.02.057-.014.057-.008.059-.002.058.004.06.01.06.017.061.022.061.028.062.034.063.04.063.046.064.054.065.06.066.068.067.075.068.084.069.092.07.1.071.109.073.119.074.128.075.137.075.144.077.152.076.157.075.162.075.167.074.169.073.171.071.173.068.173.067.171.063.17.06.169.058.167.053.166.051.166.046.166.043.166.039.168.034.169.03.171" fill="#F2F2F2" vector-effect="non-scaling-stroke"/><path d="M402.505 363.47l.037.215.037.22.037.223.036.228.036.232.035.235.036.239.034.242.035.245.034.249.034.252.034.254.033.258.033.259.033.263.032.264.032.267.032.269.032.27.032.273.031.274.031.275.062.554.061.558.06.561.119 1.126.059.563.059.561.059.558.059.554.029.275.029.273.03.272.029.271.029.268.03.266.029.265.029.261.03.26.03.257.015.127.004.032.002.016.001.01h.001l.007.017.008.014.008.012.008.01.008.01.008.01h.065l.033-.016.065-.037.063-.038.061-.038.059-.038.058-.039.055-.039.053-.04.052-.04.05-.04.048-.041.047-.041.045-.042.043-.042.042-.042.041-.042.038-.043.038-.043.07-.087.065-.088.06-.089.055-.09.05-.091.046-.091.042-.092.039-.092.034-.093.032-.093.029-.093.026-.094.024-.094.022-.094.021-.093.018-.093.009-.047.004-.023.002-.012h.001v-.011l-.002-.056-.004-.113-.241-7.213-.482-14.425-.482-14.426-.24-7.213-.061-1.804-.015-.45-.001-.029v-.01l-.001-.006-.002-.012-.007-.047-.015-.093-.014-.091-.015-.088-.014-.087-.015-.084-.014-.083-.015-.08-.015-.08-.015-.077-.015-.076-.031-.149-.031-.144-.032-.141-.033-.138-.035-.136-.035-.136-.037-.136-.039-.137-.04-.139-.043-.141-.046-.143-.049-.146-.053-.149-.028-.076-.029-.077-.03-.078-.032-.079-.033-.08-.034-.081-.036-.082-.038-.084-.038-.085-.041-.086-.042-.088-.044-.089-.046-.09-.048-.092" fill="#F2F2F2" vector-effect="non-scaling-stroke" stroke-linecap="round"/><path vector-effect="non-scaling-stroke" d="M388.579 326.346l-1.234-1.308M387.345 325.038h-2.251M384.825 355.403l.175-24.119M385 331.284l2.16-2.925M385 331.284l-1.032-2.674"/><path vector-effect="non-scaling-stroke" stroke-linecap="round" d="M387.16 328.359l.185-3.321"/><path vector-effect="non-scaling-stroke" d="M384.135 376.033h.614M384.06 376.689h.689M393.766 376.689h.612M393.962 376.033h.219"/><path d="M382.816 375.937l.119-1.502.118-1.502.119-1.502.118-1.502.119-1.501.118-1.502.118-1.502.119-1.502.118-1.502.119-1.501.118-1.502.118-1.502.119-1.502.05-.476.033-.119.039-.103.045-.086.049-.071.054-.057.058-.043.061-.031.063-.019.064-.01h.066l.065.01.066.018.064.025.063.032.062.038.06.043.058.047.057.052.055.055.053.058.052.06.049.062.048.063.045.064.044.064.177.44.582 1.569.583 1.57.583 1.569.583 1.569.583 1.57.583 1.569.583 1.569.582 1.57.583 1.569.583 1.569.583 1.57.583 1.569.583 1.569" fill="none" vector-effect="non-scaling-stroke"/><path vector-effect="non-scaling-stroke" d="M399.565 326.346l1.234-1.308M400.799 325.038h2.25M403.318 355.403l-.174-24.119M403.144 331.284l-2.161-2.925M403.144 331.284l1.032-2.674"/><path vector-effect="non-scaling-stroke" stroke-linecap="round" d="M400.983 328.359l-.184-3.321"/><path vector-effect="non-scaling-stroke" d="M404.009 376.033h-.614M404.084 376.689h-.689"/><path d="M405.327 375.937l-.118-1.502-.119-1.502-.118-1.502-.119-1.502-.118-1.501-.118-1.502-.119-1.502-.118-1.502-.119-1.502-.118-1.501-.118-1.502-.119-1.502-.118-1.502-.05-.476-.033-.119-.039-.103-.045-.086-.05-.071-.054-.057-.057-.043-.061-.031-.063-.019-.064-.01h-.066l-.066.01-.065.018-.065.025-.063.032-.061.038-.06.043-.058.047-.057.052-.055.055-.054.058-.051.06-.05.062-.047.063-.046.064-.043.064-.177.44-.583 1.569-.583 1.57-.583 1.569-.582 1.569-.583 1.57-.583 1.569-.583 1.569-.583 1.57-.583 1.569-.583 1.569-.582 1.57-.583 1.569-.583 1.569" fill="none" vector-effect="non-scaling-stroke"/></g><path d="M384.443 172.291l-.031-6.407 1.062-1.562-.031-1.688.844-1.593.281-.907.687-.25.688.063.406.125.375 1 .219 1.094.031.937v1l-.094.719.813.906v6.469l-.625.125-4.625-.031z" fill-rule="evenodd" fill="#FFF"/><path d="M389.062 165.886v6.43h-4.624v-6.404l.934-1.617h2.21l1.48 1.591z" fill="none" vector-effect="non-scaling-stroke" stroke-width=".3" stroke="#000" stroke-linejoin="round" stroke-linecap="square"/><path d="M385.438 172.184v-9.48l.774-1.547c.905-.425 1.673-.267 2.342.31l-.111 2.894" fill="none" vector-effect="non-scaling-stroke" stroke-width=".3" stroke="#000" stroke-linejoin="round" stroke-linecap="square"/><path vector-effect="non-scaling-stroke" stroke-width=".3" stroke="#000" stroke-linejoin="round" stroke-linecap="square" d="M387.482 164.339v7.845"/><path d="M387.56 164.317l.751-.022 1.37 1.481v6.469l-.629.061M387.626 164.273l.022-1.591.862-1.105" fill="none" vector-effect="non-scaling-stroke" stroke-width=".3" stroke="#000" stroke-linejoin="round" stroke-linecap="square"/><path d="M386.19 161.157l.397-.972c.494-.292 1.098-.289 1.768-.11.663 1.51.727 3.1.508 4.728" fill="none" vector-effect="non-scaling-stroke" stroke-width=".3" stroke="#000" stroke-linejoin="round" stroke-linecap="square"/><path d="M385.482 162.571c.812-.331 1.509-.278 2.144-.022" fill="none" vector-effect="non-scaling-stroke" stroke-width=".3" stroke="#000" stroke-linejoin="round" stroke-linecap="round"/><path d="M387.474 172.291l1.563-1.563"/><path vector-effect="non-scaling-stroke" stroke-width=".3" stroke="#000" stroke-linejoin="round" stroke-linecap="round" d="M387.474 172.291l1.531-1.688M386.068 172.291l2.906-3.688M389.005 166.728l-4.343 5.531M388.568 165.478l-4.094 5.25M387.787 164.541l-3.282 4.312M386.443 164.384l-1.992 2.555M386.755 172.228l-2.312-3.281M384.505 170.759l.969 1.532M388.303 172.241l-3.829-5.013M388.974 171.259l-4.375-5.562M389.037 169.353l-3.875-4.562M389.068 167.541l-2.813-3.188"/><g><path d="M403.676 172.291l.032-6.407-1.063-1.562.031-1.688-.843-1.593-.282-.907-.687-.25-.688.063-.406.125-.375 1-.219 1.094-.031.937v1l.094.719-.813.906v6.469l.625.125 4.625-.031z" fill-rule="evenodd" fill="#FFF"/><path d="M399.057 165.886v6.43h4.624v-6.404l-.934-1.617h-2.209l-1.481 1.591z" fill="none" vector-effect="non-scaling-stroke" stroke-width=".3" stroke="#000" stroke-linejoin="round" stroke-linecap="square"/><path d="M402.681 172.184v-9.48l-.773-1.547c-.905-.425-1.673-.267-2.343.31l.111 2.894" fill="none" vector-effect="non-scaling-stroke" stroke-width=".3" stroke="#000" stroke-linejoin="round" stroke-linecap="square"/><path vector-effect="non-scaling-stroke" stroke-width=".3" stroke="#000" stroke-linejoin="round" stroke-linecap="square" d="M400.637 164.339v7.845"/><path d="M400.56 164.317l-.752-.022-1.37 1.481v6.469l.629.061M400.494 164.273l-.023-1.591-.861-1.105" fill="none" vector-effect="non-scaling-stroke" stroke-width=".3" stroke="#000" stroke-linejoin="round" stroke-linecap="square"/><path d="M401.93 161.157l-.398-.972c-.493-.292-1.098-.289-1.768-.11-.662 1.51-.726 3.1-.508 4.728" fill="none" vector-effect="non-scaling-stroke" stroke-width=".3" stroke="#000" stroke-linejoin="round" stroke-linecap="square"/><path d="M402.637 162.571c-.812-.331-1.508-.278-2.143-.022" fill="none" vector-effect="non-scaling-stroke" stroke-width=".3" stroke="#000" stroke-linejoin="round" stroke-linecap="round"/><path d="M400.645 172.291l-1.562-1.563"/><path vector-effect="non-scaling-stroke" stroke-width=".3" stroke="#000" stroke-linejoin="round" stroke-linecap="round" d="M400.645 172.291l-1.531-1.688M402.051 172.291l-2.906-3.688M399.114 166.728l4.344 5.531M399.551 165.478l4.094 5.25M400.333 164.541l3.281 4.312M401.676 164.384l1.993 2.555M401.364 172.228l2.312-3.281M403.614 170.759l-.969 1.532M399.816 172.241l3.829-5.013M399.145 171.259l4.375-5.562M399.083 169.353l3.875-4.562M399.051 167.541l2.813-3.188"/></g><g><path d="M395.447 313.675h-3.868l-.143.107v3.441h1.071v-1.29l.102-.092h2.839c.716 0 1.052-.193 1.052-.688v-.79c0-.495-.336-.688-1.053-.688m0 1.272c0 .233-.154.281-.49.281h-2.337l-.114-.11v-.738l.103-.093h2.348c.336 0 .49.048.49.282v.378zM393.207 321.501l.922 1.35-.051.131h-2.038l-.52.64h3.033l.21.128.471.65h1.226l-2.687-3.594" fill="#005288"/><g fill="#005288"><path d="M392.635 339.431v-.955l.11-.095h2.05v-.608h-3.249v2.357h4.793v-.605h-3.589M391.546 336.581h4.844v.669h-4.844z"/></g><path d="M392.619 329.181h3.902c-.06-.496-.368-.634-1.149-.634h-2.795c-.881 0-1.162.172-1.162.839v1.872c0 .667.281.839 1.162.839h2.795c.792 0 1.096-.149 1.117-.663h-3.87l-.115-.108v-2.072M395.406 306.881h-2.839l-.084-.092v-.607l.083-.065h3.827l.053-.128c-.131-.335-.468-.491-1.095-.491h-2.658c-.881 0-1.163.172-1.163.839v.392c0 .668.282.839 1.163.839h2.832l.089.079v.634l-.073.099h-3.239v-.003h-.849s-.097.049-.093.072c.072.466.39.599 1.151.599h2.895c.88 0 1.17-.172 1.17-.84v-.489c0-.666-.29-.838-1.17-.838M392.673 344.809h-1.594l-.086.165 1.769 1.29c.336-.194.7-.391 1.097-.585M394.101 347.239l1.555 1.134h1.613l.066-.15-2.322-1.7c-.308.226-.613.466-.912.716" fill="#005288"/><path d="M392.436 348.371h-1.442l-.122-.191c.98-.947 5.456-4.504 11.282-4.956 0 0-5.096.566-9.718 5.147" fill="#A7A9AC"/></g><g><path fill="#B22234" d="M389.439 155.476h9.199v5.17h-9.199z"/><path d="M389.439 156.073h9.199m0 .796h-9.199m0 .795h9.199m0 .795h-9.199m0 .796h9.199m0 .795h-9.199" vector-effect="non-scaling-stroke" stroke-width=".385" stroke="#FFF"/><path fill="#3C3B6E" d="M389.439 155.476h3.68v2.784h-3.68z"/><g fill="#FFF"><path d="M389.746 155.596l.087.288-.229-.178h.283l-.229.178.088-.288z"/><path d="M389.746 155.596l.087.288-.229-.178h.283l-.229.178.088-.288z"/><path d="M389.746 155.596l.087.288-.229-.178h.283l-.229.178.088-.288z"/><path d="M389.746 155.596l.087.288-.229-.178h.283l-.229.178.088-.288z"/><path d="M389.746 155.596l.087.288-.229-.178h.283l-.229.178.088-.288z"/><g><path d="M389.746 155.596l.087.288-.229-.178h.283l-.229.178.088-.288z"/><path d="M389.746 155.596l.087.288-.229-.178h.283l-.229.178.088-.288z"/><path d="M389.746 155.596l.087.288-.229-.178h.283l-.229.178.088-.288z"/><path d="M389.746 155.596l.087.288-.229-.178h.283l-.229.178.088-.288z"/></g><g><path d="M389.746 155.596l.087.288-.229-.178h.283l-.229.178.088-.288z"/><path d="M389.746 155.596l.087.288-.229-.178h.283l-.229.178.088-.288z"/><path d="M389.746 155.596l.087.288-.229-.178h.283l-.229.178.088-.288z"/><path d="M389.746 155.596l.087.288-.229-.178h.283l-.229.178.088-.288z"/><path d="M389.746 155.596l.087.288-.229-.178h.283l-.229.178.088-.288z"/><g><path d="M389.746 155.596l.087.288-.229-.178h.283l-.229.178.088-.288z"/><path d="M389.746 155.596l.087.288-.229-.178h.283l-.229.178.088-.288z"/><path d="M389.746 155.596l.087.288-.229-.178h.283l-.229.178.088-.288z"/><path d="M389.746 155.596l.087.288-.229-.178h.283l-.229.178.088-.288z"/></g></g><g><path d="M389.746 155.596l.087.288-.229-.178h.283l-.229.178.088-.288z"/><path d="M389.746 155.596l.087.288-.229-.178h.283l-.229.178.088-.288z"/><path d="M389.746 155.596l.087.288-.229-.178h.283l-.229.178.088-.288z"/><path d="M389.746 155.596l.087.288-.229-.178h.283l-.229.178.088-.288z"/><path d="M389.746 155.596l.087.288-.229-.178h.283l-.229.178.088-.288z"/><g><path d="M389.746 155.596l.087.288-.229-.178h.283l-.229.178.088-.288z"/><path d="M389.746 155.596l.087.288-.229-.178h.283l-.229.178.088-.288z"/><path d="M389.746 155.596l.087.288-.229-.178h.283l-.229.178.088-.288z"/><path d="M389.746 155.596l.087.288-.229-.178h.283l-.229.178.088-.288z"/></g><g><path d="M389.746 155.596l.087.288-.229-.178h.283l-.229.178.088-.288z"/><path d="M389.746 155.596l.087.288-.229-.178h.283l-.229.178.088-.288z"/><path d="M389.746 155.596l.087.288-.229-.178h.283l-.229.178.088-.288z"/><path d="M389.746 155.596l.087.288-.229-.178h.283l-.229.178.088-.288z"/><path d="M389.746 155.596l.087.288-.229-.178h.283l-.229.178.088-.288z"/><g><path d="M389.746 155.596l.087.288-.229-.178h.283l-.229.178.088-.288z"/><path d="M389.746 155.596l.087.288-.229-.178h.283l-.229.178.088-.288z"/><path d="M389.746 155.596l.087.288-.229-.178h.283l-.229.178.088-.288z"/><path d="M389.746 155.596l.087.288-.229-.178h.283l-.229.178.088-.288z"/></g></g></g><g><path d="M389.746 155.596l.087.288-.229-.178h.283l-.229.178.088-.288z"/><path d="M389.746 155.596l.087.288-.229-.178h.283l-.229.178.088-.288z"/><path d="M389.746 155.596l.087.288-.229-.178h.283l-.229.178.088-.288z"/><path d="M389.746 155.596l.087.288-.229-.178h.283l-.229.178.088-.288z"/><path d="M389.746 155.596l.087.288-.229-.178h.283l-.229.178.088-.288z"/><g><path d="M389.746 155.596l.087.288-.229-.178h.283l-.229.178.088-.288z"/><path d="M389.746 155.596l.087.288-.229-.178h.283l-.229.178.088-.288z"/><path d="M389.746 155.596l.087.288-.229-.178h.283l-.229.178.088-.288z"/><path d="M389.746 155.596l.087.288-.229-.178h.283l-.229.178.088-.288z"/></g></g><g><path d="M389.746 155.596l.087.288-.229-.178h.283l-.229.178.088-.288z"/><path d="M389.746 155.596l.087.288-.229-.178h.283l-.229.178.088-.288z"/><path d="M389.746 155.596l.087.288-.229-.178h.283l-.229.178.088-.288z"/><path d="M389.746 155.596l.087.288-.229-.178h.283l-.229.178.088-.288z"/><path d="M389.746 155.596l.087.288-.229-.178h.283l-.229.178.088-.288z"/></g></g><g fill-rule="evenodd"><g fill="#A80126"><path d="M391.386 147.738c.308-.164.617-.325.941-.452-3.67-1.931-3.876-3.383-4.63-4.911.58 1.769 1.065 3.536 3.689 5.363z"/><path d="M389.474 144.839c1.398 1.17 2.612 2.003 3.508 2.257.885-.473 3.814-.729 3.751-.063-.641-.316-1.022-.166-1.386-.049.183-.003.666-.056.811-.005-.059.071-.123.102-.189.142.237.051.46.119.647.231.121-.012.199-.009.236.029-.123.032-.271.19-.344.297.814.024 1.681.015 1.772.874.256-.76-.202-1.156-1.098-1.328-.117-.261-.306-.483-.489-.734-2.447-.137-4.89-.303-7.219-1.651z"/></g><path d="M387.554 150.756v-1.481h.992c-.039.051-.073.104-.157.137h-.62v.39h.553c-.031.047-.066.091-.125.111h-.428v.528a.67.67 0 0 1-.215.315zM390.229 149.428v1.083h.282v-1.02c-.381-.346-.762-.346-1.143 0v1.02h.254v-.598h.201a.23.23 0 0 0 .098-.087h-.294v-.394c.226-.155.406-.155.602-.004zM393.167 150.547h-1.142v-1.249h.286v1.146h1.004c-.041.039-.063.09-.148.103zM394.875 149.275v.245c-.459.622.323 1.369 1.203.822l.066-.014c-.545.616-2.544.116-1.269-1.053z"/><path d="M394.271 149.307v.452c.439-.791 1.047-1.184 2.91-.659-1.787-.702-2.45-.334-2.91.207zM397.742 149.177c-.374.006-.748.255-.746.727.005.945 1.49.993 1.491 0 0-.496-.372-.733-.745-.727zm-.004.098c.222-.002.444.206.446.629.004.848-.877.829-.883 0-.003-.414.216-.626.437-.629zM399.877 149.431v1.125h-.222v-1.181l.223-.108-.002.051c.344-.007.584.15.647.237v1.012h-.217v-.994c-.079-.133-.168-.166-.429-.169v.027zM394.056 151.426c-2.297.01-1.702 1.853-.432 1.816.592-.017.704-.078 1.101-.502-.248 1.242-1.092 1.242-2.107 1.341-.127.084-.153.101-.241.236 1.724-.035 3.17-.342 3.127-1.679-.029-.936-.656-1.215-1.448-1.212zm-.034.223c.201 0 .394.062.536.174a.542.542 0 0 1 .222.422c-.001.329-.34.595-.758.594-.418 0-.756-.266-.757-.594 0-.329.339-.596.757-.596z"/></g></g></svg>