<?xml version="1.0" standalone="no"?><!-- Generator: Gravit.io --><svg xmlns="http://www.w3.org/2000/svg" xmlns:xlink="http://www.w3.org/1999/xlink" style="isolation:isolate" viewBox="110.109 166.403 22.457 221.338" width="22.457" height="221.338"><g id="f9-1.0-booster"><g id="background"><rect x="111.907" y="168.72" width="18.667" height="212.655" transform="matrix(1,0,0,1,0,0)" fill="rgb(255,255,255)"/><g id="g4369-6-6"><g opacity="0.03365383"><linearGradient id="_lgradient_11" x1="33.864419991457595%" y1="23.17125312848214%" x2="82.33803203858159%" y2="23.17125312848214%"><stop offset="0%" stop-opacity="1" style="stop-color:rgb(0,0,0)"/><stop offset="100%" stop-opacity="0" style="stop-color:rgb(0,0,0)"/></linearGradient><rect x="112.236" y="168.937" width="9.26" height="212.238" transform="matrix(1,0,0,1,0,0)" fill="url(#_lgradient_11)"/></g><g opacity="0.03365383"><linearGradient id="_lgradient_12" x1="33.86436313822969%" y1="23.171251618138644%" x2="82.33797733509434%" y2="23.171251618138644%"><stop offset="0%" stop-opacity="1" style="stop-color:rgb(0,0,0)"/><stop offset="100%" stop-opacity="0" style="stop-color:rgb(0,0,0)"/></linearGradient><rect x="121.358" y="168.898" width="9.124" height="212.169" transform="matrix(1,0,0,1,0,0)" fill="url(#_lgradient_12)"/></g></g></g><line x1="112.015" y1="227.003" x2="130.661" y2="227.003" vector-effect="non-scaling-stroke" stroke-width="0.4" stroke="rgb(0,0,0)" stroke-linejoin="miter" stroke-linecap="butt" stroke-miterlimit="4"/><line x1="130.661" y1="166.403" x2="130.661" y2="368.81" vector-effect="non-scaling-stroke" stroke-width="0.4" stroke="rgb(0,0,0)" stroke-linejoin="miter" stroke-linecap="butt" stroke-miterlimit="4"/><line x1="112.015" y1="381.34" x2="130.661" y2="381.34" vector-effect="non-scaling-stroke" stroke-width="0.4" stroke="rgb(0,0,0)" stroke-linejoin="miter" stroke-linecap="butt" stroke-miterlimit="4"/><line x1="112.015" y1="166.403" x2="112.015" y2="368.81" vector-effect="non-scaling-stroke" stroke-width="0.4" stroke="rgb(0,0,0)" stroke-linejoin="miter" stroke-linecap="butt" stroke-miterlimit="4"/><line x1="112.015" y1="195.262" x2="130.661" y2="195.262" vector-effect="non-scaling-stroke" stroke-width="0.4" stroke="rgb(0,0,0)" stroke-linejoin="miter" stroke-linecap="butt" stroke-miterlimit="4"/><path d=" M 128.058 381.34 L 128.058 381.624 C 127.119 383.276 126.462 385.073 126.111 386.941 L 131.023 386.941 C 130.672 385.073 130.015 383.276 129.076 381.624 L 129.076 381.34 L 128.058 381.34 Z " fill="rgb(51,51,51)" vector-effect="non-scaling-stroke" stroke-width="0.4" stroke="rgb(0,0,0)" stroke-linejoin="miter" stroke-linecap="butt" stroke-miterlimit="4"/><path d=" M 120.829 381.34 L 120.829 381.624 C 119.89 383.276 119.232 385.073 118.882 386.941 L 123.794 386.941 C 123.443 385.073 122.785 383.276 121.847 381.624 L 121.847 381.34 L 120.829 381.34 Z " fill="rgb(51,51,51)" vector-effect="non-scaling-stroke" stroke-width="0.4" stroke="rgb(0,0,0)" stroke-linejoin="miter" stroke-linecap="butt" stroke-miterlimit="4"/><path d=" M 113.6 381.34 L 113.6 381.624 C 112.661 383.276 112.003 385.073 111.653 386.941 L 116.564 386.941 C 116.214 385.073 115.556 383.276 114.618 381.624 L 114.618 381.34 L 113.6 381.34 Z " fill="rgb(51,51,51)" vector-effect="non-scaling-stroke" stroke-width="0.4" stroke="rgb(0,0,0)" stroke-linejoin="miter" stroke-linecap="butt" stroke-miterlimit="4"/><line x1="115.826" y1="376.073" x2="126.85" y2="376.073" vector-effect="non-scaling-stroke" stroke-width="0.4" stroke="rgb(0,0,0)" stroke-linejoin="miter" stroke-linecap="butt" stroke-miterlimit="4"/><path d=" M 131.766 373.604 L 131.735 373.289 L 131.699 372.967 L 131.66 372.641 L 131.617 372.311 L 131.568 371.979 L 131.514 371.647 L 131.453 371.316 L 131.387 370.987 L 131.313 370.662 L 131.231 370.343 L 131.142 370.03 L 131.043 369.725 L 130.936 369.43 L 130.819 369.146 L 130.693 368.874 L 130.558 368.614 L 130.417 368.367 L 130.271 368.134 L 130.121 367.914 L 129.968 367.708 L 129.814 367.517 L 129.66 367.34 L 129.507 367.179 L 129.357 367.033 L 129.211 366.904 L 129.071 366.79 L 128.937 366.694 L 128.837 366.76 L 128.739 366.861 L 128.638 366.971 L 128.536 367.091 L 128.432 367.222 L 128.328 367.363 L 128.224 367.514 L 128.12 367.676 L 128.018 367.849 L 127.918 368.034 L 127.819 368.229 L 127.724 368.435 L 127.632 368.653 L 127.545 368.883 L 127.462 369.125 L 127.384 369.381 L 127.31 369.653 L 127.241 369.943 L 127.178 370.252 L 127.119 370.583 L 127.065 370.938 L 127.017 371.317 L 126.974 371.724 L 126.936 372.16 L 126.904 372.626 L 126.877 373.126 L 126.855 373.66 L 126.85 374.215 L 126.85 374.769 L 126.85 375.323 L 126.85 375.877 L 126.85 376.432 L 126.85 376.986 L 126.85 377.54 L 126.85 378.095 L 126.85 378.649 L 126.85 379.203 L 126.85 379.757 L 126.85 380.312 L 126.85 380.866 L 126.902 381.341 L 127.264 381.341 L 127.626 381.341 L 127.989 381.341 L 128.351 381.341 L 128.713 381.341 L 129.075 381.341 L 129.438 381.341 L 129.8 381.341 L 130.162 381.341 L 130.524 381.341 L 130.887 381.341 L 131.249 381.341 L 131.611 381.341 L 131.766 381.015 L 131.766 380.445 L 131.766 379.875 L 131.766 379.305 L 131.766 378.735 L 131.766 378.165 L 131.766 377.595 L 131.766 377.025 L 131.766 376.455 L 131.766 375.885 L 131.766 375.315 L 131.766 374.745 L 131.766 374.175 L 131.766 373.605 L 131.766 373.604 Z " fill="rgb(242,242,242)" vector-effect="non-scaling-stroke" stroke-width="0.4" stroke="rgb(0,0,0)" stroke-linejoin="miter" stroke-linecap="butt" stroke-miterlimit="4"/><path d=" M 110.91 373.604 L 110.941 373.289 L 110.976 372.967 L 111.015 372.641 L 111.059 372.311 L 111.108 371.979 L 111.162 371.647 L 111.222 371.316 L 111.289 370.987 L 111.363 370.662 L 111.444 370.343 L 111.534 370.03 L 111.632 369.725 L 111.74 369.43 L 111.857 369.146 L 111.983 368.874 L 112.117 368.614 L 112.258 368.367 L 112.405 368.134 L 112.555 367.914 L 112.708 367.708 L 112.862 367.517 L 113.016 367.34 L 113.169 367.179 L 113.319 367.033 L 113.464 366.904 L 113.605 366.79 L 113.738 366.694 L 113.838 366.76 L 113.937 366.861 L 114.037 366.971 L 114.14 367.091 L 114.243 367.222 L 114.347 367.363 L 114.451 367.514 L 114.555 367.676 L 114.657 367.849 L 114.758 368.034 L 114.856 368.229 L 114.952 368.435 L 115.043 368.653 L 115.131 368.883 L 115.214 369.125 L 115.292 369.381 L 115.366 369.653 L 115.434 369.943 L 115.498 370.252 L 115.557 370.583 L 115.61 370.938 L 115.659 371.317 L 115.702 371.724 L 115.74 372.16 L 115.772 372.626 L 115.799 373.126 L 115.82 373.66 L 115.825 374.215 L 115.825 374.769 L 115.825 375.323 L 115.825 375.877 L 115.825 376.432 L 115.825 376.986 L 115.825 377.54 L 115.825 378.095 L 115.825 378.649 L 115.825 379.203 L 115.825 379.757 L 115.825 380.312 L 115.825 380.866 L 115.774 381.341 L 115.411 381.341 L 115.049 381.341 L 114.687 381.341 L 114.325 381.341 L 113.962 381.341 L 113.6 381.341 L 113.238 381.341 L 112.876 381.341 L 112.513 381.341 L 112.151 381.341 L 111.789 381.341 L 111.427 381.341 L 111.065 381.341 L 110.909 381.015 L 110.909 380.445 L 110.909 379.875 L 110.909 379.305 L 110.909 378.735 L 110.909 378.165 L 110.909 377.595 L 110.909 377.025 L 110.909 376.455 L 110.909 375.885 L 110.909 375.315 L 110.909 374.745 L 110.909 374.175 L 110.909 373.605 L 110.91 373.604 Z " fill="rgb(242,242,242)" vector-effect="non-scaling-stroke" stroke-width="0.4" stroke="rgb(0,0,0)" stroke-linejoin="miter" stroke-linecap="butt" stroke-miterlimit="4"/><g id="logo"><path d=" M 122.768 321.675 L 118.9 321.675 L 118.756 321.782 L 118.756 325.223 L 119.827 325.223 L 119.827 323.933 L 119.929 323.841 L 122.768 323.841 C 123.485 323.841 123.821 323.648 123.821 323.153 L 123.821 322.363 C 123.821 321.868 123.485 321.675 122.768 321.675 M 122.768 322.947 C 122.768 323.18 122.614 323.228 122.278 323.228 L 119.941 323.228 L 119.827 323.118 L 119.827 322.38 L 119.929 322.287 L 122.278 322.287 C 122.614 322.287 122.768 322.335 122.768 322.569 L 122.768 322.947 L 122.768 322.947 Z " fill="rgb(0,82,136)"/><path d=" M 120.528 329.501 L 121.449 330.851 L 121.398 330.982 L 119.36 330.982 L 118.84 331.622 L 121.874 331.622 L 122.084 331.75 L 122.555 332.4 L 123.78 332.4 L 121.094 328.806" fill="rgb(0,82,136)"/><g id="g9340"><path d=" M 119.955 347.431 L 119.955 346.476 L 120.066 346.381 L 122.116 346.381 L 122.116 345.773 L 118.866 345.773 L 118.866 348.13 L 123.659 348.13 L 123.659 347.525 L 120.07 347.525" fill="rgb(0,82,136)"/><rect x="118.866" y="344.581" width="4.844" height="0.669" transform="matrix(1,0,0,1,0,0)" fill="rgb(0,82,136)"/></g><path d=" M 119.939 337.181 L 123.842 337.181 C 123.781 336.685 123.474 336.547 122.693 336.547 L 119.898 336.547 C 119.017 336.547 118.735 336.719 118.735 337.386 L 118.735 339.258 C 118.735 339.925 119.017 340.097 119.898 340.097 L 122.693 340.097 C 123.485 340.097 123.788 339.948 123.809 339.434 L 119.939 339.434 L 119.825 339.326 L 119.825 337.254" fill="rgb(0,82,136)"/><path d=" M 122.726 314.881 L 119.887 314.881 L 119.804 314.789 L 119.804 314.182 L 119.887 314.117 L 123.714 314.117 L 123.766 313.989 C 123.636 313.654 123.298 313.498 122.671 313.498 L 120.013 313.498 C 119.132 313.498 118.851 313.67 118.851 314.337 L 118.851 314.729 C 118.851 315.397 119.132 315.568 120.013 315.568 L 122.846 315.568 L 122.935 315.647 L 122.935 316.281 L 122.862 316.38 L 119.622 316.38 L 119.622 316.377 L 118.774 316.377 C 118.774 316.377 118.676 316.426 118.68 316.449 C 118.753 316.915 119.07 317.048 119.831 317.048 L 122.726 317.048 C 123.607 317.048 123.897 316.876 123.897 316.208 L 123.897 315.719 C 123.897 315.053 123.607 314.881 122.726 314.881" fill="rgb(0,82,136)"/><path d=" M 119.993 352.809 L 118.4 352.809 L 118.314 352.974 L 120.083 354.264 C 120.418 354.07 120.783 353.873 121.18 353.679" fill="rgb(0,82,136)"/><path d=" M 121.421 355.239 L 122.976 356.373 L 124.589 356.373 L 124.656 356.223 L 122.334 354.523 C 122.025 354.749 121.721 354.989 121.421 355.239" fill="rgb(0,82,136)"/><path d=" M 119.756 356.371 L 118.315 356.371 L 118.193 356.18 C 119.173 355.233 123.649 351.676 129.475 351.224 C 129.475 351.224 124.379 351.79 119.756 356.371" fill="rgb(0,82,136)"/></g><g id="g12522"><g id="g12524"><rect x="116.76" y="215.085" width="9.199" height="5.17" transform="matrix(1,0,0,1,0,0)" fill="rgb(178,34,52)"/><path d=" M 116.76 215.681 L 125.958 215.681 M 125.958 216.477 L 116.76 216.477 M 116.76 217.272 L 125.958 217.272 M 125.958 218.068 L 116.76 218.068 M 116.76 218.863 L 125.958 218.863 M 125.958 219.659 L 116.76 219.659" fill="rgb(0,0,0)" vector-effect="non-scaling-stroke" stroke-width="0.385" stroke="rgb(255,255,255)" stroke-linejoin="miter" stroke-linecap="butt" stroke-miterlimit="4"/><rect x="116.76" y="215.085" width="3.68" height="2.784" transform="matrix(1,0,0,1,0,0)" fill="rgb(60,59,110)"/><g id="g12532"><g id="g12534"><g id="g12536"><g id="g12538"><g id="g12540"><path d=" M 117.066 215.204 L 117.154 215.492 L 116.925 215.314 L 117.208 215.314 L 116.979 215.492 L 117.066 215.204 Z " fill="rgb(255,255,255)"/><path d=" M 117.066 215.204 L 117.154 215.492 L 116.925 215.314 L 117.208 215.314 L 116.979 215.492 L 117.066 215.204 Z " fill="rgb(255,255,255)"/><path d=" M 117.066 215.204 L 117.154 215.492 L 116.925 215.314 L 117.208 215.314 L 116.979 215.492 L 117.066 215.204 Z " fill="rgb(255,255,255)"/><path d=" M 117.066 215.204 L 117.154 215.492 L 116.925 215.314 L 117.208 215.314 L 116.979 215.492 L 117.066 215.204 Z " fill="rgb(255,255,255)"/></g><path d=" M 117.066 215.204 L 117.154 215.492 L 116.925 215.314 L 117.208 215.314 L 116.979 215.492 L 117.066 215.204 Z " fill="rgb(255,255,255)"/></g><g id="s4"><path d=" M 117.066 215.204 L 117.154 215.492 L 116.925 215.314 L 117.208 215.314 L 116.979 215.492 L 117.066 215.204 Z " fill="rgb(255,255,255)"/><path d=" M 117.066 215.204 L 117.154 215.492 L 116.925 215.314 L 117.208 215.314 L 116.979 215.492 L 117.066 215.204 Z " fill="rgb(255,255,255)"/><path d=" M 117.066 215.204 L 117.154 215.492 L 116.925 215.314 L 117.208 215.314 L 116.979 215.492 L 117.066 215.204 Z " fill="rgb(255,255,255)"/><path d=" M 117.066 215.204 L 117.154 215.492 L 116.925 215.314 L 117.208 215.314 L 116.979 215.492 L 117.066 215.204 Z " fill="rgb(255,255,255)"/></g></g><g id="s9"><g id="s5"><g id="s4"><path d=" M 117.066 215.204 L 117.154 215.492 L 116.925 215.314 L 117.208 215.314 L 116.979 215.492 L 117.066 215.204 Z " fill="rgb(255,255,255)"/><path d=" M 117.066 215.204 L 117.154 215.492 L 116.925 215.314 L 117.208 215.314 L 116.979 215.492 L 117.066 215.204 Z " fill="rgb(255,255,255)"/><path d=" M 117.066 215.204 L 117.154 215.492 L 116.925 215.314 L 117.208 215.314 L 116.979 215.492 L 117.066 215.204 Z " fill="rgb(255,255,255)"/><path d=" M 117.066 215.204 L 117.154 215.492 L 116.925 215.314 L 117.208 215.314 L 116.979 215.492 L 117.066 215.204 Z " fill="rgb(255,255,255)"/></g><path d=" M 117.066 215.204 L 117.154 215.492 L 116.925 215.314 L 117.208 215.314 L 116.979 215.492 L 117.066 215.204 Z " fill="rgb(255,255,255)"/></g><g id="s4"><path d=" M 117.066 215.204 L 117.154 215.492 L 116.925 215.314 L 117.208 215.314 L 116.979 215.492 L 117.066 215.204 Z " fill="rgb(255,255,255)"/><path d=" M 117.066 215.204 L 117.154 215.492 L 116.925 215.314 L 117.208 215.314 L 116.979 215.492 L 117.066 215.204 Z " fill="rgb(255,255,255)"/><path d=" M 117.066 215.204 L 117.154 215.492 L 116.925 215.314 L 117.208 215.314 L 116.979 215.492 L 117.066 215.204 Z " fill="rgb(255,255,255)"/><path d=" M 117.066 215.204 L 117.154 215.492 L 116.925 215.314 L 117.208 215.314 L 116.979 215.492 L 117.066 215.204 Z " fill="rgb(255,255,255)"/></g></g></g><g id="s18"><g id="s9"><g id="s5"><g id="s4"><path d=" M 117.066 215.204 L 117.154 215.492 L 116.925 215.314 L 117.208 215.314 L 116.979 215.492 L 117.066 215.204 Z " fill="rgb(255,255,255)"/><path d=" M 117.066 215.204 L 117.154 215.492 L 116.925 215.314 L 117.208 215.314 L 116.979 215.492 L 117.066 215.204 Z " fill="rgb(255,255,255)"/><path d=" M 117.066 215.204 L 117.154 215.492 L 116.925 215.314 L 117.208 215.314 L 116.979 215.492 L 117.066 215.204 Z " fill="rgb(255,255,255)"/><path d=" M 117.066 215.204 L 117.154 215.492 L 116.925 215.314 L 117.208 215.314 L 116.979 215.492 L 117.066 215.204 Z " fill="rgb(255,255,255)"/></g><path d=" M 117.066 215.204 L 117.154 215.492 L 116.925 215.314 L 117.208 215.314 L 116.979 215.492 L 117.066 215.204 Z " fill="rgb(255,255,255)"/></g><g id="s4"><path d=" M 117.066 215.204 L 117.154 215.492 L 116.925 215.314 L 117.208 215.314 L 116.979 215.492 L 117.066 215.204 Z " fill="rgb(255,255,255)"/><path d=" M 117.066 215.204 L 117.154 215.492 L 116.925 215.314 L 117.208 215.314 L 116.979 215.492 L 117.066 215.204 Z " fill="rgb(255,255,255)"/><path d=" M 117.066 215.204 L 117.154 215.492 L 116.925 215.314 L 117.208 215.314 L 116.979 215.492 L 117.066 215.204 Z " fill="rgb(255,255,255)"/><path d=" M 117.066 215.204 L 117.154 215.492 L 116.925 215.314 L 117.208 215.314 L 116.979 215.492 L 117.066 215.204 Z " fill="rgb(255,255,255)"/></g></g><g id="s9"><g id="s5"><g id="s4"><path d=" M 117.066 215.204 L 117.154 215.492 L 116.925 215.314 L 117.208 215.314 L 116.979 215.492 L 117.066 215.204 Z " fill="rgb(255,255,255)"/><path d=" M 117.066 215.204 L 117.154 215.492 L 116.925 215.314 L 117.208 215.314 L 116.979 215.492 L 117.066 215.204 Z " fill="rgb(255,255,255)"/><path d=" M 117.066 215.204 L 117.154 215.492 L 116.925 215.314 L 117.208 215.314 L 116.979 215.492 L 117.066 215.204 Z " fill="rgb(255,255,255)"/><path d=" M 117.066 215.204 L 117.154 215.492 L 116.925 215.314 L 117.208 215.314 L 116.979 215.492 L 117.066 215.204 Z " fill="rgb(255,255,255)"/></g><path d=" M 117.066 215.204 L 117.154 215.492 L 116.925 215.314 L 117.208 215.314 L 116.979 215.492 L 117.066 215.204 Z " fill="rgb(255,255,255)"/></g><g id="s4"><path d=" M 117.066 215.204 L 117.154 215.492 L 116.925 215.314 L 117.208 215.314 L 116.979 215.492 L 117.066 215.204 Z " fill="rgb(255,255,255)"/><path d=" M 117.066 215.204 L 117.154 215.492 L 116.925 215.314 L 117.208 215.314 L 116.979 215.492 L 117.066 215.204 Z " fill="rgb(255,255,255)"/><path d=" M 117.066 215.204 L 117.154 215.492 L 116.925 215.314 L 117.208 215.314 L 116.979 215.492 L 117.066 215.204 Z " fill="rgb(255,255,255)"/><path d=" M 117.066 215.204 L 117.154 215.492 L 116.925 215.314 L 117.208 215.314 L 116.979 215.492 L 117.066 215.204 Z " fill="rgb(255,255,255)"/></g></g></g><g id="s9"><g id="s5"><g id="s4"><path d=" M 117.066 215.204 L 117.154 215.492 L 116.925 215.314 L 117.208 215.314 L 116.979 215.492 L 117.066 215.204 Z " fill="rgb(255,255,255)"/><path d=" M 117.066 215.204 L 117.154 215.492 L 116.925 215.314 L 117.208 215.314 L 116.979 215.492 L 117.066 215.204 Z " fill="rgb(255,255,255)"/><path d=" M 117.066 215.204 L 117.154 215.492 L 116.925 215.314 L 117.208 215.314 L 116.979 215.492 L 117.066 215.204 Z " fill="rgb(255,255,255)"/><path d=" M 117.066 215.204 L 117.154 215.492 L 116.925 215.314 L 117.208 215.314 L 116.979 215.492 L 117.066 215.204 Z " fill="rgb(255,255,255)"/></g><path d=" M 117.066 215.204 L 117.154 215.492 L 116.925 215.314 L 117.208 215.314 L 116.979 215.492 L 117.066 215.204 Z " fill="rgb(255,255,255)"/></g><g id="s4"><path d=" M 117.066 215.204 L 117.154 215.492 L 116.925 215.314 L 117.208 215.314 L 116.979 215.492 L 117.066 215.204 Z " fill="rgb(255,255,255)"/><path d=" M 117.066 215.204 L 117.154 215.492 L 116.925 215.314 L 117.208 215.314 L 116.979 215.492 L 117.066 215.204 Z " fill="rgb(255,255,255)"/><path d=" M 117.066 215.204 L 117.154 215.492 L 116.925 215.314 L 117.208 215.314 L 116.979 215.492 L 117.066 215.204 Z " fill="rgb(255,255,255)"/><path d=" M 117.066 215.204 L 117.154 215.492 L 116.925 215.314 L 117.208 215.314 L 116.979 215.492 L 117.066 215.204 Z " fill="rgb(255,255,255)"/></g></g><g id="s5"><g id="s4"><path d=" M 117.066 215.204 L 117.154 215.492 L 116.925 215.314 L 117.208 215.314 L 116.979 215.492 L 117.066 215.204 Z " fill="rgb(255,255,255)"/><path d=" M 117.066 215.204 L 117.154 215.492 L 116.925 215.314 L 117.208 215.314 L 116.979 215.492 L 117.066 215.204 Z " fill="rgb(255,255,255)"/><path d=" M 117.066 215.204 L 117.154 215.492 L 116.925 215.314 L 117.208 215.314 L 116.979 215.492 L 117.066 215.204 Z " fill="rgb(255,255,255)"/><path d=" M 117.066 215.204 L 117.154 215.492 L 116.925 215.314 L 117.208 215.314 L 116.979 215.492 L 117.066 215.204 Z " fill="rgb(255,255,255)"/></g><path d=" M 117.066 215.204 L 117.154 215.492 L 116.925 215.314 L 117.208 215.314 L 116.979 215.492 L 117.066 215.204 Z " fill="rgb(255,255,255)"/></g></g></g><g id="g12562"><g id="g12564"><path d=" M 118.707 207.347 C 119.014 207.182 119.324 207.022 119.648 206.894 C 115.977 204.963 115.771 203.511 115.018 201.983 C 115.598 203.753 116.083 205.519 118.707 207.347 L 118.707 207.347 Z " fill-rule="evenodd" fill="rgb(168,1,38)"/><path d=" M 116.794 204.448 C 118.193 205.617 119.407 206.451 120.302 206.704 C 121.188 206.232 124.117 205.975 124.053 206.641 C 123.412 206.325 123.031 206.475 122.668 206.592 C 122.851 206.59 123.333 206.536 123.478 206.587 C 123.419 206.658 123.355 206.689 123.289 206.729 C 123.526 206.781 123.75 206.848 123.936 206.96 C 124.057 206.949 124.136 206.952 124.173 206.989 C 124.05 207.022 123.901 207.18 123.828 207.287 C 124.642 207.31 125.509 207.302 125.6 208.16 C 125.857 207.4 125.398 207.005 124.503 206.832 C 124.386 206.572 124.197 206.35 124.013 206.098 C 121.567 205.961 119.123 205.795 116.794 204.448 L 116.794 204.448 Z " fill-rule="evenodd" fill="rgb(168,1,38)"/></g><path d=" M 114.875 210.364 L 114.875 208.883 L 115.866 208.883 C 115.827 208.934 115.794 208.988 115.71 209.021 L 115.089 209.021 L 115.089 209.411 L 115.643 209.411 C 115.612 209.458 115.577 209.502 115.518 209.521 L 115.089 209.521 L 115.089 210.049 C 115.044 210.169 114.984 210.281 114.875 210.364 Z " fill-rule="evenodd" fill="rgb(0,0,0)"/><path d=" M 117.55 209.037 L 117.55 210.12 L 117.831 210.12 L 117.831 209.1 C 117.45 208.753 117.069 208.753 116.688 209.1 L 116.688 210.12 L 116.943 210.12 L 116.943 209.521 L 117.144 209.521 C 117.19 209.497 117.223 209.468 117.242 209.434 L 116.947 209.434 L 116.947 209.041 C 117.173 208.885 117.354 208.885 117.55 209.036 L 117.55 209.037 Z " fill-rule="evenodd" fill="rgb(0,0,0)"/><path d=" M 120.488 210.155 L 119.345 210.155 L 119.345 208.907 L 119.631 208.907 L 119.631 210.053 L 120.636 210.053 C 120.594 210.091 120.573 210.142 120.488 210.155 Z " fill-rule="evenodd" fill="rgb(0,0,0)"/><path d=" M 122.196 208.883 L 122.196 209.129 C 121.737 209.751 122.519 210.498 123.399 209.95 L 123.465 209.936 C 122.92 210.552 120.921 210.052 122.196 208.883 L 122.196 208.883 Z " fill-rule="evenodd" fill="rgb(0,0,0)"/><path d=" M 121.592 208.916 L 121.592 209.368 C 122.03 208.577 122.639 208.183 124.502 208.708 C 122.715 208.006 122.052 208.374 121.592 208.916 Z " fill-rule="evenodd" fill="rgb(0,0,0)"/><path d=" M 125.062 208.785 C 124.689 208.791 124.315 209.04 124.317 209.513 C 124.321 210.457 125.807 210.505 125.807 209.513 C 125.808 209.016 125.435 208.779 125.062 208.785 L 125.062 208.785 Z  M 125.059 208.884 C 125.28 208.881 125.502 209.089 125.504 209.513 C 125.509 210.36 124.627 210.341 124.622 209.513 C 124.618 209.099 124.838 208.886 125.059 208.884 Z " fill-rule="evenodd" fill="rgb(0,0,0)"/><path d=" M 127.198 209.039 L 127.198 210.165 L 126.976 210.165 L 126.976 208.984 L 127.199 208.876 L 127.197 208.927 C 127.541 208.919 127.781 209.076 127.843 209.163 L 127.843 210.176 L 127.627 210.176 L 127.627 209.181 C 127.547 209.049 127.458 209.015 127.197 209.012 L 127.198 209.039 Z " fill-rule="evenodd" fill="rgb(0,0,0)"/><path d=" M 121.377 211.034 C 119.079 211.045 119.674 212.887 120.944 212.851 C 121.537 212.834 121.649 212.772 122.045 212.348 C 121.797 213.59 120.954 213.591 119.939 213.689 C 119.811 213.773 119.785 213.791 119.698 213.925 C 121.422 213.891 122.867 213.584 122.825 212.246 C 122.795 211.311 122.169 211.031 121.377 211.034 L 121.377 211.034 Z  M 121.342 211.257 C 121.544 211.257 121.737 211.32 121.879 211.432 C 122.021 211.543 122.101 211.695 122.101 211.853 C 122.1 212.182 121.761 212.448 121.342 212.448 C 120.925 212.447 120.587 212.182 120.586 211.853 C 120.586 211.524 120.924 211.258 121.342 211.257 Z " fill-rule="evenodd" fill="rgb(0,0,0)"/></g></g></g></svg>