<svg xmlns="http://www.w3.org/2000/svg" style="isolation:isolate" viewBox="110.109 166.403 22.457 221.338" width="22.457" height="221.338"><path fill="#FFF" d="M111.907 168.72h18.667v212.655h-18.667z"/><g opacity=".034"><linearGradient id="a" x1="33.864%" y1="23.171%" x2="82.338%" y2="23.171%"><stop offset="0%"/><stop offset="100%" stop-opacity="0"/></linearGradient><path fill="url(#a)" d="M112.236 168.937h9.26v212.238h-9.26z"/></g><g opacity=".034"><linearGradient id="b" x1="33.864%" y1="23.171%" x2="82.338%" y2="23.171%"><stop offset="0%"/><stop offset="100%" stop-opacity="0"/></linearGradient><path fill="url(#b)" d="M121.358 168.898h9.124v212.169h-9.124z"/></g><path vector-effect="non-scaling-stroke" stroke-width=".4" stroke="#000" d="M112.015 227.003h18.646M130.661 166.403V368.81M112.015 381.34h18.646M112.015 166.403V368.81M112.015 195.262h18.646"/><path d="M128.058 381.34v.284a17.178 17.178 0 0 0-1.947 5.317h4.912a17.178 17.178 0 0 0-1.947-5.317v-.284h-1.018zM120.829 381.34v.284a17.153 17.153 0 0 0-1.947 5.317h4.912a17.204 17.204 0 0 0-1.947-5.317v-.284h-1.018zM113.6 381.34v.284a17.153 17.153 0 0 0-1.947 5.317h4.911a17.176 17.176 0 0 0-1.946-5.317v-.284H113.6z" fill="#333" vector-effect="non-scaling-stroke" stroke-width=".4" stroke="#000"/><path vector-effect="non-scaling-stroke" stroke-width=".4" stroke="#000" d="M115.826 376.073h11.024"/><path d="M131.766 373.604l-.031-.315-.036-.322-.039-.326-.043-.33-.049-.332-.054-.332-.061-.331-.066-.329-.074-.325-.082-.319-.089-.313-.099-.305-.107-.295-.117-.284-.126-.272-.135-.26-.141-.247-.146-.233-.15-.22-.153-.206-.154-.191-.154-.177-.153-.161-.15-.146-.146-.129-.14-.114-.134-.096-.1.066-.098.101-.101.11-.102.12-.104.131-.104.141-.104.151-.104.162-.102.173-.1.185-.099.195-.095.206-.092.218-.087.23-.083.242-.078.256-.074.272-.069.29-.063.309-.059.331-.054.355-.048.379-.043.407-.038.436-.032.466-.027.5-.022.534-.005.555V380.866l.052.475H131.611l.155-.326V373.604zM110.91 373.604l.031-.315.035-.322.039-.326.044-.33.049-.332.054-.332.06-.331.067-.329.074-.325.081-.319.09-.313.098-.305.108-.295.117-.284.126-.272.134-.26.141-.247.147-.233.15-.22.153-.206.154-.191.154-.177.153-.161.15-.146.145-.129.141-.114.133-.096.1.066.099.101.1.11.103.12.103.131.104.141.104.151.104.162.102.173.101.185.098.195.096.206.091.218.088.23.083.242.078.256.074.272.068.29.064.309.059.331.053.355.049.379.043.407.038.436.032.466.027.5.021.534.005.555V380.866l-.051.475H111.065l-.156-.326V373.605l.001-.001z" fill="#F2F2F2" vector-effect="non-scaling-stroke" stroke-width=".4" stroke="#000"/><g fill="#005288"><path d="M122.768 321.675H118.9l-.144.107v3.441h1.071v-1.29l.102-.092h2.839c.717 0 1.053-.193 1.053-.688v-.79c0-.495-.336-.688-1.053-.688m0 1.272c0 .233-.154.281-.49.281h-2.337l-.114-.11v-.738l.102-.093h2.349c.336 0 .49.048.49.282v.378zM120.528 329.501l.921 1.35-.051.131h-2.038l-.52.64h3.034l.21.128.471.65h1.225l-2.686-3.594M119.955 347.431v-.955l.111-.095h2.05v-.608h-3.25v2.357h4.793v-.605h-3.589M118.866 344.581h4.844v.669h-4.844zM119.939 337.181h3.903c-.061-.496-.368-.634-1.149-.634h-2.795c-.881 0-1.163.172-1.163.839v1.872c0 .667.282.839 1.163.839h2.795c.792 0 1.095-.149 1.116-.663h-3.87l-.114-.108v-2.072M122.726 314.881h-2.839l-.083-.092v-.607l.083-.065h3.827l.052-.128c-.13-.335-.468-.491-1.095-.491h-2.658c-.881 0-1.162.172-1.162.839v.392c0 .668.281.839 1.162.839h2.833l.089.079v.634l-.073.099h-3.24v-.003h-.848s-.098.049-.094.072c.073.466.39.599 1.151.599h2.895c.881 0 1.171-.172 1.171-.84v-.489c0-.666-.29-.838-1.171-.838M119.993 352.809H118.4l-.086.165 1.769 1.29c.335-.194.7-.391 1.097-.585M121.421 355.239l1.555 1.134h1.613l.067-.15-2.322-1.7c-.309.226-.613.466-.913.716"/><path d="M119.756 356.371h-1.441l-.122-.191c.98-.947 5.456-4.504 11.282-4.956 0 0-5.096.566-9.719 5.147"/></g><g><path fill="#B22234" d="M116.76 215.085h9.199v5.17h-9.199z"/><path d="M116.76 215.681h9.198m0 .796h-9.198m0 .795h9.198m0 .796h-9.198m0 .795h9.198m0 .796h-9.198" vector-effect="non-scaling-stroke" stroke-width=".385" stroke="#FFF"/><path fill="#3C3B6E" d="M116.76 215.085h3.68v2.784h-3.68z"/><g fill="#FFF"><path d="M117.066 215.204l.088.288-.229-.178h.283l-.229.178.087-.288z"/><path d="M117.066 215.204l.088.288-.229-.178h.283l-.229.178.087-.288z"/><path d="M117.066 215.204l.088.288-.229-.178h.283l-.229.178.087-.288z"/><path d="M117.066 215.204l.088.288-.229-.178h.283l-.229.178.087-.288z"/><path d="M117.066 215.204l.088.288-.229-.178h.283l-.229.178.087-.288z"/><g><path d="M117.066 215.204l.088.288-.229-.178h.283l-.229.178.087-.288z"/><path d="M117.066 215.204l.088.288-.229-.178h.283l-.229.178.087-.288z"/><path d="M117.066 215.204l.088.288-.229-.178h.283l-.229.178.087-.288z"/><path d="M117.066 215.204l.088.288-.229-.178h.283l-.229.178.087-.288z"/></g><g><path d="M117.066 215.204l.088.288-.229-.178h.283l-.229.178.087-.288z"/><path d="M117.066 215.204l.088.288-.229-.178h.283l-.229.178.087-.288z"/><path d="M117.066 215.204l.088.288-.229-.178h.283l-.229.178.087-.288z"/><path d="M117.066 215.204l.088.288-.229-.178h.283l-.229.178.087-.288z"/><path d="M117.066 215.204l.088.288-.229-.178h.283l-.229.178.087-.288z"/><g><path d="M117.066 215.204l.088.288-.229-.178h.283l-.229.178.087-.288z"/><path d="M117.066 215.204l.088.288-.229-.178h.283l-.229.178.087-.288z"/><path d="M117.066 215.204l.088.288-.229-.178h.283l-.229.178.087-.288z"/><path d="M117.066 215.204l.088.288-.229-.178h.283l-.229.178.087-.288z"/></g></g><g><path d="M117.066 215.204l.088.288-.229-.178h.283l-.229.178.087-.288z"/><path d="M117.066 215.204l.088.288-.229-.178h.283l-.229.178.087-.288z"/><path d="M117.066 215.204l.088.288-.229-.178h.283l-.229.178.087-.288z"/><path d="M117.066 215.204l.088.288-.229-.178h.283l-.229.178.087-.288z"/><path d="M117.066 215.204l.088.288-.229-.178h.283l-.229.178.087-.288z"/><g><path d="M117.066 215.204l.088.288-.229-.178h.283l-.229.178.087-.288z"/><path d="M117.066 215.204l.088.288-.229-.178h.283l-.229.178.087-.288z"/><path d="M117.066 215.204l.088.288-.229-.178h.283l-.229.178.087-.288z"/><path d="M117.066 215.204l.088.288-.229-.178h.283l-.229.178.087-.288z"/></g><g><path d="M117.066 215.204l.088.288-.229-.178h.283l-.229.178.087-.288z"/><path d="M117.066 215.204l.088.288-.229-.178h.283l-.229.178.087-.288z"/><path d="M117.066 215.204l.088.288-.229-.178h.283l-.229.178.087-.288z"/><path d="M117.066 215.204l.088.288-.229-.178h.283l-.229.178.087-.288z"/><path d="M117.066 215.204l.088.288-.229-.178h.283l-.229.178.087-.288z"/><g><path d="M117.066 215.204l.088.288-.229-.178h.283l-.229.178.087-.288z"/><path d="M117.066 215.204l.088.288-.229-.178h.283l-.229.178.087-.288z"/><path d="M117.066 215.204l.088.288-.229-.178h.283l-.229.178.087-.288z"/><path d="M117.066 215.204l.088.288-.229-.178h.283l-.229.178.087-.288z"/></g></g></g><g><path d="M117.066 215.204l.088.288-.229-.178h.283l-.229.178.087-.288z"/><path d="M117.066 215.204l.088.288-.229-.178h.283l-.229.178.087-.288z"/><path d="M117.066 215.204l.088.288-.229-.178h.283l-.229.178.087-.288z"/><path d="M117.066 215.204l.088.288-.229-.178h.283l-.229.178.087-.288z"/><path d="M117.066 215.204l.088.288-.229-.178h.283l-.229.178.087-.288z"/><g><path d="M117.066 215.204l.088.288-.229-.178h.283l-.229.178.087-.288z"/><path d="M117.066 215.204l.088.288-.229-.178h.283l-.229.178.087-.288z"/><path d="M117.066 215.204l.088.288-.229-.178h.283l-.229.178.087-.288z"/><path d="M117.066 215.204l.088.288-.229-.178h.283l-.229.178.087-.288z"/></g></g><g><path d="M117.066 215.204l.088.288-.229-.178h.283l-.229.178.087-.288z"/><path d="M117.066 215.204l.088.288-.229-.178h.283l-.229.178.087-.288z"/><path d="M117.066 215.204l.088.288-.229-.178h.283l-.229.178.087-.288z"/><path d="M117.066 215.204l.088.288-.229-.178h.283l-.229.178.087-.288z"/><path d="M117.066 215.204l.088.288-.229-.178h.283l-.229.178.087-.288z"/></g></g><g fill-rule="evenodd"><g fill="#A80126"><path d="M118.707 207.347c.307-.165.617-.325.941-.453-3.671-1.931-3.877-3.383-4.63-4.911.58 1.77 1.065 3.536 3.689 5.364z"/><path d="M116.794 204.448c1.399 1.169 2.613 2.003 3.508 2.256.886-.472 3.815-.729 3.751-.063-.641-.316-1.022-.166-1.385-.049.183-.002.665-.056.81-.005-.059.071-.123.102-.189.142.237.052.461.119.647.231.121-.011.2-.008.237.029-.123.033-.272.191-.345.298.814.023 1.681.015 1.772.873.257-.76-.202-1.155-1.097-1.328-.117-.26-.306-.482-.49-.734-2.446-.137-4.89-.303-7.219-1.65z"/></g><path d="M114.875 210.364v-1.481h.991c-.039.051-.072.105-.156.138h-.621v.39h.554c-.031.047-.066.091-.125.11h-.429v.528a.67.67 0 0 1-.214.315zM117.55 209.037v1.083h.281v-1.02c-.381-.347-.762-.347-1.143 0v1.02h.255v-.599h.201a.229.229 0 0 0 .098-.087h-.295v-.393c.226-.156.407-.156.603-.005v.001zM120.488 210.155h-1.143v-1.248h.286v1.146h1.005c-.042.038-.063.089-.148.102zM122.196 208.883v.246c-.459.622.323 1.369 1.203.821l.066-.014c-.545.616-2.544.116-1.269-1.053z"/><path d="M121.592 208.916v.452c.438-.791 1.047-1.185 2.91-.66-1.787-.702-2.45-.334-2.91.208zM125.062 208.785c-.373.006-.747.255-.745.728.004.944 1.49.992 1.49 0 .001-.497-.372-.734-.745-.728zm-.003.099c.221-.003.443.205.445.629.005.847-.877.828-.882 0-.004-.414.216-.627.437-.629zM127.198 209.039v1.126h-.222v-1.181l.223-.108-.002.051c.344-.008.584.149.646.236v1.013h-.216v-.995c-.08-.132-.169-.166-.43-.169l.001.027zM121.377 211.034c-2.298.011-1.703 1.853-.433 1.817.593-.017.705-.079 1.101-.503-.248 1.242-1.091 1.243-2.106 1.341a.6.6 0 0 0-.241.236c1.724-.034 3.169-.341 3.127-1.679-.03-.935-.656-1.215-1.448-1.212zm-.035.223c.202 0 .395.063.537.175a.539.539 0 0 1 .222.421c-.001.329-.34.595-.759.595-.417-.001-.755-.266-.756-.595 0-.329.338-.595.756-.596z"/></g></g></svg>