<?xml version="1.0" standalone="no"?><!-- Generator: Gravit.io --><svg xmlns="http://www.w3.org/2000/svg" xmlns:xlink="http://www.w3.org/1999/xlink" style="isolation:isolate" viewBox="20.413 140.2 27.525 71.01" width="27.525" height="71.01"><g id="falcon-fairing"><g id="g7188"><g id="g7190"><linearGradient id="_lgradient_19" x1="-27.2978507710814%" y1="1109.8647210505665%" x2="83.81768021978324%" y2="1109.8647210505665%"><stop offset="0%" stop-opacity="1" style="stop-color:rgb(230,230,230)"/><stop offset="100%" stop-opacity="1" style="stop-color:rgb(249,249,249)"/></linearGradient><path d=" M 21.402 201.764 C 21.337 200.768 21.314 191.918 21.352 182.098 C 21.426 162.694 21.414 162.939 22.476 157.976 C 23.688 152.313 26.001 147.862 29.912 143.668 C 31.459 142.008 32.698 141.18 33.639 141.176 L 34.037 141.174 L 34.037 172.375 L 34.037 203.576 L 27.778 203.576 L 21.52 203.576 L 21.402 201.764 L 21.402 201.764 Z " fill="url(#_lgradient_19)"/><linearGradient id="_lgradient_20" x1="-28.54543488940422%" y1="9896.725780803117%" x2="83.65887704113995%" y2="9896.725780803117%"><stop offset="0%" stop-opacity="1" style="stop-color:rgb(230,230,230)"/><stop offset="100%" stop-opacity="1" style="stop-color:rgb(249,249,249)"/></linearGradient><path d=" M 24.893 210.073 C 24.798 209.951 24.141 208.778 23.432 207.465 C 22.724 206.153 21.989 204.82 21.8 204.504 L 21.457 203.93 L 27.747 203.93 L 34.037 203.93 L 34.037 207.112 L 34.037 210.294 L 29.551 210.294 C 26.171 210.294 25.022 210.239 24.893 210.073 L 24.893 210.073 Z " fill="url(#_lgradient_20)"/></g><g id="g7196"><linearGradient id="_lgradient_21" x1="-34.1052443601324%" y1="1110.465661690932%" x2="103.4976885141397%" y2="1110.465661690932%"><stop offset="0%" stop-opacity="1" style="stop-color:rgb(230,230,230)"/><stop offset="100%" stop-opacity="1" style="stop-color:rgb(249,249,249)"/></linearGradient><path d=" M 46.999 201.764 C 47.064 200.768 47.086 191.918 47.049 182.098 C 46.975 162.694 46.987 162.939 45.924 157.976 C 44.713 152.313 42.4 147.862 38.489 143.668 C 36.942 142.008 35.703 141.18 34.761 141.176 L 34.364 141.174 L 34.364 172.375 L 34.364 203.576 L 40.622 203.576 L 46.881 203.576 L 46.999 201.764 L 46.999 201.764 Z " fill="url(#_lgradient_21)"/><linearGradient id="_lgradient_22" x1="-35.41953166857219%" y1="9902.618338267337%" x2="103.5317226259501%" y2="9902.618338267337%"><stop offset="0%" stop-opacity="1" style="stop-color:rgb(230,230,230)"/><stop offset="100%" stop-opacity="1" style="stop-color:rgb(249,249,249)"/></linearGradient><path d=" M 43.508 210.073 C 43.603 209.951 44.26 208.778 44.968 207.465 C 45.677 206.153 46.411 204.82 46.6 204.504 L 46.944 203.93 L 40.654 203.93 L 34.364 203.93 L 34.364 207.112 L 34.364 210.294 L 38.85 210.294 C 42.229 210.294 43.378 210.239 43.508 210.073 L 43.508 210.073 Z " fill="url(#_lgradient_22)"/></g></g><line x1="24.852" y1="210.41" x2="43.499" y2="210.41" vector-effect="non-scaling-stroke" stroke-width="0.4" stroke="rgb(0,0,0)" stroke-linejoin="miter" stroke-linecap="butt" stroke-miterlimit="4"/><line x1="21.213" y1="203.734" x2="47.138" y2="203.734" vector-effect="non-scaling-stroke" stroke-width="0.4" stroke="rgb(0,0,0)" stroke-linejoin="miter" stroke-linecap="butt" stroke-miterlimit="4"/><path d=" M 24.852 210.41 L 24.463 209.696 L 24.074 208.982 L 23.685 208.268 L 23.296 207.554 L 22.906 206.841 L 22.517 206.127 L 22.128 205.413 L 21.739 204.699 L 21.35 203.985 L 21.213 201.121 L 21.213 197.09 L 21.213 193.06 L 21.213 189.029 L 21.213 184.999 L 21.213 180.969 L 21.213 176.938 L 21.213 172.908 L 21.213 168.877 L 21.228 165.886 L 21.277 165.356 L 21.328 164.827 L 21.38 164.297 L 21.433 163.767 L 21.49 163.237 L 21.549 162.707 L 21.612 162.177 L 21.68 161.647 L 21.752 161.117 L 21.83 160.586 L 21.913 160.056 L 22.002 159.526 L 22.098 158.997 L 22.2 158.469 L 22.309 157.942 L 22.425 157.417 L 22.547 156.894 L 22.677 156.373 L 22.815 155.855 L 22.96 155.34 L 23.114 154.828 L 23.275 154.319 L 23.446 153.814 L 23.624 153.314 L 23.812 152.818 L 24.009 152.327 L 24.215 151.84 L 24.43 151.36 L 24.655 150.884 L 24.89 150.414 L 25.134 149.948 L 25.387 149.488 L 25.649 149.031 L 25.921 148.579 L 26.201 148.131 L 26.491 147.687 L 26.789 147.247 L 27.096 146.81 L 27.412 146.376 L 27.736 145.946 L 28.069 145.518 L 28.41 145.093 L 28.759 144.67 L 29.117 144.25 L 29.483 143.831 L 29.857 143.415 L 30.24 143.006 L 30.635 142.612 L 31.044 142.243 L 31.469 141.907 L 31.912 141.612 L 32.376 141.368 L 32.863 141.184 L 33.375 141.066 L 33.915 141.001 L 34.48 141 L 35.021 141.065 L 35.533 141.182 L 36.02 141.366 L 36.484 141.61 L 36.928 141.904 L 37.353 142.24 L 37.762 142.609 L 38.157 143.002 L 38.541 143.411 L 38.915 143.827 L 39.28 144.246 L 39.638 144.666 L 39.987 145.089 L 40.328 145.514 L 40.661 145.942 L 40.985 146.372 L 41.3 146.806 L 41.607 147.243 L 41.905 147.683 L 42.194 148.127 L 42.475 148.575 L 42.747 149.027 L 43.009 149.483 L 43.263 149.944 L 43.507 150.409 L 43.742 150.88 L 43.968 151.355 L 44.184 151.836 L 44.391 152.322 L 44.589 152.813 L 44.778 153.309 L 44.958 153.809 L 45.129 154.313 L 45.292 154.822 L 45.447 155.334 L 45.593 155.849 L 45.731 156.367 L 45.862 156.888 L 45.985 157.411 L 46.101 157.936 L 46.209 158.463 L 46.31 158.991 L 46.404 159.52 L 46.492 160.051 L 46.573 160.581 L 46.648 161.112 L 46.716 161.642 L 46.78 162.173 L 46.838 162.704 L 46.892 163.234 L 46.943 163.764 L 46.991 164.295 L 47.037 164.825 L 47.082 165.356 L 47.125 165.886 L 47.138 168.877 L 47.138 172.908 L 47.138 176.938 L 47.138 180.969 L 47.138 184.999 L 47.138 189.03 L 47.138 193.06 L 47.138 197.09 L 47.138 201.121 L 47.002 203.985 L 46.612 204.699 L 46.223 205.413 L 45.834 206.127 L 45.445 206.841 L 45.056 207.554 L 44.666 208.268 L 44.277 208.982 L 43.888 209.696 L 43.499 210.41" fill="none" vector-effect="non-scaling-stroke" stroke-width="0.4" stroke="rgb(0,0,0)" stroke-linejoin="miter" stroke-linecap="butt" stroke-miterlimit="4"/><line x1="34.175" y1="210.41" x2="34.175" y2="141" vector-effect="non-scaling-stroke" stroke-width="0.4" stroke="rgb(0,0,0)" stroke-linejoin="miter" stroke-linecap="butt" stroke-miterlimit="4"/></g></svg>