<svg xmlns="http://www.w3.org/2000/svg" style="isolation:isolate" viewBox="33.4 279.947 10.076 107.794" width="10.076" height="107.794"><path fill="#F7F7F7" d="M34.176 299.891h8.469v73.344h-8.469z"/><path fill="#FFF" d="M34.447 300.107h4.067v72.896h-4.067z" opacity=".034"/><path fill="#FFF" d="M38.454 300.093h4.007v72.872h-4.007z" opacity=".034"/><path fill="#4D4D4D" d="M34.206 308.303h8.485v16.131h-8.485z"/><path vector-effect="non-scaling-stroke" stroke-width=".4" stroke="#000" d="M34.2 299.933h8.476M34.2 324.415h8.476M34.2 308.272h8.476M38.438 280.747v16.939"/><path d="M40.894 386.941H36.001l.126-.694.192-.753.226-.745.26-.734.292-.721.324-.706.1-.343-.07-.098-.068-.101-.064-.105-.061-.109-.058-.112-.055-.115-.052-.119-.048-.123-.046-.127-.043-.13-.039-.134-.037-.137-.034-.142-.031-.145-.028-.149-.025-.153-.022-.157-.019-.161-.017-.164-.014-.169-.011-.173.075-.088H40.108l.09.073-.011.173-.014.169-.016.165-.02.162-.022.157-.024.153-.028.149-.031.146-.033.142-.037.138-.039.134-.042.13-.046.127-.048.123-.052.12-.054.116-.058.112-.061.109-.064.105-.067.102-.07.098.064.29.327.705.295.719.262.734.229.744.195.752.16.759.001.001z" fill="#333" vector-effect="non-scaling-stroke" stroke-width=".4" stroke="#000"/><path d="M34.699 297.686h7.478v-7.679l-.748-3.685-2.227-5.058a.824.824 0 0 0-1.528 0l-2.228 5.058-.747 3.685v7.679zM42.177 297.686l.499 2.247v73.227l-3.384 2.977a1.492 1.492 0 0 1-1.708 0L34.2 373.16v-73.227l.499-2.247" fill="none" vector-effect="non-scaling-stroke" stroke-width=".4" stroke="#000"/><path vector-effect="non-scaling-stroke" stroke-width=".4" stroke="#000" d="M42.676 373.16H34.2M38.438 376.406v2.928M34.2 373.16l2.554 6.174M42.676 373.16l-2.554 6.174"/><path d="M38.653 289.261c0-4.52.021-8.218.047-8.216.17.006.399.452 1.405 2.727l1.129 2.552.364 1.75.364 1.75.002 3.828.002 3.828H38.653v-8.219zM34.905 293.729v-3.776l.361-1.779.36-1.778 1.127-2.563c.62-1.409 1.157-2.595 1.194-2.636.07-.076.212-.161.269-.161.023 0 .033 2.506.033 8.235v8.234h-3.344v-3.776zM34.459 299.69c.001-.03.089-.448.196-.929l.194-.875 3.585-.008 3.585-.008.016.07c.062.26.391 1.758.391 1.779 0 .014-1.793.026-3.984.026-3.775 0-3.984-.003-3.983-.055z" fill="#F2F2F2"/><path d="M37.954 376.247c-.273-.101-.251-.083-1.904-1.585l-1.565-1.422 1.96-.014c1.078-.01 2.836-.01 3.908 0l1.949.014-1.594 1.448c-1.091.991-1.662 1.475-1.811 1.535-.257.104-.698.115-.943.023v.001z" fill="#EFEFEF"/><g opacity=".034"><linearGradient id="a" x1="33.864%" y1="23.171%" x2="82.338%" y2="23.171%"><stop offset="0%"/><stop offset="100%" stop-opacity="0"/></linearGradient><path fill="url(#a)" d="M34.372 300.107h4.104v72.885h-4.104z"/></g><g opacity=".034"><linearGradient id="b" x1="33.864%" y1="23.171%" x2="82.338%" y2="23.171%"><stop offset="0%"/><stop offset="100%" stop-opacity="0"/></linearGradient><path fill="url(#b)" d="M38.415 300.093h4.044v72.861h-4.044z"/></g><g fill="#005288"><path d="M38.931 339.721h-1.998l-.074.055v1.777h.553v-.666l.053-.047h1.466c.37 0 .543-.1.543-.356v-.408c0-.256-.173-.355-.543-.355m0 .657c0 .12-.08.145-.253.145h-1.207l-.059-.057v-.381l.053-.048h1.213c.173 0 .253.025.253.146v.195zM37.774 343.763l.476.697-.027.068h-1.052l-.269.33h1.567l.108.066.244.336h.632l-1.387-1.856M37.478 353.023v-.494l.057-.049h1.059v-.314h-1.678v1.218h2.475v-.313h-1.853M36.916 351.551h2.502v.345h-2.502zM37.47 347.729h2.015c-.031-.256-.19-.327-.593-.327h-1.444c-.455 0-.6.089-.6.433v.966c0 .345.145.434.6.434h1.444c.409 0 .566-.077.576-.343H37.47l-.059-.055v-1.071M38.909 336.212h-1.466l-.043-.048v-.313l.043-.033h1.976l.027-.066c-.067-.174-.241-.254-.565-.254h-1.373c-.455 0-.6.088-.6.433v.203c0 .344.145.433.6.433h1.463l.046.04v.328l-.038.051h-1.673v-.001h-.438s-.05.025-.048.037c.037.241.201.309.594.309h1.495c.455 0 .605-.089.605-.434v-.252c0-.344-.15-.433-.605-.433M37.498 355.8h-.823l-.045.085.914.666c.173-.1.362-.201.566-.302M38.235 357.055l.803.586h.833l.035-.078-1.2-.878c-.159.117-.316.241-.471.37"/><path d="M37.375 357.639h-.744l-.063-.098c.506-.489 2.818-2.326 5.826-2.56 0 0-2.632.293-5.019 2.658"/></g></svg>