<svg xmlns="http://www.w3.org/2000/svg" style="isolation:isolate" viewBox="296.355 93.056 20.246 294.685" width="20.246" height="294.685"><path fill="#FFF" d="M297.078 93.712h18.667v284.901h-18.667z"/><g opacity=".034"><linearGradient id="a" x1="33.865%" y1="23.171%" x2="82.338%" y2="23.171%"><stop offset="0%"/><stop offset="100%" stop-opacity="0"/></linearGradient><path fill="url(#a)" d="M297.322 93.928h9.251v284.451h-9.251z"/></g><g opacity=".034"><linearGradient id="b" x1="33.864%" y1="23.171%" x2="82.338%" y2="23.171%"><stop offset="0%"/><stop offset="100%" stop-opacity="0"/></linearGradient><path fill="url(#b)" d="M306.451 93.928h9.115v284.451h-9.115z"/></g><path d="M297.972 380.501a.765.765 0 0 1-.049-.149l-.007-.052h3.401l.018.091a.304.304 0 0 1-.004.149l-.022.058h-3.295l-.042-.097zM301.77 380.502a.688.688 0 0 1-.048-.149l-.006-.053 1.74-.01c1.518-.01 1.74 0 1.74.027 0 .018-.02.088-.046.154l-.045.123h-3.292l-.043-.096v.004zM305.491 380.659a2.6 2.6 0 0 0 .049-.149l.056-.172.02-.05.867.01.867.01.016.055c.034.117.079.256.095.293.015.036-.04.039-.982.039-.791 0-.997-.01-.988-.028v-.008zM307.807 380.489a.565.565 0 0 1-.047-.155v-.046l1.74.01 1.74.01-.007.055a.804.804 0 0 1-.048.15l-.042.094H307.854l-.047-.109v-.009zM311.624 380.538a.296.296 0 0 1-.005-.15l.019-.088h3.403l-.007.052a.792.792 0 0 1-.049.15l-.042.097h-3.295l-.023-.061h-.001zM297.676 379.802c-.099-.161-.25-.588-.296-.84l-.031-.166H315.6l-.04.21c-.054.29-.073.348-.221.663l-.13.276h-17.445l-.088-.143z" fill="#F7F7F7"/><g fill="#333"><path d="M301.404 383.374c-.194-.476-.45-1.03-.705-1.526l-.099-.193.041-.076c.071-.132.236-.419.336-.584l.035-.058h.98l.038.063c.085.141.305.523.357.622l.018.033-.052.099a19.628 19.628 0 0 0-.781 1.686l-.038.093h-.065l-.065-.158v-.001zM311.302 383.223c-.194-.476-.45-1.03-.706-1.526l-.099-.193.041-.076c.072-.132.237-.419.336-.584l.035-.058h.98l.038.063c.086.141.305.523.358.622l.018.034-.052.099c-.279.53-.558 1.131-.782 1.685l-.037.093h-.066l-.064-.158v-.001zM305.369 382.682c.08-.156.23-.434.334-.617l.187-.333-.221-.387-.221-.388h-.379c-.324 0-.38-.011-.38-.041 0-.033-.031-.039-.164-.033-.155.011-.167.013-.218.101l-.054.093.284.541c.157.298.367.722.468.943.101.222.191.403.2.404.01 0 .083-.127.164-.284v.001zM307.658 382.663c-.08-.157-.23-.434-.334-.618l-.187-.332.221-.388.221-.388h.379c.324 0 .38-.011.38-.041 0-.033.031-.039.164-.033.155.011.167.013.218.102l.054.092-.284.541a23.07 23.07 0 0 0-.468.944 3.59 3.59 0 0 1-.2.403c-.01.001-.083-.127-.164-.283v.001z"/><path d="M304.115 386.925c0-.013.084-.381.095-.421.175-2.249.357-1.782 1.074-3.147 0-.069.488-1.048.759-1.522l.139-.241v-.627h.677v.635l.146.254c.151.266.571 1.083.668 1.303l.057.127c.89 2.402.22.294 1.137 3.394.023.105.042.205.042.223 0 .033-.004.033-2.397.033-1.318 0-2.397 0-2.397-.011z"/></g><path vector-effect="non-scaling-stroke" stroke-width=".4" stroke="#000" d="M297.155 378.601h18.646M297.155 166.979h18.646M297.155 135.269h18.646M310.009 380.794h-1.018M299.101 386.11h4.912M301.048 380.794h1.018"/><path d="M302.506 381.621c-.139-.28-.286-.556-.44-.827M301.048 380.794c-.154.271-.301.547-.44.827" fill="none" vector-effect="non-scaling-stroke" stroke-width=".4" stroke="#000"/><path vector-effect="non-scaling-stroke" stroke-width=".4" stroke="#000" d="M304.43 380.794h.764"/><path d="M305.938 381.722c-.14-.288-.289-.571-.446-.851M304.43 380.794c-.08.14-.157.281-.233.423" fill="none" vector-effect="non-scaling-stroke" stroke-width=".4" stroke="#000"/><path vector-effect="non-scaling-stroke" stroke-width=".4" stroke="#000" d="M313.854 386.11h-4.911M311.907 380.794h-1.018"/><path d="M310.889 380.794c-.154.271-.301.547-.44.827M312.348 381.621c-.14-.28-.287-.556-.441-.827" fill="none" vector-effect="non-scaling-stroke" stroke-width=".4" stroke="#000"/><path vector-effect="non-scaling-stroke" stroke-width=".4" stroke="#000" d="M308.525 380.794h-.764"/><path d="M301.501 380.109c-.011.247.065.489.216.685M305.194 380.794c.151-.196.228-.438.216-.685" fill="none" vector-effect="non-scaling-stroke" stroke-width=".4" stroke="#000"/><path vector-effect="non-scaling-stroke" stroke-width=".4" stroke="#000" d="M301.717 380.794h3.477"/><path d="M307.545 380.109c-.011.247.065.489.216.685M311.238 380.794c.151-.196.228-.438.216-.685" fill="none" vector-effect="non-scaling-stroke" stroke-width=".4" stroke="#000"/><path vector-effect="non-scaling-stroke" stroke-width=".4" stroke="#000" d="M307.761 380.794h3.477M305.492 380.871h1.972"/><path d="M304.685 380.794l.054.078M308.216 380.871a.843.843 0 0 0 .055-.078" fill="none" vector-effect="non-scaling-stroke" stroke-width=".4" stroke="#000"/><path vector-effect="non-scaling-stroke" stroke-width=".4" stroke="#000" d="M304.739 380.871h3.477"/><path d="M307.513 380.871c-.156.28-.305.563-.446.851M307.513 380.871c-.156.28-.305.563-.446.851M308.783 381.17a17.13 17.13 0 0 0-.208-.376M315.801 93.856v284.745a3.006 3.006 0 0 1-.489 1.508h-17.668a2.987 2.987 0 0 1-.489-1.508V93.856M304.224 386.11c-.066.275-.125.552-.177.831h4.911a16.568 16.568 0 0 0-.177-.831M305.145 383.333c.251-.585.534-1.155.849-1.709v-.753" fill="none" vector-effect="non-scaling-stroke" stroke-width=".4" stroke="#000"/><path d="M307.012 380.871v.753c.303.534.577 1.084.822 1.647" fill="none" vector-effect="non-scaling-stroke" stroke-width=".4" stroke="#000"/><path d="M301.557 383.936a17.145 17.145 0 0 0-1.39-3.142h-1.017a17.147 17.147 0 0 0-1.947 5.316h4.911" fill="#333" vector-effect="non-scaling-stroke" stroke-width=".4" stroke="#000"/><path d="M297.704 380.109c-.012.247.065.489.216.685h3.477c.069-.09.123-.19.16-.296M311.398 380.498c.037.106.091.206.16.296h3.477c.151-.196.228-.438.217-.685" fill="none" vector-effect="non-scaling-stroke" stroke-width=".4" stroke="#000"/><path d="M310.841 386.11h4.912a17.198 17.198 0 0 0-1.947-5.316h-1.018a17.145 17.145 0 0 0-1.39 3.142" fill="#333" vector-effect="non-scaling-stroke" stroke-width=".4" stroke="#000"/><path d="M310.009 380.794a17.17 17.17 0 0 1 1.946 5.316h-4.911a17.147 17.147 0 0 1 1.947-5.316M302.947 380.794A17.147 17.147 0 0 0 301 386.11h4.911a17.17 17.17 0 0 0-1.946-5.316h-1.018z" fill="#333" vector-effect="non-scaling-stroke" stroke-width=".4" stroke="#000"/><g><path d="M307.887 313.675h-3.869l-.143.107v3.441h1.071v-1.29l.102-.092h2.839c.716 0 1.053-.193 1.053-.688v-.79c-.001-.495-.337-.688-1.053-.688m0 1.272c0 .233-.155.281-.491.281h-2.336l-.114-.11v-.738l.102-.093h2.348c.336 0 .491.048.491.282v.378zM305.646 321.501l.922 1.35-.051.131h-2.038l-.52.64h3.033l.21.128.471.65h1.226l-2.686-3.594" fill="#005288"/><g fill="#005288"><path d="M305.074 339.431v-.955l.11-.095h2.05v-.608h-3.249v2.357h4.793v-.605h-3.589M303.985 336.581h4.844v.669h-4.844z"/></g><path d="M305.058 329.181h3.902c-.06-.496-.368-.634-1.149-.634h-2.795c-.881 0-1.162.172-1.162.839v1.872c0 .667.281.839 1.162.839h2.795c.793 0 1.096-.149 1.117-.663h-3.87l-.115-.108v-2.072M307.845 306.881h-2.839l-.084-.092v-.607l.084-.065h3.826l.053-.128c-.131-.335-.468-.491-1.095-.491h-2.658c-.881 0-1.163.172-1.163.839v.392c0 .668.282.839 1.163.839h2.832l.089.079v.634l-.072.099h-3.24v-.003h-.849s-.097.049-.093.072c.072.466.39.599 1.151.599h2.895c.881 0 1.17-.172 1.17-.84v-.489c0-.666-.289-.838-1.17-.838M305.112 344.809h-1.593l-.087.165 1.77 1.29c.335-.194.7-.391 1.096-.585M306.54 347.239l1.555 1.134h1.613l.067-.15-2.323-1.7c-.308.226-.613.466-.912.716" fill="#005288"/><path d="M304.875 348.371h-1.442l-.122-.191c.981-.947 5.456-4.504 11.282-4.956 0 0-5.096.566-9.718 5.147" fill="#A7A9AC"/></g><g><path fill="#B22234" d="M301.878 153.476h9.199v5.17h-9.199z"/><path d="M301.878 154.073h9.199m0 .796h-9.199m0 .795h9.199m0 .795h-9.199m0 .796h9.199m0 .795h-9.199" vector-effect="non-scaling-stroke" stroke-width=".385" stroke="#FFF"/><path fill="#3C3B6E" d="M301.878 153.476h3.68v2.784h-3.68z"/><g fill="#FFF"><path d="M302.185 153.596l.087.288-.229-.178h.284l-.23.178.088-.288z"/><path d="M302.185 153.596l.087.288-.229-.178h.284l-.23.178.088-.288z"/><path d="M302.185 153.596l.087.288-.229-.178h.284l-.23.178.088-.288z"/><path d="M302.185 153.596l.087.288-.229-.178h.284l-.23.178.088-.288z"/><path d="M302.185 153.596l.087.288-.229-.178h.284l-.23.178.088-.288z"/><g><path d="M302.185 153.596l.087.288-.229-.178h.284l-.23.178.088-.288z"/><path d="M302.185 153.596l.087.288-.229-.178h.284l-.23.178.088-.288z"/><path d="M302.185 153.596l.087.288-.229-.178h.284l-.23.178.088-.288z"/><path d="M302.185 153.596l.087.288-.229-.178h.284l-.23.178.088-.288z"/></g><g><path d="M302.185 153.596l.087.288-.229-.178h.284l-.23.178.088-.288z"/><path d="M302.185 153.596l.087.288-.229-.178h.284l-.23.178.088-.288z"/><path d="M302.185 153.596l.087.288-.229-.178h.284l-.23.178.088-.288z"/><path d="M302.185 153.596l.087.288-.229-.178h.284l-.23.178.088-.288z"/><path d="M302.185 153.596l.087.288-.229-.178h.284l-.23.178.088-.288z"/><g><path d="M302.185 153.596l.087.288-.229-.178h.284l-.23.178.088-.288z"/><path d="M302.185 153.596l.087.288-.229-.178h.284l-.23.178.088-.288z"/><path d="M302.185 153.596l.087.288-.229-.178h.284l-.23.178.088-.288z"/><path d="M302.185 153.596l.087.288-.229-.178h.284l-.23.178.088-.288z"/></g></g><g><path d="M302.185 153.596l.087.288-.229-.178h.284l-.23.178.088-.288z"/><path d="M302.185 153.596l.087.288-.229-.178h.284l-.23.178.088-.288z"/><path d="M302.185 153.596l.087.288-.229-.178h.284l-.23.178.088-.288z"/><path d="M302.185 153.596l.087.288-.229-.178h.284l-.23.178.088-.288z"/><path d="M302.185 153.596l.087.288-.229-.178h.284l-.23.178.088-.288z"/><g><path d="M302.185 153.596l.087.288-.229-.178h.284l-.23.178.088-.288z"/><path d="M302.185 153.596l.087.288-.229-.178h.284l-.23.178.088-.288z"/><path d="M302.185 153.596l.087.288-.229-.178h.284l-.23.178.088-.288z"/><path d="M302.185 153.596l.087.288-.229-.178h.284l-.23.178.088-.288z"/></g><g><path d="M302.185 153.596l.087.288-.229-.178h.284l-.23.178.088-.288z"/><path d="M302.185 153.596l.087.288-.229-.178h.284l-.23.178.088-.288z"/><path d="M302.185 153.596l.087.288-.229-.178h.284l-.23.178.088-.288z"/><path d="M302.185 153.596l.087.288-.229-.178h.284l-.23.178.088-.288z"/><path d="M302.185 153.596l.087.288-.229-.178h.284l-.23.178.088-.288z"/><g><path d="M302.185 153.596l.087.288-.229-.178h.284l-.23.178.088-.288z"/><path d="M302.185 153.596l.087.288-.229-.178h.284l-.23.178.088-.288z"/><path d="M302.185 153.596l.087.288-.229-.178h.284l-.23.178.088-.288z"/><path d="M302.185 153.596l.087.288-.229-.178h.284l-.23.178.088-.288z"/></g></g></g><g><path d="M302.185 153.596l.087.288-.229-.178h.284l-.23.178.088-.288z"/><path d="M302.185 153.596l.087.288-.229-.178h.284l-.23.178.088-.288z"/><path d="M302.185 153.596l.087.288-.229-.178h.284l-.23.178.088-.288z"/><path d="M302.185 153.596l.087.288-.229-.178h.284l-.23.178.088-.288z"/><path d="M302.185 153.596l.087.288-.229-.178h.284l-.23.178.088-.288z"/><g><path d="M302.185 153.596l.087.288-.229-.178h.284l-.23.178.088-.288z"/><path d="M302.185 153.596l.087.288-.229-.178h.284l-.23.178.088-.288z"/><path d="M302.185 153.596l.087.288-.229-.178h.284l-.23.178.088-.288z"/><path d="M302.185 153.596l.087.288-.229-.178h.284l-.23.178.088-.288z"/></g></g><g><path d="M302.185 153.596l.087.288-.229-.178h.284l-.23.178.088-.288z"/><path d="M302.185 153.596l.087.288-.229-.178h.284l-.23.178.088-.288z"/><path d="M302.185 153.596l.087.288-.229-.178h.284l-.23.178.088-.288z"/><path d="M302.185 153.596l.087.288-.229-.178h.284l-.23.178.088-.288z"/><path d="M302.185 153.596l.087.288-.229-.178h.284l-.23.178.088-.288z"/></g></g><g fill-rule="evenodd"><g fill="#A80126"><path d="M303.825 145.738c.308-.164.617-.325.941-.452-3.67-1.931-3.876-3.383-4.63-4.911.581 1.769 1.066 3.536 3.689 5.363z"/><path d="M301.913 142.839c1.398 1.17 2.612 2.003 3.508 2.257.885-.473 3.814-.729 3.751-.063-.641-.316-1.022-.166-1.385-.049.182-.003.665-.056.81-.005-.059.071-.123.102-.189.142.237.051.461.119.647.231.121-.012.2-.009.237.029-.124.032-.272.19-.345.297.814.024 1.681.015 1.772.874.257-.76-.202-1.156-1.097-1.328-.118-.261-.307-.483-.49-.734-2.447-.137-4.89-.303-7.219-1.651z"/></g><path d="M299.994 148.756v-1.481h.991c-.039.051-.072.104-.156.137h-.621v.39h.554c-.032.047-.067.091-.125.111h-.429v.528a.674.674 0 0 1-.214.315zM302.669 147.428v1.083h.281v-1.02c-.381-.346-.762-.346-1.143 0v1.02h.254v-.598h.201a.223.223 0 0 0 .098-.087h-.294v-.394c.226-.155.406-.155.603-.004zM305.607 148.547h-1.143v-1.249h.286v1.146h1.005c-.042.039-.064.09-.148.103zM307.314 147.275v.245c-.459.622.323 1.369 1.203.822l.067-.014c-.546.616-2.544.116-1.27-1.053z"/><path d="M306.71 147.307v.452c.439-.791 1.047-1.184 2.91-.659-1.787-.702-2.45-.334-2.91.207zM310.181 147.177c-.373.006-.748.255-.745.727.004.945 1.49.993 1.49 0 0-.496-.372-.733-.745-.727zm-.004.098c.222-.002.444.206.446.629.004.848-.877.829-.883 0-.003-.414.216-.626.437-.629zM312.316 147.431v1.125h-.222v-1.181l.223-.108-.001.051c.343-.007.583.15.646.237v1.012h-.217v-.994c-.079-.133-.168-.166-.429-.169v.027zM306.495 149.426c-2.297.01-1.702 1.853-.432 1.816.592-.017.704-.078 1.101-.502-.248 1.242-1.092 1.242-2.107 1.341-.127.084-.153.101-.24.236 1.723-.035 3.169-.342 3.126-1.679-.029-.936-.656-1.215-1.448-1.212zm-.034.223c.201 0 .394.062.536.174a.54.54 0 0 1 .222.422c-.001.329-.34.595-.758.594-.417 0-.756-.266-.757-.594 0-.329.339-.596.757-.596z"/></g></g></svg>