<svg xmlns="http://www.w3.org/2000/svg" style="isolation:isolate" viewBox="245.436 93.752 24.972 293.984" width="24.972" height="293.984"><path fill="#FFF" d="M248.578 93.752h18.667v284.856h-18.667z"/><g opacity=".034"><linearGradient id="a" x1="33.864%" y1="23.171%" x2="82.338%" y2="23.171%"><stop offset="0%"/><stop offset="100%" stop-opacity="0"/></linearGradient><path fill="url(#a)" d="M248.781 94.03h9.259v284.428h-9.259z"/></g><g opacity=".034"><linearGradient id="b" x1="33.864%" y1="23.171%" x2="82.338%" y2="23.171%"><stop offset="0%"/><stop offset="100%" stop-opacity="0"/></linearGradient><path fill="url(#b)" d="M257.902 93.977h9.123v284.335h-9.123z"/></g><path fill="#F7F7F7" d="M267.277 376.095h.481v.475h-.481zM248.027 376.11h.477v.453h-.477zM249.443 380.551a.856.856 0 0 1-.079-.229v-.026h3.39l.013.058c.025.118.025.144-.002.191l-.026.044h-3.271l-.025-.044v.006zM253.233 380.531a1.111 1.111 0 0 1-.079-.224c0-.01.727-.01 1.747-.01h1.746l-.006.03a.997.997 0 0 1-.072.202l-.03.059h-3.274l-.032-.064v.007zM256.943 380.663s.012-.039.026-.075a1.55 1.55 0 0 0 .069-.256l.007-.036h.876c.826 0 .877 0 .883.019a1.367 1.367 0 0 0 .058.234l.037.119h-.978c-.537 0-.977 0-.977-.01l-.001.005zM259.276 380.531a1.111 1.111 0 0 1-.079-.224c0-.01.727-.01 1.746-.01 1.301 0 1.746 0 1.746.013a.98.98 0 0 1-.075.219l-.031.061h-3.275l-.032-.064v.005zM263.086 380.559c-.034-.055-.036-.075-.017-.166.01-.046.017-.087.017-.09 0 0 .766-.01 1.702-.01h1.702l-.007.03a1.205 1.205 0 0 1-.077.214l-.027.053h-3.271l-.022-.036v.005zM249.175 379.868c-.123-.136-.255-.485-.36-.95l-.027-.122h9.127c7.272 0 9.126.011 9.126.055-.001.127-.134.541-.259.808l-.134.286h-8.701c-8.232 0-8.706 0-8.772-.077z"/><path d="M249.489 363.47l.046-.141.079-.155.108-.162.136-.16.16-.153.181-.136.198-.114.214-.083.225-.045h.234l.241.052.243.112.403 1.056.423 1.166.423 1.166.423 1.166.423 1.166.423 1.167.423 1.166.423 1.166.422 1.166.423 1.167.423 1.166.423 1.166.107.283.02.035.022.033.024.03.025.028.026.026.028.024.028.021.03.019.031.017.031.015.032.013.032.011.032.01.033.01h.096l.031.001h.175l.053-.024.052-.05.051-.074.048-.094.047-.113.044-.128.041-.14.038-.151.033-.157.029-.162.024-.164-.193-1.824-.449-3.815-.449-3.816-.448-3.815-.449-3.815-.449-3.816-.449-3.815-.448-3.816-.449-3.815-.449-3.816-.449-3.815-.448-3.815-.295-2.584-.002-.251-.002-.251-.002-.25-.002-.251-.002-.251-.002-.251-.002-.251-.002-.25-.002-.251-.002-.251-.002-.251-.01-.314-.035-.488-.037-.442-.037-.399-.038-.36-.04-.324-.04-.29-.041-.26-.041-.233-.043-.21-.043-.188-.044-.171-.045-.156-.045-.144-.046-.133-.047-.122-.047-.111-.048-.102-.049-.092-.05-.083-.05-.075-.051-.067-.052-.058-.052-.052-.054-.045-.053-.039-.055-.032-.056-.027-.056-.02-.056-.014-.058-.008-.058-.002-.059.004-.06.01-.06.017-.06.022-.062.028-.062.034-.062.04-.064.046-.064.054-.065.06-.066.068-.067.075-.068.084-.069.092-.07.1-.071.109-.073.119-.073.128-.075.137-.076.144-.076.152-.076.157-.076.162-.075.167-.074.169-.073.171-.07.173-.069.173-.066.171-.064.17-.06.169-.057.167-.054.166-.05.166-.047.166-.043.166-.038.168-.035.169-.03.171" fill="#F2F2F2" vector-effect="non-scaling-stroke" stroke-width=".4" stroke="#000"/><path d="M249.489 363.47l-.038.215-.037.22-.036.223-.036.228-.036.232-.036.235-.035.239-.035.242-.034.245-.035.249-.033.252-.034.254-.033.258-.033.259-.033.263-.033.264-.032.267-.032.269-.031.27-.032.273-.031.274-.031.275-.062.554-.061.558-.06.561-.12 1.126-.059.563-.059.561-.058.558-.059.554-.029.275-.03.273-.029.272-.029.271-.03.268-.029.266-.029.265-.03.261-.029.26-.03.257-.015.127-.004.032-.002.016-.001.01h-.001l-.008.017-.008.014-.007.012-.008.01-.008.01-.008.01h-.066l-.033-.016-.065-.037-.063-.038-.061-.038-.059-.038-.057-.039-.055-.039-.054-.04-.052-.04-.05-.04-.048-.041-.047-.041-.044-.042-.044-.042-.042-.042-.04-.042-.039-.043-.037-.043-.07-.087-.065-.088-.06-.089-.055-.09-.05-.091-.047-.091-.042-.092-.038-.092-.035-.093-.032-.093-.029-.093-.026-.094-.024-.094-.022-.094-.02-.093-.019-.093-.009-.047-.004-.023-.002-.012v-.011l.002-.056.004-.113.241-7.213.481-14.425.482-14.426.241-7.213.06-1.804.015-.45.001-.029v-.007l.001-.003.001-.006.002-.012.007-.047.014-.093.015-.091.014-.088.015-.087.014-.084.015-.083.015-.08.014-.08.015-.077.015-.076.031-.149.031-.144.033-.141.033-.138.034-.136.036-.136.037-.136.038-.137.041-.139.042-.141.046-.143.049-.146.053-.149.028-.076.029-.077.031-.078.031-.079.033-.08.035-.081.036-.082.037-.084.039-.085.041-.086.042-.088.044-.089.046-.09.047-.092" fill="#F2F2F2" vector-effect="non-scaling-stroke" stroke-width=".4" stroke="#000" stroke-linecap="round"/><path d="M266.355 363.47l-.046-.141-.079-.155-.109-.162-.136-.16-.159-.153-.181-.136-.199-.114-.213-.083-.226-.045h-.234l-.24.052-.243.112-.403 1.056-.423 1.166-.423 1.166-.423 1.166-.423 1.166-.423 1.167-.423 1.166-.423 1.166-.423 1.166-.423 1.167-.423 1.166-.423 1.166-.106.283-.021.035-.022.033-.023.03-.025.028-.027.026-.027.024-.029.021-.03.019-.03.017-.031.015-.032.013-.032.011-.033.01-.033.01h-.096l-.031.001h-.175l-.053-.024-.051-.05-.051-.074-.049-.094-.047-.113-.044-.128-.041-.14-.037-.151-.034-.157-.028-.162-.024-.164.193-1.824.448-3.815.449-3.816.449-3.815.449-3.815.448-3.816.449-3.815.449-3.816.449-3.815.448-3.816.449-3.815.449-3.815.294-2.584.002-.251.002-.251.002-.25.002-.251.002-.251.002-.251.002-.251.002-.25.002-.251.002-.251.002-.251.01-.314.036-.488.036-.442.038-.399.038-.36.039-.324.04-.29.041-.26.042-.233.042-.21.044-.188.044-.171.044-.156.046-.144.046-.133.046-.122.048-.111.048-.102.049-.092.049-.083.05-.075.051-.067.052-.058.053-.052.053-.045.054-.039.055-.032.055-.027.056-.02.057-.014.057-.008.059-.002.058.004.06.01.06.017.061.022.061.028.062.034.063.04.063.046.064.054.065.06.066.068.067.075.068.084.069.092.07.1.071.109.073.119.074.128.075.137.075.144.077.152.076.157.075.162.075.167.074.169.073.171.071.173.068.173.067.171.063.17.06.169.058.167.053.166.051.166.046.166.043.166.039.168.034.169.03.171" fill="#F2F2F2" vector-effect="non-scaling-stroke" stroke-width=".4" stroke="#000"/><path d="M266.355 363.47l.037.215.037.22.037.223.036.228.036.232.035.235.036.239.034.242.035.245.034.249.034.252.034.254.033.258.033.259.033.263.032.264.032.267.032.269.032.27.032.273.031.274.031.275.062.554.061.558.06.561.119 1.126.059.563.059.561.059.558.059.554.029.275.029.273.03.272.029.271.029.268.03.266.029.265.029.261.03.26.03.257.015.127.004.032.002.016.001.01h.001l.007.017.008.014.008.012.008.01.008.01.008.01h.065l.033-.016.065-.037.063-.038.061-.038.059-.038.058-.039.055-.039.053-.04.052-.04.05-.04.048-.041.047-.041.045-.042.043-.042.042-.042.041-.042.038-.043.038-.043.07-.087.065-.088.06-.089.055-.09.05-.091.046-.091.042-.092.039-.092.034-.093.032-.093.029-.093.026-.094.024-.094.022-.094.021-.093.018-.093.009-.047.004-.023.002-.012h.001v-.011l-.002-.056-.004-.113-.241-7.213-.482-14.425-.482-14.426-.24-7.213-.061-1.804-.015-.45-.001-.029v-.01l-.001-.006-.002-.012-.007-.047-.015-.093-.014-.091-.015-.088-.014-.087-.015-.084-.014-.083-.015-.08-.015-.08-.015-.077-.015-.076-.031-.149-.031-.144-.032-.141-.033-.138-.035-.136-.035-.136-.037-.136-.039-.137-.04-.139-.043-.141-.046-.143-.049-.146-.053-.149-.028-.076-.029-.077-.03-.078-.032-.079-.033-.08-.034-.081-.036-.082-.038-.084-.038-.085-.041-.086-.042-.088-.044-.089-.046-.09-.048-.092" fill="#F2F2F2" vector-effect="non-scaling-stroke" stroke-width=".4" stroke="#000" stroke-linecap="round"/><g fill="#333"><path d="M252.889 383.37a20.155 20.155 0 0 0-.699-1.527l-.099-.193.041-.076c.071-.132.234-.419.333-.584l.035-.058h.97l.038.063c.085.141.302.523.354.622l.018.034-.051.099a19.29 19.29 0 0 0-.774 1.686l-.038.092h-.064l-.064-.158zM262.695 383.219a19.944 19.944 0 0 0-.699-1.527l-.099-.193.041-.076c.071-.132.235-.419.333-.584l.035-.058H263.277l.038.063c.084.141.302.523.354.622l.018.034-.052.099c-.276.53-.552 1.132-.774 1.686l-.037.093h-.065l-.064-.159zM256.817 382.678c.079-.157.228-.434.33-.618l.186-.333-.219-.387-.219-.388h-.376c-.321 0-.376-.011-.376-.041 0-.033-.031-.039-.162-.033-.154.011-.166.013-.216.101l-.054.093.282.541c.155.298.363.722.463.944.1.221.189.402.199.403.009 0 .082-.127.162-.283v.001zM259.085 382.658c-.08-.156-.229-.434-.331-.617l-.186-.333.219-.388.219-.387h.376c.321 0 .376-.011.376-.041 0-.033.031-.04.163-.033.154.011.165.013.216.101l.053.093-.281.541a21.84 21.84 0 0 0-.463.943c-.1.221-.19.403-.199.403a1.831 1.831 0 0 1-.162-.283v.001z"/><path d="M255.574 386.921c0-.013.083-.382.095-.422.173-2.249.353-1.782 1.063-3.147 0-.069.484-1.048.753-1.521l.137-.242v-.627h.671v.635l.144.254c.151.266.566 1.083.663 1.303l.056.128c.882 2.401.218.293 1.126 3.393.023.105.042.205.042.223 0 .033-.004.033-2.375.033-1.306 0-2.375 0-2.375-.011v.001z"/></g><path vector-effect="non-scaling-stroke" stroke-width=".4" stroke="#000" d="M248.599 378.596h18.646M248.599 166.974h18.646M248.599 135.264h18.646M261.453 380.789h-1.018M250.545 386.105h4.912M252.492 380.789h1.018"/><path d="M253.95 381.616c-.139-.28-.286-.556-.44-.827M252.492 380.789c-.154.271-.301.547-.44.827" fill="none" vector-effect="non-scaling-stroke" stroke-width=".4" stroke="#000"/><path vector-effect="non-scaling-stroke" stroke-width=".4" stroke="#000" d="M255.874 380.789h.764"/><path d="M257.383 381.717c-.141-.287-.29-.571-.447-.851M255.874 380.789c-.079.14-.157.281-.233.423" fill="none" vector-effect="non-scaling-stroke" stroke-width=".4" stroke="#000"/><path vector-effect="non-scaling-stroke" stroke-width=".4" stroke="#000" d="M265.298 386.105h-4.911M263.351 380.789h-1.018"/><path d="M262.333 380.789c-.154.271-.301.547-.44.827M263.792 381.616c-.14-.28-.286-.556-.441-.827" fill="none" vector-effect="non-scaling-stroke" stroke-width=".4" stroke="#000"/><path vector-effect="non-scaling-stroke" stroke-width=".4" stroke="#000" d="M259.969 380.789h-.764"/><path d="M256.638 380.789c.151-.195.228-.438.216-.684" fill="none" vector-effect="non-scaling-stroke" stroke-width=".4" stroke="#000"/><path vector-effect="non-scaling-stroke" stroke-width=".4" stroke="#000" d="M253.161 380.789h3.477"/><path d="M258.989 380.105c-.011.246.065.489.216.684M262.682 380.789c.151-.195.228-.438.216-.684" fill="none" vector-effect="non-scaling-stroke" stroke-width=".4" stroke="#000"/><path vector-effect="non-scaling-stroke" stroke-width=".4" stroke="#000" d="M256.936 380.866h1.972"/><path d="M256.129 380.789c.017.027.035.053.054.078M259.66 380.866a.843.843 0 0 0 .055-.078" fill="none" vector-effect="non-scaling-stroke" stroke-width=".4" stroke="#000"/><path vector-effect="non-scaling-stroke" stroke-width=".4" stroke="#000" d="M256.183 380.866h3.477"/><path d="M258.957 380.866c-.156.28-.305.564-.446.851M258.957 380.866c-.156.28-.305.564-.446.851M260.227 381.166a17.2 17.2 0 0 0-.208-.377" fill="none" vector-effect="non-scaling-stroke" stroke-width=".4" stroke="#000"/><path vector-effect="non-scaling-stroke" stroke-width=".4" stroke="#000" d="M267.245 93.852v231.913"/><path d="M255.668 386.105c-.066.276-.125.553-.177.831h4.911a17.057 17.057 0 0 0-.177-.831M256.589 383.328c.251-.585.534-1.155.849-1.709v-.753M258.456 380.866v.753c.303.534.577 1.084.822 1.647" fill="none" vector-effect="non-scaling-stroke" stroke-width=".4" stroke="#000"/><path d="M253.001 383.931a17.171 17.171 0 0 0-1.389-3.142h-1.018a17.156 17.156 0 0 0-1.947 5.316h4.911" fill="#333" vector-effect="non-scaling-stroke" stroke-width=".4" stroke="#000"/><path d="M262.842 380.493c.037.106.091.207.161.296h3.477c.151-.195.227-.438.216-.684" fill="none" vector-effect="non-scaling-stroke" stroke-width=".4" stroke="#000"/><path d="M262.285 386.105h4.912a17.182 17.182 0 0 0-1.947-5.316h-1.018a17.175 17.175 0 0 0-1.39 3.142M254.391 380.789a17.156 17.156 0 0 0-1.947 5.316h4.912a17.207 17.207 0 0 0-1.947-5.316h-1.018z" fill="#333" vector-effect="non-scaling-stroke" stroke-width=".4" stroke="#000"/><path vector-effect="non-scaling-stroke" stroke-width=".4" stroke="#000" d="M252.429 326.346l-1.234-1.308M251.195 325.038h-2.251M248.676 355.403l.174-24.119M248.85 331.284l2.16-2.925M248.85 331.284l-1.032-2.674"/><path vector-effect="non-scaling-stroke" stroke-width=".4" stroke="#000" stroke-linecap="round" d="M251.01 328.359l.185-3.321"/><path vector-effect="non-scaling-stroke" stroke-width=".4" stroke="#000" d="M248.599 325.765V93.852M247.985 376.033h.614M247.91 376.689h.689"/><path d="M267.245 370.286v8.31a3.01 3.01 0 0 1-.489 1.509h-17.668a2.99 2.99 0 0 1-.489-1.509v-8.31" fill="none" vector-effect="non-scaling-stroke" stroke-width=".4" stroke="#000"/><path vector-effect="non-scaling-stroke" stroke-width=".4" stroke="#000" d="M257.616 376.689h.612M257.812 376.033h.219"/><path d="M246.666 375.937l.119-1.502.118-1.502.119-1.502.118-1.502.119-1.501.118-1.502.118-1.502.119-1.502.118-1.502.119-1.501.118-1.502.118-1.502.119-1.502.05-.476.033-.119.039-.103.045-.086.049-.071.054-.057.058-.043.061-.031.063-.019.064-.01h.066l.065.01.066.018.064.025.063.032.062.038.06.043.058.047.057.052.055.055.053.058.052.06.049.062.048.063.045.064.044.064.177.44.582 1.569.583 1.57.583 1.569.583 1.569.583 1.57.583 1.569.582 1.569.583 1.57.583 1.569.583 1.569.583 1.57.583 1.569.583 1.569" fill="none" vector-effect="non-scaling-stroke" stroke-width=".4" stroke="#000"/><path vector-effect="non-scaling-stroke" stroke-width=".4" stroke="#000" d="M263.415 326.346l1.234-1.308M264.649 325.038h2.25M267.168 355.403l-.174-24.119M266.994 331.284l-2.161-2.925M266.994 331.284l1.032-2.674"/><path vector-effect="non-scaling-stroke" stroke-width=".4" stroke="#000" stroke-linecap="round" d="M264.833 328.359l-.184-3.321"/><path vector-effect="non-scaling-stroke" stroke-width=".4" stroke="#000" d="M267.859 376.033h-.614M267.934 376.689h-.689"/><path d="M269.177 375.937l-.118-1.502-.119-1.502-.118-1.502-.119-1.502-.118-1.501-.118-1.502-.119-1.502-.118-1.502-.119-1.502-.118-1.501-.118-1.502-.119-1.502-.118-1.502-.05-.476-.033-.119-.039-.103-.045-.086-.05-.071-.054-.057-.057-.043-.061-.031-.063-.019-.064-.01h-.066l-.066.01-.065.018-.065.025-.063.032-.061.038-.06.043-.058.047-.057.052-.055.055-.054.058-.051.06-.05.062-.047.063-.046.064-.043.064-.177.44-.583 1.569-.583 1.57-.583 1.569-.582 1.569-.583 1.57-.583 1.569-.583 1.569-.583 1.57-.583 1.569-.583 1.569-.582 1.57-.583 1.569-.583 1.569" fill="none" vector-effect="non-scaling-stroke" stroke-width=".4" stroke="#000"/><path d="M261.453 380.789a17.207 17.207 0 0 1 1.947 5.316h-4.912a17.156 17.156 0 0 1 1.947-5.316" fill="#333" vector-effect="non-scaling-stroke" stroke-width=".4" stroke="#000"/><path vector-effect="non-scaling-stroke" stroke-width=".4" stroke="#000" d="M259.205 380.789h3.477"/><path d="M249.148 380.105c-.012.246.065.489.216.684h3.477c.069-.089.123-.19.16-.296M252.945 380.105c-.011.246.065.489.216.684" fill="none" vector-effect="non-scaling-stroke" stroke-width=".4" stroke="#000"/><path d="M248.305 170.916l-.031-6.407 1.062-1.562-.031-1.688.844-1.593.281-.907.688-.25.687.063.406.125.375 1 .219 1.094.031.937v1l-.093.719.812.906v6.469l-.625.125-4.625-.031z" fill-rule="evenodd" fill="#FFF"/><path d="M252.924 164.511v6.43h-4.623v-6.404l.933-1.617h2.21l1.48 1.591z" fill="none" vector-effect="non-scaling-stroke" stroke-width=".3" stroke="#000" stroke-linejoin="round" stroke-linecap="square"/><path d="M249.3 170.809v-9.48l.774-1.547c.905-.425 1.673-.267 2.342.31l-.11 2.894" fill="none" vector-effect="non-scaling-stroke" stroke-width=".3" stroke="#000" stroke-linejoin="round" stroke-linecap="square"/><path vector-effect="non-scaling-stroke" stroke-width=".3" stroke="#000" stroke-linejoin="round" stroke-linecap="square" d="M251.345 162.964v7.845"/><path d="M251.422 162.942l.751-.022 1.37 1.481v6.469l-.629.061M251.488 162.898l.022-1.591.862-1.105" fill="none" vector-effect="non-scaling-stroke" stroke-width=".3" stroke="#000" stroke-linejoin="round" stroke-linecap="square"/><path d="M250.052 159.782l.398-.972c.493-.292 1.097-.289 1.767-.11.663 1.51.727 3.1.509 4.728" fill="none" vector-effect="non-scaling-stroke" stroke-width=".3" stroke="#000" stroke-linejoin="round" stroke-linecap="square"/><path d="M249.345 161.196c.811-.331 1.508-.278 2.143-.022" fill="none" vector-effect="non-scaling-stroke" stroke-width=".3" stroke="#000" stroke-linejoin="round" stroke-linecap="round"/><path d="M251.336 170.916l1.563-1.563"/><path vector-effect="non-scaling-stroke" stroke-width=".3" stroke="#000" stroke-linejoin="round" stroke-linecap="round" d="M251.336 170.916l1.532-1.688M249.93 170.916l2.906-3.688M252.868 165.353l-4.344 5.531M252.43 164.103l-4.094 5.25M251.649 163.166l-3.281 4.312M250.305 163.009l-1.992 2.555M250.618 170.853l-2.313-3.281M248.368 169.384l.968 1.532M252.166 170.866l-3.83-5.013M252.836 169.884l-4.375-5.562M252.899 167.978l-3.875-4.562M252.93 166.166l-2.812-3.188"/><g><path d="M267.539 170.916l.031-6.407-1.063-1.562.032-1.688-.844-1.593-.281-.907-.688-.25-.687.063-.407.125-.375 1-.218 1.094-.032.937v1l.094.719-.812.906v6.469l.625.125 4.625-.031z" fill-rule="evenodd" fill="#FFF"/><path d="M262.919 164.511v6.43h4.624v-6.404l-.933-1.617h-2.21l-1.481 1.591z" fill="none" vector-effect="non-scaling-stroke" stroke-width=".3" stroke="#000" stroke-linejoin="round" stroke-linecap="square"/><path d="M266.543 170.809v-9.48l-.773-1.547c-.905-.425-1.673-.267-2.342.31l.11 2.894" fill="none" vector-effect="non-scaling-stroke" stroke-width=".3" stroke="#000" stroke-linejoin="round" stroke-linecap="square"/><path vector-effect="non-scaling-stroke" stroke-width=".3" stroke="#000" stroke-linejoin="round" stroke-linecap="square" d="M264.499 162.964v7.845"/><path d="M264.422 162.942l-.751-.022-1.37 1.481v6.469l.628.061M264.356 162.898l-.022-1.591-.862-1.105" fill="none" vector-effect="non-scaling-stroke" stroke-width=".3" stroke="#000" stroke-linejoin="round" stroke-linecap="square"/><path d="M265.792 159.782l-.398-.972c-.493-.292-1.098-.289-1.767-.11-.663 1.51-.727 3.1-.509 4.728" fill="none" vector-effect="non-scaling-stroke" stroke-width=".3" stroke="#000" stroke-linejoin="round" stroke-linecap="square"/><path d="M266.499 161.196c-.811-.331-1.508-.278-2.143-.022" fill="none" vector-effect="non-scaling-stroke" stroke-width=".3" stroke="#000" stroke-linejoin="round" stroke-linecap="round"/><path d="M264.507 170.916l-1.562-1.563"/><path vector-effect="non-scaling-stroke" stroke-width=".3" stroke="#000" stroke-linejoin="round" stroke-linecap="round" d="M264.507 170.916l-1.531-1.688M265.914 170.916l-2.907-3.688M262.976 165.353l4.344 5.531M263.414 164.103l4.093 5.25M264.195 163.166l3.281 4.312M265.539 163.009l1.992 2.555M265.226 170.853l2.313-3.281M267.476 169.384l-.969 1.532M263.678 170.866l3.829-5.013M263.007 169.884l4.375-5.562M262.945 167.978l3.875-4.562M262.914 166.166l2.812-3.188"/></g><g><path d="M259.331 313.675h-3.869l-.143.107v3.441h1.071v-1.29l.102-.092h2.839c.717 0 1.053-.193 1.053-.688v-.79c0-.495-.336-.688-1.053-.688m0 1.272c0 .233-.154.281-.49.281h-2.337l-.114-.11v-.738l.102-.093h2.349c.336 0 .49.048.49.282v.378zM257.091 321.501l.921 1.35-.051.131h-2.038l-.52.64h3.033l.211.128.471.65h1.225l-2.686-3.594" fill="#005288"/><g fill="#005288"><path d="M256.518 339.431v-.955l.11-.095h2.051v-.608h-3.25v2.357h4.793v-.605h-3.589M255.429 336.581h4.844v.669h-4.844z"/></g><path d="M256.502 329.181h3.902c-.06-.496-.368-.634-1.149-.634h-2.794c-.882 0-1.163.172-1.163.839v1.872c0 .667.281.839 1.163.839h2.794c.793 0 1.096-.149 1.117-.663h-3.87l-.115-.108v-2.072M259.289 306.881h-2.839l-.083-.092v-.607l.083-.065h3.827l.052-.128c-.13-.335-.468-.491-1.095-.491h-2.658c-.881 0-1.162.172-1.162.839v.392c0 .668.281.839 1.162.839h2.832l.089.079v.634l-.072.099h-3.24v-.003h-.849s-.097.049-.093.072c.072.466.39.599 1.151.599h2.895c.881 0 1.171-.172 1.171-.84v-.489c0-.666-.29-.838-1.171-.838M256.556 344.809h-1.593l-.087.165 1.77 1.29c.335-.194.7-.391 1.097-.585M257.984 347.239l1.555 1.134h1.613l.067-.15-2.322-1.7c-.309.226-.614.466-.913.716" fill="#005288"/><path d="M256.319 348.371h-1.442l-.121-.191c.98-.947 5.456-4.504 11.281-4.956 0 0-5.096.566-9.718 5.147" fill="#A7A9AC"/></g><g><path fill="#B22234" d="M253.322 153.476h9.199v5.17h-9.199z"/><path d="M253.322 154.073h9.199m0 .796h-9.199m0 .795h9.199m0 .795h-9.199m0 .796h9.199m0 .795h-9.199" vector-effect="non-scaling-stroke" stroke-width=".385" stroke="#FFF"/><path fill="#3C3B6E" d="M253.322 153.476h3.68v2.784h-3.68z"/><g fill="#FFF"><path d="M253.629 153.596l.088.288-.23-.178h.284l-.229.178.087-.288z"/><path d="M253.629 153.596l.088.288-.23-.178h.284l-.229.178.087-.288z"/><path d="M253.629 153.596l.088.288-.23-.178h.284l-.229.178.087-.288z"/><path d="M253.629 153.596l.088.288-.23-.178h.284l-.229.178.087-.288z"/><path d="M253.629 153.596l.088.288-.23-.178h.284l-.229.178.087-.288z"/><g><path d="M253.629 153.596l.088.288-.23-.178h.284l-.229.178.087-.288z"/><path d="M253.629 153.596l.088.288-.23-.178h.284l-.229.178.087-.288z"/><path d="M253.629 153.596l.088.288-.23-.178h.284l-.229.178.087-.288z"/><path d="M253.629 153.596l.088.288-.23-.178h.284l-.229.178.087-.288z"/></g><g><path d="M253.629 153.596l.088.288-.23-.178h.284l-.229.178.087-.288z"/><path d="M253.629 153.596l.088.288-.23-.178h.284l-.229.178.087-.288z"/><path d="M253.629 153.596l.088.288-.23-.178h.284l-.229.178.087-.288z"/><path d="M253.629 153.596l.088.288-.23-.178h.284l-.229.178.087-.288z"/><path d="M253.629 153.596l.088.288-.23-.178h.284l-.229.178.087-.288z"/><g><path d="M253.629 153.596l.088.288-.23-.178h.284l-.229.178.087-.288z"/><path d="M253.629 153.596l.088.288-.23-.178h.284l-.229.178.087-.288z"/><path d="M253.629 153.596l.088.288-.23-.178h.284l-.229.178.087-.288z"/><path d="M253.629 153.596l.088.288-.23-.178h.284l-.229.178.087-.288z"/></g></g><g><path d="M253.629 153.596l.088.288-.23-.178h.284l-.229.178.087-.288z"/><path d="M253.629 153.596l.088.288-.23-.178h.284l-.229.178.087-.288z"/><path d="M253.629 153.596l.088.288-.23-.178h.284l-.229.178.087-.288z"/><path d="M253.629 153.596l.088.288-.23-.178h.284l-.229.178.087-.288z"/><path d="M253.629 153.596l.088.288-.23-.178h.284l-.229.178.087-.288z"/><g><path d="M253.629 153.596l.088.288-.23-.178h.284l-.229.178.087-.288z"/><path d="M253.629 153.596l.088.288-.23-.178h.284l-.229.178.087-.288z"/><path d="M253.629 153.596l.088.288-.23-.178h.284l-.229.178.087-.288z"/><path d="M253.629 153.596l.088.288-.23-.178h.284l-.229.178.087-.288z"/></g><g><path d="M253.629 153.596l.088.288-.23-.178h.284l-.229.178.087-.288z"/><path d="M253.629 153.596l.088.288-.23-.178h.284l-.229.178.087-.288z"/><path d="M253.629 153.596l.088.288-.23-.178h.284l-.229.178.087-.288z"/><path d="M253.629 153.596l.088.288-.23-.178h.284l-.229.178.087-.288z"/><path d="M253.629 153.596l.088.288-.23-.178h.284l-.229.178.087-.288z"/><g><path d="M253.629 153.596l.088.288-.23-.178h.284l-.229.178.087-.288z"/><path d="M253.629 153.596l.088.288-.23-.178h.284l-.229.178.087-.288z"/><path d="M253.629 153.596l.088.288-.23-.178h.284l-.229.178.087-.288z"/><path d="M253.629 153.596l.088.288-.23-.178h.284l-.229.178.087-.288z"/></g></g></g><g><path d="M253.629 153.596l.088.288-.23-.178h.284l-.229.178.087-.288z"/><path d="M253.629 153.596l.088.288-.23-.178h.284l-.229.178.087-.288z"/><path d="M253.629 153.596l.088.288-.23-.178h.284l-.229.178.087-.288z"/><path d="M253.629 153.596l.088.288-.23-.178h.284l-.229.178.087-.288z"/><path d="M253.629 153.596l.088.288-.23-.178h.284l-.229.178.087-.288z"/><g><path d="M253.629 153.596l.088.288-.23-.178h.284l-.229.178.087-.288z"/><path d="M253.629 153.596l.088.288-.23-.178h.284l-.229.178.087-.288z"/><path d="M253.629 153.596l.088.288-.23-.178h.284l-.229.178.087-.288z"/><path d="M253.629 153.596l.088.288-.23-.178h.284l-.229.178.087-.288z"/></g></g><g><path d="M253.629 153.596l.088.288-.23-.178h.284l-.229.178.087-.288z"/><path d="M253.629 153.596l.088.288-.23-.178h.284l-.229.178.087-.288z"/><path d="M253.629 153.596l.088.288-.23-.178h.284l-.229.178.087-.288z"/><path d="M253.629 153.596l.088.288-.23-.178h.284l-.229.178.087-.288z"/><path d="M253.629 153.596l.088.288-.23-.178h.284l-.229.178.087-.288z"/></g></g><g fill-rule="evenodd"><g fill="#A80126"><path d="M255.269 145.738c.308-.164.617-.325.942-.452-3.671-1.931-3.877-3.383-4.631-4.911.581 1.769 1.066 3.536 3.689 5.363z"/><path d="M253.357 142.839c1.399 1.17 2.613 2.003 3.508 2.257.885-.473 3.815-.729 3.751-.063-.641-.316-1.022-.166-1.385-.049.183-.003.665-.056.81-.005-.059.071-.123.102-.189.142.237.051.461.119.647.231.121-.012.2-.009.237.029-.123.032-.272.19-.345.297.814.024 1.681.015 1.772.874.257-.76-.202-1.156-1.097-1.328-.117-.261-.307-.483-.49-.734-2.446-.137-4.89-.303-7.219-1.651z"/></g><path d="M251.438 148.756v-1.481h.991c-.039.051-.072.104-.156.137h-.621v.39h.554c-.031.047-.066.091-.125.111h-.429v.528a.674.674 0 0 1-.214.315zM254.113 147.428v1.083h.281v-1.02c-.381-.346-.762-.346-1.143 0v1.02h.254v-.598h.202a.235.235 0 0 0 .098-.087h-.295v-.394c.226-.155.406-.155.603-.004zM257.051 148.547h-1.143v-1.249h.286v1.146h1.005c-.042.039-.064.09-.148.103zM258.758 147.275v.245c-.458.622.324 1.369 1.204.822l.066-.014c-.546.616-2.544.116-1.27-1.053z"/><path d="M258.155 147.307v.452c.438-.791 1.047-1.184 2.909-.659-1.786-.702-2.449-.334-2.909.207zM261.625 147.177c-.373.006-.747.255-.745.727.004.945 1.49.993 1.49 0 0-.496-.372-.733-.745-.727zm-.003.098c.221-.002.443.206.445.629.004.848-.877.829-.883 0-.003-.414.216-.626.438-.629zM263.761 147.431v1.125h-.222v-1.181l.223-.108-.002.051c.343-.007.583.15.646.237v1.012h-.216v-.994c-.08-.133-.169-.166-.43-.169l.001.027zM257.94 149.426c-2.298.01-1.703 1.853-.433 1.816.592-.017.704-.078 1.101-.502-.248 1.242-1.091 1.242-2.106 1.341-.128.084-.154.101-.241.236 1.723-.035 3.169-.342 3.127-1.679-.03-.936-.656-1.215-1.448-1.212zm-.035.223c.201 0 .394.062.537.174a.542.542 0 0 1 .222.422c-.001.329-.341.595-.759.594-.417 0-.755-.266-.756-.594-.001-.329.338-.596.756-.596z"/></g></g></svg>