<svg xmlns="http://www.w3.org/2000/svg" style="isolation:isolate" viewBox="564.692 78.749 67.443 308.992" width="67.443" height="308.992"><path fill="#FFF" d="M567.885 167.04h18.667v211.573h-18.667z"/><g opacity=".034"><linearGradient id="a" x1="33.864%" y1="23.171%" x2="82.338%" y2="23.171%"><stop offset="0%"/><stop offset="100%" stop-opacity="0"/></linearGradient><path fill="url(#a)" d="M567.997 167.308h9.306v211.171h-9.306z"/></g><g opacity=".034"><linearGradient id="b" x1="33.864%" y1="23.171%" x2="82.338%" y2="23.171%"><stop offset="0%"/><stop offset="100%" stop-opacity="0"/></linearGradient><path fill="url(#b)" d="M577.164 167.268h9.169V378.37h-9.169z"/></g><path fill="#FFF" d="M610.286 167.04h18.667v211.573h-18.667z"/><g opacity=".034"><linearGradient id="c" x1="33.864%" y1="23.171%" x2="82.338%" y2="23.171%"><stop offset="0%"/><stop offset="100%" stop-opacity="0"/></linearGradient><path fill="url(#c)" d="M610.49 167.308h9.258v211.171h-9.258z"/></g><g opacity=".034"><linearGradient id="d" x1="33.864%" y1="23.171%" x2="82.338%" y2="23.171%"><stop offset="0%"/><stop offset="100%" stop-opacity="0"/></linearGradient><path fill="url(#d)" d="M619.611 167.268h9.123V378.37h-9.123z"/></g><path fill="#FFF" d="M589.085 85.113h18.667v293.5h-18.667z"/><g opacity=".034"><linearGradient id="e" x1="33.864%" y1="23.171%" x2="82.338%" y2="23.171%"><stop offset="0%"/><stop offset="100%" stop-opacity="0"/></linearGradient><path fill="url(#e)" d="M589.301 85.345h9.247v293.123h-9.247z"/></g><g opacity=".034"><linearGradient id="f" x1="33.864%" y1="23.171%" x2="82.338%" y2="23.171%"><stop offset="0%"/><stop offset="100%" stop-opacity="0"/></linearGradient><path fill="url(#f)" d="M598.411 85.29h9.112v293.027h-9.112z"/></g><path d="M607.938 377.58v-.562h.167c.121 0 .19.018.247.062.101.079.181.079.336 0 .169-.087.517-.087.687 0a.58.58 0 0 0 .189.062.293.293 0 0 0 .146-.062c.057-.045.127-.062.247-.062h.168v1.125H607.938v-.563zM568.672 380.503a.755.755 0 0 1-.048-.149l-.007-.055h3.401l.018.091a.304.304 0 0 1-.004.149l-.022.058h-3.296l-.041-.094h-.001zM572.471 380.501a.688.688 0 0 1-.048-.149l-.006-.053 1.74-.01c1.518 0 1.74 0 1.74.027 0 .018-.02.088-.046.154l-.045.123h-3.292l-.043-.096v.004zM576.192 380.658a2.6 2.6 0 0 0 .049-.149l.056-.172.02-.05.867.01.867.01.016.055c.034.117.079.256.095.293.015.036-.04.039-.982.039-.791 0-.997-.01-.988-.028v-.008zM578.508 380.488a.565.565 0 0 1-.047-.155v-.046l1.74.01 1.74.01-.007.055a.804.804 0 0 1-.048.15l-.042.094H578.555l-.047-.109v-.009zM582.324 380.543c-.017-.037-.018-.085-.005-.149l.02-.094h3.403l-.007.052a.765.765 0 0 1-.049.149l-.042.097h-3.295l-.025-.055zM589.899 380.511c-.096-.254-.188-.24 1.654-.24h1.696l.029.114c.06.24.065.239-1.705.239h-1.631l-.043-.113zM593.867 380.597c-.136-.014-.23-.127-.23-.277 0-.025.693-.041 1.746-.041 1.655 0 1.746 0 1.746.08a.317.317 0 0 1-.055.155c-.05.067-.208.076-1.558.087-.827.01-1.568 0-1.649 0v-.004zM597.438 380.643a1.7 1.7 0 0 1 .047-.199l.046-.165H599.284l.065.198.066.199h-.988c-.544 0-.989-.015-.988-.033h-.001zM600.134 380.598c-.345-.013-.442-.065-.442-.239 0-.076.091-.08 1.746-.08 1.654 0 1.745 0 1.745.08a.341.341 0 0 1-.062.165c-.06.082-.127.086-1.359.086-.713 0-1.446-.01-1.628-.012zM603.714 380.588c-.138-.02-.155-.037-.155-.155v-.132l1.713-.012c1.836-.012 1.772-.021 1.655.21l-.056.111h-1.501c-.826 0-1.571-.01-1.656-.022zM611.135 380.512c-.094-.246-.18-.233 1.656-.233 1.685 0 1.696 0 1.72.093.037.14-.011.216-.14.221-.064 0-.81.01-1.656.016l-1.54.01-.04-.106v-.001zM615.109 380.597c-.157-.014-.212-.081-.213-.263-.001-.043.377-.055 1.745-.055 1.076 0 1.745.016 1.745.042a.577.577 0 0 1-.051.154c-.048.106-.071.113-.387.115-.184.001-.862.01-1.506.012-.644.01-1.244 0-1.333 0v-.005zM618.672 380.599c.016-.043.041-.132.054-.199l.025-.121h1.79l.024.121c.014.067.038.156.055.199.028.072-.036.077-.974.077s-1.002-.01-.974-.077zM621.362 380.597c-.36-.013-.361-.013-.409-.15a1.602 1.602 0 0 1-.048-.153c0-.01.796-.016 1.768-.016s1.768.01 1.768.016c0 .01-.022.078-.049.155-.041.119-.071.14-.21.147-.271.014-2.436.015-2.82.001zM624.949 380.595c-.157-.018-.193-.063-.165-.209l.021-.107h3.43l-.039.138a.617.617 0 0 1-.067.166c-.028.028-2.943.039-3.18.012zM586.682 377.594v-.553h.199c.11 0 .237.024.284.053.065.041.122.04.256 0 .167-.055.486-.048.863.02.109.02.165.013.165-.019 0-.029.089-.049.221-.049h.221v1.105h-2.209v-.557zM568.29 379.679a2.97 2.97 0 0 1-.203-.619l-.06-.318h18.312l-.055.287c-.03.158-.13.437-.221.619l-.166.332h-17.464l-.143-.301zM610.753 379.609a2.766 2.766 0 0 1-.192-.594l-.042-.265h9.133c7.264 0 9.132.016 9.132.078 0 .139-.136.571-.264.844l-.124.265H610.903l-.15-.328zM589.634 379.869c-.094-.116-.374-.895-.374-1.042 0-.054 3.333-.085 9.159-.085h9.159l-.056.284a3.048 3.048 0 0 1-.21.596l-.154.314-8.717.022c-6.907.018-8.736-.001-8.807-.088v-.001z" fill="#F7F7F7"/><radialGradient id="g" fx="52.536%" fy="96.382%" r="200%" gradientTransform="rotate(-90)"><stop offset="0%" stop-color="#fff"/><stop offset="100%" stop-color="#f9f9f9"/></radialGradient><path d="M610.373 166.783c0-.135.072-.968.161-1.851.595-5.946 1.123-7.916 2.981-11.126 1.842-3.184 3.68-5.111 5.333-5.593 1.788-.522 3.71.761 5.866 3.917 1.057 1.548 2.07 3.431 2.582 4.798.47 1.257.884 3.191 1.18 5.514.131 1.03.449 4.174.449 4.44v.147h-18.552v-.246z" fill="url(#g)"/><radialGradient id="h" fx="52.536%" fy="96.382%" r="200%" gradientTransform="rotate(-90)"><stop offset="0%" stop-color="#fff"/><stop offset="100%" stop-color="#f9f9f9"/></radialGradient><path d="M567.873 166.783c0-.135.072-.968.161-1.851.595-5.946 1.123-7.916 2.981-11.126 1.842-3.184 3.68-5.111 5.333-5.593 1.788-.522 3.71.761 5.866 3.917 1.057 1.548 2.07 3.431 2.582 4.798.47 1.257.884 3.191 1.18 5.514.131 1.03.449 4.174.449 4.44v.147h-18.552v-.246z" fill="url(#h)"/><linearGradient id="i" x1="-35.42%" y1="9902.618%" x2="103.532%" y2="9902.618%"><stop offset="0%" stop-color="#e6e6e6"/><stop offset="100%" stop-color="#f9f9f9"/></linearGradient><path d="M609.757 84.892c.095-.122.752-1.295 1.461-2.607a133.739 133.739 0 0 1 1.632-2.961l.343-.575h-12.58v6.364h4.486c3.38 0 4.529-.054 4.658-.221z" fill="url(#i)"/><g fill="#333"><path d="M614.537 383.4a20.441 20.441 0 0 0-.711-1.542l-.101-.194.042-.077c.072-.134.238-.423.339-.59l.035-.059h.988l.039.064c.086.142.307.528.36.628l.018.034-.052.1a19.694 19.694 0 0 0-.788 1.702l-.038.094h-.066l-.065-.159v-.001zM624.515 383.248a20.054 20.054 0 0 0-.711-1.542l-.1-.195.041-.076c.073-.134.239-.424.339-.591l.036-.058H625.107l.039.064c.086.142.307.528.36.627l.018.035-.052.1a19.556 19.556 0 0 0-.788 1.702l-.038.094h-.066l-.065-.16zM618.534 382.701c.081-.158.232-.438.336-.623l.189-.336-.222-.392-.223-.391h-.383c-.326 0-.382-.011-.382-.042 0-.033-.032-.039-.166-.033-.156.011-.168.013-.22.102l-.054.094.286.546c.158.301.37.73.472.953.102.223.193.407.202.407a1.8 1.8 0 0 0 .165-.286v.001zM620.842 382.681a22.62 22.62 0 0 0-.337-.623l-.189-.336.223-.392.223-.391h.382c.327 0 .383-.011.383-.042 0-.033.032-.039.165-.033.157.011.169.013.22.102l.055.094-.287.547c-.157.3-.369.729-.471.952a3.557 3.557 0 0 1-.202.407c-.01.001-.084-.128-.165-.286v.001z"/><path d="M617.27 386.986c0-.013.084-.385.096-.426.176-2.271.359-1.799 1.082-3.178 0-.07.493-1.058.766-1.536l.139-.244v-.633h.684v.641l.146.257c.153.268.576 1.093.674 1.315l.057.129c.898 2.425.223.296 1.146 3.427.024.106.043.207.043.225 0 .034-.004.034-2.417.034-1.329 0-2.416 0-2.416-.011z"/><g><path d="M593.285 383.374a19.765 19.765 0 0 0-.71-1.526l-.1-.193.042-.076c.072-.132.238-.419.338-.584l.035-.058H593.875l.039.063c.086.141.306.523.359.622l.018.033-.052.099c-.28.531-.56 1.132-.786 1.686l-.038.093h-.065l-.065-.158v-.001zM603.237 383.223a19.746 19.746 0 0 0-.709-1.526l-.1-.193.041-.076c.072-.132.238-.419.338-.584l.036-.058H603.828l.038.063c.086.141.307.523.359.622l.019.034-.053.099c-.28.53-.56 1.131-.785 1.685l-.038.093h-.066l-.065-.158v-.001zM597.271 382.682c.081-.156.232-.434.336-.617l.188-.333-.222-.387-.222-.388h-.381c-.326 0-.382-.011-.382-.041 0-.033-.032-.039-.165-.033-.156.011-.168.013-.219.101l-.055.093.286.541c.157.298.369.722.47.943.102.222.193.403.202.404.009 0 .083-.127.164-.284v.001zM599.573 382.663c-.08-.157-.231-.434-.335-.618l-.189-.332.222-.388.222-.388h.382c.326 0 .382-.011.382-.041 0-.033.031-.039.165-.033.156.011.167.013.219.102l.054.092-.285.541a23.48 23.48 0 0 0-.471.944 3.493 3.493 0 0 1-.201.403 1.795 1.795 0 0 1-.165-.283v.001z"/><path d="M596.011 386.925c0-.013.084-.381.095-.421.176-2.249.359-1.782 1.08-3.147 0-.069.491-1.048.764-1.522l.139-.241v-.627h.681v.635l.146.254c.153.266.575 1.083.672 1.303l.057.127c.896 2.402.222.294 1.143 3.394.024.105.043.205.043.223 0 .033-.004.033-2.41.033-1.326 0-2.411 0-2.411-.011h.001z"/></g><g><path d="M572.041 383.374a19.825 19.825 0 0 0-.713-1.526l-.1-.193.041-.076a20 20 0 0 1 .34-.584l.036-.058h.99l.039.063c.086.141.308.523.361.622l.018.033-.052.099a19.412 19.412 0 0 0-.79 1.686l-.038.093h-.066l-.065-.158-.001-.001zM582.049 383.223a19.825 19.825 0 0 0-.713-1.526l-.101-.193.042-.076c.072-.132.239-.419.34-.584l.035-.058H582.643l.039.063c.086.141.308.523.361.622l.018.034-.052.099c-.282.53-.564 1.131-.791 1.685l-.038.093h-.066l-.065-.158v-.001zM576.05 382.682a20.4 20.4 0 0 1 .338-.617l.189-.333-.223-.387-.224-.388h-.383c-.328 0-.384-.011-.384-.041 0-.033-.032-.039-.166-.033-.157.011-.169.013-.22.101l-.055.093.287.541c.158.298.371.722.473.943.102.222.193.403.203.404.009 0 .084-.127.165-.284v.001zM578.365 382.663a22.7 22.7 0 0 0-.337-.618l-.19-.332.223-.388.224-.388h.383c.328 0 .384-.011.384-.041 0-.033.032-.039.166-.033.157.011.169.013.22.102l.055.092-.287.541a23.76 23.76 0 0 0-.473.944c-.102.221-.193.403-.203.403a1.795 1.795 0 0 1-.165-.283v.001z"/><path d="M574.782 386.925c0-.013.085-.381.097-.421.177-2.249.36-1.782 1.085-3.147 0-.069.494-1.048.768-1.522l.14-.241v-.627h.685v.635l.147.254c.154.266.578 1.083.676 1.303l.057.127c.9 2.402.223.294 1.15 3.394.023.105.043.205.043.223 0 .033-.004.033-2.424.033-1.333 0-2.424 0-2.424-.011z"/></g></g><path vector-effect="non-scaling-stroke" stroke-width=".4" stroke="#000" d="M589.091 85.003h18.646M567.855 167.082h18.646M589.091 378.601h18.646M589.091 131.394h18.646M567.855 378.601h18.646M586.501 167.082h-18.646M628.972 167.082h-18.646M610.326 167.082h18.646M628.972 167.082h-18.646M610.326 378.601h18.646M601.945 380.794h-1.018M591.037 386.11h4.912M592.984 380.794h1.018"/><path d="M594.442 381.621c-.139-.28-.286-.556-.44-.827M592.984 380.794c-.154.271-.301.547-.44.827" fill="none" vector-effect="non-scaling-stroke" stroke-width=".4" stroke="#000"/><path vector-effect="non-scaling-stroke" stroke-width=".4" stroke="#000" d="M596.366 380.794h.764"/><path d="M597.874 381.722c-.14-.288-.289-.571-.446-.851M596.366 380.794c-.079.14-.157.281-.233.423" fill="none" vector-effect="non-scaling-stroke" stroke-width=".4" stroke="#000"/><path vector-effect="non-scaling-stroke" stroke-width=".4" stroke="#000" d="M605.79 386.11h-4.911M603.843 380.794h-1.018"/><path d="M602.825 380.794c-.154.271-.301.547-.44.827M604.284 381.621c-.14-.28-.286-.556-.441-.827" fill="none" vector-effect="non-scaling-stroke" stroke-width=".4" stroke="#000"/><path vector-effect="non-scaling-stroke" stroke-width=".4" stroke="#000" d="M600.461 380.794h-.764"/><path d="M593.437 380.109c-.011.247.065.489.216.685M597.13 380.794c.151-.196.228-.438.216-.685" fill="none" vector-effect="non-scaling-stroke" stroke-width=".4" stroke="#000"/><path vector-effect="non-scaling-stroke" stroke-width=".4" stroke="#000" d="M593.653 380.794h3.477"/><path d="M599.481 380.109c-.011.247.065.489.216.685M603.174 380.794c.151-.196.228-.438.216-.685" fill="none" vector-effect="non-scaling-stroke" stroke-width=".4" stroke="#000"/><path vector-effect="non-scaling-stroke" stroke-width=".4" stroke="#000" d="M599.697 380.794h3.477M597.428 380.871h1.972"/><path d="M596.621 380.794l.054.078M600.152 380.871a.843.843 0 0 0 .055-.078" fill="none" vector-effect="non-scaling-stroke" stroke-width=".4" stroke="#000"/><path vector-effect="non-scaling-stroke" stroke-width=".4" stroke="#000" d="M596.675 380.871h3.477"/><path d="M599.449 380.871c-.156.28-.305.563-.446.851M599.449 380.871c-.156.28-.305.563-.446.851M600.719 381.17a17.13 17.13 0 0 0-.208-.376" fill="none" vector-effect="non-scaling-stroke" stroke-width=".4" stroke="#000"/><path vector-effect="non-scaling-stroke" stroke-width=".4" stroke="#000" d="M607.737 84.897V325.77"/><path d="M596.16 386.11c-.066.275-.125.552-.177.831h4.911a16.568 16.568 0 0 0-.177-.831M597.081 383.333c.251-.585.534-1.155.849-1.709v-.753M598.948 380.871v.753c.303.534.577 1.084.822 1.647" fill="none" vector-effect="non-scaling-stroke" stroke-width=".4" stroke="#000"/><path d="M593.493 383.936a17.145 17.145 0 0 0-1.39-3.142h-1.017a17.147 17.147 0 0 0-1.947 5.316h4.911" fill="#333" vector-effect="non-scaling-stroke" stroke-width=".4" stroke="#000"/><path d="M589.64 380.109c-.012.247.065.489.216.685h3.477c.069-.09.123-.19.16-.296M603.334 380.498c.037.106.091.206.16.296h3.477c.151-.196.228-.438.217-.685" fill="none" vector-effect="non-scaling-stroke" stroke-width=".4" stroke="#000"/><path d="M602.777 386.11h4.912a17.172 17.172 0 0 0-1.947-5.316h-1.018a17.145 17.145 0 0 0-1.39 3.142" fill="#333" vector-effect="non-scaling-stroke" stroke-width=".4" stroke="#000"/><path d="M601.945 380.794a17.17 17.17 0 0 1 1.946 5.316h-4.911a17.147 17.147 0 0 1 1.947-5.316M594.883 380.794a17.147 17.147 0 0 0-1.947 5.316h4.911a17.17 17.17 0 0 0-1.946-5.316h-1.018z" fill="#333" vector-effect="non-scaling-stroke" stroke-width=".4" stroke="#000"/><path vector-effect="non-scaling-stroke" stroke-width=".4" stroke="#000" d="M580.709 380.794h-1.018M569.802 386.11h4.911M571.749 380.794h1.018"/><path d="M573.207 381.621c-.139-.28-.286-.556-.44-.827M571.749 380.794c-.154.271-.301.547-.441.827" fill="none" vector-effect="non-scaling-stroke" stroke-width=".4" stroke="#000"/><path vector-effect="non-scaling-stroke" stroke-width=".4" stroke="#000" d="M575.131 380.794h.764"/><path d="M576.639 381.722c-.141-.288-.29-.571-.447-.851M575.131 380.794c-.08.14-.157.281-.233.423" fill="none" vector-effect="non-scaling-stroke" stroke-width=".4" stroke="#000"/><path vector-effect="non-scaling-stroke" stroke-width=".4" stroke="#000" d="M584.555 386.11h-4.912M582.608 380.794h-1.018"/><path d="M581.59 380.794c-.154.271-.301.547-.44.827M583.048 381.621c-.139-.28-.286-.556-.44-.827" fill="none" vector-effect="non-scaling-stroke" stroke-width=".4" stroke="#000"/><path vector-effect="non-scaling-stroke" stroke-width=".4" stroke="#000" d="M579.226 380.794h-.764"/><path d="M572.202 380.109c-.012.247.065.489.216.685M575.895 380.794c.151-.196.227-.438.216-.685" fill="none" vector-effect="non-scaling-stroke" stroke-width=".4" stroke="#000"/><path vector-effect="non-scaling-stroke" stroke-width=".4" stroke="#000" d="M572.418 380.794h3.477"/><path d="M578.246 380.109c-.012.247.065.489.216.685M581.939 380.794c.151-.196.227-.438.216-.685" fill="none" vector-effect="non-scaling-stroke" stroke-width=".4" stroke="#000"/><path vector-effect="non-scaling-stroke" stroke-width=".4" stroke="#000" d="M578.462 380.794h3.477M576.192 380.871h1.972"/><path d="M575.385 380.794c.017.026.035.052.055.078M578.917 380.871c.019-.025.037-.051.054-.078" fill="none" vector-effect="non-scaling-stroke" stroke-width=".4" stroke="#000"/><path vector-effect="non-scaling-stroke" stroke-width=".4" stroke="#000" d="M575.44 380.871h3.477"/><path d="M578.214 380.871c-.157.28-.306.563-.447.851M578.214 380.871c-.157.28-.306.563-.447.851M579.484 381.17a17.13 17.13 0 0 0-.208-.376M574.925 386.11a17.77 17.77 0 0 0-.178.831h4.912a16.568 16.568 0 0 0-.177-.831M575.845 383.333a17.3 17.3 0 0 1 .849-1.709v-.753" fill="none" vector-effect="non-scaling-stroke" stroke-width=".4" stroke="#000"/><path d="M577.712 380.871v.753c.303.534.578 1.084.822 1.647" fill="none" vector-effect="non-scaling-stroke" stroke-width=".4" stroke="#000"/><path d="M572.258 383.936a17.145 17.145 0 0 0-1.39-3.142h-1.018a17.198 17.198 0 0 0-1.947 5.316h4.912" fill="#333" vector-effect="non-scaling-stroke" stroke-width=".4" stroke="#000"/><path d="M568.405 380.109c-.012.247.065.489.216.685h3.477c.069-.09.123-.19.16-.296M582.099 380.498c.037.106.091.206.16.296h3.477c.151-.196.228-.438.216-.685" fill="none" vector-effect="non-scaling-stroke" stroke-width=".4" stroke="#000"/><path d="M581.542 386.11h4.911a17.147 17.147 0 0 0-1.947-5.316h-1.017a17.145 17.145 0 0 0-1.39 3.142" fill="#333" vector-effect="non-scaling-stroke" stroke-width=".4" stroke="#000"/><path d="M580.709 380.794a17.147 17.147 0 0 1 1.947 5.316h-4.911a17.17 17.17 0 0 1 1.946-5.316M573.647 380.794a17.17 17.17 0 0 0-1.946 5.316h4.911a17.147 17.147 0 0 0-1.947-5.316h-1.018z" fill="#333" vector-effect="non-scaling-stroke" stroke-width=".4" stroke="#000"/><path vector-effect="non-scaling-stroke" stroke-width=".4" stroke="#000" d="M623.18 380.794h-1.018M612.273 386.11h4.911M614.219 380.794h1.018"/><path d="M615.678 381.621c-.14-.28-.286-.556-.441-.827M614.219 380.794c-.154.271-.301.547-.44.827" fill="none" vector-effect="non-scaling-stroke" stroke-width=".4" stroke="#000"/><path vector-effect="non-scaling-stroke" stroke-width=".4" stroke="#000" d="M617.601 380.794h.765"/><path d="M619.11 381.722c-.141-.288-.29-.571-.447-.851M617.601 380.794c-.079.14-.157.281-.232.423" fill="none" vector-effect="non-scaling-stroke" stroke-width=".4" stroke="#000"/><path vector-effect="non-scaling-stroke" stroke-width=".4" stroke="#000" d="M627.025 386.11h-4.911M625.079 380.794h-1.018"/><path d="M624.061 380.794c-.155.271-.301.547-.441.827M625.519 381.621c-.139-.28-.286-.556-.44-.827" fill="none" vector-effect="non-scaling-stroke" stroke-width=".4" stroke="#000"/><path vector-effect="non-scaling-stroke" stroke-width=".4" stroke="#000" d="M621.697 380.794h-.765"/><path d="M614.672 380.109c-.011.247.066.489.217.685M618.366 380.794c.151-.196.227-.438.216-.685" fill="none" vector-effect="non-scaling-stroke" stroke-width=".4" stroke="#000"/><path vector-effect="non-scaling-stroke" stroke-width=".4" stroke="#000" d="M614.889 380.794h3.477"/><path d="M620.716 380.109a1.05 1.05 0 0 0 .216.685M624.41 380.794c.151-.196.227-.438.216-.685" fill="none" vector-effect="non-scaling-stroke" stroke-width=".4" stroke="#000"/><path vector-effect="non-scaling-stroke" stroke-width=".4" stroke="#000" d="M620.932 380.794h3.478M618.663 380.871h1.972"/><path d="M617.856 380.794c.017.026.035.052.055.078M621.388 380.871c.019-.025.037-.051.054-.078" fill="none" vector-effect="non-scaling-stroke" stroke-width=".4" stroke="#000"/><path vector-effect="non-scaling-stroke" stroke-width=".4" stroke="#000" d="M617.91 380.871h3.478"/><path d="M620.685 380.871c-.157.28-.306.563-.447.851M620.685 380.871c-.157.28-.306.563-.447.851M621.954 381.17a13.775 13.775 0 0 0-.208-.376M617.395 386.11c-.066.275-.125.552-.177.831h4.912a19.146 19.146 0 0 0-.177-.831M618.316 383.333a17.3 17.3 0 0 1 .849-1.709v-.753" fill="none" vector-effect="non-scaling-stroke" stroke-width=".4" stroke="#000"/><path d="M620.183 380.871v.753c.303.534.578 1.084.822 1.647" fill="none" vector-effect="non-scaling-stroke" stroke-width=".4" stroke="#000"/><path d="M614.728 383.936a17.141 17.141 0 0 0-1.389-3.142h-1.018a17.147 17.147 0 0 0-1.947 5.316h4.912" fill="#333" vector-effect="non-scaling-stroke" stroke-width=".4" stroke="#000"/><path d="M610.875 380.109c-.011.247.065.489.216.685h3.477c.069-.09.123-.19.16-.296M624.57 380.498c.037.106.091.206.16.296h3.477c.151-.196.227-.438.216-.685" fill="none" vector-effect="non-scaling-stroke" stroke-width=".4" stroke="#000"/><path d="M624.012 386.11h4.912a17.147 17.147 0 0 0-1.947-5.316h-1.018a17.141 17.141 0 0 0-1.389 3.142" fill="#333" vector-effect="non-scaling-stroke" stroke-width=".4" stroke="#000"/><path d="M623.18 380.794a17.172 17.172 0 0 1 1.947 5.316h-4.912a17.172 17.172 0 0 1 1.947-5.316M616.118 380.794a17.172 17.172 0 0 0-1.947 5.316h4.912a17.147 17.147 0 0 0-1.947-5.316h-1.018z" fill="#333" vector-effect="non-scaling-stroke" stroke-width=".4" stroke="#000"/><path vector-effect="non-scaling-stroke" stroke-width=".4" stroke="#000" d="M586.501 378.323h2.59M607.737 376.841h2.589M607.737 378.323h2.589"/><path d="M586.501 300.276a2.929 2.929 0 0 0 2.59-.685M589.091 302.02a6.474 6.474 0 0 0-2.59-.336M607.737 299.591a2.927 2.927 0 0 0 2.589.685M610.326 301.684a6.467 6.467 0 0 0-2.589.336M567.855 370.291v8.308l.001.013.003.053.022.21.037.209.052.207.067.203.081.198.094.19.107.183.014.022.007.011.004.01H586.008l.011-.01.056-.089.102-.185.09-.193.076-.199.062-.205.047-.208.032-.21.017-.21v-8.31" fill="none" vector-effect="non-scaling-stroke" stroke-width=".4" stroke="#000"/><path d="M568.745 363.475l.046-.141.079-.155.109-.162.136-.161.16-.152.18-.137.199-.113.213-.083.226-.045h.234l.24.052.243.112.403 1.055.423 1.167.423 1.166.423 1.166.423 1.166.423 1.166.423 1.167.423 1.166.423 1.166.423 1.166.423 1.167.423 1.166.107.283.02.035.022.033.023.03.025.028.027.026.027.024.029.021.03.019.03.017.031.015.032.013.032.011.033.01.033.01h.127l.03-.001H576.669l.053-.024.052-.05.05-.074.049-.094.047-.112.044-.128.041-.141.037-.15.034-.158.029-.162.024-.163-.194-1.824-.448-3.815-.449-3.816-.449-3.815-.449-3.816-.448-3.815-.449-3.815-.449-3.816-.449-3.815-.448-3.816-.449-3.815-.449-3.816-.294-2.583-.002-.251-.002-.251-.002-.251-.002-.25-.002-.251-.002-.251-.002-.251-.002-.251-.002-.25-.002-.251-.002-.251-.01-.314-.036-.488-.036-.442-.038-.399-.038-.36-.039-.324-.04-.29-.041-.261-.042-.233-.042-.209-.044-.188-.044-.171-.044-.156-.046-.144-.046-.133-.046-.122-.048-.112-.048-.101-.049-.092-.049-.084-.051-.074-.051-.067-.051-.059-.053-.051-.053-.045-.054-.039-.055-.033-.055-.026-.056-.02-.057-.014-.057-.008-.059-.002-.058.004-.06.01-.06.016-.061.023-.061.028-.062.033-.063.041-.063.046-.064.053-.065.061-.066.068-.067.075-.068.084-.069.091-.07.101-.071.109-.073.119-.074.128-.075.136-.076.145-.076.151-.076.158-.075.162-.075.166-.074.17-.073.171-.071.173-.069.172-.066.172-.063.17-.061.169-.057.167-.054.166-.05.166-.046.165-.043.167-.039.168-.034.169-.03.171" fill="#F2F2F2" vector-effect="non-scaling-stroke" stroke-width=".4" stroke="#000"/><path vector-effect="non-scaling-stroke" stroke-width=".4" stroke="#000" d="M586.501 376.841h2.59"/><path d="M589.981 363.475l.046-.141.078-.155.109-.162.136-.161.16-.152.181-.137.198-.113.214-.083.225-.045h.234l.241.052.242.112.404 1.055.423 1.167.423 1.166.423 1.166.423 1.166.423 1.166.422 1.167.423 1.166.423 1.166.423 1.166.423 1.167.423 1.166.107.283.02.035.022.033.024.03.025.028.026.026.028.024.028.021.03.019.03.017.032.015.031.013.033.011.032.01.033.01h.127l.03-.001H597.904l.053-.024.052-.05.05-.074.049-.094.047-.112.044-.128.041-.141.038-.15.033-.158.029-.162.024-.163-.193-1.824-.449-3.815-.449-3.816-.449-3.815-.448-3.816-.449-3.815-.449-3.815-.449-3.816-.448-3.815-.449-3.816-.449-3.815-.449-3.816-.294-2.583-.002-.251-.002-.251-.002-.251-.002-.25-.002-.251-.002-.251-.002-.251-.002-.251-.002-.25-.002-.251-.002-.251-.01-.314-.035-.488-.037-.442-.037-.399-.039-.36-.039-.324-.04-.29-.041-.261-.042-.233-.042-.209-.043-.188-.044-.171-.045-.156-.045-.144-.046-.133-.047-.122-.048-.112-.048-.101-.048-.092-.05-.084-.05-.074-.051-.067-.052-.059-.052-.051-.054-.045-.054-.039-.054-.033-.056-.026-.056-.02-.057-.014-.057-.008-.058-.002-.059.004-.06.01-.06.016-.061.023-.061.028-.062.033-.063.041-.063.046-.064.053-.065.061-.066.068-.067.075-.068.084-.069.091-.07.101-.071.109-.073.119-.074.128-.075.136-.075.145-.076.151-.077.158-.075.162-.075.166-.074.17-.073.171-.071.173-.068.172-.067.172-.063.17-.06.169-.058.167-.053.166-.051.166-.046.165-.043.167-.039.168-.034.169-.03.171" fill="#F2F2F2" vector-effect="non-scaling-stroke" stroke-width=".4" stroke="#000"/><path d="M607.737 370.291v8.31a3.006 3.006 0 0 1-.489 1.508H589.58a2.987 2.987 0 0 1-.489-1.508v-8.31M610.326 370.291v8.308l.001.013.003.053.022.21.037.209.052.207.066.203.081.198.095.19.106.183.014.022.008.011.004.01h17.663l.011-.01.056-.089.103-.185.09-.193.076-.199.062-.205.047-.208.032-.21.017-.21v-8.31" fill="none" vector-effect="non-scaling-stroke" stroke-width=".4" stroke="#000"/><path vector-effect="non-scaling-stroke" stroke-width=".4" stroke="#000" d="M571.686 326.35l-1.234-1.307M570.452 325.043h-2.251"/><path d="M568.745 363.475l-.037.215-.037.22-.037.223-.036.228-.036.231-.035.236-.035.238-.035.243-.035.245-.034.249-.034.252-.033.254-.034.257-.033.26-.032.263-.033.264-.032.267-.032.269-.032.27-.031.272-.032.274-.031.276-.061.554-.061.558-.061.561-.119 1.126-.059.563-.059.561-.059.558-.058.554-.03.275-.029.273-.029.272-.03.27-.029.269-.029.266-.03.264-.029.262-.03.26-.03.257-.014.127-.004.032-.002.016-.001.01h-.002l-.007.017-.008.014-.008.012-.008.01-.008.01-.008.01h-.065l-.033-.016-.065-.037-.063-.038-.061-.038-.059-.038-.058-.039-.055-.039-.053-.04-.052-.04-.05-.04-.048-.041-.047-.041-.045-.042-.043-.042-.042-.042-.041-.042-.038-.043-.038-.043-.07-.087-.065-.088-.06-.089-.055-.09-.05-.091-.046-.091-.042-.092-.039-.092-.034-.093-.032-.093-.029-.093-.026-.094-.024-.094-.022-.094-.021-.093-.018-.093-.009-.047-.004-.023-.002-.012h-.001v-.011l.002-.056.004-.113.241-7.213.482-14.426.482-14.426.24-7.212.061-1.804.015-.451.001-.028v-.01l.001-.006.002-.012.007-.047.015-.093.014-.091.015-.089.014-.086.015-.084.014-.083.015-.081.015-.079.015-.077.015-.076.031-.149.031-.144.032-.141.033-.138.035-.136.035-.136.037-.136.039-.137.04-.139.043-.141.046-.143.049-.146.053-.15.028-.075.029-.077.03-.078.032-.079.033-.08.034-.081.036-.083.038-.083.039-.085.04-.086.042-.088.044-.089.046-.091.048-.092" fill="#F2F2F2" vector-effect="non-scaling-stroke" stroke-width=".4" stroke="#000" stroke-linecap="round"/><path vector-effect="non-scaling-stroke" stroke-width=".4" stroke="#000" d="M567.932 355.408l.175-24.119M568.107 331.289l2.16-2.926M568.107 331.289l-1.033-2.675"/><path vector-effect="non-scaling-stroke" stroke-width=".4" stroke="#000" stroke-linecap="round" d="M570.267 328.363l.185-3.32"/><path vector-effect="non-scaling-stroke" stroke-width=".4" stroke="#000" d="M567.241 376.038h.614M567.166 376.694h.689"/><path d="M585.611 363.475l-.046-.141-.078-.155-.109-.162-.136-.161-.16-.152-.181-.137-.198-.113-.214-.083-.225-.045h-.234l-.24.052-.243.112-.404 1.055-.423 1.167-.423 1.166-.423 1.166-.423 1.166-.423 1.166-.422 1.167-.423 1.166-.423 1.166-.423 1.166-.423 1.167-.423 1.166-.107.283-.02.035-.022.033-.023.03-.026.028-.026.026-.028.024-.028.021-.03.019-.03.017-.032.015-.031.013-.033.011-.032.01-.033.01h-.127l-.03-.001H577.688l-.053-.024-.052-.05-.05-.074-.049-.094-.047-.112-.044-.128-.041-.141-.038-.15-.033-.158-.029-.162-.024-.163.193-1.824.449-3.815.449-3.816.449-3.815.448-3.816.449-3.815.449-3.815.449-3.816.448-3.815.449-3.816.449-3.815.449-3.816.294-2.583.002-.251.002-.251.002-.251.002-.25.002-.251.002-.251.002-.251.002-.251.002-.25.002-.251.002-.251.01-.314.035-.488.037-.442.037-.399.039-.36.039-.324.04-.29.041-.261.042-.233.042-.209.043-.188.044-.171.045-.156.045-.144.046-.133.047-.122.048-.112.048-.101.048-.092.05-.084.05-.074.051-.067.052-.059.052-.051.054-.045.054-.039.054-.033.056-.026.056-.02.057-.014.057-.008.058-.002.059.004.06.01.06.016.061.023.061.028.062.033.063.041.063.046.064.053.065.061.066.068.067.075.068.084.069.091.07.101.071.109.073.119.074.128.075.136.075.145.076.151.076.158.076.162.075.166.074.17.073.171.071.173.068.172.066.172.064.17.06.169.057.167.054.166.051.166.046.165.043.167.038.168.035.169.03.171" fill="#F2F2F2" vector-effect="non-scaling-stroke" stroke-width=".4" stroke="#000"/><path vector-effect="non-scaling-stroke" stroke-width=".4" stroke="#000" d="M576.872 376.694h.612"/><path d="M565.923 375.941l.118-1.501.119-1.502.118-1.502.119-1.502.118-1.502.118-1.501.119-1.502.118-1.502.119-1.502.118-1.502.118-1.501.119-1.502.118-1.502.05-.476.033-.12.039-.102.045-.086.05-.071.054-.057.057-.043.061-.031.063-.019.065-.01h.065l.066.01.065.018.065.025.063.032.061.038.06.043.058.047.057.052.055.055.054.058.051.06.049.062.048.063.046.064.043.064.177.44.583 1.569.583 1.57.583 1.569.583 1.569.582 1.57.583 1.569.583 1.569.583 1.569.583 1.57.583 1.569.582 1.569.583 1.57.583 1.569" fill="none" vector-effect="non-scaling-stroke" stroke-width=".4" stroke="#000"/><path vector-effect="non-scaling-stroke" stroke-width=".4" stroke="#000" d="M582.671 326.35l1.234-1.307M583.905 325.043h2.251M586.425 355.408l-.175-24.119"/><path d="M587.796 342.73l-.143-4.276-.241-7.213-.06-1.803-.015-.451-.001-.028v-.007l-.001-.003-.001-.006-.001-.012-.007-.048-.015-.093-.014-.09-.015-.089-.014-.086-.015-.085-.015-.082-.014-.081-.015-.079-.015-.078-.015-.076-.031-.148-.031-.144-.032-.141-.033-.138-.035-.137-.035-.136-.037-.136-.039-.137-.04-.139-.043-.14-.046-.144-.049-.146-.053-.149-.028-.076-.029-.077-.03-.078-.032-.078-.033-.081-.035-.081-.035-.082-.038-.084-.039-.084-.04-.087-.043-.087-.044-.089-.045-.091-.048-.092" fill="#F2F2F2" vector-effect="non-scaling-stroke" stroke-width=".4" stroke="#000"/><path vector-effect="non-scaling-stroke" stroke-width=".4" stroke="#000" d="M586.25 331.289l-2.16-2.926M586.25 331.289l1.032-2.675"/><path vector-effect="non-scaling-stroke" stroke-width=".4" stroke="#000" stroke-linecap="round" d="M584.09 328.363l-.185-3.32"/><path vector-effect="non-scaling-stroke" stroke-width=".4" stroke="#000" d="M587.115 376.038h-.614M587.19 376.694h-.689"/><path d="M585.611 363.475l.038.215.037.22.036.223.037.228.035.231.036.236.035.238.035.243.034.245.035.249.034.252.033.254.033.257.033.26.033.263.033.264.032.267.032.269.032.27.031.272.031.274.031.276.062.554.061.558.061.561.119 1.126.059.563.059.561.008.077" fill="none" vector-effect="non-scaling-stroke" stroke-width=".4" stroke="#000" stroke-linecap="round"/><path vector-effect="non-scaling-stroke" stroke-width=".4" stroke="#000" d="M592.921 326.35l-1.234-1.307M591.687 325.043h-2.251"/><path d="M589.981 363.475l-.038.215-.037.22-.036.223-.037.228-.035.231-.036.236-.035.238-.035.243-.034.245-.035.249-.033.252-.034.254-.033.257-.033.26-.033.263-.033.264-.032.267-.032.269-.031.27-.032.272-.031.274-.031.276-.062.554-.061.558-.06.561-.12 1.126-.059.563-.059.561-.058.558-.059.554-.029.275-.03.273-.029.272-.029.27-.03.269-.029.266-.029.264-.03.262-.029.26-.03.257-.015.127-.004.032-.002.016-.001.01h-.002l-.006.017-.008.014-.008.012-.008.01-.009.01-.008.01h-.065l-.033-.016-.065-.037-.063-.038-.061-.038-.059-.038-.057-.039-.055-.039-.054-.04-.052-.04-.05-.04-.048-.041-.047-.041-.044-.042-.044-.042-.042-.042-.04-.042-.039-.043-.037-.043-.071-.087-.064-.088-.06-.089-.055-.09-.05-.091-.047-.091-.042-.092-.038-.092-.035-.093-.032-.093-.028-.093-.027-.094-.024-.094-.022-.094-.02-.093-.019-.093-.009-.047-.004-.023-.002-.012v-.011l.002-.056.004-.113.241-7.213.481-14.426.482-14.426.241-7.212.06-1.804.015-.451.001-.028v-.006l.001-.001v-.003l.001-.006.002-.012.007-.047.014-.093.015-.091.014-.089.015-.086.015-.084.014-.083.015-.081.015-.079.015-.077.015-.076.03-.149.032-.144.032-.141.033-.138.034-.136.036-.136.037-.136.038-.137.041-.139.043-.141.045-.143.049-.146.053-.15.028-.075.03-.077.03-.078.032-.079.033-.08.034-.081.036-.083.037-.083.039-.085.041-.086.042-.088.044-.089.046-.091.048-.092" fill="#F2F2F2" vector-effect="non-scaling-stroke" stroke-width=".4" stroke="#000" stroke-linecap="round"/><path vector-effect="non-scaling-stroke" stroke-width=".4" stroke="#000" d="M589.167 355.408l.175-24.119M589.342 331.289l2.16-2.926M589.342 331.289l-1.032-2.675"/><path vector-effect="non-scaling-stroke" stroke-width=".4" stroke="#000" stroke-linecap="round" d="M591.502 328.363l.185-3.32"/><path vector-effect="non-scaling-stroke" stroke-width=".4" stroke="#000" d="M588.477 376.038h.614M588.402 376.694h.689"/><path d="M606.847 363.475l-.046-.141-.079-.155-.109-.162-.136-.161-.16-.152-.18-.137-.199-.113-.213-.083-.226-.045h-.234l-.24.052-.243.112-.403 1.055-.423 1.167-.423 1.166-.423 1.166-.423 1.166-.423 1.166-.423 1.167-.423 1.166-.423 1.166-.423 1.166-.423 1.167-.423 1.166-.107.283-.02.035-.022.033-.023.03-.025.028-.027.026-.027.024-.029.021-.03.019-.03.017-.031.015-.032.013-.032.011-.033.01-.033.01h-.127l-.03-.001H598.923l-.053-.024-.051-.05-.051-.074-.049-.094-.047-.112-.044-.128-.041-.141-.037-.15-.034-.158-.028-.162-.024-.163.193-1.824.448-3.815.449-3.816.449-3.815.449-3.816.448-3.815.449-3.815.449-3.816.449-3.815.448-3.816.449-3.815.449-3.816.294-2.583.002-.251.002-.251.002-.251.002-.25.002-.251.002-.251.002-.251.002-.251.002-.25.002-.251.002-.251.01-.314.036-.488.036-.442.038-.399.038-.36.039-.324.04-.29.041-.261.042-.233.042-.209.044-.188.044-.171.044-.156.046-.144.046-.133.046-.122.048-.112.048-.101.049-.092.049-.084.05-.074.052-.067.051-.059.053-.051.053-.045.054-.039.055-.033.055-.026.056-.02.057-.014.057-.008.058-.002.059.004.06.01.06.016.061.023.061.028.062.033.063.041.063.046.064.053.065.061.066.068.067.075.068.084.069.091.07.101.071.109.073.119.074.128.075.136.076.145.076.151.076.158.076.162.074.166.075.17.072.171.071.173.069.172.066.172.063.17.061.169.057.167.054.166.05.166.046.165.043.167.039.168.034.169.03.171" fill="#F2F2F2" vector-effect="non-scaling-stroke" stroke-width=".4" stroke="#000"/><path vector-effect="non-scaling-stroke" stroke-width=".4" stroke="#000" d="M598.108 376.694h.612"/><path d="M587.158 375.941l.119-1.501.118-1.502.119-1.502.118-1.502.118-1.502.119-1.501.118-1.502.119-1.502.118-1.502.118-1.502.119-1.501.118-1.502.119-1.502.049-.476.033-.12.04-.102.044-.086.05-.071.054-.057.058-.043.06-.031.063-.019.065-.01h.065l.066.01.066.018.064.025.063.032.061.038.06.043.059.047.057.052.055.055.053.058.051.06.05.062.048.063.045.064.044.064.176.44.583 1.569.583 1.57.583 1.569.583 1.569.583 1.57.583 1.569.582 1.569.583 1.569.583 1.57.583 1.569.583 1.569.583 1.57.582 1.569" fill="none" vector-effect="non-scaling-stroke" stroke-width=".4" stroke="#000"/><path vector-effect="non-scaling-stroke" stroke-width=".4" stroke="#000" d="M603.906 326.35l1.234-1.307M605.14 325.043h2.251"/><path d="M606.847 363.475l.037.215.037.22.037.223.036.228.036.231.035.236.035.238.035.243.035.245.034.249.034.252.034.254.033.257.033.26.033.263.032.264.032.267.032.269.032.27.031.272.032.274.031.276.062.554.06.558.061.561.119 1.126.059.563.059.561.059.558.059.554.029.275.029.273.029.272.03.27.029.269.029.266.03.264.029.262.03.26.03.257.015.127.004.032.002.016v.01h.002l.007.017.008.014.008.012.008.01.008.01.008.01h.065l.033-.016.065-.037.063-.038.061-.038.059-.038.058-.039.055-.039.053-.04.052-.04.05-.04.048-.041.047-.041.045-.042.043-.042.042-.042.04-.042.039-.043.038-.043.07-.087.065-.088.06-.089.055-.09.05-.091.046-.091.042-.092.038-.092.035-.093.032-.093.029-.093.026-.094.024-.094.022-.094.02-.093.019-.093.009-.047.004-.023.002-.012h.001v-.011l-.003-.056-.003-.113-.241-7.213-.482-14.426-.482-14.426-.241-7.212-.06-1.804-.015-.451-.001-.028v-.007l-.001-.003v-.006l-.002-.012-.008-.047-.014-.093-.015-.091-.014-.089-.014-.086-.015-.084-.015-.083-.014-.081-.015-.079-.015-.077-.015-.076-.031-.149-.031-.144-.032-.141-.034-.138-.034-.136-.035-.136-.037-.136-.039-.137-.04-.139-.043-.141-.046-.143-.049-.146-.053-.15-.028-.075-.029-.077-.031-.078-.031-.079-.033-.08-.035-.081-.035-.083-.038-.083-.039-.085-.04-.086-.043-.088-.044-.089-.045-.091-.048-.092" fill="#F2F2F2" vector-effect="non-scaling-stroke" stroke-width=".4" stroke="#000" stroke-linecap="round"/><path vector-effect="non-scaling-stroke" stroke-width=".4" stroke="#000" d="M607.66 355.408l-.175-24.119M607.485 331.289l-2.16-2.926M607.485 331.289l1.033-2.675"/><path vector-effect="non-scaling-stroke" stroke-width=".4" stroke="#000" stroke-linecap="round" d="M605.325 328.363l-.185-3.32"/><path vector-effect="non-scaling-stroke" stroke-width=".4" stroke="#000" d="M608.351 376.038h-.614M608.426 376.694h-.689"/><path d="M609.669 375.941l-.118-1.501-.119-1.502-.118-1.502-.119-1.502-.118-1.502-.118-1.501-.119-1.502-.118-1.502-.119-1.502-.118-1.502-.119-1.501-.118-1.502-.118-1.502-.05-.476-.033-.12-.039-.102-.045-.086-.05-.071-.054-.057-.058-.043-.06-.031-.063-.019-.065-.01h-.065l-.066.01-.065.018-.065.025-.063.032-.061.038-.06.043-.058.047-.057.052-.055.055-.054.058-.051.06-.05.062-.047.063-.046.064-.043.064-.177.44-.583 1.569-.583 1.57-.583 1.569-.583 1.569-.582 1.57-.583 1.569-.583 1.569-.583 1.569-.583 1.57-.583 1.569-.583 1.569-.582 1.57-.583 1.569" fill="none" vector-effect="non-scaling-stroke" stroke-width=".4" stroke="#000"/><path d="M611.216 363.475l.046-.141.079-.155.109-.162.135-.161.16-.152.181-.137.199-.113.213-.083.225-.045h.235l.24.052.243.112.403 1.055.423 1.167.423 1.166.423 1.166.423 1.166.423 1.166.423 1.167.423 1.166.423 1.166.423 1.166.423 1.167.423 1.166.106.283.02.035.022.033.024.03.025.028.026.026.028.024.029.021.029.019.031.017.031.015.032.013.032.011.033.01.032.01h.127l.03-.001H619.14l.052-.024.052-.05.051-.074.049-.094.046-.112.044-.128.041-.141.038-.15.033-.158.029-.162.024-.163-.193-1.824-.449-3.815-.448-3.816-.449-3.815-.449-3.816-.449-3.815-.448-3.815-.449-3.816-.449-3.815-.449-3.816-.448-3.815-.449-3.816-.294-2.583-.003-.251-.001-.251-.002-.251-.002-.25-.003-.251-.002-.251-.001-.251-.002-.251-.003-.25-.002-.251-.001-.251-.01-.314-.036-.488-.037-.442-.037-.399-.038-.36-.039-.324-.04-.29-.041-.261-.042-.233-.043-.209-.043-.188-.044-.171-.045-.156-.045-.144-.046-.133-.047-.122-.047-.112-.048-.101-.049-.092-.05-.084-.05-.074-.051-.067-.051-.059-.053-.051-.053-.045-.054-.039-.055-.033-.055-.026-.056-.02-.057-.014-.058-.008-.058-.002-.059.004-.059.01-.06.016-.061.023-.061.028-.062.033-.063.041-.063.046-.065.053-.065.061-.065.068-.067.075-.068.084-.069.091-.07.101-.072.109-.072.119-.074.128-.075.136-.076.145-.076.151-.076.158-.076.162-.075.166-.074.17-.072.171-.071.173-.069.172-.066.172-.063.17-.061.169-.057.167-.054.166-.05.166-.047.165-.042.167-.039.168-.034.169-.031.171" fill="#F2F2F2" vector-effect="non-scaling-stroke" stroke-width=".4" stroke="#000"/><path vector-effect="non-scaling-stroke" stroke-width=".4" stroke="#000" d="M614.156 326.35l-1.234-1.307M612.922 325.043h-2.25M610.403 355.408l.174-24.119M610.577 331.289l2.161-2.926M610.577 331.289l-1.032-2.675"/><path vector-effect="non-scaling-stroke" stroke-width=".4" stroke="#000" stroke-linecap="round" d="M612.738 328.363l.184-3.32"/><path vector-effect="non-scaling-stroke" stroke-width=".4" stroke="#000" d="M609.712 376.038h.614M609.637 376.694h.689M619.343 376.694h.612"/><path d="M611.216 363.475l-.037.215-.037.22-.037.223-.036.228-.036.231-.036.236-.035.238-.035.243-.034.245-.034.249-.034.252-.034.254-.033.257-.033.26-.033.263-.032.264-.032.267-.032.269-.032.27-.032.272-.031.274-.031.276-.062.554-.061.558-.06.561-.119 1.126-.06.563-.058.561-.008.077" fill="none" vector-effect="non-scaling-stroke" stroke-width=".4" stroke="#000" stroke-linecap="round"/><path d="M609.612 360.107l.084-.685.119-1.502.118-1.502.05-.476.033-.12.039-.102.045-.086.05-.071.054-.057.057-.043.061-.031.063-.019.064-.01h.066l.066.01.065.018.064.025.063.032.062.038.06.043.058.047.057.052.055.055.053.058.052.06.049.062.048.063.046.064.043.064.177.44.583 1.569.583 1.57.582 1.569.583 1.569.583 1.57.583 1.569.583 1.569.583 1.569.583 1.57.582 1.569.583 1.569.583 1.57.583 1.569" fill="none" vector-effect="non-scaling-stroke" stroke-width=".4" stroke="#000"/><path d="M628.082 363.475l-.046-.141-.079-.155-.109-.162-.135-.161-.16-.152-.181-.137-.199-.113-.213-.083-.225-.045h-.235l-.24.052-.243.112-.403 1.055-.423 1.167-.423 1.166-.423 1.166-.423 1.166-.423 1.166-.423 1.167-.423 1.166-.423 1.166-.423 1.166-.423 1.167-.422 1.166-.107.283-.02.035-.022.033-.024.03-.025.028-.026.026-.028.024-.029.021-.029.019-.031.017-.031.015-.032.013-.032.011-.033.01-.032.01h-.127l-.03-.001H620.158l-.052-.024-.052-.05-.051-.074-.049-.094-.046-.112-.044-.128-.041-.141-.038-.15-.033-.158-.029-.162-.024-.163.193-1.824.449-3.815.449-3.816.448-3.815.449-3.816.449-3.815.448-3.815.449-3.816.449-3.815.449-3.816.449-3.815.448-3.816.295-2.583.002-.251.002-.251.002-.251.002-.25.002-.251.002-.251.001-.251.003-.251.002-.25.002-.251.002-.251.01-.314.035-.488.037-.442.037-.399.038-.36.04-.324.04-.29.041-.261.041-.233.043-.209.043-.188.044-.171.045-.156.045-.144.046-.133.047-.122.047-.112.048-.101.049-.092.05-.084.05-.074.051-.067.052-.059.052-.051.053-.045.054-.039.055-.033.055-.026.056-.02.057-.014.058-.008.058-.002.059.004.059.01.06.016.061.023.062.028.062.033.062.041.064.046.064.053.065.061.066.068.067.075.067.084.069.091.071.101.071.109.072.119.074.128.075.136.076.145.076.151.076.158.076.162.075.166.074.17.073.171.07.173.069.172.066.172.064.17.06.169.057.167.054.166.05.166.047.165.043.167.038.168.035.169.03.171" fill="#F2F2F2" vector-effect="non-scaling-stroke" stroke-width=".4" stroke="#000"/><path vector-effect="non-scaling-stroke" stroke-width=".4" stroke="#000" d="M625.142 326.35l1.234-1.307M626.376 325.043h2.25"/><path d="M628.082 363.475l.037.215.037.22.037.223.036.228.036.231.036.236.035.238.035.243.034.245.034.249.034.252.034.254.033.257.033.26.033.263.032.264.032.267.032.269.032.27.032.272.031.274.031.276.062.554.061.558.06.561.12 1.126.059.563.058.561.059.558.059.554.029.275.029.273.03.272.029.27.029.269.03.266.029.264.03.262.029.26.03.257.015.127.004.032.002.016.001.01h.001l.007.017.008.014.008.012.008.01.008.01.008.01h.065l.034-.016.065-.037.063-.038.061-.038.059-.038.057-.039.055-.039.054-.04.052-.04.05-.04.048-.041.046-.041.045-.042.044-.042.042-.042.04-.042.039-.043.037-.043.07-.087.065-.088.06-.089.055-.09.05-.091.047-.091.042-.092.038-.092.035-.093.032-.093.028-.093.027-.094.024-.094.022-.094.02-.093.019-.093.009-.047.004-.023.002-.012v-.011l-.002-.056-.004-.113-.241-7.213-.481-14.426-.482-14.426-.241-7.212-.06-1.804-.015-.451-.001-.028v-.007l-.001-.003-.001-.006-.002-.012-.007-.047-.014-.093-.015-.091-.014-.089-.015-.086-.014-.084-.015-.083-.015-.081-.015-.079-.014-.077-.016-.076-.03-.149-.031-.144-.033-.141-.033-.138-.034-.136-.036-.136-.037-.136-.038-.137-.041-.139-.042-.141-.046-.143-.049-.146-.053-.15-.028-.075-.029-.077-.031-.078-.032-.079-.033-.08-.034-.081-.036-.083-.037-.083-.039-.085-.041-.086-.042-.088-.044-.089-.046-.091-.047-.092" fill="#F2F2F2" vector-effect="non-scaling-stroke" stroke-width=".4" stroke="#000" stroke-linecap="round"/><path vector-effect="non-scaling-stroke" stroke-width=".4" stroke="#000" d="M628.895 355.408l-.174-24.119M628.721 331.289l-2.161-2.926M628.721 331.289l1.032-2.675"/><path vector-effect="non-scaling-stroke" stroke-width=".4" stroke="#000" stroke-linecap="round" d="M626.56 328.363l-.184-3.32"/><path vector-effect="non-scaling-stroke" stroke-width=".4" stroke="#000" d="M629.586 376.038h-.614M629.661 376.694h-.689"/><path d="M630.904 375.941l-.118-1.501-.118-1.502-.119-1.502-.118-1.502-.119-1.502-.118-1.501-.119-1.502-.118-1.502-.118-1.502-.119-1.502-.118-1.501-.119-1.502-.118-1.502-.05-.476-.033-.12-.039-.102-.045-.086-.05-.071-.054-.057-.057-.043-.061-.031-.063-.019-.064-.01h-.066l-.065.01-.066.018-.064.025-.063.032-.062.038-.06.043-.058.047-.057.052-.055.055-.053.058-.052.06-.049.062-.048.063-.045.064-.044.064-.177.44-.583 1.569-.582 1.57-.583 1.569-.583 1.569-.583 1.57-.583 1.569-.583 1.569-.582 1.569-.583 1.57-.583 1.569-.583 1.569-.583 1.57-.583 1.569M586.501 325.77V167.071l-.001-.013-.018-.211-.035-.414-.07-.795-.07-.752-.07-.712-.071-.674-.073-.637-.073-.602-.074-.569-.077-.538-.078-.508-.08-.481-.083-.455-.085-.431-.089-.409-.091-.389-.095-.37-.099-.353-.102-.339-.107-.325-.111-.315-.236-.602-.257-.58-.28-.571-.305-.578-.33-.597-.357-.613-.381-.621-.404-.619-.424-.608-.445-.587-.462-.558-.238-.264-.241-.254-.245-.242-.248-.228-.252-.214-.255-.199-.258-.181-.26-.164-.264-.144-.265-.124-.267-.103-.27-.08-.271-.057-.273-.031-.273-.005-.273.022-.272.049-.27.072-.268.095-.266.117-.264.138-.262.158-.258.175-.256.193-.253.209-.25.223-.246.238-.243.25-.473.532-.457.569-.438.595-.418.613-.396.62-.373.62-.348.608-.322.59-.296.574-.272.572-.25.586-.23.613-.108.322-.104.334-.1.348-.096.365-.093.382-.089.402-.087.423-.083.447-.081.472-.079.499-.077.527-.075.559-.074.59-.072.625-.072.662-.07.699-.071.738-.07.781-.07.823-.004.053-.002.027-.001.013v158.692" fill="none" vector-effect="non-scaling-stroke" stroke-width=".4" stroke="#000"/><path vector-effect="non-scaling-stroke" stroke-width=".4" stroke="#000" d="M589.091 325.77V84.897"/><path d="M628.972 325.77V167.078l-.001-.007-.001-.013-.017-.211-.035-.414-.07-.795-.07-.752-.071-.712-.071-.674-.072-.637-.073-.602-.075-.569-.076-.538-.078-.508-.081-.481-.082-.455-.086-.431-.088-.409-.092-.389-.095-.37-.098-.353-.103-.339-.106-.325-.111-.315-.237-.602-.257-.58-.28-.571-.304-.578-.331-.597-.356-.613-.381-.621-.404-.619-.425-.608-.444-.587-.463-.558-.237-.264-.241-.254-.245-.242-.249-.228-.252-.214-.255-.199-.257-.181-.261-.164-.263-.144-.265-.124-.268-.103-.269-.08-.271-.057-.273-.031-.274-.005-.273.022-.272.049-.27.072-.268.095-.266.117-.264.138-.261.158-.259.175-.256.193-.253.209-.249.223-.246.238-.243.25-.473.532-.457.569-.438.595-.418.613-.396.62-.373.62-.349.608-.322.59-.296.574-.272.572-.25.586-.23.613-.108.322-.104.334-.099.348-.097.365-.092.382-.09.402-.086.423-.084.447-.081.472-.079.499-.076.527-.076.559-.073.59-.073.625-.071.662-.071.699-.07.738-.07.781-.07.823-.004.053-.002.027-.001.013v158.692M587.207 360.38l-.076-.958-.118-1.502-.119-1.502-.049-.476-.033-.12-.04-.102-.044-.086-.05-.071-.054-.057-.058-.043-.06-.031-.063-.019-.065-.01h-.065l-.066.01-.066.018-.064.025-.063.032-.061.038-.06.043-.059.047-.057.052-.055.055-.053.058-.051.06-.05.062-.047.063-.046.064-.044.064-.176.44-.583 1.569-.583 1.57-.583 1.569-.583 1.569-.583 1.57-.583 1.569-.582 1.569-.583 1.569-.583 1.57-.583 1.569-.583 1.569-.583 1.57-.583 1.569M588.501 375.825l.013-.024.046-.091.042-.092.039-.092.035-.093.031-.093.029-.093.026-.094.024-.094.022-.094.021-.093.018-.093.009-.047.004-.023.002-.012h.001v-.011l-.002-.056-.004-.113-.052-1.538M587.091 375.825l.009.08.03.262.03.259.029.257.015.128.004.032.002.016.001.01h.001l.008.017.008.014.007.012.008.01.008.01.008.01h.066l.033-.016.065-.037.063-.038.061-.038.059-.038.057-.039.056-.039.053-.04.026-.02" fill="none" vector-effect="non-scaling-stroke" stroke-width=".4" stroke="#000"/><path d="M609.031 342.73l.143-4.276.241-7.213.06-1.803.015-.451.001-.028v-.007l.001-.003.001-.006.002-.012.007-.048.014-.093.015-.09.014-.089.015-.086.014-.085.015-.082.015-.081.015-.079.014-.078.016-.076.03-.148.031-.144.033-.141.033-.138.034-.137.036-.136.037-.136.038-.137.041-.139.042-.14.046-.144.049-.146.053-.149.028-.076.029-.077.031-.078.032-.078.033-.081.034-.081.036-.082.037-.084.039-.084.041-.087.042-.087.044-.089.046-.091.047-.092M609.736 375.825l-.009.08-.03.262-.029.259-.03.257-.015.128-.004.032-.002.016-.001.01h-.001l-.007.017-.008.014-.008.012-.008.01-.008.01-.008.01h-.065l-.033-.016-.065-.037-.063-.038-.061-.038-.06-.038-.057-.039-.055-.039-.054-.04-.025-.02M608.327 375.825l-.014-.024-.046-.091-.042-.092-.038-.092-.035-.093-.032-.093-.029-.093-.026-.094-.024-.094-.022-.094-.02-.093-.019-.093-.009-.047-.004-.023-.002-.012v-.011l.002-.056.004-.113.051-1.538" fill="none" vector-effect="non-scaling-stroke" stroke-width=".4" stroke="#000"/><path d="M586.536 343.543c-.008-.616-.031-3.622-.051-6.678l-.036-5.558.35-.902c.192-.497.353-.895.356-.884.003.01.105 2.997.226 6.637l.22 6.618-.031.861c-.017.474-.032.899-.032.945l-.001.083h-.987l-.014-1.121v-.001zM585.485 329.917l-.708-.958v-.33h1.143c.756 0 1.143.001 1.142.004a814.59 814.59 0 0 1-.867 2.242c-.001 0-.321-.431-.71-.958z" fill="#F2F2F2"/><path d="M587.118 356.709c-.092-.908-.145-1.101-.368-1.331l-.134-.138-.038-4.679c-.02-2.574-.061-7.961-.09-11.971l-.053-7.292.286-.729c.237-.601.304-.732.382-.744.088-.013.095.005.095.243 0 .142.091 2.932.202 6.202.152 4.438.197 6.224.18 7.049-.022 1.003-.404 12.512-.439 13.192-.008.157-.019.247-.023.198zM584.433 359.419l.535-1.439c.587-1.579.657-1.758.723-1.855.059-.087.192-.246.262-.312.174-.166.348-.239.471-.199.048.016.118.09.155.163.079.155.085.214.24 2.191l.113 1.445.004.036h-2.514l.012-.03h-.001z" fill="#F2F2F2"/><path d="M579.924 356.861v-2.589l.266-2.253.265-2.262c0-.005 1.29-.009 2.867-.009h2.867v.08c-.001.044.008 1.273.018 2.73.016 2.234.017 2.651.004 2.659-.008 0-.033.012-.054.016a1.298 1.298 0 0 0-.336.173 2.293 2.293 0 0 0-.457.496c-.09.129-.14.256-.8 2.033l-.56 1.508H579.925v-2.589l-.001.007z" fill="#F2F2F2"/><path d="M586.661 369.9a49.69 49.69 0 0 1-.19-1.547 95.806 95.806 0 0 0-.548-4.154c-.108-.677-.159-.894-.257-1.074-.173-.321-.543-.669-.889-.836-.252-.122-.34-.141-.625-.14-.427 0-.72.124-.813.335-.035.08-.065.125-.067.098-.003-.045.584-1.647 1.793-4.892.397-1.064.599-1.548.705-1.687.297-.389.611-.505.776-.287.123.162.158.493.429 4.107.033.442-.058 3.779-.269 9.877-.01.282-.019.322-.045.199v.001zM610.182 329.734l-.434-1.131.04-.251c.14-.875.494-2.042.845-2.791l.151-.32h1.94l-.018.242c-.009.133-.048.82-.087 1.527l-.071 1.284-.944 1.278a51.66 51.66 0 0 1-.966 1.285c-.012.004-.217-.501-.456-1.123zM609.401 347.889c-.009-.09-.053-1.296-.097-2.679l-.081-2.516.221-6.578c.121-3.618.223-6.589.227-6.601.004-.012.167.391.361.896l.354.918-.049 7.167c-.027 3.942-.058 7.705-.068 8.362l-.02 1.195h-.831l-.017-.164z" fill="#F2F2F2"/><path d="M609.683 356.335c-.012-.25-.078-2.148-.147-4.219-.068-2.071-.151-4.497-.184-5.391-.143-3.813-.143-3.902-.053-6.609.045-1.349.091-2.654.102-2.899l.02-.445h.93l-.001.711c0 .391-.028 3.966-.062 7.945s-.062 7.812-.062 8.518v1.284l-.152.154c-.2.203-.269.397-.316.888l-.044.453c-.004.034-.018-.141-.031-.39zM609.921 363.394c-.004-.047-.03-.806-.059-1.686l-.052-1.601.041-.332c.028-.226.08-.826.162-1.863.137-1.731.153-1.903.194-2.032.037-.116.105-.219.17-.252.181-.094.469.089.744.473.045.063.081.136.141.286.16.4 2.638 7.088 2.628 7.091h-.017c-.003 0-.103-.258-.221-.566a51.346 51.346 0 0 0-.217-.564c-.002 0-.078-.038-.169-.079a1.215 1.215 0 0 0-.585-.134c-.399 0-.762.154-1.125.48-.239.214-.45.531-.518.776l-.025.091h-.543l-.543.001-.006-.086v-.003z" fill="#F2F2F2"/><path d="M612.914 359.681c-.003 0-.272-.728-.598-1.605-.635-1.71-.763-2.042-.815-2.12-.271-.403-.565-.653-.857-.729l-.048-.013.007-.444c.004-.244.012-1.334.018-2.422.006-1.088.014-2.063.018-2.168l.006-.191h5.753l.007.047c.009.064 1.132 9.631 1.132 9.644 0 .013-4.614.014-4.622 0l-.001.001zM616.833 371.646l-1.871-5.157c-.875-2.412-1.33-3.645-1.524-4.124-.007-.017-.115-.073-.246-.127a1.147 1.147 0 0 0-.508-.098c-.195 0-.345.026-.512.089-.494.185-.969.666-1.124 1.14-.058.181-.241 1.335-.413 2.618-.128.958-.316 2.532-.449 3.77-.02.181-.037.328-.039.326-.002 0-.054-1.49-.115-3.307a782.28 782.28 0 0 0-.16-4.681l-.007-.13 1.738.001h1.738l.093.251c.05.138.86 2.318 1.798 4.844.938 2.526 1.705 4.596 1.705 4.599 0 0-.021.01-.048.01-.036 0-.051 0-.056-.019v-.005z" fill="#F2F2F2"/><path d="M588.694 301.716c-.342-.107-1.031-.203-1.519-.212l-.475-.009-.001-.497v-.497h.435c.543 0 1.008-.113 1.451-.352l.324-.175v.904c0 .497-.005.903-.011.901l-.204-.063zM607.912 300.881v-.912l.237.134c.469.265.838.363 1.455.386l.565.022-.012.486-.013.486-.53.017c-.47.016-1.383.162-1.624.26-.072.029-.077-.029-.077-.88l-.001.001zM629.17 376.369v-.133h.246l.01.096c.019.183.029.17-.123.17h-.133v-.133zM609.864 376.4c.02-.189.011-.178.148-.173h.119v.266h-.277l.01-.106v.013zM609.367 376.633l-.013-.01.051-.047.051-.047-.004.044c-.006.071-.005.069-.041.069-.021 0-.035 0-.044-.01v.001zM607.935 376.364v-.13h.238l.016.13.015.129h-.269v-.13.001zM588.622 376.487c0-.019.023-.209.028-.232.005-.024.01-.025.127-.025h.121v.265h-.138c-.076 0-.138 0-.138-.01v.002zM587.384 376.639a.941.941 0 0 1-.011-.108c.002 0 .095.09.095.094 0 .001-.006.01-.013.011-.01.01-.02.01-.041.01h-.03v-.007zM586.698 376.367v-.129h.241l.012.105.014.128.003.023h-.269v-.129l-.001.002zM567.392 376.458c0-.02.005-.08.01-.133l.01-.096h.246v.266h-.133c-.129 0-.133-.001-.133-.037z" fill="#F7F7F7"/><path vector-effect="non-scaling-stroke" stroke-width=".4" stroke="#000" d="M589.091 167.087h18.646"/><path d="M586.501 168.776a2.929 2.929 0 0 0 2.59-.685M589.091 170.52a6.474 6.474 0 0 0-2.59-.336M607.737 168.091a2.927 2.927 0 0 0 2.589.685M610.326 170.184a6.467 6.467 0 0 0-2.589.336" fill="none" vector-effect="non-scaling-stroke" stroke-width=".4" stroke="#000"/><path d="M588.331 170.16a5.47 5.47 0 0 0-1.039-.122l-.596-.008v-1.037l.643-.042c.456-.029.777-.108 1.105-.273l.461-.232v.925c0 .508-.029.919-.066.914a15.525 15.525 0 0 1-.508-.124v-.001zM607.909 169.362v-.944l.199.129c.366.236 1.065.422 1.589.422h.519l-.027.508-.026.508-.751.053c-.414.029-.851.081-.973.117-.577.17-.53.24-.53-.793z" fill="#F7F7F7"/><g><path d="M567.562 172.291l-.031-6.407 1.062-1.562-.031-1.688.844-1.593.281-.907.688-.25.687.063.406.125.375 1 .219 1.094.031.937v1l-.093.719.812.906v6.469l-.625.125-4.625-.031z" fill-rule="evenodd" fill="#FFF"/><path d="M572.181 165.886v6.43h-4.623v-6.404l.933-1.617h2.21l1.48 1.591z" fill="none" vector-effect="non-scaling-stroke" stroke-width=".3" stroke="#000" stroke-linejoin="round" stroke-linecap="square"/><path d="M568.557 172.184v-9.48l.774-1.547c.905-.425 1.673-.267 2.342.31l-.11 2.894" fill="none" vector-effect="non-scaling-stroke" stroke-width=".3" stroke="#000" stroke-linejoin="round" stroke-linecap="square"/><path vector-effect="non-scaling-stroke" stroke-width=".3" stroke="#000" stroke-linejoin="round" stroke-linecap="square" d="M570.602 164.339v7.845"/><path d="M570.679 164.317l.751-.022 1.37 1.481v6.469l-.629.061M570.745 164.273l.022-1.591.862-1.105" fill="none" vector-effect="non-scaling-stroke" stroke-width=".3" stroke="#000" stroke-linejoin="round" stroke-linecap="square"/><path d="M569.309 161.157l.397-.972c.494-.292 1.098-.289 1.768-.11.663 1.51.727 3.1.508 4.728" fill="none" vector-effect="non-scaling-stroke" stroke-width=".3" stroke="#000" stroke-linejoin="round" stroke-linecap="square"/><path d="M568.602 162.571c.811-.331 1.508-.278 2.143-.022" fill="none" vector-effect="non-scaling-stroke" stroke-width=".3" stroke="#000" stroke-linejoin="round" stroke-linecap="round"/><path d="M570.593 172.291l1.563-1.563"/><path vector-effect="non-scaling-stroke" stroke-width=".3" stroke="#000" stroke-linejoin="round" stroke-linecap="round" d="M570.593 172.291l1.531-1.688M569.187 172.291l2.906-3.688M572.124 166.728l-4.343 5.531M571.687 165.478l-4.094 5.25M570.906 164.541l-3.282 4.312M569.562 164.384l-1.992 2.555M569.874 172.228l-2.312-3.281M567.624 170.759l.969 1.532M571.422 172.241l-3.829-5.013M572.093 171.259l-4.375-5.562M572.156 169.353l-3.875-4.562M572.187 167.541l-2.813-3.188"/><g><path d="M586.796 172.291l.031-6.407-1.063-1.562.031-1.688-.843-1.593-.282-.907-.687-.25-.688.063-.406.125-.375 1-.219 1.094-.031.937v1l.094.719-.813.906v6.469l.625.125 4.626-.031z" fill-rule="evenodd" fill="#FFF"/><path d="M582.176 165.886v6.43h4.624v-6.404l-.933-1.617h-2.21l-1.481 1.591z" fill="none" vector-effect="non-scaling-stroke" stroke-width=".3" stroke="#000" stroke-linejoin="round" stroke-linecap="square"/><path d="M585.8 172.184v-9.48l-.773-1.547c-.905-.425-1.673-.267-2.342.31l.11 2.894" fill="none" vector-effect="non-scaling-stroke" stroke-width=".3" stroke="#000" stroke-linejoin="round" stroke-linecap="square"/><path vector-effect="non-scaling-stroke" stroke-width=".3" stroke="#000" stroke-linejoin="round" stroke-linecap="square" d="M583.756 164.339v7.845"/><path d="M583.679 164.317l-.751-.022-1.37 1.481v6.469l.628.061M583.613 164.273l-.022-1.591-.862-1.105" fill="none" vector-effect="non-scaling-stroke" stroke-width=".3" stroke="#000" stroke-linejoin="round" stroke-linecap="square"/><path d="M585.049 161.157l-.398-.972c-.493-.292-1.098-.289-1.768-.11-.662 1.51-.726 3.1-.508 4.728" fill="none" vector-effect="non-scaling-stroke" stroke-width=".3" stroke="#000" stroke-linejoin="round" stroke-linecap="square"/><path d="M585.756 162.571c-.812-.331-1.508-.278-2.143-.022" fill="none" vector-effect="non-scaling-stroke" stroke-width=".3" stroke="#000" stroke-linejoin="round" stroke-linecap="round"/><path d="M583.764 172.291l-1.562-1.563"/><path vector-effect="non-scaling-stroke" stroke-width=".3" stroke="#000" stroke-linejoin="round" stroke-linecap="round" d="M583.764 172.291l-1.531-1.688M585.171 172.291l-2.907-3.688M582.233 166.728l4.344 5.531M582.671 165.478l4.093 5.25M583.452 164.541l3.281 4.312M584.796 164.384l1.992 2.555M584.483 172.228l2.313-3.281M586.733 170.759l-.969 1.532M582.935 172.241l3.829-5.013M582.264 171.259l4.375-5.562M582.202 169.353l3.875-4.562M582.171 167.541l2.812-3.188"/></g></g><g><path d="M588.795 172.291l-.031-6.407 1.062-1.562-.031-1.688.844-1.593.281-.907.688-.25.687.063.406.125.375 1 .219 1.094.031.937v1l-.093.719.812.906v6.469l-.625.125-4.625-.031z" fill-rule="evenodd" fill="#FFF"/><path d="M593.414 165.886v6.43h-4.623v-6.404l.933-1.617h2.21l1.48 1.591z" fill="none" vector-effect="non-scaling-stroke" stroke-width=".3" stroke="#000" stroke-linejoin="round" stroke-linecap="square"/><path d="M589.79 172.184v-9.48l.774-1.547c.905-.425 1.673-.267 2.342.31l-.11 2.894" fill="none" vector-effect="non-scaling-stroke" stroke-width=".3" stroke="#000" stroke-linejoin="round" stroke-linecap="square"/><path vector-effect="non-scaling-stroke" stroke-width=".3" stroke="#000" stroke-linejoin="round" stroke-linecap="square" d="M591.835 164.339v7.845"/><path d="M591.912 164.317l.751-.022 1.37 1.481v6.469l-.629.061M591.978 164.273l.022-1.591.862-1.105" fill="none" vector-effect="non-scaling-stroke" stroke-width=".3" stroke="#000" stroke-linejoin="round" stroke-linecap="square"/><path d="M590.542 161.157l.398-.972c.493-.292 1.097-.289 1.767-.11.663 1.51.727 3.1.509 4.728" fill="none" vector-effect="non-scaling-stroke" stroke-width=".3" stroke="#000" stroke-linejoin="round" stroke-linecap="square"/><path d="M589.835 162.571c.811-.331 1.508-.278 2.143-.022" fill="none" vector-effect="non-scaling-stroke" stroke-width=".3" stroke="#000" stroke-linejoin="round" stroke-linecap="round"/><path d="M591.826 172.291l1.563-1.563"/><path vector-effect="non-scaling-stroke" stroke-width=".3" stroke="#000" stroke-linejoin="round" stroke-linecap="round" d="M591.826 172.291l1.532-1.688M590.42 172.291l2.906-3.688M593.358 166.728l-4.344 5.531M592.92 165.478l-4.094 5.25M592.139 164.541l-3.281 4.312M590.795 164.384l-1.992 2.555M591.108 172.228l-2.313-3.281M588.858 170.759l.968 1.532M592.656 172.241l-3.83-5.013M593.326 171.259l-4.375-5.562M593.389 169.353l-3.875-4.562M593.42 167.541l-2.812-3.188"/><g><path d="M608.029 172.291l.031-6.407-1.063-1.562.032-1.688-.844-1.593-.281-.907-.688-.25-.687.063-.407.125-.375 1-.218 1.094-.032.937v1l.094.719-.812.906v6.469l.625.125 4.625-.031z" fill-rule="evenodd" fill="#FFF"/><path d="M603.409 165.886v6.43h4.624v-6.404l-.933-1.617h-2.21l-1.481 1.591z" fill="none" vector-effect="non-scaling-stroke" stroke-width=".3" stroke="#000" stroke-linejoin="round" stroke-linecap="square"/><path d="M607.033 172.184v-9.48l-.773-1.547c-.905-.425-1.673-.267-2.342.31l.11 2.894" fill="none" vector-effect="non-scaling-stroke" stroke-width=".3" stroke="#000" stroke-linejoin="round" stroke-linecap="square"/><path vector-effect="non-scaling-stroke" stroke-width=".3" stroke="#000" stroke-linejoin="round" stroke-linecap="square" d="M604.989 164.339v7.845"/><path d="M604.912 164.317l-.751-.022-1.37 1.481v6.469l.628.061M604.846 164.273l-.022-1.591-.862-1.105" fill="none" vector-effect="non-scaling-stroke" stroke-width=".3" stroke="#000" stroke-linejoin="round" stroke-linecap="square"/><path d="M606.282 161.157l-.398-.972c-.493-.292-1.098-.289-1.767-.11-.663 1.51-.727 3.1-.509 4.728" fill="none" vector-effect="non-scaling-stroke" stroke-width=".3" stroke="#000" stroke-linejoin="round" stroke-linecap="square"/><path d="M606.989 162.571c-.811-.331-1.508-.278-2.143-.022" fill="none" vector-effect="non-scaling-stroke" stroke-width=".3" stroke="#000" stroke-linejoin="round" stroke-linecap="round"/><path d="M604.997 172.291l-1.562-1.563"/><path vector-effect="non-scaling-stroke" stroke-width=".3" stroke="#000" stroke-linejoin="round" stroke-linecap="round" d="M604.997 172.291l-1.531-1.688M606.404 172.291l-2.907-3.688M603.466 166.728l4.344 5.531M603.904 165.478l4.093 5.25M604.685 164.541l3.281 4.312M606.029 164.384l1.992 2.555M605.716 172.228l2.313-3.281M607.966 170.759l-.969 1.532M604.168 172.241l3.829-5.013M603.497 171.259l4.375-5.562M603.435 169.353l3.875-4.562M603.404 167.541l2.812-3.188"/></g></g><g><path d="M609.995 172.291l-.031-6.407 1.062-1.562-.031-1.688.844-1.593.281-.907.688-.25.687.063.406.125.375 1 .219 1.094.031.937v1l-.093.719.812.906v6.469l-.625.125-4.625-.031z" fill-rule="evenodd" fill="#FFF"/><path d="M614.614 165.886v6.43h-4.623v-6.404l.933-1.617h2.21l1.48 1.591z" fill="none" vector-effect="non-scaling-stroke" stroke-width=".3" stroke="#000" stroke-linejoin="round" stroke-linecap="square"/><path d="M610.99 172.184v-9.48l.774-1.547c.905-.425 1.673-.267 2.342.31l-.11 2.894" fill="none" vector-effect="non-scaling-stroke" stroke-width=".3" stroke="#000" stroke-linejoin="round" stroke-linecap="square"/><path vector-effect="non-scaling-stroke" stroke-width=".3" stroke="#000" stroke-linejoin="round" stroke-linecap="square" d="M613.035 164.339v7.845"/><path d="M613.112 164.317l.751-.022 1.37 1.481v6.469l-.629.061M613.178 164.273l.022-1.591.862-1.105" fill="none" vector-effect="non-scaling-stroke" stroke-width=".3" stroke="#000" stroke-linejoin="round" stroke-linecap="square"/><path d="M611.742 161.157l.398-.972c.493-.292 1.097-.289 1.767-.11.663 1.51.727 3.1.509 4.728" fill="none" vector-effect="non-scaling-stroke" stroke-width=".3" stroke="#000" stroke-linejoin="round" stroke-linecap="square"/><path d="M611.035 162.571c.811-.331 1.508-.278 2.143-.022" fill="none" vector-effect="non-scaling-stroke" stroke-width=".3" stroke="#000" stroke-linejoin="round" stroke-linecap="round"/><path d="M613.026 172.291l1.563-1.563"/><path vector-effect="non-scaling-stroke" stroke-width=".3" stroke="#000" stroke-linejoin="round" stroke-linecap="round" d="M613.026 172.291l1.532-1.688M611.62 172.291l2.906-3.688M614.558 166.728l-4.344 5.531M614.12 165.478l-4.094 5.25M613.339 164.541l-3.281 4.312M611.995 164.384l-1.992 2.555M612.308 172.228l-2.313-3.281M610.058 170.759l.968 1.532M613.856 172.241l-3.83-5.013M614.526 171.259l-4.375-5.562M614.589 169.353l-3.875-4.562M614.62 167.541l-2.812-3.188"/><g><path d="M629.229 172.291l.031-6.407-1.063-1.562.032-1.688-.844-1.593-.281-.907-.688-.25-.687.063-.407.125-.375 1-.218 1.094-.032.937v1l.094.719-.812.906v6.469l.625.125 4.625-.031z" fill-rule="evenodd" fill="#FFF"/><path d="M624.609 165.886v6.43h4.624v-6.404l-.933-1.617h-2.21l-1.481 1.591z" fill="none" vector-effect="non-scaling-stroke" stroke-width=".3" stroke="#000" stroke-linejoin="round" stroke-linecap="square"/><path d="M628.233 172.184v-9.48l-.773-1.547c-.905-.425-1.673-.267-2.342.31l.11 2.894" fill="none" vector-effect="non-scaling-stroke" stroke-width=".3" stroke="#000" stroke-linejoin="round" stroke-linecap="square"/><path vector-effect="non-scaling-stroke" stroke-width=".3" stroke="#000" stroke-linejoin="round" stroke-linecap="square" d="M626.189 164.339v7.845"/><path d="M626.112 164.317l-.751-.022-1.37 1.481v6.469l.628.061M626.046 164.273l-.022-1.591-.862-1.105" fill="none" vector-effect="non-scaling-stroke" stroke-width=".3" stroke="#000" stroke-linejoin="round" stroke-linecap="square"/><path d="M627.482 161.157l-.398-.972c-.493-.292-1.098-.289-1.767-.11-.663 1.51-.727 3.1-.509 4.728" fill="none" vector-effect="non-scaling-stroke" stroke-width=".3" stroke="#000" stroke-linejoin="round" stroke-linecap="square"/><path d="M628.189 162.571c-.811-.331-1.508-.278-2.143-.022" fill="none" vector-effect="non-scaling-stroke" stroke-width=".3" stroke="#000" stroke-linejoin="round" stroke-linecap="round"/><path d="M626.197 172.291l-1.562-1.563"/><path vector-effect="non-scaling-stroke" stroke-width=".3" stroke="#000" stroke-linejoin="round" stroke-linecap="round" d="M626.197 172.291l-1.531-1.688M627.604 172.291l-2.907-3.688M624.666 166.728l4.344 5.531M625.104 165.478l4.093 5.25M625.885 164.541l3.281 4.312M627.229 164.384l1.992 2.555M626.916 172.228l2.313-3.281M629.166 170.759l-.969 1.532M625.368 172.241l3.829-5.013M624.697 171.259l4.375-5.562M624.635 169.353l3.875-4.562M624.604 167.541l2.812-3.188"/></g></g><g><path d="M599.821 313.675h-3.868l-.144.107v3.441h1.071v-1.29l.102-.092h2.839c.717 0 1.053-.193 1.053-.688v-.79c0-.495-.336-.688-1.053-.688m0 1.272c0 .233-.154.281-.49.281h-2.337l-.114-.11v-.738l.102-.093h2.349c.336 0 .49.048.49.282v.378zM597.581 321.501l.921 1.35-.051.131h-2.038l-.52.64h3.033l.211.128.471.65h1.225l-2.686-3.594" fill="#005288"/><g fill="#005288"><path d="M597.008 339.431v-.955l.11-.095h2.051v-.608h-3.25v2.357h4.793v-.605h-3.589M595.919 336.581h4.844v.669h-4.844z"/></g><path d="M596.992 329.181h3.902c-.06-.496-.368-.634-1.149-.634h-2.794c-.882 0-1.163.172-1.163.839v1.872c0 .667.281.839 1.163.839h2.794c.793 0 1.096-.149 1.117-.663h-3.87l-.115-.108v-2.072M599.779 306.881h-2.839l-.083-.092v-.607l.083-.065h3.827l.052-.128c-.13-.335-.468-.491-1.095-.491h-2.658c-.881 0-1.162.172-1.162.839v.392c0 .668.281.839 1.162.839h2.832l.089.079v.634l-.072.099h-3.24v-.003h-.849s-.097.049-.093.072c.072.466.39.599 1.151.599h2.895c.881 0 1.171-.172 1.171-.84v-.489c0-.666-.29-.838-1.171-.838M597.046 344.809h-1.593l-.087.165 1.77 1.29c.335-.194.7-.391 1.097-.585M598.474 347.239l1.555 1.134h1.613l.067-.15-2.322-1.7c-.309.226-.614.466-.913.716" fill="#005288"/><path d="M596.809 348.371h-1.442l-.121-.191c.98-.947 5.456-4.504 11.282-4.956 0 0-5.097.566-9.719 5.147" fill="#A7A9AC"/></g><g><path fill="#B22234" d="M593.812 155.476h9.199v5.17h-9.199z"/><path d="M593.812 156.073h9.199m0 .796h-9.199m0 .795h9.199m0 .795h-9.199m0 .796h9.199m0 .795h-9.199" vector-effect="non-scaling-stroke" stroke-width=".385" stroke="#FFF"/><path fill="#3C3B6E" d="M593.812 155.476h3.68v2.784h-3.68z"/><g fill="#FFF"><path d="M594.119 155.596l.088.288-.23-.178h.284l-.229.178.087-.288z"/><path d="M594.119 155.596l.088.288-.23-.178h.284l-.229.178.087-.288z"/><path d="M594.119 155.596l.088.288-.23-.178h.284l-.229.178.087-.288z"/><path d="M594.119 155.596l.088.288-.23-.178h.284l-.229.178.087-.288z"/><path d="M594.119 155.596l.088.288-.23-.178h.284l-.229.178.087-.288z"/><g><path d="M594.119 155.596l.088.288-.23-.178h.284l-.229.178.087-.288z"/><path d="M594.119 155.596l.088.288-.23-.178h.284l-.229.178.087-.288z"/><path d="M594.119 155.596l.088.288-.23-.178h.284l-.229.178.087-.288z"/><path d="M594.119 155.596l.088.288-.23-.178h.284l-.229.178.087-.288z"/></g><g><path d="M594.119 155.596l.088.288-.23-.178h.284l-.229.178.087-.288z"/><path d="M594.119 155.596l.088.288-.23-.178h.284l-.229.178.087-.288z"/><path d="M594.119 155.596l.088.288-.23-.178h.284l-.229.178.087-.288z"/><path d="M594.119 155.596l.088.288-.23-.178h.284l-.229.178.087-.288z"/><path d="M594.119 155.596l.088.288-.23-.178h.284l-.229.178.087-.288z"/><g><path d="M594.119 155.596l.088.288-.23-.178h.284l-.229.178.087-.288z"/><path d="M594.119 155.596l.088.288-.23-.178h.284l-.229.178.087-.288z"/><path d="M594.119 155.596l.088.288-.23-.178h.284l-.229.178.087-.288z"/><path d="M594.119 155.596l.088.288-.23-.178h.284l-.229.178.087-.288z"/></g></g><g><path d="M594.119 155.596l.088.288-.23-.178h.284l-.229.178.087-.288z"/><path d="M594.119 155.596l.088.288-.23-.178h.284l-.229.178.087-.288z"/><path d="M594.119 155.596l.088.288-.23-.178h.284l-.229.178.087-.288z"/><path d="M594.119 155.596l.088.288-.23-.178h.284l-.229.178.087-.288z"/><path d="M594.119 155.596l.088.288-.23-.178h.284l-.229.178.087-.288z"/><g><path d="M594.119 155.596l.088.288-.23-.178h.284l-.229.178.087-.288z"/><path d="M594.119 155.596l.088.288-.23-.178h.284l-.229.178.087-.288z"/><path d="M594.119 155.596l.088.288-.23-.178h.284l-.229.178.087-.288z"/><path d="M594.119 155.596l.088.288-.23-.178h.284l-.229.178.087-.288z"/></g><g><path d="M594.119 155.596l.088.288-.23-.178h.284l-.229.178.087-.288z"/><path d="M594.119 155.596l.088.288-.23-.178h.284l-.229.178.087-.288z"/><path d="M594.119 155.596l.088.288-.23-.178h.284l-.229.178.087-.288z"/><path d="M594.119 155.596l.088.288-.23-.178h.284l-.229.178.087-.288z"/><path d="M594.119 155.596l.088.288-.23-.178h.284l-.229.178.087-.288z"/><g><path d="M594.119 155.596l.088.288-.23-.178h.284l-.229.178.087-.288z"/><path d="M594.119 155.596l.088.288-.23-.178h.284l-.229.178.087-.288z"/><path d="M594.119 155.596l.088.288-.23-.178h.284l-.229.178.087-.288z"/><path d="M594.119 155.596l.088.288-.23-.178h.284l-.229.178.087-.288z"/></g></g></g><g><path d="M594.119 155.596l.088.288-.23-.178h.284l-.229.178.087-.288z"/><path d="M594.119 155.596l.088.288-.23-.178h.284l-.229.178.087-.288z"/><path d="M594.119 155.596l.088.288-.23-.178h.284l-.229.178.087-.288z"/><path d="M594.119 155.596l.088.288-.23-.178h.284l-.229.178.087-.288z"/><path d="M594.119 155.596l.088.288-.23-.178h.284l-.229.178.087-.288z"/><g><path d="M594.119 155.596l.088.288-.23-.178h.284l-.229.178.087-.288z"/><path d="M594.119 155.596l.088.288-.23-.178h.284l-.229.178.087-.288z"/><path d="M594.119 155.596l.088.288-.23-.178h.284l-.229.178.087-.288z"/><path d="M594.119 155.596l.088.288-.23-.178h.284l-.229.178.087-.288z"/></g></g><g><path d="M594.119 155.596l.088.288-.23-.178h.284l-.229.178.087-.288z"/><path d="M594.119 155.596l.088.288-.23-.178h.284l-.229.178.087-.288z"/><path d="M594.119 155.596l.088.288-.23-.178h.284l-.229.178.087-.288z"/><path d="M594.119 155.596l.088.288-.23-.178h.284l-.229.178.087-.288z"/><path d="M594.119 155.596l.088.288-.23-.178h.284l-.229.178.087-.288z"/></g></g><g fill-rule="evenodd" fill="#A80126"><path d="M596.774 147.738c.308-.164.617-.325.941-.452-3.67-1.931-3.876-3.383-4.63-4.911.581 1.769 1.066 3.536 3.689 5.363z"/><path d="M594.862 144.839c1.398 1.17 2.612 2.003 3.508 2.257.885-.473 3.814-.729 3.751-.063-.641-.316-1.022-.166-1.385-.049.182-.003.665-.056.81-.005-.059.071-.123.102-.189.142.237.051.461.119.647.231.121-.012.2-.009.237.029-.124.032-.272.19-.345.297.814.024 1.681.015 1.772.874.257-.76-.202-1.156-1.097-1.328-.118-.261-.307-.483-.49-.734-2.447-.137-4.89-.303-7.219-1.651z"/></g><g fill-rule="evenodd"><path d="M594.194 152.675v-3.75h4.094c-.12.145-.245.28-.407.343h-2.656v.969h2.25c-.075.098-.112.186-.406.344h-1.844v1.25c-.22.288-.354.58-1.031.844zM600.881 150.565h-1.125v1.625h-1.078v-3.234h1.078v1.265h1.485c-.046.091-.128.192-.36.344zM602.63 152.673v-3.69h-.939v2.829c.232.379.502.715.939.861z"/></g><g><text transform="translate(594.119 174.422)" font-family="Open Sans" font-weight="400" font-size="0">FALCON HEAVY</text></g></g></svg>