<svg xmlns="http://www.w3.org/2000/svg" style="isolation:isolate" viewBox="22.698 86.202 22.994 39.489" width="22.994" height="39.489">
  <path fill="#FFF" d="M24.765 107.564h18.667v15.783H24.765z"/>
  <g opacity=".03365383">
    <linearGradient id="a" x1="33.86441999%" y1="23.17125313%" x2="82.33803204%" y2="23.17125313%">
      <stop offset="0%"/>
      <stop offset="100%" stop-opacity="0"/>
    </linearGradient>
    <path fill="url(#a)" d="M24.95 107.609h9.406v15.724H24.95z"/>
  </g>
  <g opacity=".03365383">
    <linearGradient id="b" x1="33.86436314%" y1="23.17125162%" x2="82.33797734%" y2="23.17125162%">
      <stop offset="0%"/>
      <stop offset="100%" stop-opacity="0"/>
    </linearGradient>
    <path fill="url(#b)" d="M34.216 107.606h9.268v15.719h-9.268z"/>
  </g>
  <radialGradient id="c" fx="50.14952875%" fy="43.3128271%" r="196.13137091%" gradientTransform="rotate(-7)">
    <stop offset="0%" stop-color="#F9F9F9"/>
    <stop offset="100%" stop-color="#F9F9F9"/>
  </radialGradient>
  <path d="M44.28 107.444l.012-.138.003-.14-.007-.139-.016-.138-.115-.45-.267-.967-.266-.968-.266-.968-.267-.967-.266-.968-.266-.968-.267-.967-.266-.968-.266-.968-.267-.968-.266-.967-.267-.968-.266-.968-.266-.967-.078-.243-.065-.179-.072-.189-.079-.197-.085-.205-.092-.21-.098-.214-.104-.217-.11-.219-.116-.219-.12-.217-.126-.215-.131-.211-.136-.206-.14-.199-.145-.192-.149-.184-.152-.177-.156-.169-.158-.162-.162-.155-.163-.148-.166-.141-.168-.133-.169-.127-.171-.12-.171-.113-.172-.106-.171-.099-.172-.092-.172-.086-.172-.08-.171-.073-.17-.066-.171-.061-.169-.054-.17-.048-.168-.042-.168-.036-.167-.031-.166-.024-.165-.019-.164-.014h-.164l-.164.014-.165.019-.166.024-.167.031-.168.036-.169.042-.169.048-.17.054-.17.061-.171.066-.171.073-.171.08-.172.086-.172.092-.172.099-.171.106-.172.113-.17.12-.169.127-.168.133-.166.141-.164.148-.161.155-.159.162-.155.169-.153.177-.148.184-.145.192-.14.199-.136.206-.131.211-.126.215-.121.217-.115.219-.11.219-.104.217-.098.214-.092.21-.086.205-.078.197-.073.189-.065.179-.077.243-.266.967-.267.968-.266.968-.266.967-.267.968-.266.968-.266.968-.267.967-.266.968-.266.968-.267.967-.266.968-.267.968-.266.967-.115.45-.017.138-.007.139.003.14.012.138" fill="url(#c)"/>
  <path d="M25.739 108.532c0-.033-.047-.078-.145-.138-.08-.049-.186-.135-.235-.19-.101-.113-.215-.379-.245-.569-.034-.221-.063-.278-.167-.335-.194-.107-.39-.145-.672-.132l-.264.013.007-.1.007-.101h20.152l.007.101.007.1-.265-.013c-.282-.013-.477.025-.671.132-.105.057-.133.114-.168.335-.03.19-.144.456-.244.569-.05.055-.156.141-.236.19-.097.06-.145.105-.145.138 0 .048-.35.05-8.361.05-8.011 0-8.361-.002-8.361-.05h-.001z" fill="#ECECEC"/>
  <linearGradient id="d" x1="-8.86936545%" y1="49.99990317%" x2="108.87025243%" y2="49.99990317%">
    <stop offset="0%" stop-color="#FFF"/>
    <stop offset="100%" stop-color="#F2F2F2"/>
  </linearGradient>
  <path d="M42.598 108.315V123.983l.044.906.262-.177.248-.182.232-.184.217-.185.202-.184.185-.181.169-.176.151-.17.134-.162.116-.151.098-.139.08-.126.06-.111.041-.092.016-.378V108.451l-.021-.532-.046-.066-.05-.065-.056-.062-.061-.06-.066-.056-.071-.052-.074-.048-.079-.042-.081-.038-.085-.031-.086-.026-.088-.02-.089-.013-.089-.007-.088-.001-.088.005-.085.012-.083.016-.081.022-.078.026-.074.03-.022.056-.009.064-.013.064-.018.065-.022.063-.027.062-.031.061-.036.059-.039.056-.044.053-.046.05-.05.047-.052.043-.055.038-.056.035-.058.03-.058.026z" fill="url(#d)"/>
  <linearGradient id="e" x1="-8.87025243%" y1="49.99990317%" x2="108.86980894%" y2="49.99990317%">
    <stop offset="0%" stop-color="#ECECEC"/>
    <stop offset="100%" stop-color="#FFF"/>
  </linearGradient>
  <path d="M25.713 108.315V123.983l-.044.906-.262-.177-.247-.182-.233-.184-.217-.185-.201-.184-.186-.181-.168-.176-.152-.17-.134-.162-.116-.151-.098-.139-.079-.126-.061-.111-.04-.092-.016-.378V108.451l.02-.532.046-.066.051-.065.056-.062.061-.06.066-.056.07-.052.075-.048.078-.042.082-.038.084-.031.087-.026.088-.02.088-.013.089-.007.089-.001.087.005.085.012.084.016.08.022.078.026.074.03.022.056.009.064.014.064.017.065.023.063.026.062.032.061.035.059.04.056.043.053.046.05.05.047.052.043.055.038.056.035.058.03.058.026z" fill="url(#e)"/>
  <path vector-effect="non-scaling-stroke" stroke-width=".4" stroke="#000" d="M25.753 123.446h16.885M25.753 108.466h16.885M24.095 106.805h20.201M27.948 92.803h12.495"/>
  <path d="M42.638 108.317v15.668l.044.906.262-.177.248-.182.232-.184.217-.185.202-.184.185-.181.168-.176.152-.17.134-.162.116-.151.098-.14.08-.125.06-.111.04-.093.017-.377v-13.84l-.021-.532-.046-.066-.051-.065-.056-.062-.061-.06-.065-.056-.071-.052-.074-.048-.079-.042-.082-.038-.084-.032-.086-.025-.088-.02-.089-.013-.089-.007-.089-.001-.087.005-.085.011-.084.017-.08.022-.078.026-.074.03-.022.056-.009.064-.014.064-.017.064-.023.064-.026.062-.032.061-.035.059-.04.056-.043.053-.046.05-.05.047-.052.043-.055.038-.056.035-.058.03-.058.026zM25.753 108.317v15.668l-.044.906-.262-.177-.248-.182-.232-.184-.217-.185-.202-.184-.185-.181-.168-.176-.152-.17-.134-.162-.116-.151-.098-.14-.08-.125-.06-.111-.04-.093-.017-.377v-13.84l.021-.532.046-.066.051-.065.056-.062.061-.06.065-.056.071-.052.074-.048.079-.042.081-.038.085-.032.086-.025.088-.02.089-.013.089-.007.088-.001.088.005.085.011.084.017.08.022.078.026.074.03.022.056.009.064.014.064.017.064.023.064.026.062.032.061.035.059.039.056.044.053.046.05.05.047.052.043.055.038.056.035.058.03.058.026z" fill="none" vector-effect="non-scaling-stroke" stroke-width=".4" stroke="#000"/>
  <path d="M44.32 107.446l.012-.138.003-.14-.007-.139-.016-.139-.116-.449-.266-.967-.266-.968-.267-.968-.266-.967-.266-.968-.267-.968-.266-.968-.266-.967-.267-.968-.266-.968-.266-.967-.267-.968-.266-.968-.266-.967-.078-.243-.065-.179-.072-.189-.079-.197-.085-.205-.092-.21-.098-.214-.104-.217-.11-.219-.116-.219-.121-.217-.126-.215-.131-.211-.135-.206-.141-.199-.144-.192-.149-.184-.152-.177-.156-.169-.158-.162-.162-.155-.164-.148-.166-.141-.167-.134-.169-.126-.171-.12-.171-.113-.172-.106-.172-.099-.171-.093-.172-.085-.172-.08-.171-.073-.171-.066-.17-.061-.17-.054-.169-.048-.168-.042-.168-.036-.167-.031-.166-.024-.165-.019-.165-.014h-.163l-.164.014-.165.019-.166.024-.167.031-.168.036-.169.042-.169.048-.17.054-.17.061-.171.066-.171.073-.171.08-.172.085-.172.093-.172.099-.172.106-.171.113-.17.12-.169.126-.168.134-.166.141-.164.148-.161.155-.159.162-.155.169-.153.177-.148.184-.145.192-.14.199-.136.206-.131.211-.126.215-.121.217-.115.219-.11.219-.104.217-.098.214-.092.21-.086.205-.079.197-.072.189-.065.179-.077.243-.266.967-.267.968-.266.968-.266.967-.267.968-.266.968-.266.967-.267.968-.266.968-.266.968-.267.967-.266.968-.267.968-.266.967-.115.449-.017.139-.007.139.003.14.012.138" fill="none" vector-effect="non-scaling-stroke" stroke-width=".4" stroke="#000"/>
  <g fill-rule="evenodd">
    <path d="M33.543 116.675l.297-.01-.016-.781c-.374-.247-.671-.252-1.009 0l-.005.781h.305l-.016-.468.166-.005c.04-.02.074-.09.091-.117l-.263.005.005-.219c.198-.126.434.002.434.002s.009.602.011.812zM37.193 115.683c-.286.004-.631.181-.629.517.003.671 1.248.705 1.248 0 .001-.353-.332-.522-.619-.517zm.003.085c.17-.002.336.13.337.432.003.576-.684.589-.689 0-.002-.295.182-.43.352-.432zM39.057 116.699l-.292-.002v-.892c.076-.031.259-.097.29-.104v.027c.399-.019.613.037.73.141l.006.821-.292.003-.002-.788c-.094-.087-.141-.099-.445-.079 0 0 .004.599.005.873zM28.723 115.673v1.027l.427.003c.944-.007.903-1.014-.005-1.026l-.422-.004zm.275.09l.205.004c.48.03.387.833.006.846h-.204l-.007-.85zM31.113 116.719l-.29-.003.005-1.019s.377-.022.678-.008c0 0 .155.007.272.062.003.17-.002.359-.002.359-.011.069-.237.044-.248.072.011.038.262.001.262.085l.001.454s-.224-.001-.285-.048c-.005-.133-.002-.429-.002-.429l-.151-.008c-.036-.016-.098-.078-.111-.112l.261.004.003-.347c-.183-.027-.23-.03-.403-.002l.01.94zM35.177 116.136l.509.005.005.5c-.389.048-.591.066-.956 0v-.923c.329-.077.606-.039.962.005l-.005.2h-.261v-.144c-.158-.055-.252-.046-.422-.01l-.011.826c.182.036.265.045.439 0v-.399h-.209c-.023-.011-.036-.023-.051-.06z"/>
    <g fill="#00006D">
      <path d="M34.84 110.887c-.009 0-.02.009-.017.02.195.362.263.569.184.625-.134.094-.175-.312-.34-.328-.056-.006-.083.077-.125.066-.053-.014-.032-.158-.112-.159-.146-.002-.13.122-.333.185-.219.069-.669.004-1.143-.178.01.035.153.1.407.24.254.141.692.381.878.351-.002.027-.005.037-.013.055-.188.02-.365.088-.492.18-.36.26-.645.171-1.12.098.231.117.618.285.996.206.184-.039.335-.218.455-.167-1.92 1.115-.637 2.639.432 2.435-.753-.373-1.024-1.293-.378-2.037.03.023.083.029.123.036-.031.044-.068.064-.054.105.018.054.059.094.13.102.043.005.049-.236.109-.281-.032.443.362.593.795.728.166.052.153.15.178.154.018.003.036.014.06.005.032-.012-.116-.185-.188-.231-.188-.119-.361-.139-.386-.215-.021-.061.19-.048.274.021.294.245.308.447.533.45.145.002.14-.259.108-.471-.126-.098-.177-.246-.057-.25-.073-.175-.181-.329-.267-.459-.027-.041.039-.094.028-.136-.02-.075-.056-.079-.077-.201-.049-.281-.065-.523-.579-.946-.002-.002-.005-.003-.009-.003zm-.101 1.406c.017 0 .04.005.057.011.077.028.138.085.169.122.053.062-.088-.072-.185-.09-.022-.004-.041 0-.043-.016-.002-.009-.026-.014-.02-.021.003-.004.011-.006.022-.006zm-.131.031c.062.105.164.155.181.176-.01.007-.122-.038-.145-.078-.008-.013-.047-.047-.036-.098zm.193.047c.015-.001.032.015.039.017.039.011.095.076.038.122-.015.007-.048.004-.071-.021-.027-.03-.035-.075-.036-.11.001-.005.014-.007.03-.008zM29.682 117.695l1.031-.087c.494.762 1.353 1.198 2.266 1.188.967-.011 1.3-.129 2.542-.706.834-.387 1.806-.699 2.485-.69.97.012 1.192.61 1.188.993-.012 1.104-.987 1.681-2.078 1.659-.824-.017-1.258-.219-1.493-.436-.028-.026.002-.048.04-.023.196.131.812.358 1.058.044 1.136.169 2.28-.15 2.242-1.225-.019-.535-.295-.789-.881-.769-.876.028-1.961.512-2.339.681-.545.244-1.652.9-2.768.936-1.321.043-2.342-.615-3.293-1.565zM27.786 116.885c-.37-.377-.968-1.327-.962-2.236.009-1.117.848-1.799 2.257-2.236.227-.07.497-.139.731-.17-.048.049-.045.061-.052.083-.306.061-.529.127-.632.16-1.306.407-2.079 1.079-2.08 2.194-.001.484.255 1.216.566 1.696.034.169.067.253.172.509zM40.634 116.738c.084-.197.106-.244.182-.54.366-.682.559-1.143.565-1.649.019-1.544-1.407-2.101-2.714-2.374-.025-.033-.036-.056-.054-.112 1.448.314 2.984.923 2.996 2.397.008.993-.567 1.775-.975 2.278z"/>
      <path d="M40.79 115.574c.983-2.134-1.358-3.303-2.599-3.281l.004.046c.312.045.719.302.739.401-.327-.242-.794-.427-1.16-.331-.323.085-.322.187-.701.357.025.164.004.278-.05.36-.33.505-.994.769-1.532.74.386.164.972.418 1.016.866.056-.077.123-.134.234-.219.442-.341.777.01 1.08.234-.335-.492-.149-.762.524-.382.246.139.276.197.569.357-.75-1.088-.302-1.163.332-1.15 1.281.026 1.621.955 1.544 2.002zM33.743 114.533c-.405-.178-.566-.419-.699-.699-1.852.053-1.574-.51-1.48-.685-.344-.083-.753-.292-.991-.374-.239-.081-.399-.095-1.031-.058.431-.068.926-.204 1.626.16.208.108.269.087.485.211-.07.668.717.652 1.359.661l-.032-.168c-.847.087-1.434-.057-1.144-.548-.026-.014-.213-.009-.129-.049.025-.012.03-.012.033-.043-.389-.081-.611-.465-1.52-.478-.682-.011-1.445.327-1.811.555-.632.395-1.312 1.216-.703 2.605-.219-.876.567-1.812 2.241-1.966.438-.04.526.087.331.343-.152.2-.369.466-.486.764.623-.399 1.474-.927 1.752.021.206-.392.64-.174 1.263-.108.26.028.601-.005.936-.144z"/>
      <path d="M35.342 113.712l-.21-.108c.809.094 1.601-.189 1.646-.855.039-.006.039.008.068.002.028-.007.012-.041-.028-.056-.039-.014-.089-.044-.045-.055.441-.111.673-.281 1.029-.341-.271.134-.617.415-.864.388-.034-.004-.049.008-.02.023s.079.024.077.047c-.003.034-.042.02-.072.046.03.268-.245.563-.599.743-.32.163-.6.193-.982.166zM35.645 115.316c.284-.089.656-.245.658-.535.003-.564-.896-.721-1.564-.975-.286-.108-.468-.165-.728-.415.111.272.237.522.726.727.606.255 1.577.53.908 1.198z"/>
      <path d="M33.996 113.04c.099.036.176.159.3.184.052.235.097.298.08.358-.167-.065-.397-.219-.38-.542zM34.29 113.132c.034-.083-.018-.227.029-.273.022-.02.186.05.157-.003-.222-.057-.285-.149-.332-.253-.047.088-.143.27-.119.356.024.087.165.142.265.173z"/>
    </g>
  </g>
  <g fill="#005288">
    <path d="M31.365 103.418h-1.261l-.046.035v1.121h.349v-.42l.033-.03h.925c.233 0 .343-.063.343-.224v-.257c-.001-.162-.11-.225-.343-.225m0 .415c0 .076-.051.092-.16.092h-.761l-.037-.037v-.24l.033-.03h.765c.109 0 .16.015.16.092v.123zM32.344 103.63l.3.44-.017.043h-.664l-.169.208h.988l.068.042.154.212h.399l-.875-1.171M36.313 104.347v-.311l.036-.031h.668v-.198h-1.059v.767h1.561v-.197H36.35M35.958 103.418h1.578v.218h-1.578zM34.198 103.625h1.271c-.019-.162-.119-.207-.374-.207h-.91c-.287 0-.379.056-.379.274v.609c0 .218.092.274.379.274h.91c.258 0 .357-.049.364-.217h-1.261l-.037-.035v-.675M29.21 103.869h-.925l-.027-.03v-.198l.027-.021h1.246l.017-.042c-.042-.109-.152-.16-.356-.16h-.866c-.287 0-.379.056-.379.274v.127c0 .218.092.274.379.274h.922l.029.025v.207l-.023.032h-1.056v-.001h-.276s-.032.016-.03.024c.023.152.127.195.375.195h.943c.286 0 .381-.056.381-.274v-.159c0-.217-.095-.273-.381-.273zM38.528 103.414h-.519l-.028.053.577.42c.109-.063.228-.127.357-.19M38.993 104.205l.507.37h.525l.022-.049-.756-.554c-.101.074-.2.152-.298.233"/>
    <path d="M38.451 104.574h-.469l-.04-.062c.319-.309 1.747-1.63 4.851-1.772 0 0-2.605.088-4.342 1.834z"/>
  </g>
</svg>
